M48
; DRILL file {KiCad 9.0.6} date 2026-02-01T23:45:30+0100
; FORMAT={-:-/ absolute / metric / decimal}
; #@! TF.CreationDate,2026-02-01T23:45:30+01:00
; #@! TF.GenerationSoftware,Kicad,Pcbnew,9.0.6
; #@! TF.FileFunction,Plated,1,6,PTH
FMAT,2
METRIC
; #@! TA.AperFunction,Plated,PTH,ViaDrill
T1C0.300
; #@! TA.AperFunction,Plated,PTH,ViaDrill
T2C0.350
; #@! TA.AperFunction,Plated,PTH,ViaDrill
T3C0.400
; #@! TA.AperFunction,Plated,PTH,ViaDrill
T4C0.500
; #@! TA.AperFunction,Plated,PTH,ViaDrill
T5C0.600
; #@! TA.AperFunction,Plated,PTH,ComponentDrill
T6C0.700
; #@! TA.AperFunction,Plated,PTH,ViaDrill
T7C1.500
%
G90
G05
T1
X166.8Y-102.5
X167.561Y-75.576
X171.255Y-75.511
X171.497Y-102.5
X172.713Y-109.612
X173.662Y-109.612
X174.097Y-82.0
X174.097Y-83.0
X174.097Y-84.0
X174.097Y-85.0
X174.097Y-86.0
X174.097Y-91.0
X174.097Y-92.0
X174.097Y-93.0
X174.097Y-94.0
X174.097Y-95.0
X174.097Y-98.0
X174.097Y-99.0
X174.097Y-100.0
X174.097Y-102.0
X174.612Y-109.612
X175.225Y-71.15
X175.559Y-114.881
X178.05Y-113.92
X178.052Y-114.88
X179.127Y-114.65
X179.653Y-76.358
X179.697Y-107.2
X180.2Y-114.65
X180.697Y-107.2
X181.35Y-114.65
X181.697Y-76.4
X181.697Y-107.2
X182.45Y-114.65
X182.697Y-76.4
X183.55Y-114.65
X185.7Y-114.65
X186.8Y-114.65
X189.662Y-88.0
X189.662Y-89.0
X194.21Y-73.91
X194.697Y-76.4
X195.697Y-76.4
X195.697Y-106.6
X198.697Y-76.4
X198.697Y-106.6
X200.023Y-88.0
X200.023Y-89.0
X204.297Y-81.0
X204.297Y-82.0
X204.297Y-84.0
X204.297Y-85.0
X204.297Y-91.0
X204.297Y-93.0
X204.297Y-99.0
X204.297Y-101.0
X206.18Y-77.22
X206.2Y-75.95
X206.988Y-79.928
X208.188Y-80.786
X209.188Y-80.786
X210.461Y-79.928
X211.661Y-80.786
X212.661Y-80.786
T2
X179.118Y-111.694
X180.218Y-111.694
X181.318Y-111.694
X182.418Y-111.694
X183.518Y-111.694
X184.618Y-111.694
X185.718Y-111.694
X186.818Y-111.694
T3
X167.446Y-78.469
X168.996Y-78.469
X171.115Y-78.404
X172.69Y-78.404
X176.318Y-103.319
X176.81Y-115.085
X178.423Y-67.612
X178.423Y-79.412
X180.963Y-67.612
X183.503Y-67.612
X188.268Y-103.969
X189.29Y-67.63
X192.11Y-72.23
T4
X175.663Y-73.512
X176.668Y-111.569
X183.503Y-79.412
X186.263Y-73.512
X203.675Y-72.125
X205.45Y-108.85
X206.625Y-72.125
X208.4Y-108.9
X208.881Y-102.822
X208.881Y-105.752
T5
X187.768Y-78.6
X189.823Y-114.435
T6
X166.917Y-82.5
X166.917Y-84.5
X166.917Y-86.5
X166.917Y-88.5
X166.917Y-90.5
X166.917Y-92.5
X166.917Y-94.5
X166.917Y-96.5
X166.917Y-98.5
X166.917Y-100.5
X171.087Y-82.5
X171.087Y-84.5
X171.087Y-86.5
X171.087Y-88.5
X171.087Y-90.5
X171.087Y-92.5
X171.087Y-94.5
X171.087Y-96.5
X171.087Y-98.5
X171.087Y-100.5
X207.307Y-82.5
X207.307Y-84.5
X207.307Y-86.5
X207.307Y-88.5
X207.307Y-90.5
X207.307Y-92.5
X207.307Y-94.5
X207.307Y-96.5
X207.307Y-98.5
X207.307Y-100.5
X211.477Y-82.5
X211.477Y-84.5
X211.477Y-86.5
X211.477Y-88.5
X211.477Y-90.5
X211.477Y-92.5
X211.477Y-94.5
X211.477Y-96.5
X211.477Y-98.5
X211.477Y-100.5
T7
X192.797Y-79.5
X192.797Y-85.5
X192.797Y-91.5
X192.797Y-97.5
X192.797Y-103.5
X193.097Y-114.2
X197.158Y-85.5
X197.158Y-91.5
X197.158Y-97.5
X197.197Y-68.8
X197.197Y-79.5
X197.197Y-103.5
X197.197Y-114.2
X201.297Y-68.8
M30
