%TF.GenerationSoftware,KiCad,Pcbnew,9.0.6*%
%TF.CreationDate,2026-02-01T23:45:28+01:00*%
%TF.ProjectId,gaia-lte,67616961-2d6c-4746-952e-6b696361645f,1.0*%
%TF.SameCoordinates,Original*%
%TF.FileFunction,Copper,L5,Inr*%
%TF.FilePolarity,Positive*%
%FSLAX46Y46*%
G04 Gerber Fmt 4.6, Leading zero omitted, Abs format (unit mm)*
G04 Created by KiCad (PCBNEW 9.0.6) date 2026-02-01 23:45:28*
%MOMM*%
%LPD*%
G01*
G04 APERTURE LIST*
%TA.AperFunction,ComponentPad*%
%ADD10R,2.580000X1.000000*%
%TD*%
%TA.AperFunction,ViaPad*%
%ADD11C,0.800000*%
%TD*%
%TA.AperFunction,ViaPad*%
%ADD12C,0.600000*%
%TD*%
%TA.AperFunction,ViaPad*%
%ADD13C,1.000000*%
%TD*%
%TA.AperFunction,ViaPad*%
%ADD14C,3.000000*%
%TD*%
%TA.AperFunction,ViaPad*%
%ADD15C,0.550000*%
%TD*%
%TA.AperFunction,ViaPad*%
%ADD16C,0.700000*%
%TD*%
%TA.AperFunction,ViaPad*%
%ADD17C,1.200000*%
%TD*%
%TA.AperFunction,ViaPad*%
%ADD18C,0.500000*%
%TD*%
G04 APERTURE END LIST*
D10*
%TO.N,GND*%
%TO.C,J6*%
X171086938Y-86500000D03*
X171086938Y-88500000D03*
X166916938Y-90500000D03*
X171086938Y-90500000D03*
X166916938Y-98500000D03*
X171086938Y-98500000D03*
X166916938Y-100500000D03*
X171086938Y-100500000D03*
%TD*%
%TO.N,GND*%
%TO.C,J7*%
X207306938Y-94500000D03*
X211476938Y-94500000D03*
X207306938Y-96500000D03*
X211476938Y-96500000D03*
%TD*%
D11*
%TO.N,GND*%
X176810000Y-115085000D03*
X171115000Y-78404500D03*
D12*
X186800000Y-114650000D03*
X204296938Y-99000000D03*
X185700000Y-114650000D03*
X182696938Y-76400000D03*
X212661000Y-80786000D03*
D13*
X206625000Y-72125000D03*
D12*
X174096938Y-102000000D03*
X179127430Y-114650000D03*
D13*
X175663000Y-73512000D03*
D12*
X195696938Y-106600000D03*
D13*
X205450000Y-108850000D03*
D12*
X198696938Y-76400000D03*
X175225000Y-71150000D03*
X209188000Y-80786000D03*
X206180000Y-77220000D03*
D13*
X208881000Y-105752000D03*
X208400000Y-108900000D03*
X208881000Y-102822000D03*
D14*
X192796938Y-103500000D03*
D12*
X180200000Y-114650000D03*
X194210000Y-73910000D03*
D14*
X192796938Y-97500000D03*
D12*
X174096938Y-91000000D03*
D14*
X192796938Y-79500000D03*
D15*
X175558606Y-114880534D03*
D12*
X171496938Y-102500000D03*
D13*
X203675000Y-72125000D03*
D12*
X195696938Y-76400000D03*
D11*
X176318000Y-103319000D03*
D13*
X176668000Y-111569000D03*
D12*
X174096938Y-86000000D03*
D15*
X178051599Y-114879525D03*
D12*
X173662500Y-109612500D03*
D11*
X188268000Y-103969000D03*
D12*
X181350000Y-114650000D03*
D16*
X184618000Y-111694000D03*
D14*
X192796938Y-91500000D03*
D17*
X189823000Y-114435000D03*
D12*
X174096938Y-82000000D03*
D11*
X192110000Y-72230000D03*
D13*
X186263000Y-73512000D03*
D12*
X166800000Y-102500000D03*
X174096938Y-83000000D03*
D14*
X201296938Y-68800000D03*
D12*
X204296938Y-82000000D03*
X179653000Y-76358000D03*
X204296938Y-85000000D03*
D11*
X189290000Y-67630000D03*
D12*
X204296938Y-101000000D03*
X198696938Y-106600000D03*
X194696938Y-76400000D03*
X174096938Y-95000000D03*
X181696938Y-76400000D03*
X206200000Y-75950000D03*
X204296938Y-84000000D03*
D14*
X192796938Y-85500000D03*
D13*
X183503000Y-79412000D03*
D11*
X167446000Y-78469000D03*
D12*
X183550000Y-114650000D03*
D14*
X193096938Y-114200000D03*
D12*
X182450000Y-114650000D03*
D11*
%TO.N,/USIM_VDD*%
X183503000Y-67612000D03*
D17*
X187768000Y-78600000D03*
D12*
%TO.N,/reset_input*%
X167561000Y-75576000D03*
X200023000Y-88000000D03*
X189662000Y-88000000D03*
%TO.N,Net-(U3-USB_DP)*%
X174096938Y-94000000D03*
%TO.N,Net-(U3-USB_DN)*%
X174096938Y-93000000D03*
D11*
%TO.N,/USIM_DATA*%
X178423000Y-79412000D03*
D12*
X174096938Y-98000000D03*
%TO.N,/USIM_CLK*%
X174096938Y-100000000D03*
D11*
X178423000Y-67612000D03*
D12*
%TO.N,/USIM_RESET*%
X174096938Y-99000000D03*
D11*
X180963000Y-67612000D03*
D12*
%TO.N,/SD_CMD*%
X179696938Y-107200000D03*
D16*
X181318000Y-111694000D03*
D12*
%TO.N,/SD_DAT0*%
X180696938Y-107200000D03*
D16*
X185718000Y-111694000D03*
D12*
%TO.N,/SD_DAT1*%
X181696938Y-107200000D03*
D16*
X186818000Y-111694000D03*
%TO.N,/SD_CLK*%
X183518000Y-111694000D03*
%TO.N,/SD_DAT2*%
X179118000Y-111694000D03*
%TO.N,/SD_DAT3*%
X180218000Y-111694000D03*
D12*
%TO.N,/pwrkey_input*%
X189662000Y-89000000D03*
X171255000Y-75511500D03*
X200023000Y-89000000D03*
D11*
%TO.N,Net-(U3-RESET)*%
X168996000Y-78469000D03*
D12*
X174096938Y-85000000D03*
D16*
%TO.N,+2V8*%
X182418000Y-111694000D03*
D15*
X178050000Y-113920000D03*
D14*
%TO.N,VBUS*%
X197157938Y-97500000D03*
X197157938Y-85500000D03*
D18*
X206988000Y-79928500D03*
D14*
X197196938Y-79500000D03*
X197196938Y-114200000D03*
D12*
X174612500Y-109612500D03*
D18*
X210461000Y-79928500D03*
D12*
X172712500Y-109612500D03*
D14*
X197196938Y-68800000D03*
X197196938Y-103500000D03*
X197157938Y-91500000D03*
D12*
X174096938Y-92000000D03*
D11*
%TO.N,Net-(U3-PWRKEY)*%
X172690000Y-78404500D03*
D12*
X174096938Y-84000000D03*
%TO.N,Net-(U3-NETLIGHT)*%
X204296938Y-91000000D03*
X208188000Y-80786000D03*
%TO.N,Net-(U3-STATUS)*%
X204296938Y-93000000D03*
X211661000Y-80786000D03*
%TO.N,Net-(U3-BOOT_CFG0)*%
X204296938Y-81000000D03*
%TD*%
%TA.AperFunction,Conductor*%
%TO.N,GND*%
G36*
X177584003Y-67020185D02*
G01*
X177629758Y-67072989D01*
X177639702Y-67142147D01*
X177626326Y-67182946D01*
X177624987Y-67185450D01*
X177557106Y-67349332D01*
X177557103Y-67349341D01*
X177522500Y-67523304D01*
X177522500Y-67700695D01*
X177557103Y-67874658D01*
X177557106Y-67874667D01*
X177624983Y-68038540D01*
X177624990Y-68038553D01*
X177723535Y-68186034D01*
X177723538Y-68186038D01*
X177848961Y-68311461D01*
X177848965Y-68311464D01*
X177996446Y-68410009D01*
X177996459Y-68410016D01*
X178119363Y-68460923D01*
X178160334Y-68477894D01*
X178160336Y-68477894D01*
X178160341Y-68477896D01*
X178334304Y-68512499D01*
X178334307Y-68512500D01*
X178334309Y-68512500D01*
X178511693Y-68512500D01*
X178511694Y-68512499D01*
X178569682Y-68500964D01*
X178685658Y-68477896D01*
X178685661Y-68477894D01*
X178685666Y-68477894D01*
X178849547Y-68410013D01*
X178997035Y-68311464D01*
X179122464Y-68186035D01*
X179221013Y-68038547D01*
X179288894Y-67874666D01*
X179323500Y-67700691D01*
X179323500Y-67523309D01*
X179323500Y-67523306D01*
X179323499Y-67523304D01*
X179288896Y-67349341D01*
X179288893Y-67349332D01*
X179221012Y-67185450D01*
X179219674Y-67182946D01*
X179219369Y-67181484D01*
X179218682Y-67179824D01*
X179218997Y-67179693D01*
X179205436Y-67114542D01*
X179230441Y-67049300D01*
X179286749Y-67007933D01*
X179329036Y-67000500D01*
X180056964Y-67000500D01*
X180124003Y-67020185D01*
X180169758Y-67072989D01*
X180179702Y-67142147D01*
X180166326Y-67182946D01*
X180164987Y-67185450D01*
X180097106Y-67349332D01*
X180097103Y-67349341D01*
X180062500Y-67523304D01*
X180062500Y-67700695D01*
X180097103Y-67874658D01*
X180097106Y-67874667D01*
X180164983Y-68038540D01*
X180164990Y-68038553D01*
X180263535Y-68186034D01*
X180263538Y-68186038D01*
X180388961Y-68311461D01*
X180388965Y-68311464D01*
X180536446Y-68410009D01*
X180536459Y-68410016D01*
X180659363Y-68460923D01*
X180700334Y-68477894D01*
X180700336Y-68477894D01*
X180700341Y-68477896D01*
X180874304Y-68512499D01*
X180874307Y-68512500D01*
X180874309Y-68512500D01*
X181051693Y-68512500D01*
X181051694Y-68512499D01*
X181109682Y-68500964D01*
X181225658Y-68477896D01*
X181225661Y-68477894D01*
X181225666Y-68477894D01*
X181389547Y-68410013D01*
X181537035Y-68311464D01*
X181662464Y-68186035D01*
X181761013Y-68038547D01*
X181828894Y-67874666D01*
X181863500Y-67700691D01*
X181863500Y-67523309D01*
X181863500Y-67523306D01*
X181863499Y-67523304D01*
X181828896Y-67349341D01*
X181828893Y-67349332D01*
X181761012Y-67185450D01*
X181759674Y-67182946D01*
X181759369Y-67181484D01*
X181758682Y-67179824D01*
X181758997Y-67179693D01*
X181745436Y-67114542D01*
X181770441Y-67049300D01*
X181826749Y-67007933D01*
X181869036Y-67000500D01*
X182596964Y-67000500D01*
X182664003Y-67020185D01*
X182709758Y-67072989D01*
X182719702Y-67142147D01*
X182706326Y-67182946D01*
X182704987Y-67185450D01*
X182637106Y-67349332D01*
X182637103Y-67349341D01*
X182602500Y-67523304D01*
X182602500Y-67700695D01*
X182637103Y-67874658D01*
X182637106Y-67874667D01*
X182704983Y-68038540D01*
X182704990Y-68038553D01*
X182803535Y-68186034D01*
X182803538Y-68186038D01*
X182928961Y-68311461D01*
X182928965Y-68311464D01*
X183076446Y-68410009D01*
X183076459Y-68410016D01*
X183199363Y-68460923D01*
X183240334Y-68477894D01*
X183240336Y-68477894D01*
X183240341Y-68477896D01*
X183414304Y-68512499D01*
X183414307Y-68512500D01*
X183414309Y-68512500D01*
X183591693Y-68512500D01*
X183591694Y-68512499D01*
X183649682Y-68500964D01*
X183765658Y-68477896D01*
X183765661Y-68477894D01*
X183765666Y-68477894D01*
X183929547Y-68410013D01*
X184077035Y-68311464D01*
X184202464Y-68186035D01*
X184301013Y-68038547D01*
X184368894Y-67874666D01*
X184403500Y-67700691D01*
X184403500Y-67523309D01*
X184403500Y-67523306D01*
X184403499Y-67523304D01*
X184368896Y-67349341D01*
X184368893Y-67349332D01*
X184301012Y-67185450D01*
X184299674Y-67182946D01*
X184299369Y-67181484D01*
X184298682Y-67179824D01*
X184298997Y-67179693D01*
X184285436Y-67114542D01*
X184310441Y-67049300D01*
X184366749Y-67007933D01*
X184409036Y-67000500D01*
X195890620Y-67000500D01*
X195957659Y-67020185D01*
X196003414Y-67072989D01*
X196013358Y-67142147D01*
X195984333Y-67205703D01*
X195966107Y-67222875D01*
X195875086Y-67292718D01*
X195689656Y-67478148D01*
X195530013Y-67686196D01*
X195398896Y-67913299D01*
X195398891Y-67913309D01*
X195298543Y-68155571D01*
X195298540Y-68155581D01*
X195256772Y-68311464D01*
X195230668Y-68408885D01*
X195196438Y-68668872D01*
X195196438Y-68931127D01*
X195219372Y-69105317D01*
X195230668Y-69191116D01*
X195252643Y-69273127D01*
X195298540Y-69444418D01*
X195298543Y-69444428D01*
X195398891Y-69686690D01*
X195398896Y-69686700D01*
X195530013Y-69913803D01*
X195689656Y-70121851D01*
X195689664Y-70121860D01*
X195875078Y-70307274D01*
X195875086Y-70307281D01*
X196083134Y-70466924D01*
X196310237Y-70598041D01*
X196310247Y-70598046D01*
X196404332Y-70637017D01*
X196552519Y-70698398D01*
X196805822Y-70766270D01*
X197065818Y-70800500D01*
X197065825Y-70800500D01*
X197328051Y-70800500D01*
X197328058Y-70800500D01*
X197588054Y-70766270D01*
X197841357Y-70698398D01*
X198083635Y-70598043D01*
X198310741Y-70466924D01*
X198518789Y-70307282D01*
X198518793Y-70307277D01*
X198518798Y-70307274D01*
X198704212Y-70121860D01*
X198704215Y-70121855D01*
X198704220Y-70121851D01*
X198863862Y-69913803D01*
X198994981Y-69686697D01*
X199095336Y-69444419D01*
X199163208Y-69191116D01*
X199197438Y-68931120D01*
X199197438Y-68668880D01*
X199163208Y-68408884D01*
X199095336Y-68155581D01*
X199095332Y-68155571D01*
X198994984Y-67913309D01*
X198994979Y-67913299D01*
X198863862Y-67686196D01*
X198704219Y-67478148D01*
X198704212Y-67478140D01*
X198518798Y-67292726D01*
X198518789Y-67292718D01*
X198427769Y-67222875D01*
X198386566Y-67166447D01*
X198382412Y-67096701D01*
X198416625Y-67035781D01*
X198478343Y-67003029D01*
X198503256Y-67000500D01*
X203718355Y-67000500D01*
X203782997Y-67018682D01*
X203810988Y-67035781D01*
X204461871Y-67433396D01*
X204465369Y-67435615D01*
X205267823Y-67963935D01*
X205271284Y-67966299D01*
X206042707Y-68512500D01*
X206055372Y-68521467D01*
X206058751Y-68523947D01*
X206249423Y-68668886D01*
X206823565Y-69105317D01*
X206826863Y-69107913D01*
X207029576Y-69273125D01*
X207571572Y-69714852D01*
X207574775Y-69717554D01*
X208037901Y-70121851D01*
X208298506Y-70349352D01*
X208301619Y-70352163D01*
X208606445Y-70637016D01*
X209003569Y-71008119D01*
X209006587Y-71011037D01*
X209685897Y-71690348D01*
X209688815Y-71693366D01*
X210344767Y-72395315D01*
X210347581Y-72398431D01*
X210979358Y-73122140D01*
X210982066Y-73125349D01*
X211589031Y-73870093D01*
X211591627Y-73873392D01*
X212172989Y-74638198D01*
X212175473Y-74641583D01*
X212730625Y-75425652D01*
X212732993Y-75429119D01*
X213261287Y-76231537D01*
X213263536Y-76235082D01*
X213331134Y-76345738D01*
X213649537Y-76866955D01*
X213678256Y-76913966D01*
X213696438Y-76978608D01*
X213696438Y-106021416D01*
X213678255Y-106086059D01*
X213263546Y-106764918D01*
X213261297Y-106768463D01*
X212733010Y-107570860D01*
X212730643Y-107574327D01*
X212175474Y-108358413D01*
X212172990Y-108361798D01*
X211591600Y-109126636D01*
X211589003Y-109129934D01*
X210982076Y-109874627D01*
X210979369Y-109877836D01*
X210347576Y-110601562D01*
X210344762Y-110604678D01*
X209688809Y-111306626D01*
X209685891Y-111309644D01*
X209006581Y-111988955D01*
X209003563Y-111991873D01*
X208301616Y-112647828D01*
X208298500Y-112650642D01*
X207574788Y-113282424D01*
X207571580Y-113285131D01*
X206826860Y-113892083D01*
X206823561Y-113894680D01*
X206058739Y-114476059D01*
X206055354Y-114478543D01*
X205271268Y-115033715D01*
X205267801Y-115036082D01*
X204465406Y-115564369D01*
X204461861Y-115566618D01*
X204089164Y-115794297D01*
X203785482Y-115979815D01*
X203783023Y-115981317D01*
X203718380Y-115999500D01*
X198503256Y-115999500D01*
X198436217Y-115979815D01*
X198390462Y-115927011D01*
X198380518Y-115857853D01*
X198409543Y-115794297D01*
X198427769Y-115777125D01*
X198453416Y-115757444D01*
X198518789Y-115707282D01*
X198518793Y-115707277D01*
X198518798Y-115707274D01*
X198704212Y-115521860D01*
X198704215Y-115521855D01*
X198704220Y-115521851D01*
X198863862Y-115313803D01*
X198994981Y-115086697D01*
X199095336Y-114844419D01*
X199163208Y-114591116D01*
X199197438Y-114331120D01*
X199197438Y-114068880D01*
X199163208Y-113808884D01*
X199095336Y-113555581D01*
X199094127Y-113552663D01*
X198994984Y-113313309D01*
X198994979Y-113313299D01*
X198863862Y-113086196D01*
X198704219Y-112878148D01*
X198704212Y-112878140D01*
X198518798Y-112692726D01*
X198518789Y-112692718D01*
X198310741Y-112533075D01*
X198083638Y-112401958D01*
X198083628Y-112401953D01*
X197841366Y-112301605D01*
X197841359Y-112301603D01*
X197841357Y-112301602D01*
X197588054Y-112233730D01*
X197530277Y-112226123D01*
X197328065Y-112199500D01*
X197328058Y-112199500D01*
X197065818Y-112199500D01*
X197065810Y-112199500D01*
X196834710Y-112229926D01*
X196805822Y-112233730D01*
X196552519Y-112301602D01*
X196552509Y-112301605D01*
X196310247Y-112401953D01*
X196310237Y-112401958D01*
X196083134Y-112533075D01*
X195875086Y-112692718D01*
X195689656Y-112878148D01*
X195530013Y-113086196D01*
X195398896Y-113313299D01*
X195398891Y-113313309D01*
X195298543Y-113555571D01*
X195298540Y-113555581D01*
X195230668Y-113808885D01*
X195196438Y-114068872D01*
X195196438Y-114331127D01*
X195215847Y-114478543D01*
X195230668Y-114591116D01*
X195298540Y-114844418D01*
X195298543Y-114844428D01*
X195398891Y-115086690D01*
X195398896Y-115086700D01*
X195530013Y-115313803D01*
X195689656Y-115521851D01*
X195689664Y-115521860D01*
X195875078Y-115707274D01*
X195875086Y-115707281D01*
X195966107Y-115777125D01*
X196007310Y-115833553D01*
X196011464Y-115903299D01*
X195977251Y-115964219D01*
X195915533Y-115996971D01*
X195890620Y-115999500D01*
X174675521Y-115999500D01*
X174610878Y-115981317D01*
X173932016Y-115566608D01*
X173928471Y-115564359D01*
X173126075Y-115036075D01*
X173122608Y-115033708D01*
X172338522Y-114478539D01*
X172335137Y-114476055D01*
X171624998Y-113936245D01*
X171624998Y-113936244D01*
X171570300Y-113894666D01*
X171567001Y-113892069D01*
X171507553Y-113843619D01*
X171507548Y-113843615D01*
X177274500Y-113843615D01*
X177274500Y-113996384D01*
X177304300Y-114146197D01*
X177304302Y-114146205D01*
X177362759Y-114287334D01*
X177362764Y-114287343D01*
X177447629Y-114414351D01*
X177447632Y-114414355D01*
X177555644Y-114522367D01*
X177555648Y-114522370D01*
X177682656Y-114607235D01*
X177682662Y-114607238D01*
X177682663Y-114607239D01*
X177823795Y-114665698D01*
X177973615Y-114695499D01*
X177973619Y-114695500D01*
X177973620Y-114695500D01*
X178126381Y-114695500D01*
X178126382Y-114695499D01*
X178276205Y-114665698D01*
X178417337Y-114607239D01*
X178544352Y-114522370D01*
X178652370Y-114414352D01*
X178737239Y-114287337D01*
X178795698Y-114146205D01*
X178825500Y-113996380D01*
X178825500Y-113843620D01*
X178795698Y-113693795D01*
X178737239Y-113552663D01*
X178737238Y-113552662D01*
X178737235Y-113552656D01*
X178652370Y-113425648D01*
X178652367Y-113425644D01*
X178544355Y-113317632D01*
X178544351Y-113317629D01*
X178417343Y-113232764D01*
X178417334Y-113232759D01*
X178276205Y-113174302D01*
X178276197Y-113174300D01*
X178126384Y-113144500D01*
X178126380Y-113144500D01*
X177973620Y-113144500D01*
X177973615Y-113144500D01*
X177823802Y-113174300D01*
X177823794Y-113174302D01*
X177682665Y-113232759D01*
X177682656Y-113232764D01*
X177555648Y-113317629D01*
X177555644Y-113317632D01*
X177447632Y-113425644D01*
X177447629Y-113425648D01*
X177362764Y-113552656D01*
X177362759Y-113552665D01*
X177304302Y-113693794D01*
X177304300Y-113693802D01*
X177274500Y-113843615D01*
X171507548Y-113843615D01*
X170822309Y-113285142D01*
X170819100Y-113282435D01*
X170095375Y-112650642D01*
X170092259Y-112647828D01*
X169946709Y-112511815D01*
X169390312Y-111991873D01*
X169387295Y-111988956D01*
X169090162Y-111691822D01*
X169008568Y-111610228D01*
X178267500Y-111610228D01*
X178267500Y-111777771D01*
X178300182Y-111942074D01*
X178300184Y-111942082D01*
X178364295Y-112096860D01*
X178457373Y-112236162D01*
X178575837Y-112354626D01*
X178646675Y-112401958D01*
X178715137Y-112447703D01*
X178869918Y-112511816D01*
X179034228Y-112544499D01*
X179034232Y-112544500D01*
X179034233Y-112544500D01*
X179201768Y-112544500D01*
X179201769Y-112544499D01*
X179366082Y-112511816D01*
X179520863Y-112447703D01*
X179599110Y-112395419D01*
X179665786Y-112374542D01*
X179733167Y-112393026D01*
X179736872Y-112395407D01*
X179815137Y-112447703D01*
X179969918Y-112511816D01*
X180134228Y-112544499D01*
X180134232Y-112544500D01*
X180134233Y-112544500D01*
X180301768Y-112544500D01*
X180301769Y-112544499D01*
X180466082Y-112511816D01*
X180620863Y-112447703D01*
X180699110Y-112395419D01*
X180765786Y-112374542D01*
X180833167Y-112393026D01*
X180836872Y-112395407D01*
X180915137Y-112447703D01*
X181069918Y-112511816D01*
X181234228Y-112544499D01*
X181234232Y-112544500D01*
X181234233Y-112544500D01*
X181401768Y-112544500D01*
X181401769Y-112544499D01*
X181566082Y-112511816D01*
X181720863Y-112447703D01*
X181799110Y-112395419D01*
X181865786Y-112374542D01*
X181933167Y-112393026D01*
X181936872Y-112395407D01*
X182015137Y-112447703D01*
X182169918Y-112511816D01*
X182334228Y-112544499D01*
X182334232Y-112544500D01*
X182334233Y-112544500D01*
X182501768Y-112544500D01*
X182501769Y-112544499D01*
X182666082Y-112511816D01*
X182820863Y-112447703D01*
X182899110Y-112395419D01*
X182965786Y-112374542D01*
X183033167Y-112393026D01*
X183036872Y-112395407D01*
X183115137Y-112447703D01*
X183269918Y-112511816D01*
X183434228Y-112544499D01*
X183434232Y-112544500D01*
X183434233Y-112544500D01*
X183601768Y-112544500D01*
X183601769Y-112544499D01*
X183766082Y-112511816D01*
X183920863Y-112447703D01*
X184060162Y-112354626D01*
X184178626Y-112236162D01*
X184271703Y-112096863D01*
X184335816Y-111942082D01*
X184368500Y-111777767D01*
X184368500Y-111610233D01*
X184368499Y-111610228D01*
X184867500Y-111610228D01*
X184867500Y-111777771D01*
X184900182Y-111942074D01*
X184900184Y-111942082D01*
X184964295Y-112096860D01*
X185057373Y-112236162D01*
X185175837Y-112354626D01*
X185246675Y-112401958D01*
X185315137Y-112447703D01*
X185469918Y-112511816D01*
X185634228Y-112544499D01*
X185634232Y-112544500D01*
X185634233Y-112544500D01*
X185801768Y-112544500D01*
X185801769Y-112544499D01*
X185966082Y-112511816D01*
X186120863Y-112447703D01*
X186199110Y-112395419D01*
X186265786Y-112374542D01*
X186333167Y-112393026D01*
X186336872Y-112395407D01*
X186415137Y-112447703D01*
X186569918Y-112511816D01*
X186734228Y-112544499D01*
X186734232Y-112544500D01*
X186734233Y-112544500D01*
X186901768Y-112544500D01*
X186901769Y-112544499D01*
X187066082Y-112511816D01*
X187220863Y-112447703D01*
X187360162Y-112354626D01*
X187478626Y-112236162D01*
X187571703Y-112096863D01*
X187635816Y-111942082D01*
X187668500Y-111777767D01*
X187668500Y-111610233D01*
X187635816Y-111445918D01*
X187571703Y-111291137D01*
X187540537Y-111244494D01*
X187478626Y-111151837D01*
X187360162Y-111033373D01*
X187220860Y-110940295D01*
X187066082Y-110876184D01*
X187066074Y-110876182D01*
X186901771Y-110843500D01*
X186901767Y-110843500D01*
X186734233Y-110843500D01*
X186734228Y-110843500D01*
X186569925Y-110876182D01*
X186569917Y-110876184D01*
X186415140Y-110940295D01*
X186336890Y-110992580D01*
X186270213Y-111013457D01*
X186202833Y-110994972D01*
X186199110Y-110992580D01*
X186181909Y-110981087D01*
X186120863Y-110940297D01*
X186120860Y-110940295D01*
X186120859Y-110940295D01*
X185966082Y-110876184D01*
X185966074Y-110876182D01*
X185801771Y-110843500D01*
X185801767Y-110843500D01*
X185634233Y-110843500D01*
X185634228Y-110843500D01*
X185469925Y-110876182D01*
X185469917Y-110876184D01*
X185315139Y-110940295D01*
X185175837Y-111033373D01*
X185057373Y-111151837D01*
X184964295Y-111291139D01*
X184900184Y-111445917D01*
X184900182Y-111445925D01*
X184867500Y-111610228D01*
X184368499Y-111610228D01*
X184335816Y-111445918D01*
X184271703Y-111291137D01*
X184240537Y-111244494D01*
X184178626Y-111151837D01*
X184060162Y-111033373D01*
X183920860Y-110940295D01*
X183766082Y-110876184D01*
X183766074Y-110876182D01*
X183601771Y-110843500D01*
X183601767Y-110843500D01*
X183434233Y-110843500D01*
X183434228Y-110843500D01*
X183269925Y-110876182D01*
X183269917Y-110876184D01*
X183115140Y-110940295D01*
X183036890Y-110992580D01*
X182970213Y-111013457D01*
X182902833Y-110994972D01*
X182899110Y-110992580D01*
X182881909Y-110981087D01*
X182820863Y-110940297D01*
X182820860Y-110940295D01*
X182820859Y-110940295D01*
X182666082Y-110876184D01*
X182666074Y-110876182D01*
X182501771Y-110843500D01*
X182501767Y-110843500D01*
X182334233Y-110843500D01*
X182334228Y-110843500D01*
X182169925Y-110876182D01*
X182169917Y-110876184D01*
X182015140Y-110940295D01*
X181936890Y-110992580D01*
X181870213Y-111013457D01*
X181802833Y-110994972D01*
X181799110Y-110992580D01*
X181781909Y-110981087D01*
X181720863Y-110940297D01*
X181720860Y-110940295D01*
X181720859Y-110940295D01*
X181566082Y-110876184D01*
X181566074Y-110876182D01*
X181401771Y-110843500D01*
X181401767Y-110843500D01*
X181234233Y-110843500D01*
X181234228Y-110843500D01*
X181069925Y-110876182D01*
X181069917Y-110876184D01*
X180915140Y-110940295D01*
X180836890Y-110992580D01*
X180770213Y-111013457D01*
X180702833Y-110994972D01*
X180699110Y-110992580D01*
X180681909Y-110981087D01*
X180620863Y-110940297D01*
X180620860Y-110940295D01*
X180620859Y-110940295D01*
X180466082Y-110876184D01*
X180466074Y-110876182D01*
X180301771Y-110843500D01*
X180301767Y-110843500D01*
X180134233Y-110843500D01*
X180134228Y-110843500D01*
X179969925Y-110876182D01*
X179969917Y-110876184D01*
X179815140Y-110940295D01*
X179736890Y-110992580D01*
X179670213Y-111013457D01*
X179602833Y-110994972D01*
X179599110Y-110992580D01*
X179581909Y-110981087D01*
X179520863Y-110940297D01*
X179520860Y-110940295D01*
X179520859Y-110940295D01*
X179366082Y-110876184D01*
X179366074Y-110876182D01*
X179201771Y-110843500D01*
X179201767Y-110843500D01*
X179034233Y-110843500D01*
X179034228Y-110843500D01*
X178869925Y-110876182D01*
X178869917Y-110876184D01*
X178715139Y-110940295D01*
X178575837Y-111033373D01*
X178457373Y-111151837D01*
X178364295Y-111291139D01*
X178300184Y-111445917D01*
X178300182Y-111445925D01*
X178267500Y-111610228D01*
X169008568Y-111610228D01*
X168707985Y-111309644D01*
X168705067Y-111306626D01*
X168328314Y-110903455D01*
X168049112Y-110604675D01*
X168046301Y-110601562D01*
X167881692Y-110413000D01*
X167414505Y-109877829D01*
X167411803Y-109874626D01*
X167388470Y-109845997D01*
X167133910Y-109533653D01*
X171912000Y-109533653D01*
X171912000Y-109691346D01*
X171942761Y-109845989D01*
X171942764Y-109846001D01*
X172003102Y-109991672D01*
X172003109Y-109991685D01*
X172090710Y-110122788D01*
X172090713Y-110122792D01*
X172202207Y-110234286D01*
X172202211Y-110234289D01*
X172333314Y-110321890D01*
X172333327Y-110321897D01*
X172478998Y-110382235D01*
X172479003Y-110382237D01*
X172633653Y-110412999D01*
X172633656Y-110413000D01*
X172633658Y-110413000D01*
X172791344Y-110413000D01*
X172791345Y-110412999D01*
X172945997Y-110382237D01*
X173091679Y-110321894D01*
X173222789Y-110234289D01*
X173334289Y-110122789D01*
X173421894Y-109991679D01*
X173482237Y-109845997D01*
X173513000Y-109691342D01*
X173513000Y-109533658D01*
X173513000Y-109533655D01*
X173512999Y-109533653D01*
X173812000Y-109533653D01*
X173812000Y-109691346D01*
X173842761Y-109845989D01*
X173842764Y-109846001D01*
X173903102Y-109991672D01*
X173903109Y-109991685D01*
X173990710Y-110122788D01*
X173990713Y-110122792D01*
X174102207Y-110234286D01*
X174102211Y-110234289D01*
X174233314Y-110321890D01*
X174233327Y-110321897D01*
X174378998Y-110382235D01*
X174379003Y-110382237D01*
X174533653Y-110412999D01*
X174533656Y-110413000D01*
X174533658Y-110413000D01*
X174691344Y-110413000D01*
X174691345Y-110412999D01*
X174845997Y-110382237D01*
X174991679Y-110321894D01*
X175122789Y-110234289D01*
X175234289Y-110122789D01*
X175321894Y-109991679D01*
X175352827Y-109917000D01*
X205971000Y-109917000D01*
X207871000Y-109917000D01*
X207871000Y-107827000D01*
X205971000Y-107827000D01*
X205971000Y-109917000D01*
X175352827Y-109917000D01*
X175382237Y-109845997D01*
X175413000Y-109691342D01*
X175413000Y-109533658D01*
X175413000Y-109533655D01*
X175412999Y-109533653D01*
X175382238Y-109379010D01*
X175382237Y-109379003D01*
X175372288Y-109354984D01*
X175321897Y-109233327D01*
X175321890Y-109233314D01*
X175234289Y-109102211D01*
X175234286Y-109102207D01*
X175122792Y-108990713D01*
X175122788Y-108990710D01*
X174991685Y-108903109D01*
X174991672Y-108903102D01*
X174846001Y-108842764D01*
X174845989Y-108842761D01*
X174691345Y-108812000D01*
X174691342Y-108812000D01*
X174533658Y-108812000D01*
X174533655Y-108812000D01*
X174379010Y-108842761D01*
X174378998Y-108842764D01*
X174233327Y-108903102D01*
X174233314Y-108903109D01*
X174102211Y-108990710D01*
X174102207Y-108990713D01*
X173990713Y-109102207D01*
X173990710Y-109102211D01*
X173903109Y-109233314D01*
X173903102Y-109233327D01*
X173842764Y-109378998D01*
X173842761Y-109379010D01*
X173812000Y-109533653D01*
X173512999Y-109533653D01*
X173482238Y-109379010D01*
X173482237Y-109379003D01*
X173472288Y-109354984D01*
X173421897Y-109233327D01*
X173421890Y-109233314D01*
X173334289Y-109102211D01*
X173334286Y-109102207D01*
X173222792Y-108990713D01*
X173222788Y-108990710D01*
X173091685Y-108903109D01*
X173091672Y-108903102D01*
X172946001Y-108842764D01*
X172945989Y-108842761D01*
X172791345Y-108812000D01*
X172791342Y-108812000D01*
X172633658Y-108812000D01*
X172633655Y-108812000D01*
X172479010Y-108842761D01*
X172478998Y-108842764D01*
X172333327Y-108903102D01*
X172333314Y-108903109D01*
X172202211Y-108990710D01*
X172202207Y-108990713D01*
X172090713Y-109102207D01*
X172090710Y-109102211D01*
X172003109Y-109233314D01*
X172003102Y-109233327D01*
X171942764Y-109378998D01*
X171942761Y-109379010D01*
X171912000Y-109533653D01*
X167133910Y-109533653D01*
X166804866Y-109129917D01*
X166802270Y-109126619D01*
X166632365Y-108903102D01*
X166220887Y-108361785D01*
X166218410Y-108358410D01*
X165964994Y-108000499D01*
X165663248Y-107574327D01*
X165660890Y-107570875D01*
X165405688Y-107183253D01*
X165364803Y-107121153D01*
X178896438Y-107121153D01*
X178896438Y-107278846D01*
X178927199Y-107433489D01*
X178927202Y-107433501D01*
X178987540Y-107579172D01*
X178987547Y-107579185D01*
X179075148Y-107710288D01*
X179075151Y-107710292D01*
X179186645Y-107821786D01*
X179186649Y-107821789D01*
X179317752Y-107909390D01*
X179317765Y-107909397D01*
X179463436Y-107969735D01*
X179463441Y-107969737D01*
X179618091Y-108000499D01*
X179618094Y-108000500D01*
X179618096Y-108000500D01*
X179775782Y-108000500D01*
X179775783Y-108000499D01*
X179930435Y-107969737D01*
X180076117Y-107909394D01*
X180128048Y-107874694D01*
X180194723Y-107853816D01*
X180262103Y-107872300D01*
X180265801Y-107874676D01*
X180317759Y-107909394D01*
X180317761Y-107909395D01*
X180317763Y-107909396D01*
X180463436Y-107969735D01*
X180463441Y-107969737D01*
X180618091Y-108000499D01*
X180618094Y-108000500D01*
X180618096Y-108000500D01*
X180775782Y-108000500D01*
X180775783Y-108000499D01*
X180930435Y-107969737D01*
X181076117Y-107909394D01*
X181128048Y-107874694D01*
X181194723Y-107853816D01*
X181262103Y-107872300D01*
X181265801Y-107874676D01*
X181317759Y-107909394D01*
X181317761Y-107909395D01*
X181317763Y-107909396D01*
X181463436Y-107969735D01*
X181463441Y-107969737D01*
X181618091Y-108000499D01*
X181618094Y-108000500D01*
X181618096Y-108000500D01*
X181775782Y-108000500D01*
X181775783Y-108000499D01*
X181930435Y-107969737D01*
X182076117Y-107909394D01*
X182207227Y-107821789D01*
X182318727Y-107710289D01*
X182406332Y-107579179D01*
X182409046Y-107572628D01*
X182466673Y-107433501D01*
X182466675Y-107433497D01*
X182497438Y-107278842D01*
X182497438Y-107121158D01*
X182497438Y-107121155D01*
X182497437Y-107121153D01*
X182466676Y-106966510D01*
X182466675Y-106966503D01*
X182466673Y-106966498D01*
X182406335Y-106820827D01*
X182406328Y-106820814D01*
X182318727Y-106689711D01*
X182318724Y-106689707D01*
X182207230Y-106578213D01*
X182207226Y-106578210D01*
X182076123Y-106490609D01*
X182076110Y-106490602D01*
X181930439Y-106430264D01*
X181930427Y-106430261D01*
X181775783Y-106399500D01*
X181775780Y-106399500D01*
X181618096Y-106399500D01*
X181618093Y-106399500D01*
X181463448Y-106430261D01*
X181463436Y-106430264D01*
X181317765Y-106490602D01*
X181317752Y-106490609D01*
X181265829Y-106525304D01*
X181199152Y-106546182D01*
X181131771Y-106527698D01*
X181128047Y-106525304D01*
X181076123Y-106490609D01*
X181076110Y-106490602D01*
X180930439Y-106430264D01*
X180930427Y-106430261D01*
X180775783Y-106399500D01*
X180775780Y-106399500D01*
X180618096Y-106399500D01*
X180618093Y-106399500D01*
X180463448Y-106430261D01*
X180463436Y-106430264D01*
X180317765Y-106490602D01*
X180317752Y-106490609D01*
X180265829Y-106525304D01*
X180199152Y-106546182D01*
X180131771Y-106527698D01*
X180128047Y-106525304D01*
X180076123Y-106490609D01*
X180076110Y-106490602D01*
X179930439Y-106430264D01*
X179930427Y-106430261D01*
X179775783Y-106399500D01*
X179775780Y-106399500D01*
X179618096Y-106399500D01*
X179618093Y-106399500D01*
X179463448Y-106430261D01*
X179463436Y-106430264D01*
X179317765Y-106490602D01*
X179317752Y-106490609D01*
X179186649Y-106578210D01*
X179186645Y-106578213D01*
X179075151Y-106689707D01*
X179075148Y-106689711D01*
X178987547Y-106820814D01*
X178987540Y-106820827D01*
X178927202Y-106966498D01*
X178927199Y-106966510D01*
X178896438Y-107121153D01*
X165364803Y-107121153D01*
X165132595Y-106768457D01*
X165130346Y-106764912D01*
X164715620Y-106086016D01*
X164697438Y-106021374D01*
X164697438Y-103368872D01*
X195196438Y-103368872D01*
X195196438Y-103631127D01*
X195223061Y-103833339D01*
X195230668Y-103891116D01*
X195298540Y-104144418D01*
X195298543Y-104144428D01*
X195398891Y-104386690D01*
X195398896Y-104386700D01*
X195530013Y-104613803D01*
X195689656Y-104821851D01*
X195689664Y-104821860D01*
X195875078Y-105007274D01*
X195875086Y-105007281D01*
X196083134Y-105166924D01*
X196310237Y-105298041D01*
X196310247Y-105298046D01*
X196552509Y-105398394D01*
X196552519Y-105398398D01*
X196805822Y-105466270D01*
X197065818Y-105500500D01*
X197065825Y-105500500D01*
X197328051Y-105500500D01*
X197328058Y-105500500D01*
X197588054Y-105466270D01*
X197841357Y-105398398D01*
X198083635Y-105298043D01*
X198310741Y-105166924D01*
X198518789Y-105007282D01*
X198518793Y-105007277D01*
X198518798Y-105007274D01*
X198704212Y-104821860D01*
X198704215Y-104821855D01*
X198704220Y-104821851D01*
X198863862Y-104613803D01*
X198994981Y-104386697D01*
X199095336Y-104144419D01*
X199163208Y-103891116D01*
X199197438Y-103631120D01*
X199197438Y-103368880D01*
X199163208Y-103108884D01*
X199095336Y-102855581D01*
X199095332Y-102855571D01*
X198994984Y-102613309D01*
X198994979Y-102613299D01*
X198863862Y-102386196D01*
X198704219Y-102178148D01*
X198704212Y-102178140D01*
X198518798Y-101992726D01*
X198518789Y-101992718D01*
X198310741Y-101833075D01*
X198083638Y-101701958D01*
X198083628Y-101701953D01*
X197841366Y-101601605D01*
X197841359Y-101601603D01*
X197841357Y-101601602D01*
X197588054Y-101533730D01*
X197530277Y-101526123D01*
X197328065Y-101499500D01*
X197328058Y-101499500D01*
X197065818Y-101499500D01*
X197065810Y-101499500D01*
X196834710Y-101529926D01*
X196805822Y-101533730D01*
X196552519Y-101601602D01*
X196552509Y-101601605D01*
X196310247Y-101701953D01*
X196310237Y-101701958D01*
X196083134Y-101833075D01*
X195875086Y-101992718D01*
X195689656Y-102178148D01*
X195530013Y-102386196D01*
X195398896Y-102613299D01*
X195398891Y-102613309D01*
X195298543Y-102855571D01*
X195298540Y-102855581D01*
X195230668Y-103108885D01*
X195196438Y-103368872D01*
X164697438Y-103368872D01*
X164697438Y-101047844D01*
X165126938Y-101047844D01*
X165133339Y-101107372D01*
X165133341Y-101107379D01*
X165183583Y-101242086D01*
X165183587Y-101242093D01*
X165269747Y-101357187D01*
X165269750Y-101357190D01*
X165384844Y-101443350D01*
X165384851Y-101443354D01*
X165519558Y-101493596D01*
X165519565Y-101493598D01*
X165579093Y-101499999D01*
X165579110Y-101500000D01*
X166666938Y-101500000D01*
X167166938Y-101500000D01*
X168254766Y-101500000D01*
X168254782Y-101499999D01*
X168314310Y-101493598D01*
X168314317Y-101493596D01*
X168449024Y-101443354D01*
X168449031Y-101443350D01*
X168564125Y-101357190D01*
X168564128Y-101357187D01*
X168650288Y-101242093D01*
X168650292Y-101242086D01*
X168700534Y-101107379D01*
X168700536Y-101107372D01*
X168706937Y-101047844D01*
X169296938Y-101047844D01*
X169303339Y-101107372D01*
X169303341Y-101107379D01*
X169353583Y-101242086D01*
X169353587Y-101242093D01*
X169439747Y-101357187D01*
X169439750Y-101357190D01*
X169554844Y-101443350D01*
X169554851Y-101443354D01*
X169689558Y-101493596D01*
X169689565Y-101493598D01*
X169749093Y-101499999D01*
X169749110Y-101500000D01*
X170836938Y-101500000D01*
X171336938Y-101500000D01*
X172424766Y-101500000D01*
X172424782Y-101499999D01*
X172484310Y-101493598D01*
X172484317Y-101493596D01*
X172619024Y-101443354D01*
X172619031Y-101443350D01*
X172734125Y-101357190D01*
X172734128Y-101357187D01*
X172820288Y-101242093D01*
X172820292Y-101242086D01*
X172870534Y-101107379D01*
X172870536Y-101107372D01*
X172876937Y-101047844D01*
X172876938Y-101047827D01*
X172876938Y-100750000D01*
X171336938Y-100750000D01*
X171336938Y-101500000D01*
X170836938Y-101500000D01*
X170836938Y-100750000D01*
X169296938Y-100750000D01*
X169296938Y-101047844D01*
X168706937Y-101047844D01*
X168706938Y-101047827D01*
X168706938Y-100750000D01*
X167166938Y-100750000D01*
X167166938Y-101500000D01*
X166666938Y-101500000D01*
X166666938Y-100750000D01*
X165126938Y-100750000D01*
X165126938Y-101047844D01*
X164697438Y-101047844D01*
X164697438Y-100453922D01*
X166566938Y-100453922D01*
X166566938Y-100546078D01*
X166590790Y-100635095D01*
X166636868Y-100714905D01*
X166702033Y-100780070D01*
X166781843Y-100826148D01*
X166870860Y-100850000D01*
X166963016Y-100850000D01*
X167052033Y-100826148D01*
X167131843Y-100780070D01*
X167197008Y-100714905D01*
X167243086Y-100635095D01*
X167266938Y-100546078D01*
X167266938Y-100453922D01*
X170736938Y-100453922D01*
X170736938Y-100546078D01*
X170760790Y-100635095D01*
X170806868Y-100714905D01*
X170872033Y-100780070D01*
X170951843Y-100826148D01*
X171040860Y-100850000D01*
X171133016Y-100850000D01*
X171222033Y-100826148D01*
X171301843Y-100780070D01*
X171367008Y-100714905D01*
X171413086Y-100635095D01*
X171436938Y-100546078D01*
X171436938Y-100453922D01*
X171413086Y-100364905D01*
X171367008Y-100285095D01*
X171331913Y-100250000D01*
X171336938Y-100250000D01*
X172876938Y-100250000D01*
X172876938Y-99952172D01*
X172876937Y-99952155D01*
X172870536Y-99892627D01*
X172870534Y-99892620D01*
X172820292Y-99757913D01*
X172820288Y-99757906D01*
X172734128Y-99642813D01*
X172675959Y-99599267D01*
X172634088Y-99543333D01*
X172629104Y-99473641D01*
X172662589Y-99412318D01*
X172675959Y-99400733D01*
X172734128Y-99357186D01*
X172820288Y-99242093D01*
X172820292Y-99242086D01*
X172870534Y-99107379D01*
X172870536Y-99107372D01*
X172876937Y-99047844D01*
X172876938Y-99047827D01*
X172876938Y-98750000D01*
X171336938Y-98750000D01*
X171336938Y-100250000D01*
X171331913Y-100250000D01*
X171301843Y-100219930D01*
X171222033Y-100173852D01*
X171133016Y-100150000D01*
X171040860Y-100150000D01*
X170951843Y-100173852D01*
X170872033Y-100219930D01*
X170806868Y-100285095D01*
X170760790Y-100364905D01*
X170736938Y-100453922D01*
X167266938Y-100453922D01*
X167243086Y-100364905D01*
X167197008Y-100285095D01*
X167161913Y-100250000D01*
X167166938Y-100250000D01*
X168706938Y-100250000D01*
X168706938Y-99952172D01*
X168706937Y-99952155D01*
X168700536Y-99892627D01*
X168700534Y-99892620D01*
X168650292Y-99757913D01*
X168650288Y-99757906D01*
X168564128Y-99642813D01*
X168505959Y-99599267D01*
X168464088Y-99543333D01*
X168459104Y-99473641D01*
X168492589Y-99412318D01*
X168505959Y-99400733D01*
X168564128Y-99357186D01*
X168650288Y-99242093D01*
X168650292Y-99242086D01*
X168700534Y-99107379D01*
X168700536Y-99107372D01*
X168706937Y-99047844D01*
X169296938Y-99047844D01*
X169303339Y-99107372D01*
X169303341Y-99107379D01*
X169353583Y-99242086D01*
X169353587Y-99242093D01*
X169439747Y-99357187D01*
X169497917Y-99400734D01*
X169539787Y-99456668D01*
X169544771Y-99526360D01*
X169511285Y-99587683D01*
X169497917Y-99599266D01*
X169439747Y-99642812D01*
X169353587Y-99757906D01*
X169353583Y-99757913D01*
X169303341Y-99892620D01*
X169303339Y-99892627D01*
X169296938Y-99952155D01*
X169296938Y-100250000D01*
X170836938Y-100250000D01*
X170836938Y-98750000D01*
X169296938Y-98750000D01*
X169296938Y-99047844D01*
X168706937Y-99047844D01*
X168706938Y-99047827D01*
X168706938Y-98750000D01*
X167166938Y-98750000D01*
X167166938Y-100250000D01*
X167161913Y-100250000D01*
X167131843Y-100219930D01*
X167052033Y-100173852D01*
X166963016Y-100150000D01*
X166870860Y-100150000D01*
X166781843Y-100173852D01*
X166702033Y-100219930D01*
X166636868Y-100285095D01*
X166590790Y-100364905D01*
X166566938Y-100453922D01*
X164697438Y-100453922D01*
X164697438Y-99047844D01*
X165126938Y-99047844D01*
X165133339Y-99107372D01*
X165133341Y-99107379D01*
X165183583Y-99242086D01*
X165183587Y-99242093D01*
X165269747Y-99357187D01*
X165327917Y-99400734D01*
X165369787Y-99456668D01*
X165374771Y-99526360D01*
X165341285Y-99587683D01*
X165327917Y-99599266D01*
X165269747Y-99642812D01*
X165183587Y-99757906D01*
X165183583Y-99757913D01*
X165133341Y-99892620D01*
X165133339Y-99892627D01*
X165126938Y-99952155D01*
X165126938Y-100250000D01*
X166666938Y-100250000D01*
X166666938Y-98750000D01*
X165126938Y-98750000D01*
X165126938Y-99047844D01*
X164697438Y-99047844D01*
X164697438Y-97952155D01*
X165126938Y-97952155D01*
X165126938Y-98250000D01*
X166671963Y-98250000D01*
X166636868Y-98285095D01*
X166590790Y-98364905D01*
X166566938Y-98453922D01*
X166566938Y-98546078D01*
X166590790Y-98635095D01*
X166636868Y-98714905D01*
X166702033Y-98780070D01*
X166781843Y-98826148D01*
X166870860Y-98850000D01*
X166963016Y-98850000D01*
X167052033Y-98826148D01*
X167131843Y-98780070D01*
X167197008Y-98714905D01*
X167243086Y-98635095D01*
X167266938Y-98546078D01*
X167266938Y-98453922D01*
X167243086Y-98364905D01*
X167197008Y-98285095D01*
X167161913Y-98250000D01*
X168706938Y-98250000D01*
X168706938Y-97952172D01*
X168706937Y-97952155D01*
X169296938Y-97952155D01*
X169296938Y-98250000D01*
X170841963Y-98250000D01*
X170806868Y-98285095D01*
X170760790Y-98364905D01*
X170736938Y-98453922D01*
X170736938Y-98546078D01*
X170760790Y-98635095D01*
X170806868Y-98714905D01*
X170872033Y-98780070D01*
X170951843Y-98826148D01*
X171040860Y-98850000D01*
X171133016Y-98850000D01*
X171222033Y-98826148D01*
X171301843Y-98780070D01*
X171367008Y-98714905D01*
X171413086Y-98635095D01*
X171436938Y-98546078D01*
X171436938Y-98453922D01*
X171413086Y-98364905D01*
X171367008Y-98285095D01*
X171331913Y-98250000D01*
X172876938Y-98250000D01*
X172876938Y-97952172D01*
X172876937Y-97952160D01*
X172874374Y-97928324D01*
X172874373Y-97928321D01*
X172873602Y-97921153D01*
X173296438Y-97921153D01*
X173296438Y-98078846D01*
X173327199Y-98233489D01*
X173327202Y-98233501D01*
X173387540Y-98379172D01*
X173387547Y-98379185D01*
X173422242Y-98431109D01*
X173443120Y-98497786D01*
X173424636Y-98565167D01*
X173422242Y-98568891D01*
X173387547Y-98620814D01*
X173387540Y-98620827D01*
X173327202Y-98766498D01*
X173327199Y-98766510D01*
X173296438Y-98921153D01*
X173296438Y-99078846D01*
X173327199Y-99233489D01*
X173327202Y-99233501D01*
X173387540Y-99379172D01*
X173387547Y-99379185D01*
X173422242Y-99431109D01*
X173443120Y-99497786D01*
X173424636Y-99565167D01*
X173422242Y-99568891D01*
X173387547Y-99620814D01*
X173387540Y-99620827D01*
X173327202Y-99766498D01*
X173327199Y-99766510D01*
X173296438Y-99921153D01*
X173296438Y-100078846D01*
X173327199Y-100233489D01*
X173327202Y-100233501D01*
X173387540Y-100379172D01*
X173387547Y-100379185D01*
X173475148Y-100510288D01*
X173475151Y-100510292D01*
X173586645Y-100621786D01*
X173586649Y-100621789D01*
X173717752Y-100709390D01*
X173717765Y-100709397D01*
X173815791Y-100750000D01*
X173863441Y-100769737D01*
X174018091Y-100800499D01*
X174018094Y-100800500D01*
X174018096Y-100800500D01*
X174175782Y-100800500D01*
X174175783Y-100800499D01*
X174330435Y-100769737D01*
X174476117Y-100709394D01*
X174607227Y-100621789D01*
X174718727Y-100510289D01*
X174781577Y-100416228D01*
X206456438Y-100416228D01*
X206456438Y-100583771D01*
X206489120Y-100748074D01*
X206489122Y-100748082D01*
X206553233Y-100902860D01*
X206646311Y-101042162D01*
X206764775Y-101160626D01*
X206857432Y-101222537D01*
X206904075Y-101253703D01*
X207058856Y-101317816D01*
X207223166Y-101350499D01*
X207223170Y-101350500D01*
X207223171Y-101350500D01*
X207390706Y-101350500D01*
X207390707Y-101350499D01*
X207555020Y-101317816D01*
X207709801Y-101253703D01*
X207849100Y-101160626D01*
X207967564Y-101042162D01*
X208060641Y-100902863D01*
X208124754Y-100748082D01*
X208157438Y-100583767D01*
X208157438Y-100416233D01*
X208157437Y-100416228D01*
X210626438Y-100416228D01*
X210626438Y-100583771D01*
X210659120Y-100748074D01*
X210659122Y-100748082D01*
X210723233Y-100902860D01*
X210816311Y-101042162D01*
X210934775Y-101160626D01*
X211027432Y-101222537D01*
X211074075Y-101253703D01*
X211228856Y-101317816D01*
X211393166Y-101350499D01*
X211393170Y-101350500D01*
X211393171Y-101350500D01*
X211560706Y-101350500D01*
X211560707Y-101350499D01*
X211725020Y-101317816D01*
X211879801Y-101253703D01*
X212019100Y-101160626D01*
X212137564Y-101042162D01*
X212230641Y-100902863D01*
X212294754Y-100748082D01*
X212327438Y-100583767D01*
X212327438Y-100416233D01*
X212294754Y-100251918D01*
X212230641Y-100097137D01*
X212199475Y-100050494D01*
X212137564Y-99957837D01*
X212019100Y-99839373D01*
X211879798Y-99746295D01*
X211725020Y-99682184D01*
X211725012Y-99682182D01*
X211560709Y-99649500D01*
X211560705Y-99649500D01*
X211393171Y-99649500D01*
X211393166Y-99649500D01*
X211228863Y-99682182D01*
X211228855Y-99682184D01*
X211074077Y-99746295D01*
X210934775Y-99839373D01*
X210816311Y-99957837D01*
X210723233Y-100097139D01*
X210659122Y-100251917D01*
X210659120Y-100251925D01*
X210626438Y-100416228D01*
X208157437Y-100416228D01*
X208124754Y-100251918D01*
X208060641Y-100097137D01*
X208029475Y-100050494D01*
X207967564Y-99957837D01*
X207849100Y-99839373D01*
X207709798Y-99746295D01*
X207555020Y-99682184D01*
X207555012Y-99682182D01*
X207390709Y-99649500D01*
X207390705Y-99649500D01*
X207223171Y-99649500D01*
X207223166Y-99649500D01*
X207058863Y-99682182D01*
X207058855Y-99682184D01*
X206904077Y-99746295D01*
X206764775Y-99839373D01*
X206646311Y-99957837D01*
X206553233Y-100097139D01*
X206489122Y-100251917D01*
X206489120Y-100251925D01*
X206456438Y-100416228D01*
X174781577Y-100416228D01*
X174806332Y-100379179D01*
X174809654Y-100371156D01*
X174813163Y-100362688D01*
X174813163Y-100362687D01*
X174866675Y-100233497D01*
X174897438Y-100078842D01*
X174897438Y-99921158D01*
X174897438Y-99921155D01*
X174897437Y-99921153D01*
X174866676Y-99766510D01*
X174866675Y-99766503D01*
X174863114Y-99757906D01*
X174806334Y-99620825D01*
X174806332Y-99620822D01*
X174806332Y-99620821D01*
X174771632Y-99568889D01*
X174750754Y-99502215D01*
X174769238Y-99434835D01*
X174771614Y-99431136D01*
X174806332Y-99379179D01*
X174866675Y-99233497D01*
X174897438Y-99078842D01*
X174897438Y-98921158D01*
X174897438Y-98921155D01*
X174897437Y-98921153D01*
X174877684Y-98821851D01*
X174866675Y-98766503D01*
X174845303Y-98714905D01*
X174806334Y-98620825D01*
X174806332Y-98620822D01*
X174806332Y-98620821D01*
X174771632Y-98568889D01*
X174750754Y-98502215D01*
X174769238Y-98434835D01*
X174771614Y-98431136D01*
X174806332Y-98379179D01*
X174866675Y-98233497D01*
X174897438Y-98078842D01*
X174897438Y-97921158D01*
X174897438Y-97921155D01*
X174897437Y-97921153D01*
X174866676Y-97766510D01*
X174866675Y-97766503D01*
X174863114Y-97757906D01*
X174806335Y-97620827D01*
X174806328Y-97620814D01*
X174718727Y-97489711D01*
X174718724Y-97489707D01*
X174607230Y-97378213D01*
X174607226Y-97378210D01*
X174593251Y-97368872D01*
X195157438Y-97368872D01*
X195157438Y-97631127D01*
X195174130Y-97757906D01*
X195191668Y-97891116D01*
X195259540Y-98144418D01*
X195259543Y-98144428D01*
X195359891Y-98386690D01*
X195359896Y-98386700D01*
X195491013Y-98613803D01*
X195650656Y-98821851D01*
X195650664Y-98821860D01*
X195836078Y-99007274D01*
X195836086Y-99007281D01*
X196044134Y-99166924D01*
X196271237Y-99298041D01*
X196271247Y-99298046D01*
X196513509Y-99398394D01*
X196513519Y-99398398D01*
X196766822Y-99466270D01*
X197026818Y-99500500D01*
X197026825Y-99500500D01*
X197289051Y-99500500D01*
X197289058Y-99500500D01*
X197549054Y-99466270D01*
X197802357Y-99398398D01*
X198044635Y-99298043D01*
X198271741Y-99166924D01*
X198479789Y-99007282D01*
X198479793Y-99007277D01*
X198479798Y-99007274D01*
X198665212Y-98821860D01*
X198665215Y-98821855D01*
X198665220Y-98821851D01*
X198824862Y-98613803D01*
X198955981Y-98386697D01*
X199056336Y-98144419D01*
X199124208Y-97891116D01*
X199158438Y-97631120D01*
X199158438Y-97368880D01*
X199124208Y-97108884D01*
X199056336Y-96855581D01*
X199054024Y-96850000D01*
X199012603Y-96750000D01*
X205516938Y-96750000D01*
X205516938Y-97047844D01*
X205523339Y-97107372D01*
X205523341Y-97107379D01*
X205573583Y-97242086D01*
X205573587Y-97242093D01*
X205659747Y-97357187D01*
X205659750Y-97357190D01*
X205774844Y-97443350D01*
X205774851Y-97443354D01*
X205909558Y-97493596D01*
X205909565Y-97493598D01*
X205969093Y-97499999D01*
X205969110Y-97500000D01*
X206875298Y-97500000D01*
X206942337Y-97519685D01*
X206988092Y-97572489D01*
X206998036Y-97641647D01*
X206969011Y-97705203D01*
X206922751Y-97738561D01*
X206904076Y-97746296D01*
X206764775Y-97839373D01*
X206646311Y-97957837D01*
X206553233Y-98097139D01*
X206489122Y-98251917D01*
X206489120Y-98251925D01*
X206456438Y-98416228D01*
X206456438Y-98583771D01*
X206489120Y-98748074D01*
X206489122Y-98748082D01*
X206553233Y-98902860D01*
X206646311Y-99042162D01*
X206764775Y-99160626D01*
X206857432Y-99222537D01*
X206904075Y-99253703D01*
X207058856Y-99317816D01*
X207223166Y-99350499D01*
X207223170Y-99350500D01*
X207223171Y-99350500D01*
X207390706Y-99350500D01*
X207390707Y-99350499D01*
X207555020Y-99317816D01*
X207709801Y-99253703D01*
X207849100Y-99160626D01*
X207967564Y-99042162D01*
X208060641Y-98902863D01*
X208124754Y-98748082D01*
X208157438Y-98583767D01*
X208157438Y-98416233D01*
X208124754Y-98251918D01*
X208060641Y-98097137D01*
X208029475Y-98050494D01*
X207967564Y-97957837D01*
X207849100Y-97839373D01*
X207740034Y-97766498D01*
X207709801Y-97746297D01*
X207691125Y-97738561D01*
X207636722Y-97694720D01*
X207614657Y-97628426D01*
X207631936Y-97560727D01*
X207683073Y-97513116D01*
X207738578Y-97500000D01*
X208644766Y-97500000D01*
X208644782Y-97499999D01*
X208704310Y-97493598D01*
X208704317Y-97493596D01*
X208839024Y-97443354D01*
X208839031Y-97443350D01*
X208954125Y-97357190D01*
X208954128Y-97357187D01*
X209040288Y-97242093D01*
X209040292Y-97242086D01*
X209090534Y-97107379D01*
X209090536Y-97107372D01*
X209096937Y-97047844D01*
X209096938Y-97047827D01*
X209096938Y-96750000D01*
X209686938Y-96750000D01*
X209686938Y-97047844D01*
X209693339Y-97107372D01*
X209693341Y-97107379D01*
X209743583Y-97242086D01*
X209743587Y-97242093D01*
X209829747Y-97357187D01*
X209829750Y-97357190D01*
X209944844Y-97443350D01*
X209944851Y-97443354D01*
X210079558Y-97493596D01*
X210079565Y-97493598D01*
X210139093Y-97499999D01*
X210139110Y-97500000D01*
X211045298Y-97500000D01*
X211112337Y-97519685D01*
X211158092Y-97572489D01*
X211168036Y-97641647D01*
X211139011Y-97705203D01*
X211092751Y-97738561D01*
X211074076Y-97746296D01*
X210934775Y-97839373D01*
X210816311Y-97957837D01*
X210723233Y-98097139D01*
X210659122Y-98251917D01*
X210659120Y-98251925D01*
X210626438Y-98416228D01*
X210626438Y-98583771D01*
X210659120Y-98748074D01*
X210659122Y-98748082D01*
X210723233Y-98902860D01*
X210816311Y-99042162D01*
X210934775Y-99160626D01*
X211027432Y-99222537D01*
X211074075Y-99253703D01*
X211228856Y-99317816D01*
X211393166Y-99350499D01*
X211393170Y-99350500D01*
X211393171Y-99350500D01*
X211560706Y-99350500D01*
X211560707Y-99350499D01*
X211725020Y-99317816D01*
X211879801Y-99253703D01*
X212019100Y-99160626D01*
X212137564Y-99042162D01*
X212230641Y-98902863D01*
X212294754Y-98748082D01*
X212327438Y-98583767D01*
X212327438Y-98416233D01*
X212294754Y-98251918D01*
X212230641Y-98097137D01*
X212199475Y-98050494D01*
X212137564Y-97957837D01*
X212019100Y-97839373D01*
X211910034Y-97766498D01*
X211879801Y-97746297D01*
X211861125Y-97738561D01*
X211806722Y-97694720D01*
X211784657Y-97628426D01*
X211801936Y-97560727D01*
X211853073Y-97513116D01*
X211908578Y-97500000D01*
X212814766Y-97500000D01*
X212814782Y-97499999D01*
X212874310Y-97493598D01*
X212874317Y-97493596D01*
X213009024Y-97443354D01*
X213009031Y-97443350D01*
X213124125Y-97357190D01*
X213124128Y-97357187D01*
X213210288Y-97242093D01*
X213210292Y-97242086D01*
X213260534Y-97107379D01*
X213260536Y-97107372D01*
X213266937Y-97047844D01*
X213266938Y-97047827D01*
X213266938Y-96750000D01*
X211721913Y-96750000D01*
X211757008Y-96714905D01*
X211803086Y-96635095D01*
X211826938Y-96546078D01*
X211826938Y-96453922D01*
X211803086Y-96364905D01*
X211757008Y-96285095D01*
X211721913Y-96250000D01*
X211726938Y-96250000D01*
X213266938Y-96250000D01*
X213266938Y-95952172D01*
X213266937Y-95952155D01*
X213260536Y-95892627D01*
X213260534Y-95892620D01*
X213210292Y-95757913D01*
X213210288Y-95757906D01*
X213124128Y-95642813D01*
X213065959Y-95599267D01*
X213024088Y-95543333D01*
X213019104Y-95473641D01*
X213052589Y-95412318D01*
X213065959Y-95400733D01*
X213124128Y-95357186D01*
X213210288Y-95242093D01*
X213210292Y-95242086D01*
X213260534Y-95107379D01*
X213260536Y-95107372D01*
X213266937Y-95047844D01*
X213266938Y-95047827D01*
X213266938Y-94750000D01*
X211726938Y-94750000D01*
X211726938Y-96250000D01*
X211721913Y-96250000D01*
X211691843Y-96219930D01*
X211612033Y-96173852D01*
X211523016Y-96150000D01*
X211430860Y-96150000D01*
X211341843Y-96173852D01*
X211262033Y-96219930D01*
X211196868Y-96285095D01*
X211150790Y-96364905D01*
X211126938Y-96453922D01*
X211126938Y-96546078D01*
X211150790Y-96635095D01*
X211196868Y-96714905D01*
X211231963Y-96750000D01*
X209686938Y-96750000D01*
X209096938Y-96750000D01*
X207551913Y-96750000D01*
X207587008Y-96714905D01*
X207633086Y-96635095D01*
X207656938Y-96546078D01*
X207656938Y-96453922D01*
X207633086Y-96364905D01*
X207587008Y-96285095D01*
X207551913Y-96250000D01*
X207556938Y-96250000D01*
X209096938Y-96250000D01*
X209096938Y-95952172D01*
X209096937Y-95952155D01*
X209090536Y-95892627D01*
X209090534Y-95892620D01*
X209040292Y-95757913D01*
X209040288Y-95757906D01*
X208954128Y-95642813D01*
X208895959Y-95599267D01*
X208854088Y-95543333D01*
X208849104Y-95473641D01*
X208882589Y-95412318D01*
X208895959Y-95400733D01*
X208954128Y-95357186D01*
X209040288Y-95242093D01*
X209040292Y-95242086D01*
X209090534Y-95107379D01*
X209090536Y-95107372D01*
X209096937Y-95047844D01*
X209686938Y-95047844D01*
X209693339Y-95107372D01*
X209693341Y-95107379D01*
X209743583Y-95242086D01*
X209743587Y-95242093D01*
X209829747Y-95357187D01*
X209887917Y-95400734D01*
X209929787Y-95456668D01*
X209934771Y-95526360D01*
X209901285Y-95587683D01*
X209887917Y-95599266D01*
X209829747Y-95642812D01*
X209743587Y-95757906D01*
X209743583Y-95757913D01*
X209693341Y-95892620D01*
X209693339Y-95892627D01*
X209686938Y-95952155D01*
X209686938Y-96250000D01*
X211226938Y-96250000D01*
X211226938Y-94750000D01*
X209686938Y-94750000D01*
X209686938Y-95047844D01*
X209096937Y-95047844D01*
X209096938Y-95047827D01*
X209096938Y-94750000D01*
X207556938Y-94750000D01*
X207556938Y-96250000D01*
X207551913Y-96250000D01*
X207521843Y-96219930D01*
X207442033Y-96173852D01*
X207353016Y-96150000D01*
X207260860Y-96150000D01*
X207171843Y-96173852D01*
X207092033Y-96219930D01*
X207026868Y-96285095D01*
X206980790Y-96364905D01*
X206956938Y-96453922D01*
X206956938Y-96546078D01*
X206980790Y-96635095D01*
X207026868Y-96714905D01*
X207061963Y-96750000D01*
X205516938Y-96750000D01*
X199012603Y-96750000D01*
X199010984Y-96746091D01*
X198955984Y-96613309D01*
X198955979Y-96613299D01*
X198824862Y-96386196D01*
X198665219Y-96178148D01*
X198665212Y-96178140D01*
X198479798Y-95992726D01*
X198479789Y-95992718D01*
X198271741Y-95833075D01*
X198044638Y-95701958D01*
X198044628Y-95701953D01*
X197802366Y-95601605D01*
X197802359Y-95601603D01*
X197802357Y-95601602D01*
X197549054Y-95533730D01*
X197491277Y-95526123D01*
X197289065Y-95499500D01*
X197289058Y-95499500D01*
X197026818Y-95499500D01*
X197026810Y-95499500D01*
X196795710Y-95529926D01*
X196766822Y-95533730D01*
X196565466Y-95587683D01*
X196513519Y-95601602D01*
X196513509Y-95601605D01*
X196271247Y-95701953D01*
X196271237Y-95701958D01*
X196044134Y-95833075D01*
X195836086Y-95992718D01*
X195650656Y-96178148D01*
X195491013Y-96386196D01*
X195359896Y-96613299D01*
X195359891Y-96613309D01*
X195259543Y-96855571D01*
X195259540Y-96855581D01*
X195192072Y-97107379D01*
X195191668Y-97108885D01*
X195157438Y-97368872D01*
X174593251Y-97368872D01*
X174476123Y-97290609D01*
X174476110Y-97290602D01*
X174330439Y-97230264D01*
X174330427Y-97230261D01*
X174175783Y-97199500D01*
X174175780Y-97199500D01*
X174018096Y-97199500D01*
X174018093Y-97199500D01*
X173863448Y-97230261D01*
X173863436Y-97230264D01*
X173717765Y-97290602D01*
X173717752Y-97290609D01*
X173586649Y-97378210D01*
X173586645Y-97378213D01*
X173475151Y-97489707D01*
X173475148Y-97489711D01*
X173387547Y-97620814D01*
X173387540Y-97620827D01*
X173327202Y-97766498D01*
X173327199Y-97766510D01*
X173296438Y-97921153D01*
X172873602Y-97921153D01*
X172870534Y-97892619D01*
X172820292Y-97757913D01*
X172820288Y-97757906D01*
X172734128Y-97642812D01*
X172734125Y-97642809D01*
X172619031Y-97556649D01*
X172619024Y-97556645D01*
X172484317Y-97506403D01*
X172484310Y-97506401D01*
X172424782Y-97500000D01*
X171518578Y-97500000D01*
X171451539Y-97480315D01*
X171405784Y-97427511D01*
X171395840Y-97358353D01*
X171424865Y-97294797D01*
X171471125Y-97261439D01*
X171472653Y-97260805D01*
X171489801Y-97253703D01*
X171629100Y-97160626D01*
X171747564Y-97042162D01*
X171840641Y-96902863D01*
X171904754Y-96748082D01*
X171937438Y-96583767D01*
X171937438Y-96416233D01*
X171904754Y-96251918D01*
X171840641Y-96097137D01*
X171770876Y-95992726D01*
X171747564Y-95957837D01*
X171629100Y-95839373D01*
X171489798Y-95746295D01*
X171335020Y-95682184D01*
X171335012Y-95682182D01*
X171170709Y-95649500D01*
X171170705Y-95649500D01*
X171003171Y-95649500D01*
X171003166Y-95649500D01*
X170838863Y-95682182D01*
X170838855Y-95682184D01*
X170684077Y-95746295D01*
X170544775Y-95839373D01*
X170426311Y-95957837D01*
X170333233Y-96097139D01*
X170269122Y-96251917D01*
X170269120Y-96251925D01*
X170236438Y-96416228D01*
X170236438Y-96583771D01*
X170269120Y-96748074D01*
X170269122Y-96748082D01*
X170333233Y-96902860D01*
X170426311Y-97042162D01*
X170544775Y-97160626D01*
X170602955Y-97199500D01*
X170684075Y-97253703D01*
X170699925Y-97260268D01*
X170702751Y-97261439D01*
X170757154Y-97305280D01*
X170779219Y-97371574D01*
X170761940Y-97439273D01*
X170710803Y-97486884D01*
X170655298Y-97500000D01*
X169749093Y-97500000D01*
X169689565Y-97506401D01*
X169689558Y-97506403D01*
X169554851Y-97556645D01*
X169554844Y-97556649D01*
X169439750Y-97642809D01*
X169439747Y-97642812D01*
X169353587Y-97757906D01*
X169353583Y-97757913D01*
X169303341Y-97892620D01*
X169303339Y-97892627D01*
X169296938Y-97952155D01*
X168706937Y-97952155D01*
X168700536Y-97892627D01*
X168700534Y-97892620D01*
X168650292Y-97757913D01*
X168650288Y-97757906D01*
X168564128Y-97642812D01*
X168564125Y-97642809D01*
X168449031Y-97556649D01*
X168449024Y-97556645D01*
X168314317Y-97506403D01*
X168314310Y-97506401D01*
X168254782Y-97500000D01*
X167348578Y-97500000D01*
X167281539Y-97480315D01*
X167235784Y-97427511D01*
X167225840Y-97358353D01*
X167254865Y-97294797D01*
X167301125Y-97261439D01*
X167302653Y-97260805D01*
X167319801Y-97253703D01*
X167459100Y-97160626D01*
X167577564Y-97042162D01*
X167670641Y-96902863D01*
X167734754Y-96748082D01*
X167767438Y-96583767D01*
X167767438Y-96416233D01*
X167734754Y-96251918D01*
X167670641Y-96097137D01*
X167600876Y-95992726D01*
X167577564Y-95957837D01*
X167459100Y-95839373D01*
X167319798Y-95746295D01*
X167165020Y-95682184D01*
X167165012Y-95682182D01*
X167000709Y-95649500D01*
X167000705Y-95649500D01*
X166833171Y-95649500D01*
X166833166Y-95649500D01*
X166668863Y-95682182D01*
X166668855Y-95682184D01*
X166514077Y-95746295D01*
X166374775Y-95839373D01*
X166256311Y-95957837D01*
X166163233Y-96097139D01*
X166099122Y-96251917D01*
X166099120Y-96251925D01*
X166066438Y-96416228D01*
X166066438Y-96583771D01*
X166099120Y-96748074D01*
X166099122Y-96748082D01*
X166163233Y-96902860D01*
X166256311Y-97042162D01*
X166374775Y-97160626D01*
X166432955Y-97199500D01*
X166514075Y-97253703D01*
X166529925Y-97260268D01*
X166532751Y-97261439D01*
X166587154Y-97305280D01*
X166609219Y-97371574D01*
X166591940Y-97439273D01*
X166540803Y-97486884D01*
X166485298Y-97500000D01*
X165579093Y-97500000D01*
X165519565Y-97506401D01*
X165519558Y-97506403D01*
X165384851Y-97556645D01*
X165384844Y-97556649D01*
X165269750Y-97642809D01*
X165269747Y-97642812D01*
X165183587Y-97757906D01*
X165183583Y-97757913D01*
X165133341Y-97892620D01*
X165133339Y-97892627D01*
X165126938Y-97952155D01*
X164697438Y-97952155D01*
X164697438Y-94416228D01*
X166066438Y-94416228D01*
X166066438Y-94583771D01*
X166099120Y-94748074D01*
X166099122Y-94748082D01*
X166163233Y-94902860D01*
X166256311Y-95042162D01*
X166374775Y-95160626D01*
X166467432Y-95222537D01*
X166514075Y-95253703D01*
X166668856Y-95317816D01*
X166833166Y-95350499D01*
X166833170Y-95350500D01*
X166833171Y-95350500D01*
X167000706Y-95350500D01*
X167000707Y-95350499D01*
X167165020Y-95317816D01*
X167319801Y-95253703D01*
X167459100Y-95160626D01*
X167577564Y-95042162D01*
X167670641Y-94902863D01*
X167734754Y-94748082D01*
X167767438Y-94583767D01*
X167767438Y-94416233D01*
X167767437Y-94416228D01*
X170236438Y-94416228D01*
X170236438Y-94583771D01*
X170269120Y-94748074D01*
X170269122Y-94748082D01*
X170333233Y-94902860D01*
X170426311Y-95042162D01*
X170544775Y-95160626D01*
X170637432Y-95222537D01*
X170684075Y-95253703D01*
X170838856Y-95317816D01*
X171003166Y-95350499D01*
X171003170Y-95350500D01*
X171003171Y-95350500D01*
X171170706Y-95350500D01*
X171170707Y-95350499D01*
X171335020Y-95317816D01*
X171489801Y-95253703D01*
X171629100Y-95160626D01*
X171741882Y-95047844D01*
X205516938Y-95047844D01*
X205523339Y-95107372D01*
X205523341Y-95107379D01*
X205573583Y-95242086D01*
X205573587Y-95242093D01*
X205659747Y-95357187D01*
X205717917Y-95400734D01*
X205759787Y-95456668D01*
X205764771Y-95526360D01*
X205731285Y-95587683D01*
X205717917Y-95599266D01*
X205659747Y-95642812D01*
X205573587Y-95757906D01*
X205573583Y-95757913D01*
X205523341Y-95892620D01*
X205523339Y-95892627D01*
X205516938Y-95952155D01*
X205516938Y-96250000D01*
X207056938Y-96250000D01*
X207056938Y-94750000D01*
X205516938Y-94750000D01*
X205516938Y-95047844D01*
X171741882Y-95047844D01*
X171747564Y-95042162D01*
X171840641Y-94902863D01*
X171904754Y-94748082D01*
X171937438Y-94583767D01*
X171937438Y-94416233D01*
X171904754Y-94251918D01*
X171840641Y-94097137D01*
X171809475Y-94050494D01*
X171747564Y-93957837D01*
X171629100Y-93839373D01*
X171489798Y-93746295D01*
X171335020Y-93682184D01*
X171335012Y-93682182D01*
X171170709Y-93649500D01*
X171170705Y-93649500D01*
X171003171Y-93649500D01*
X171003166Y-93649500D01*
X170838863Y-93682182D01*
X170838855Y-93682184D01*
X170684077Y-93746295D01*
X170544775Y-93839373D01*
X170426311Y-93957837D01*
X170333233Y-94097139D01*
X170269122Y-94251917D01*
X170269120Y-94251925D01*
X170236438Y-94416228D01*
X167767437Y-94416228D01*
X167734754Y-94251918D01*
X167670641Y-94097137D01*
X167639475Y-94050494D01*
X167577564Y-93957837D01*
X167459100Y-93839373D01*
X167319798Y-93746295D01*
X167165020Y-93682184D01*
X167165012Y-93682182D01*
X167000709Y-93649500D01*
X167000705Y-93649500D01*
X166833171Y-93649500D01*
X166833166Y-93649500D01*
X166668863Y-93682182D01*
X166668855Y-93682184D01*
X166514077Y-93746295D01*
X166374775Y-93839373D01*
X166256311Y-93957837D01*
X166163233Y-94097139D01*
X166099122Y-94251917D01*
X166099120Y-94251925D01*
X166066438Y-94416228D01*
X164697438Y-94416228D01*
X164697438Y-89952155D01*
X165126938Y-89952155D01*
X165126938Y-90250000D01*
X166671963Y-90250000D01*
X166636868Y-90285095D01*
X166590790Y-90364905D01*
X166566938Y-90453922D01*
X166566938Y-90546078D01*
X166590790Y-90635095D01*
X166636868Y-90714905D01*
X166671963Y-90750000D01*
X165126938Y-90750000D01*
X165126938Y-91047844D01*
X165133339Y-91107372D01*
X165133341Y-91107379D01*
X165183583Y-91242086D01*
X165183587Y-91242093D01*
X165269747Y-91357187D01*
X165269750Y-91357190D01*
X165384844Y-91443350D01*
X165384851Y-91443354D01*
X165519558Y-91493596D01*
X165519565Y-91493598D01*
X165579093Y-91499999D01*
X165579110Y-91500000D01*
X166485298Y-91500000D01*
X166552337Y-91519685D01*
X166598092Y-91572489D01*
X166608036Y-91641647D01*
X166579011Y-91705203D01*
X166532751Y-91738561D01*
X166514076Y-91746296D01*
X166374775Y-91839373D01*
X166256311Y-91957837D01*
X166163233Y-92097139D01*
X166099122Y-92251917D01*
X166099120Y-92251925D01*
X166066438Y-92416228D01*
X166066438Y-92583771D01*
X166099120Y-92748074D01*
X166099122Y-92748082D01*
X166163233Y-92902860D01*
X166256311Y-93042162D01*
X166374775Y-93160626D01*
X166467432Y-93222537D01*
X166514075Y-93253703D01*
X166668856Y-93317816D01*
X166833166Y-93350499D01*
X166833170Y-93350500D01*
X166833171Y-93350500D01*
X167000706Y-93350500D01*
X167000707Y-93350499D01*
X167165020Y-93317816D01*
X167319801Y-93253703D01*
X167459100Y-93160626D01*
X167577564Y-93042162D01*
X167670641Y-92902863D01*
X167734754Y-92748082D01*
X167767438Y-92583767D01*
X167767438Y-92416233D01*
X167734754Y-92251918D01*
X167670641Y-92097137D01*
X167639475Y-92050494D01*
X167577564Y-91957837D01*
X167459100Y-91839373D01*
X167350034Y-91766498D01*
X167319801Y-91746297D01*
X167319796Y-91746295D01*
X167301125Y-91738561D01*
X167246722Y-91694720D01*
X167224657Y-91628426D01*
X167241936Y-91560727D01*
X167293073Y-91513116D01*
X167348578Y-91500000D01*
X168254766Y-91500000D01*
X168254782Y-91499999D01*
X168314310Y-91493598D01*
X168314317Y-91493596D01*
X168449024Y-91443354D01*
X168449031Y-91443350D01*
X168564125Y-91357190D01*
X168564128Y-91357187D01*
X168650288Y-91242093D01*
X168650292Y-91242086D01*
X168700534Y-91107379D01*
X168700536Y-91107372D01*
X168706937Y-91047844D01*
X168706938Y-91047827D01*
X168706938Y-90750000D01*
X169296938Y-90750000D01*
X169296938Y-91047844D01*
X169303339Y-91107372D01*
X169303341Y-91107379D01*
X169353583Y-91242086D01*
X169353587Y-91242093D01*
X169439747Y-91357187D01*
X169439750Y-91357190D01*
X169554844Y-91443350D01*
X169554851Y-91443354D01*
X169689558Y-91493596D01*
X169689565Y-91493598D01*
X169749093Y-91499999D01*
X169749110Y-91500000D01*
X170655298Y-91500000D01*
X170722337Y-91519685D01*
X170768092Y-91572489D01*
X170778036Y-91641647D01*
X170749011Y-91705203D01*
X170702751Y-91738561D01*
X170684076Y-91746296D01*
X170544775Y-91839373D01*
X170426311Y-91957837D01*
X170333233Y-92097139D01*
X170269122Y-92251917D01*
X170269120Y-92251925D01*
X170236438Y-92416228D01*
X170236438Y-92583771D01*
X170269120Y-92748074D01*
X170269122Y-92748082D01*
X170333233Y-92902860D01*
X170426311Y-93042162D01*
X170544775Y-93160626D01*
X170637432Y-93222537D01*
X170684075Y-93253703D01*
X170838856Y-93317816D01*
X171003166Y-93350499D01*
X171003170Y-93350500D01*
X171003171Y-93350500D01*
X171170706Y-93350500D01*
X171170707Y-93350499D01*
X171335020Y-93317816D01*
X171489801Y-93253703D01*
X171629100Y-93160626D01*
X171747564Y-93042162D01*
X171840641Y-92902863D01*
X171904754Y-92748082D01*
X171937438Y-92583767D01*
X171937438Y-92416233D01*
X171904754Y-92251918D01*
X171840641Y-92097137D01*
X171747564Y-91957838D01*
X171747563Y-91957837D01*
X171747562Y-91957835D01*
X171710880Y-91921153D01*
X173296438Y-91921153D01*
X173296438Y-92078846D01*
X173327199Y-92233489D01*
X173327202Y-92233501D01*
X173387540Y-92379172D01*
X173387547Y-92379185D01*
X173422242Y-92431109D01*
X173443120Y-92497786D01*
X173424636Y-92565167D01*
X173422242Y-92568891D01*
X173387547Y-92620814D01*
X173387540Y-92620827D01*
X173327202Y-92766498D01*
X173327199Y-92766510D01*
X173296438Y-92921153D01*
X173296438Y-93078846D01*
X173327199Y-93233489D01*
X173327202Y-93233501D01*
X173387540Y-93379172D01*
X173387547Y-93379185D01*
X173422242Y-93431109D01*
X173443120Y-93497786D01*
X173424636Y-93565167D01*
X173422242Y-93568891D01*
X173387547Y-93620814D01*
X173387540Y-93620827D01*
X173327202Y-93766498D01*
X173327199Y-93766510D01*
X173296438Y-93921153D01*
X173296438Y-94078846D01*
X173327199Y-94233489D01*
X173327202Y-94233501D01*
X173387540Y-94379172D01*
X173387547Y-94379185D01*
X173475148Y-94510288D01*
X173475151Y-94510292D01*
X173586645Y-94621786D01*
X173586649Y-94621789D01*
X173717752Y-94709390D01*
X173717765Y-94709397D01*
X173815791Y-94750000D01*
X173863441Y-94769737D01*
X174018091Y-94800499D01*
X174018094Y-94800500D01*
X174018096Y-94800500D01*
X174175782Y-94800500D01*
X174175783Y-94800499D01*
X174330435Y-94769737D01*
X174476117Y-94709394D01*
X174607227Y-94621789D01*
X174607230Y-94621786D01*
X174618060Y-94610957D01*
X174718724Y-94510292D01*
X174718727Y-94510289D01*
X174806332Y-94379179D01*
X174866675Y-94233497D01*
X174897438Y-94078842D01*
X174897438Y-93952155D01*
X205516938Y-93952155D01*
X205516938Y-94250000D01*
X207061963Y-94250000D01*
X207026868Y-94285095D01*
X206980790Y-94364905D01*
X206956938Y-94453922D01*
X206956938Y-94546078D01*
X206980790Y-94635095D01*
X207026868Y-94714905D01*
X207092033Y-94780070D01*
X207171843Y-94826148D01*
X207260860Y-94850000D01*
X207353016Y-94850000D01*
X207442033Y-94826148D01*
X207521843Y-94780070D01*
X207587008Y-94714905D01*
X207633086Y-94635095D01*
X207656938Y-94546078D01*
X207656938Y-94453922D01*
X207633086Y-94364905D01*
X207587008Y-94285095D01*
X207551913Y-94250000D01*
X209096938Y-94250000D01*
X209096938Y-93952172D01*
X209096937Y-93952155D01*
X209686938Y-93952155D01*
X209686938Y-94250000D01*
X211231963Y-94250000D01*
X211196868Y-94285095D01*
X211150790Y-94364905D01*
X211126938Y-94453922D01*
X211126938Y-94546078D01*
X211150790Y-94635095D01*
X211196868Y-94714905D01*
X211262033Y-94780070D01*
X211341843Y-94826148D01*
X211430860Y-94850000D01*
X211523016Y-94850000D01*
X211612033Y-94826148D01*
X211691843Y-94780070D01*
X211757008Y-94714905D01*
X211803086Y-94635095D01*
X211826938Y-94546078D01*
X211826938Y-94453922D01*
X211803086Y-94364905D01*
X211757008Y-94285095D01*
X211721913Y-94250000D01*
X213266938Y-94250000D01*
X213266938Y-93952172D01*
X213266937Y-93952155D01*
X213260536Y-93892627D01*
X213260534Y-93892620D01*
X213210292Y-93757913D01*
X213210288Y-93757906D01*
X213124128Y-93642812D01*
X213124125Y-93642809D01*
X213009031Y-93556649D01*
X213009024Y-93556645D01*
X212874317Y-93506403D01*
X212874310Y-93506401D01*
X212814782Y-93500000D01*
X211908578Y-93500000D01*
X211841539Y-93480315D01*
X211795784Y-93427511D01*
X211785840Y-93358353D01*
X211814865Y-93294797D01*
X211861125Y-93261439D01*
X211862653Y-93260805D01*
X211879801Y-93253703D01*
X212019100Y-93160626D01*
X212137564Y-93042162D01*
X212230641Y-92902863D01*
X212294754Y-92748082D01*
X212327438Y-92583767D01*
X212327438Y-92416233D01*
X212294754Y-92251918D01*
X212230641Y-92097137D01*
X212199475Y-92050494D01*
X212137564Y-91957837D01*
X212019100Y-91839373D01*
X211879798Y-91746295D01*
X211725020Y-91682184D01*
X211725012Y-91682182D01*
X211560709Y-91649500D01*
X211560705Y-91649500D01*
X211393171Y-91649500D01*
X211393166Y-91649500D01*
X211228863Y-91682182D01*
X211228855Y-91682184D01*
X211074077Y-91746295D01*
X210934775Y-91839373D01*
X210816311Y-91957837D01*
X210723233Y-92097139D01*
X210659122Y-92251917D01*
X210659120Y-92251925D01*
X210626438Y-92416228D01*
X210626438Y-92583771D01*
X210659120Y-92748074D01*
X210659122Y-92748082D01*
X210723233Y-92902860D01*
X210816311Y-93042162D01*
X210934775Y-93160626D01*
X211004425Y-93207164D01*
X211074075Y-93253703D01*
X211089925Y-93260268D01*
X211092751Y-93261439D01*
X211147154Y-93305280D01*
X211169219Y-93371574D01*
X211151940Y-93439273D01*
X211100803Y-93486884D01*
X211045298Y-93500000D01*
X210139093Y-93500000D01*
X210079565Y-93506401D01*
X210079558Y-93506403D01*
X209944851Y-93556645D01*
X209944844Y-93556649D01*
X209829750Y-93642809D01*
X209829747Y-93642812D01*
X209743587Y-93757906D01*
X209743583Y-93757913D01*
X209693341Y-93892620D01*
X209693339Y-93892627D01*
X209686938Y-93952155D01*
X209096937Y-93952155D01*
X209090536Y-93892627D01*
X209090534Y-93892620D01*
X209040292Y-93757913D01*
X209040288Y-93757906D01*
X208954128Y-93642812D01*
X208954125Y-93642809D01*
X208839031Y-93556649D01*
X208839024Y-93556645D01*
X208704317Y-93506403D01*
X208704310Y-93506401D01*
X208644782Y-93500000D01*
X207738578Y-93500000D01*
X207671539Y-93480315D01*
X207625784Y-93427511D01*
X207615840Y-93358353D01*
X207644865Y-93294797D01*
X207691125Y-93261439D01*
X207692653Y-93260805D01*
X207709801Y-93253703D01*
X207849100Y-93160626D01*
X207967564Y-93042162D01*
X208060641Y-92902863D01*
X208124754Y-92748082D01*
X208157438Y-92583767D01*
X208157438Y-92416233D01*
X208124754Y-92251918D01*
X208060641Y-92097137D01*
X208029475Y-92050494D01*
X207967564Y-91957837D01*
X207849100Y-91839373D01*
X207709798Y-91746295D01*
X207555020Y-91682184D01*
X207555012Y-91682182D01*
X207390709Y-91649500D01*
X207390705Y-91649500D01*
X207223171Y-91649500D01*
X207223166Y-91649500D01*
X207058863Y-91682182D01*
X207058855Y-91682184D01*
X206904077Y-91746295D01*
X206764775Y-91839373D01*
X206646311Y-91957837D01*
X206553233Y-92097139D01*
X206489122Y-92251917D01*
X206489120Y-92251925D01*
X206456438Y-92416228D01*
X206456438Y-92583771D01*
X206489120Y-92748074D01*
X206489122Y-92748082D01*
X206553233Y-92902860D01*
X206646311Y-93042162D01*
X206764775Y-93160626D01*
X206834425Y-93207164D01*
X206904075Y-93253703D01*
X206919925Y-93260268D01*
X206922751Y-93261439D01*
X206977154Y-93305280D01*
X206999219Y-93371574D01*
X206981940Y-93439273D01*
X206930803Y-93486884D01*
X206875298Y-93500000D01*
X205969093Y-93500000D01*
X205909565Y-93506401D01*
X205909558Y-93506403D01*
X205774851Y-93556645D01*
X205774844Y-93556649D01*
X205659750Y-93642809D01*
X205659747Y-93642812D01*
X205573587Y-93757906D01*
X205573583Y-93757913D01*
X205523341Y-93892620D01*
X205523339Y-93892627D01*
X205516938Y-93952155D01*
X174897438Y-93952155D01*
X174897438Y-93921158D01*
X174897438Y-93921155D01*
X174897437Y-93921153D01*
X174866676Y-93766510D01*
X174866675Y-93766503D01*
X174863114Y-93757906D01*
X174806334Y-93620825D01*
X174806332Y-93620822D01*
X174806332Y-93620821D01*
X174771632Y-93568889D01*
X174750754Y-93502215D01*
X174769238Y-93434835D01*
X174771614Y-93431136D01*
X174806332Y-93379179D01*
X174866675Y-93233497D01*
X174897438Y-93078842D01*
X174897438Y-92921158D01*
X174897438Y-92921155D01*
X174897437Y-92921153D01*
X174866676Y-92766510D01*
X174866675Y-92766503D01*
X174859042Y-92748074D01*
X174806334Y-92620825D01*
X174806332Y-92620822D01*
X174806332Y-92620821D01*
X174771632Y-92568889D01*
X174750754Y-92502215D01*
X174769238Y-92434835D01*
X174771614Y-92431136D01*
X174806332Y-92379179D01*
X174866675Y-92233497D01*
X174897438Y-92078842D01*
X174897438Y-91921158D01*
X174897438Y-91921155D01*
X174897437Y-91921153D01*
X174866676Y-91766510D01*
X174866675Y-91766503D01*
X174866673Y-91766498D01*
X174806335Y-91620827D01*
X174806328Y-91620814D01*
X174718727Y-91489711D01*
X174718724Y-91489707D01*
X174607230Y-91378213D01*
X174607226Y-91378210D01*
X174593251Y-91368872D01*
X195157438Y-91368872D01*
X195157438Y-91631127D01*
X195175688Y-91769738D01*
X195191668Y-91891116D01*
X195259540Y-92144418D01*
X195259543Y-92144428D01*
X195359891Y-92386690D01*
X195359896Y-92386700D01*
X195491013Y-92613803D01*
X195650656Y-92821851D01*
X195650664Y-92821860D01*
X195836078Y-93007274D01*
X195836086Y-93007281D01*
X196044134Y-93166924D01*
X196271237Y-93298041D01*
X196271247Y-93298046D01*
X196513509Y-93398394D01*
X196513519Y-93398398D01*
X196766822Y-93466270D01*
X197026818Y-93500500D01*
X197026825Y-93500500D01*
X197289051Y-93500500D01*
X197289058Y-93500500D01*
X197549054Y-93466270D01*
X197802357Y-93398398D01*
X197996901Y-93317815D01*
X198044628Y-93298046D01*
X198044629Y-93298045D01*
X198044635Y-93298043D01*
X198271741Y-93166924D01*
X198479789Y-93007282D01*
X198479793Y-93007277D01*
X198479798Y-93007274D01*
X198565919Y-92921153D01*
X203496438Y-92921153D01*
X203496438Y-93078846D01*
X203527199Y-93233489D01*
X203527202Y-93233501D01*
X203587540Y-93379172D01*
X203587547Y-93379185D01*
X203675148Y-93510288D01*
X203675151Y-93510292D01*
X203786645Y-93621786D01*
X203786649Y-93621789D01*
X203917752Y-93709390D01*
X203917765Y-93709397D01*
X204006851Y-93746297D01*
X204063441Y-93769737D01*
X204218091Y-93800499D01*
X204218094Y-93800500D01*
X204218096Y-93800500D01*
X204375782Y-93800500D01*
X204375783Y-93800499D01*
X204530435Y-93769737D01*
X204676117Y-93709394D01*
X204807227Y-93621789D01*
X204918727Y-93510289D01*
X205006332Y-93379179D01*
X205066675Y-93233497D01*
X205097438Y-93078842D01*
X205097438Y-92921158D01*
X205097438Y-92921155D01*
X205097437Y-92921153D01*
X205066676Y-92766510D01*
X205066675Y-92766503D01*
X205059042Y-92748074D01*
X205006335Y-92620827D01*
X205006328Y-92620814D01*
X204918727Y-92489711D01*
X204918724Y-92489707D01*
X204807230Y-92378213D01*
X204807226Y-92378210D01*
X204676123Y-92290609D01*
X204676110Y-92290602D01*
X204530439Y-92230264D01*
X204530427Y-92230261D01*
X204375783Y-92199500D01*
X204375780Y-92199500D01*
X204218096Y-92199500D01*
X204218093Y-92199500D01*
X204063448Y-92230261D01*
X204063436Y-92230264D01*
X203917765Y-92290602D01*
X203917752Y-92290609D01*
X203786649Y-92378210D01*
X203786645Y-92378213D01*
X203675151Y-92489707D01*
X203675148Y-92489711D01*
X203587547Y-92620814D01*
X203587540Y-92620827D01*
X203527202Y-92766498D01*
X203527199Y-92766510D01*
X203496438Y-92921153D01*
X198565919Y-92921153D01*
X198665212Y-92821860D01*
X198665215Y-92821855D01*
X198665220Y-92821851D01*
X198824862Y-92613803D01*
X198955981Y-92386697D01*
X198959497Y-92378210D01*
X199019437Y-92233501D01*
X199056336Y-92144419D01*
X199124208Y-91891116D01*
X199158438Y-91631120D01*
X199158438Y-91368880D01*
X199124208Y-91108884D01*
X199073906Y-90921153D01*
X203496438Y-90921153D01*
X203496438Y-91078846D01*
X203527199Y-91233489D01*
X203527202Y-91233501D01*
X203587540Y-91379172D01*
X203587547Y-91379185D01*
X203675148Y-91510288D01*
X203675151Y-91510292D01*
X203786645Y-91621786D01*
X203786649Y-91621789D01*
X203917752Y-91709390D01*
X203917765Y-91709397D01*
X204006851Y-91746297D01*
X204063441Y-91769737D01*
X204218091Y-91800499D01*
X204218094Y-91800500D01*
X204218096Y-91800500D01*
X204375782Y-91800500D01*
X204375783Y-91800499D01*
X204530435Y-91769737D01*
X204676117Y-91709394D01*
X204807227Y-91621789D01*
X204918727Y-91510289D01*
X205006332Y-91379179D01*
X205010596Y-91368886D01*
X205031750Y-91317815D01*
X205066675Y-91233497D01*
X205097438Y-91078842D01*
X205097438Y-90921158D01*
X205097438Y-90921155D01*
X205097437Y-90921153D01*
X205078539Y-90826148D01*
X205066675Y-90766503D01*
X205045303Y-90714905D01*
X205006335Y-90620827D01*
X205006328Y-90620814D01*
X204918728Y-90489712D01*
X204918723Y-90489706D01*
X204845245Y-90416228D01*
X206456438Y-90416228D01*
X206456438Y-90583771D01*
X206489120Y-90748074D01*
X206489122Y-90748082D01*
X206553233Y-90902860D01*
X206646311Y-91042162D01*
X206764775Y-91160626D01*
X206857432Y-91222537D01*
X206904075Y-91253703D01*
X207058856Y-91317816D01*
X207223166Y-91350499D01*
X207223170Y-91350500D01*
X207223171Y-91350500D01*
X207390706Y-91350500D01*
X207390707Y-91350499D01*
X207555020Y-91317816D01*
X207709801Y-91253703D01*
X207849100Y-91160626D01*
X207967564Y-91042162D01*
X208060641Y-90902863D01*
X208124754Y-90748082D01*
X208157438Y-90583767D01*
X208157438Y-90416233D01*
X208157437Y-90416228D01*
X210626438Y-90416228D01*
X210626438Y-90583771D01*
X210659120Y-90748074D01*
X210659122Y-90748082D01*
X210723233Y-90902860D01*
X210816311Y-91042162D01*
X210934775Y-91160626D01*
X211027432Y-91222537D01*
X211074075Y-91253703D01*
X211228856Y-91317816D01*
X211393166Y-91350499D01*
X211393170Y-91350500D01*
X211393171Y-91350500D01*
X211560706Y-91350500D01*
X211560707Y-91350499D01*
X211725020Y-91317816D01*
X211879801Y-91253703D01*
X212019100Y-91160626D01*
X212137564Y-91042162D01*
X212230641Y-90902863D01*
X212294754Y-90748082D01*
X212327438Y-90583767D01*
X212327438Y-90416233D01*
X212294754Y-90251918D01*
X212230641Y-90097137D01*
X212160876Y-89992726D01*
X212137564Y-89957837D01*
X212019100Y-89839373D01*
X211879798Y-89746295D01*
X211725020Y-89682184D01*
X211725012Y-89682182D01*
X211560709Y-89649500D01*
X211560705Y-89649500D01*
X211393171Y-89649500D01*
X211393166Y-89649500D01*
X211228863Y-89682182D01*
X211228855Y-89682184D01*
X211074077Y-89746295D01*
X210934775Y-89839373D01*
X210816311Y-89957837D01*
X210723233Y-90097139D01*
X210659122Y-90251917D01*
X210659120Y-90251925D01*
X210626438Y-90416228D01*
X208157437Y-90416228D01*
X208124754Y-90251918D01*
X208060641Y-90097137D01*
X207990876Y-89992726D01*
X207967564Y-89957837D01*
X207849100Y-89839373D01*
X207709798Y-89746295D01*
X207555020Y-89682184D01*
X207555012Y-89682182D01*
X207390709Y-89649500D01*
X207390705Y-89649500D01*
X207223171Y-89649500D01*
X207223166Y-89649500D01*
X207058863Y-89682182D01*
X207058855Y-89682184D01*
X206904077Y-89746295D01*
X206764775Y-89839373D01*
X206646311Y-89957837D01*
X206553233Y-90097139D01*
X206489122Y-90251917D01*
X206489120Y-90251925D01*
X206456438Y-90416228D01*
X204845245Y-90416228D01*
X204807230Y-90378213D01*
X204807226Y-90378210D01*
X204676123Y-90290609D01*
X204676110Y-90290602D01*
X204530439Y-90230264D01*
X204530427Y-90230261D01*
X204375783Y-90199500D01*
X204375780Y-90199500D01*
X204218096Y-90199500D01*
X204218093Y-90199500D01*
X204063448Y-90230261D01*
X204063436Y-90230264D01*
X203917765Y-90290602D01*
X203917752Y-90290609D01*
X203786649Y-90378210D01*
X203786645Y-90378213D01*
X203675151Y-90489707D01*
X203675148Y-90489711D01*
X203587547Y-90620814D01*
X203587540Y-90620827D01*
X203527202Y-90766498D01*
X203527199Y-90766510D01*
X203496438Y-90921153D01*
X199073906Y-90921153D01*
X199056336Y-90855581D01*
X199054024Y-90850000D01*
X198955984Y-90613309D01*
X198955979Y-90613299D01*
X198824862Y-90386196D01*
X198665219Y-90178148D01*
X198665212Y-90178140D01*
X198479798Y-89992726D01*
X198479789Y-89992718D01*
X198271741Y-89833075D01*
X198044638Y-89701958D01*
X198044628Y-89701953D01*
X197802366Y-89601605D01*
X197802359Y-89601603D01*
X197802357Y-89601602D01*
X197549054Y-89533730D01*
X197491277Y-89526123D01*
X197289065Y-89499500D01*
X197289058Y-89499500D01*
X197026818Y-89499500D01*
X197026810Y-89499500D01*
X196795710Y-89529926D01*
X196766822Y-89533730D01*
X196681302Y-89556645D01*
X196513519Y-89601602D01*
X196513509Y-89601605D01*
X196271247Y-89701953D01*
X196271237Y-89701958D01*
X196044134Y-89833075D01*
X195836086Y-89992718D01*
X195650656Y-90178148D01*
X195491013Y-90386196D01*
X195359896Y-90613299D01*
X195359891Y-90613309D01*
X195259543Y-90855571D01*
X195259541Y-90855578D01*
X195259540Y-90855581D01*
X195192072Y-91107379D01*
X195191668Y-91108885D01*
X195157438Y-91368872D01*
X174593251Y-91368872D01*
X174476123Y-91290609D01*
X174476110Y-91290602D01*
X174330439Y-91230264D01*
X174330427Y-91230261D01*
X174175783Y-91199500D01*
X174175780Y-91199500D01*
X174018096Y-91199500D01*
X174018093Y-91199500D01*
X173863448Y-91230261D01*
X173863436Y-91230264D01*
X173717765Y-91290602D01*
X173717752Y-91290609D01*
X173586649Y-91378210D01*
X173586645Y-91378213D01*
X173475151Y-91489707D01*
X173475148Y-91489711D01*
X173387547Y-91620814D01*
X173387540Y-91620827D01*
X173327202Y-91766498D01*
X173327199Y-91766510D01*
X173296438Y-91921153D01*
X171710880Y-91921153D01*
X171629100Y-91839373D01*
X171520034Y-91766498D01*
X171489801Y-91746297D01*
X171489796Y-91746295D01*
X171471125Y-91738561D01*
X171416722Y-91694720D01*
X171394657Y-91628426D01*
X171411936Y-91560727D01*
X171463073Y-91513116D01*
X171518578Y-91500000D01*
X172424766Y-91500000D01*
X172424782Y-91499999D01*
X172484310Y-91493598D01*
X172484317Y-91493596D01*
X172619024Y-91443354D01*
X172619031Y-91443350D01*
X172734125Y-91357190D01*
X172734128Y-91357187D01*
X172820288Y-91242093D01*
X172820292Y-91242086D01*
X172870534Y-91107379D01*
X172870536Y-91107372D01*
X172876937Y-91047844D01*
X172876938Y-91047827D01*
X172876938Y-90750000D01*
X171331913Y-90750000D01*
X171367008Y-90714905D01*
X171413086Y-90635095D01*
X171436938Y-90546078D01*
X171436938Y-90453922D01*
X171413086Y-90364905D01*
X171367008Y-90285095D01*
X171331913Y-90250000D01*
X171336938Y-90250000D01*
X172876938Y-90250000D01*
X172876938Y-89952172D01*
X172876937Y-89952155D01*
X172870536Y-89892627D01*
X172870534Y-89892620D01*
X172820292Y-89757913D01*
X172820288Y-89757906D01*
X172734128Y-89642813D01*
X172675959Y-89599267D01*
X172634088Y-89543333D01*
X172629104Y-89473641D01*
X172662589Y-89412318D01*
X172675959Y-89400733D01*
X172734128Y-89357186D01*
X172820288Y-89242093D01*
X172820292Y-89242086D01*
X172870534Y-89107379D01*
X172870536Y-89107372D01*
X172876937Y-89047844D01*
X172876938Y-89047827D01*
X172876938Y-88750000D01*
X171336938Y-88750000D01*
X171336938Y-90250000D01*
X171331913Y-90250000D01*
X171301843Y-90219930D01*
X171222033Y-90173852D01*
X171133016Y-90150000D01*
X171040860Y-90150000D01*
X170951843Y-90173852D01*
X170872033Y-90219930D01*
X170806868Y-90285095D01*
X170760790Y-90364905D01*
X170736938Y-90453922D01*
X170736938Y-90546078D01*
X170760790Y-90635095D01*
X170806868Y-90714905D01*
X170841963Y-90750000D01*
X169296938Y-90750000D01*
X168706938Y-90750000D01*
X167161913Y-90750000D01*
X167197008Y-90714905D01*
X167243086Y-90635095D01*
X167266938Y-90546078D01*
X167266938Y-90453922D01*
X167243086Y-90364905D01*
X167197008Y-90285095D01*
X167161913Y-90250000D01*
X168706938Y-90250000D01*
X168706938Y-89952172D01*
X168706937Y-89952155D01*
X168700536Y-89892627D01*
X168700534Y-89892620D01*
X168650292Y-89757913D01*
X168650288Y-89757906D01*
X168564128Y-89642812D01*
X168564125Y-89642809D01*
X168449031Y-89556649D01*
X168449024Y-89556645D01*
X168314317Y-89506403D01*
X168314310Y-89506401D01*
X168254782Y-89500000D01*
X167348578Y-89500000D01*
X167281539Y-89480315D01*
X167235784Y-89427511D01*
X167225840Y-89358353D01*
X167254865Y-89294797D01*
X167301125Y-89261439D01*
X167302653Y-89260805D01*
X167319801Y-89253703D01*
X167459100Y-89160626D01*
X167571882Y-89047844D01*
X169296938Y-89047844D01*
X169303339Y-89107372D01*
X169303341Y-89107379D01*
X169353583Y-89242086D01*
X169353587Y-89242093D01*
X169439747Y-89357187D01*
X169497917Y-89400734D01*
X169539787Y-89456668D01*
X169544771Y-89526360D01*
X169511285Y-89587683D01*
X169497917Y-89599266D01*
X169439747Y-89642812D01*
X169353587Y-89757906D01*
X169353583Y-89757913D01*
X169303341Y-89892620D01*
X169303339Y-89892627D01*
X169296938Y-89952155D01*
X169296938Y-90250000D01*
X170836938Y-90250000D01*
X170836938Y-88750000D01*
X169296938Y-88750000D01*
X169296938Y-89047844D01*
X167571882Y-89047844D01*
X167577564Y-89042162D01*
X167670641Y-88902863D01*
X167734754Y-88748082D01*
X167767438Y-88583767D01*
X167767438Y-88453922D01*
X170736938Y-88453922D01*
X170736938Y-88546078D01*
X170760790Y-88635095D01*
X170806868Y-88714905D01*
X170872033Y-88780070D01*
X170951843Y-88826148D01*
X171040860Y-88850000D01*
X171133016Y-88850000D01*
X171222033Y-88826148D01*
X171301843Y-88780070D01*
X171367008Y-88714905D01*
X171413086Y-88635095D01*
X171436938Y-88546078D01*
X171436938Y-88453922D01*
X171413086Y-88364905D01*
X171367008Y-88285095D01*
X171331913Y-88250000D01*
X171336938Y-88250000D01*
X172876938Y-88250000D01*
X172876938Y-87952172D01*
X172876937Y-87952160D01*
X172874374Y-87928324D01*
X172874373Y-87928321D01*
X172873602Y-87921153D01*
X188861500Y-87921153D01*
X188861500Y-88078846D01*
X188892261Y-88233489D01*
X188892264Y-88233501D01*
X188952602Y-88379172D01*
X188952609Y-88379185D01*
X188987304Y-88431109D01*
X189008182Y-88497786D01*
X188989698Y-88565167D01*
X188987304Y-88568891D01*
X188952609Y-88620814D01*
X188952602Y-88620827D01*
X188892264Y-88766498D01*
X188892261Y-88766510D01*
X188861500Y-88921153D01*
X188861500Y-89078846D01*
X188892261Y-89233489D01*
X188892264Y-89233501D01*
X188952602Y-89379172D01*
X188952609Y-89379185D01*
X189040210Y-89510288D01*
X189040213Y-89510292D01*
X189151707Y-89621786D01*
X189151711Y-89621789D01*
X189282814Y-89709390D01*
X189282827Y-89709397D01*
X189371913Y-89746297D01*
X189428503Y-89769737D01*
X189583153Y-89800499D01*
X189583156Y-89800500D01*
X189583158Y-89800500D01*
X189740844Y-89800500D01*
X189740845Y-89800499D01*
X189895497Y-89769737D01*
X190041179Y-89709394D01*
X190172289Y-89621789D01*
X190283789Y-89510289D01*
X190371394Y-89379179D01*
X190431737Y-89233497D01*
X190462500Y-89078842D01*
X190462500Y-88921158D01*
X190462500Y-88921155D01*
X190462499Y-88921153D01*
X190443601Y-88826148D01*
X190431737Y-88766503D01*
X190410365Y-88714905D01*
X190371396Y-88620825D01*
X190371394Y-88620822D01*
X190371394Y-88620821D01*
X190336694Y-88568889D01*
X190315816Y-88502215D01*
X190334300Y-88434835D01*
X190336676Y-88431136D01*
X190371394Y-88379179D01*
X190431737Y-88233497D01*
X190462500Y-88078842D01*
X190462500Y-87921158D01*
X190462500Y-87921155D01*
X190462499Y-87921153D01*
X199222500Y-87921153D01*
X199222500Y-88078846D01*
X199253261Y-88233489D01*
X199253264Y-88233501D01*
X199313602Y-88379172D01*
X199313609Y-88379185D01*
X199348304Y-88431109D01*
X199369182Y-88497786D01*
X199350698Y-88565167D01*
X199348304Y-88568891D01*
X199313609Y-88620814D01*
X199313602Y-88620827D01*
X199253264Y-88766498D01*
X199253261Y-88766510D01*
X199222500Y-88921153D01*
X199222500Y-89078846D01*
X199253261Y-89233489D01*
X199253264Y-89233501D01*
X199313602Y-89379172D01*
X199313609Y-89379185D01*
X199401210Y-89510288D01*
X199401213Y-89510292D01*
X199512707Y-89621786D01*
X199512711Y-89621789D01*
X199643814Y-89709390D01*
X199643827Y-89709397D01*
X199732913Y-89746297D01*
X199789503Y-89769737D01*
X199944153Y-89800499D01*
X199944156Y-89800500D01*
X199944158Y-89800500D01*
X200101844Y-89800500D01*
X200101845Y-89800499D01*
X200256497Y-89769737D01*
X200402179Y-89709394D01*
X200533289Y-89621789D01*
X200644789Y-89510289D01*
X200732394Y-89379179D01*
X200792737Y-89233497D01*
X200823500Y-89078842D01*
X200823500Y-88921158D01*
X200823500Y-88921155D01*
X200823499Y-88921153D01*
X200804601Y-88826148D01*
X200792737Y-88766503D01*
X200771365Y-88714905D01*
X200732396Y-88620825D01*
X200732394Y-88620822D01*
X200732394Y-88620821D01*
X200697694Y-88568889D01*
X200692740Y-88553070D01*
X200683247Y-88539475D01*
X200682515Y-88520415D01*
X200676816Y-88502215D01*
X200681179Y-88485642D01*
X200680566Y-88469657D01*
X200692405Y-88443013D01*
X200693985Y-88437013D01*
X200695749Y-88434020D01*
X200707638Y-88416228D01*
X206456438Y-88416228D01*
X206456438Y-88583771D01*
X206489120Y-88748074D01*
X206489122Y-88748082D01*
X206553233Y-88902860D01*
X206646311Y-89042162D01*
X206764775Y-89160626D01*
X206857432Y-89222537D01*
X206904075Y-89253703D01*
X207058856Y-89317816D01*
X207223166Y-89350499D01*
X207223170Y-89350500D01*
X207223171Y-89350500D01*
X207390706Y-89350500D01*
X207390707Y-89350499D01*
X207555020Y-89317816D01*
X207709801Y-89253703D01*
X207849100Y-89160626D01*
X207967564Y-89042162D01*
X208060641Y-88902863D01*
X208124754Y-88748082D01*
X208157438Y-88583767D01*
X208157438Y-88416233D01*
X208157437Y-88416228D01*
X210626438Y-88416228D01*
X210626438Y-88583771D01*
X210659120Y-88748074D01*
X210659122Y-88748082D01*
X210723233Y-88902860D01*
X210816311Y-89042162D01*
X210934775Y-89160626D01*
X211027432Y-89222537D01*
X211074075Y-89253703D01*
X211228856Y-89317816D01*
X211393166Y-89350499D01*
X211393170Y-89350500D01*
X211393171Y-89350500D01*
X211560706Y-89350500D01*
X211560707Y-89350499D01*
X211725020Y-89317816D01*
X211879801Y-89253703D01*
X212019100Y-89160626D01*
X212137564Y-89042162D01*
X212230641Y-88902863D01*
X212294754Y-88748082D01*
X212327438Y-88583767D01*
X212327438Y-88416233D01*
X212294754Y-88251918D01*
X212230641Y-88097137D01*
X212199475Y-88050494D01*
X212137564Y-87957837D01*
X212019100Y-87839373D01*
X211879798Y-87746295D01*
X211725020Y-87682184D01*
X211725012Y-87682182D01*
X211560709Y-87649500D01*
X211560705Y-87649500D01*
X211393171Y-87649500D01*
X211393166Y-87649500D01*
X211228863Y-87682182D01*
X211228855Y-87682184D01*
X211074077Y-87746295D01*
X210934775Y-87839373D01*
X210816311Y-87957837D01*
X210723233Y-88097139D01*
X210659122Y-88251917D01*
X210659120Y-88251925D01*
X210626438Y-88416228D01*
X208157437Y-88416228D01*
X208124754Y-88251918D01*
X208060641Y-88097137D01*
X208029475Y-88050494D01*
X207967564Y-87957837D01*
X207849100Y-87839373D01*
X207709798Y-87746295D01*
X207555020Y-87682184D01*
X207555012Y-87682182D01*
X207390709Y-87649500D01*
X207390705Y-87649500D01*
X207223171Y-87649500D01*
X207223166Y-87649500D01*
X207058863Y-87682182D01*
X207058855Y-87682184D01*
X206904077Y-87746295D01*
X206764775Y-87839373D01*
X206646311Y-87957837D01*
X206553233Y-88097139D01*
X206489122Y-88251917D01*
X206489120Y-88251925D01*
X206456438Y-88416228D01*
X200707638Y-88416228D01*
X200732394Y-88379179D01*
X200792737Y-88233497D01*
X200823500Y-88078842D01*
X200823500Y-87921158D01*
X200823500Y-87921155D01*
X200823499Y-87921153D01*
X200792738Y-87766510D01*
X200792737Y-87766503D01*
X200789176Y-87757906D01*
X200732397Y-87620827D01*
X200732390Y-87620814D01*
X200644789Y-87489711D01*
X200644786Y-87489707D01*
X200533292Y-87378213D01*
X200533288Y-87378210D01*
X200402185Y-87290609D01*
X200402172Y-87290602D01*
X200256501Y-87230264D01*
X200256489Y-87230261D01*
X200101845Y-87199500D01*
X200101842Y-87199500D01*
X199944158Y-87199500D01*
X199944155Y-87199500D01*
X199789510Y-87230261D01*
X199789498Y-87230264D01*
X199643827Y-87290602D01*
X199643814Y-87290609D01*
X199512711Y-87378210D01*
X199512707Y-87378213D01*
X199401213Y-87489707D01*
X199401210Y-87489711D01*
X199313609Y-87620814D01*
X199313602Y-87620827D01*
X199253264Y-87766498D01*
X199253261Y-87766510D01*
X199222500Y-87921153D01*
X190462499Y-87921153D01*
X190431738Y-87766510D01*
X190431737Y-87766503D01*
X190428176Y-87757906D01*
X190371397Y-87620827D01*
X190371390Y-87620814D01*
X190283789Y-87489711D01*
X190283786Y-87489707D01*
X190172292Y-87378213D01*
X190172288Y-87378210D01*
X190041185Y-87290609D01*
X190041172Y-87290602D01*
X189895501Y-87230264D01*
X189895489Y-87230261D01*
X189740845Y-87199500D01*
X189740842Y-87199500D01*
X189583158Y-87199500D01*
X189583155Y-87199500D01*
X189428510Y-87230261D01*
X189428498Y-87230264D01*
X189282827Y-87290602D01*
X189282814Y-87290609D01*
X189151711Y-87378210D01*
X189151707Y-87378213D01*
X189040213Y-87489707D01*
X189040210Y-87489711D01*
X188952609Y-87620814D01*
X188952602Y-87620827D01*
X188892264Y-87766498D01*
X188892261Y-87766510D01*
X188861500Y-87921153D01*
X172873602Y-87921153D01*
X172870534Y-87892619D01*
X172820292Y-87757913D01*
X172820288Y-87757906D01*
X172734128Y-87642813D01*
X172675959Y-87599267D01*
X172634088Y-87543333D01*
X172629104Y-87473641D01*
X172662589Y-87412318D01*
X172675959Y-87400733D01*
X172734128Y-87357186D01*
X172820288Y-87242093D01*
X172820292Y-87242086D01*
X172870534Y-87107379D01*
X172870536Y-87107372D01*
X172876937Y-87047844D01*
X172876938Y-87047827D01*
X172876938Y-86750000D01*
X171336938Y-86750000D01*
X171336938Y-88250000D01*
X171331913Y-88250000D01*
X171301843Y-88219930D01*
X171222033Y-88173852D01*
X171133016Y-88150000D01*
X171040860Y-88150000D01*
X170951843Y-88173852D01*
X170872033Y-88219930D01*
X170806868Y-88285095D01*
X170760790Y-88364905D01*
X170736938Y-88453922D01*
X167767438Y-88453922D01*
X167767438Y-88416233D01*
X167734754Y-88251918D01*
X167670641Y-88097137D01*
X167639475Y-88050494D01*
X167577564Y-87957837D01*
X167459100Y-87839373D01*
X167319798Y-87746295D01*
X167165020Y-87682184D01*
X167165012Y-87682182D01*
X167000709Y-87649500D01*
X167000705Y-87649500D01*
X166833171Y-87649500D01*
X166833166Y-87649500D01*
X166668863Y-87682182D01*
X166668855Y-87682184D01*
X166514077Y-87746295D01*
X166374775Y-87839373D01*
X166256311Y-87957837D01*
X166163233Y-88097139D01*
X166099122Y-88251917D01*
X166099120Y-88251925D01*
X166066438Y-88416228D01*
X166066438Y-88583771D01*
X166099120Y-88748074D01*
X166099122Y-88748082D01*
X166163233Y-88902860D01*
X166256311Y-89042162D01*
X166374775Y-89160626D01*
X166444425Y-89207164D01*
X166514075Y-89253703D01*
X166529925Y-89260268D01*
X166532751Y-89261439D01*
X166587154Y-89305280D01*
X166609219Y-89371574D01*
X166591940Y-89439273D01*
X166540803Y-89486884D01*
X166485298Y-89500000D01*
X165579093Y-89500000D01*
X165519565Y-89506401D01*
X165519558Y-89506403D01*
X165384851Y-89556645D01*
X165384844Y-89556649D01*
X165269750Y-89642809D01*
X165269747Y-89642812D01*
X165183587Y-89757906D01*
X165183583Y-89757913D01*
X165133341Y-89892620D01*
X165133339Y-89892627D01*
X165126938Y-89952155D01*
X164697438Y-89952155D01*
X164697438Y-86416228D01*
X166066438Y-86416228D01*
X166066438Y-86583771D01*
X166099120Y-86748074D01*
X166099122Y-86748082D01*
X166163233Y-86902860D01*
X166256311Y-87042162D01*
X166374775Y-87160626D01*
X166467432Y-87222537D01*
X166514075Y-87253703D01*
X166668856Y-87317816D01*
X166833166Y-87350499D01*
X166833170Y-87350500D01*
X166833171Y-87350500D01*
X167000706Y-87350500D01*
X167000707Y-87350499D01*
X167165020Y-87317816D01*
X167319801Y-87253703D01*
X167459100Y-87160626D01*
X167571882Y-87047844D01*
X169296938Y-87047844D01*
X169303339Y-87107372D01*
X169303341Y-87107379D01*
X169353583Y-87242086D01*
X169353587Y-87242093D01*
X169439747Y-87357187D01*
X169497917Y-87400734D01*
X169539787Y-87456668D01*
X169544771Y-87526360D01*
X169511285Y-87587683D01*
X169497917Y-87599266D01*
X169439747Y-87642812D01*
X169353587Y-87757906D01*
X169353583Y-87757913D01*
X169303341Y-87892620D01*
X169303339Y-87892627D01*
X169296938Y-87952155D01*
X169296938Y-88250000D01*
X170836938Y-88250000D01*
X170836938Y-86750000D01*
X169296938Y-86750000D01*
X169296938Y-87047844D01*
X167571882Y-87047844D01*
X167577564Y-87042162D01*
X167670641Y-86902863D01*
X167734754Y-86748082D01*
X167767438Y-86583767D01*
X167767438Y-86416233D01*
X167734754Y-86251918D01*
X167670641Y-86097137D01*
X167670639Y-86097134D01*
X167617592Y-86017743D01*
X167617591Y-86017742D01*
X167577564Y-85957838D01*
X167577561Y-85957834D01*
X167571882Y-85952155D01*
X169296938Y-85952155D01*
X169296938Y-86250000D01*
X170841963Y-86250000D01*
X170806868Y-86285095D01*
X170760790Y-86364905D01*
X170736938Y-86453922D01*
X170736938Y-86546078D01*
X170760790Y-86635095D01*
X170806868Y-86714905D01*
X170872033Y-86780070D01*
X170951843Y-86826148D01*
X171040860Y-86850000D01*
X171133016Y-86850000D01*
X171222033Y-86826148D01*
X171301843Y-86780070D01*
X171367008Y-86714905D01*
X171413086Y-86635095D01*
X171436938Y-86546078D01*
X171436938Y-86453922D01*
X171413086Y-86364905D01*
X171367008Y-86285095D01*
X171331913Y-86250000D01*
X172876938Y-86250000D01*
X172876938Y-85952172D01*
X172876937Y-85952155D01*
X172870536Y-85892627D01*
X172870534Y-85892620D01*
X172820292Y-85757913D01*
X172820288Y-85757906D01*
X172734128Y-85642812D01*
X172734125Y-85642809D01*
X172619031Y-85556649D01*
X172619024Y-85556645D01*
X172484317Y-85506403D01*
X172484310Y-85506401D01*
X172424782Y-85500000D01*
X171518578Y-85500000D01*
X171451539Y-85480315D01*
X171405784Y-85427511D01*
X171395840Y-85358353D01*
X171424865Y-85294797D01*
X171471125Y-85261439D01*
X171472653Y-85260805D01*
X171489801Y-85253703D01*
X171629100Y-85160626D01*
X171747564Y-85042162D01*
X171840641Y-84902863D01*
X171904754Y-84748082D01*
X171937438Y-84583767D01*
X171937438Y-84416233D01*
X171904754Y-84251918D01*
X171840641Y-84097137D01*
X171747564Y-83957838D01*
X171747563Y-83957837D01*
X171747562Y-83957835D01*
X171710880Y-83921153D01*
X173296438Y-83921153D01*
X173296438Y-84078846D01*
X173327199Y-84233489D01*
X173327202Y-84233501D01*
X173387540Y-84379172D01*
X173387547Y-84379185D01*
X173422242Y-84431109D01*
X173443120Y-84497786D01*
X173424636Y-84565167D01*
X173422242Y-84568891D01*
X173387547Y-84620814D01*
X173387540Y-84620827D01*
X173327202Y-84766498D01*
X173327199Y-84766510D01*
X173296438Y-84921153D01*
X173296438Y-85078846D01*
X173327199Y-85233489D01*
X173327202Y-85233501D01*
X173387540Y-85379172D01*
X173387547Y-85379185D01*
X173475148Y-85510288D01*
X173475151Y-85510292D01*
X173586645Y-85621786D01*
X173586649Y-85621789D01*
X173717752Y-85709390D01*
X173717765Y-85709397D01*
X173806851Y-85746297D01*
X173863441Y-85769737D01*
X174018091Y-85800499D01*
X174018094Y-85800500D01*
X174018096Y-85800500D01*
X174175782Y-85800500D01*
X174175783Y-85800499D01*
X174330435Y-85769737D01*
X174476117Y-85709394D01*
X174607227Y-85621789D01*
X174718727Y-85510289D01*
X174806332Y-85379179D01*
X174810601Y-85368872D01*
X195157438Y-85368872D01*
X195157438Y-85631127D01*
X195175688Y-85769738D01*
X195191668Y-85891116D01*
X195259540Y-86144418D01*
X195259543Y-86144428D01*
X195359891Y-86386690D01*
X195359896Y-86386700D01*
X195491013Y-86613803D01*
X195650656Y-86821851D01*
X195650664Y-86821860D01*
X195836078Y-87007274D01*
X195836086Y-87007281D01*
X196044134Y-87166924D01*
X196271237Y-87298041D01*
X196271247Y-87298046D01*
X196464783Y-87378211D01*
X196513519Y-87398398D01*
X196766822Y-87466270D01*
X197026818Y-87500500D01*
X197026825Y-87500500D01*
X197289051Y-87500500D01*
X197289058Y-87500500D01*
X197549054Y-87466270D01*
X197802357Y-87398398D01*
X198044635Y-87298043D01*
X198271741Y-87166924D01*
X198479789Y-87007282D01*
X198479793Y-87007277D01*
X198479798Y-87007274D01*
X198665212Y-86821860D01*
X198665215Y-86821855D01*
X198665220Y-86821851D01*
X198824862Y-86613803D01*
X198938931Y-86416228D01*
X206456438Y-86416228D01*
X206456438Y-86583771D01*
X206489120Y-86748074D01*
X206489122Y-86748082D01*
X206553233Y-86902860D01*
X206646311Y-87042162D01*
X206764775Y-87160626D01*
X206857432Y-87222537D01*
X206904075Y-87253703D01*
X207058856Y-87317816D01*
X207223166Y-87350499D01*
X207223170Y-87350500D01*
X207223171Y-87350500D01*
X207390706Y-87350500D01*
X207390707Y-87350499D01*
X207555020Y-87317816D01*
X207709801Y-87253703D01*
X207849100Y-87160626D01*
X207967564Y-87042162D01*
X208060641Y-86902863D01*
X208124754Y-86748082D01*
X208157438Y-86583767D01*
X208157438Y-86416233D01*
X208157437Y-86416228D01*
X210626438Y-86416228D01*
X210626438Y-86583771D01*
X210659120Y-86748074D01*
X210659122Y-86748082D01*
X210723233Y-86902860D01*
X210816311Y-87042162D01*
X210934775Y-87160626D01*
X211027432Y-87222537D01*
X211074075Y-87253703D01*
X211228856Y-87317816D01*
X211393166Y-87350499D01*
X211393170Y-87350500D01*
X211393171Y-87350500D01*
X211560706Y-87350500D01*
X211560707Y-87350499D01*
X211725020Y-87317816D01*
X211879801Y-87253703D01*
X212019100Y-87160626D01*
X212137564Y-87042162D01*
X212230641Y-86902863D01*
X212294754Y-86748082D01*
X212327438Y-86583767D01*
X212327438Y-86416233D01*
X212294754Y-86251918D01*
X212230641Y-86097137D01*
X212199475Y-86050494D01*
X212137564Y-85957837D01*
X212019100Y-85839373D01*
X211879798Y-85746295D01*
X211725020Y-85682184D01*
X211725012Y-85682182D01*
X211560709Y-85649500D01*
X211560705Y-85649500D01*
X211393171Y-85649500D01*
X211393166Y-85649500D01*
X211228863Y-85682182D01*
X211228855Y-85682184D01*
X211074077Y-85746295D01*
X210934775Y-85839373D01*
X210816311Y-85957837D01*
X210723233Y-86097139D01*
X210659122Y-86251917D01*
X210659120Y-86251925D01*
X210626438Y-86416228D01*
X208157437Y-86416228D01*
X208124754Y-86251918D01*
X208060641Y-86097137D01*
X208029475Y-86050494D01*
X207967564Y-85957837D01*
X207849100Y-85839373D01*
X207709798Y-85746295D01*
X207555020Y-85682184D01*
X207555012Y-85682182D01*
X207390709Y-85649500D01*
X207390705Y-85649500D01*
X207223171Y-85649500D01*
X207223166Y-85649500D01*
X207058863Y-85682182D01*
X207058855Y-85682184D01*
X206904077Y-85746295D01*
X206764775Y-85839373D01*
X206646311Y-85957837D01*
X206553233Y-86097139D01*
X206489122Y-86251917D01*
X206489120Y-86251925D01*
X206456438Y-86416228D01*
X198938931Y-86416228D01*
X198955981Y-86386697D01*
X198965008Y-86364905D01*
X198965926Y-86362689D01*
X198965926Y-86362688D01*
X199056332Y-86144428D01*
X199056336Y-86144419D01*
X199124208Y-85891116D01*
X199158438Y-85631120D01*
X199158438Y-85368880D01*
X199124208Y-85108884D01*
X199056336Y-84855581D01*
X199019437Y-84766498D01*
X198955984Y-84613309D01*
X198955979Y-84613299D01*
X198874482Y-84472141D01*
X198842201Y-84416228D01*
X206456438Y-84416228D01*
X206456438Y-84583771D01*
X206489120Y-84748074D01*
X206489122Y-84748082D01*
X206553233Y-84902860D01*
X206646311Y-85042162D01*
X206764775Y-85160626D01*
X206857432Y-85222537D01*
X206904075Y-85253703D01*
X207058856Y-85317816D01*
X207223166Y-85350499D01*
X207223170Y-85350500D01*
X207223171Y-85350500D01*
X207390706Y-85350500D01*
X207390707Y-85350499D01*
X207555020Y-85317816D01*
X207709801Y-85253703D01*
X207849100Y-85160626D01*
X207967564Y-85042162D01*
X208060641Y-84902863D01*
X208124754Y-84748082D01*
X208157438Y-84583767D01*
X208157438Y-84416233D01*
X208157437Y-84416228D01*
X210626438Y-84416228D01*
X210626438Y-84583771D01*
X210659120Y-84748074D01*
X210659122Y-84748082D01*
X210723233Y-84902860D01*
X210816311Y-85042162D01*
X210934775Y-85160626D01*
X211027432Y-85222537D01*
X211074075Y-85253703D01*
X211228856Y-85317816D01*
X211393166Y-85350499D01*
X211393170Y-85350500D01*
X211393171Y-85350500D01*
X211560706Y-85350500D01*
X211560707Y-85350499D01*
X211725020Y-85317816D01*
X211879801Y-85253703D01*
X212019100Y-85160626D01*
X212137564Y-85042162D01*
X212230641Y-84902863D01*
X212294754Y-84748082D01*
X212327438Y-84583767D01*
X212327438Y-84416233D01*
X212294754Y-84251918D01*
X212230641Y-84097137D01*
X212160876Y-83992726D01*
X212137564Y-83957837D01*
X212019100Y-83839373D01*
X211879798Y-83746295D01*
X211725020Y-83682184D01*
X211725012Y-83682182D01*
X211560709Y-83649500D01*
X211560705Y-83649500D01*
X211393171Y-83649500D01*
X211393166Y-83649500D01*
X211228863Y-83682182D01*
X211228855Y-83682184D01*
X211074077Y-83746295D01*
X210934775Y-83839373D01*
X210816311Y-83957837D01*
X210723233Y-84097139D01*
X210659122Y-84251917D01*
X210659120Y-84251925D01*
X210626438Y-84416228D01*
X208157437Y-84416228D01*
X208124754Y-84251918D01*
X208060641Y-84097137D01*
X207990876Y-83992726D01*
X207967564Y-83957837D01*
X207849100Y-83839373D01*
X207709798Y-83746295D01*
X207555020Y-83682184D01*
X207555012Y-83682182D01*
X207390709Y-83649500D01*
X207390705Y-83649500D01*
X207223171Y-83649500D01*
X207223166Y-83649500D01*
X207058863Y-83682182D01*
X207058855Y-83682184D01*
X206904077Y-83746295D01*
X206764775Y-83839373D01*
X206646311Y-83957837D01*
X206553233Y-84097139D01*
X206489122Y-84251917D01*
X206489120Y-84251925D01*
X206456438Y-84416228D01*
X198842201Y-84416228D01*
X198824862Y-84386196D01*
X198665219Y-84178148D01*
X198665212Y-84178140D01*
X198479798Y-83992726D01*
X198479789Y-83992718D01*
X198271741Y-83833075D01*
X198044638Y-83701958D01*
X198044628Y-83701953D01*
X197802366Y-83601605D01*
X197802359Y-83601603D01*
X197802357Y-83601602D01*
X197549054Y-83533730D01*
X197491277Y-83526123D01*
X197289065Y-83499500D01*
X197289058Y-83499500D01*
X197026818Y-83499500D01*
X197026810Y-83499500D01*
X196795710Y-83529926D01*
X196766822Y-83533730D01*
X196513519Y-83601602D01*
X196513509Y-83601605D01*
X196271247Y-83701953D01*
X196271237Y-83701958D01*
X196044134Y-83833075D01*
X195836086Y-83992718D01*
X195650656Y-84178148D01*
X195491013Y-84386196D01*
X195359896Y-84613299D01*
X195359891Y-84613309D01*
X195259543Y-84855571D01*
X195259540Y-84855581D01*
X195191668Y-85108885D01*
X195157438Y-85368872D01*
X174810601Y-85368872D01*
X174866675Y-85233497D01*
X174897438Y-85078842D01*
X174897438Y-84921158D01*
X174897438Y-84921155D01*
X174897437Y-84921153D01*
X174866676Y-84766510D01*
X174866675Y-84766503D01*
X174859042Y-84748074D01*
X174806334Y-84620825D01*
X174806332Y-84620822D01*
X174806332Y-84620821D01*
X174771632Y-84568889D01*
X174750754Y-84502215D01*
X174769238Y-84434835D01*
X174771614Y-84431136D01*
X174806332Y-84379179D01*
X174866675Y-84233497D01*
X174897438Y-84078842D01*
X174897438Y-83921158D01*
X174897438Y-83921155D01*
X174897437Y-83921153D01*
X174866676Y-83766510D01*
X174866675Y-83766503D01*
X174866673Y-83766498D01*
X174806335Y-83620827D01*
X174806328Y-83620814D01*
X174718727Y-83489711D01*
X174718724Y-83489707D01*
X174607230Y-83378213D01*
X174607226Y-83378210D01*
X174476123Y-83290609D01*
X174476110Y-83290602D01*
X174330439Y-83230264D01*
X174330427Y-83230261D01*
X174175783Y-83199500D01*
X174175780Y-83199500D01*
X174018096Y-83199500D01*
X174018093Y-83199500D01*
X173863448Y-83230261D01*
X173863436Y-83230264D01*
X173717765Y-83290602D01*
X173717752Y-83290609D01*
X173586649Y-83378210D01*
X173586645Y-83378213D01*
X173475151Y-83489707D01*
X173475148Y-83489711D01*
X173387547Y-83620814D01*
X173387540Y-83620827D01*
X173327202Y-83766498D01*
X173327199Y-83766510D01*
X173296438Y-83921153D01*
X171710880Y-83921153D01*
X171629100Y-83839373D01*
X171489798Y-83746295D01*
X171335020Y-83682184D01*
X171335012Y-83682182D01*
X171170709Y-83649500D01*
X171170705Y-83649500D01*
X171003171Y-83649500D01*
X171003166Y-83649500D01*
X170838863Y-83682182D01*
X170838855Y-83682184D01*
X170684077Y-83746295D01*
X170544775Y-83839373D01*
X170426311Y-83957837D01*
X170333233Y-84097139D01*
X170269122Y-84251917D01*
X170269120Y-84251925D01*
X170236438Y-84416228D01*
X170236438Y-84583771D01*
X170269120Y-84748074D01*
X170269122Y-84748082D01*
X170333233Y-84902860D01*
X170426311Y-85042162D01*
X170544775Y-85160626D01*
X170614425Y-85207164D01*
X170684075Y-85253703D01*
X170699925Y-85260268D01*
X170702751Y-85261439D01*
X170757154Y-85305280D01*
X170779219Y-85371574D01*
X170761940Y-85439273D01*
X170710803Y-85486884D01*
X170655298Y-85500000D01*
X169749093Y-85500000D01*
X169689565Y-85506401D01*
X169689558Y-85506403D01*
X169554851Y-85556645D01*
X169554844Y-85556649D01*
X169439750Y-85642809D01*
X169439747Y-85642812D01*
X169353587Y-85757906D01*
X169353583Y-85757913D01*
X169303341Y-85892620D01*
X169303339Y-85892627D01*
X169296938Y-85952155D01*
X167571882Y-85952155D01*
X167459100Y-85839373D01*
X167319798Y-85746295D01*
X167165020Y-85682184D01*
X167165012Y-85682182D01*
X167000709Y-85649500D01*
X167000705Y-85649500D01*
X166833171Y-85649500D01*
X166833166Y-85649500D01*
X166668863Y-85682182D01*
X166668855Y-85682184D01*
X166514077Y-85746295D01*
X166374775Y-85839373D01*
X166256311Y-85957837D01*
X166163233Y-86097139D01*
X166099122Y-86251917D01*
X166099120Y-86251925D01*
X166066438Y-86416228D01*
X164697438Y-86416228D01*
X164697438Y-84416228D01*
X166066438Y-84416228D01*
X166066438Y-84583771D01*
X166099120Y-84748074D01*
X166099122Y-84748082D01*
X166163233Y-84902860D01*
X166256311Y-85042162D01*
X166374775Y-85160626D01*
X166467432Y-85222537D01*
X166514075Y-85253703D01*
X166668856Y-85317816D01*
X166833166Y-85350499D01*
X166833170Y-85350500D01*
X166833171Y-85350500D01*
X167000706Y-85350500D01*
X167000707Y-85350499D01*
X167165020Y-85317816D01*
X167319801Y-85253703D01*
X167459100Y-85160626D01*
X167577564Y-85042162D01*
X167670641Y-84902863D01*
X167734754Y-84748082D01*
X167767438Y-84583767D01*
X167767438Y-84416233D01*
X167734754Y-84251918D01*
X167670641Y-84097137D01*
X167600876Y-83992726D01*
X167577564Y-83957837D01*
X167459100Y-83839373D01*
X167319798Y-83746295D01*
X167165020Y-83682184D01*
X167165012Y-83682182D01*
X167000709Y-83649500D01*
X167000705Y-83649500D01*
X166833171Y-83649500D01*
X166833166Y-83649500D01*
X166668863Y-83682182D01*
X166668855Y-83682184D01*
X166514077Y-83746295D01*
X166374775Y-83839373D01*
X166256311Y-83957837D01*
X166163233Y-84097139D01*
X166099122Y-84251917D01*
X166099120Y-84251925D01*
X166066438Y-84416228D01*
X164697438Y-84416228D01*
X164697438Y-82416228D01*
X166066438Y-82416228D01*
X166066438Y-82583771D01*
X166099120Y-82748074D01*
X166099122Y-82748082D01*
X166163233Y-82902860D01*
X166256311Y-83042162D01*
X166374775Y-83160626D01*
X166467432Y-83222537D01*
X166514075Y-83253703D01*
X166668856Y-83317816D01*
X166833166Y-83350499D01*
X166833170Y-83350500D01*
X166833171Y-83350500D01*
X167000706Y-83350500D01*
X167000707Y-83350499D01*
X167165020Y-83317816D01*
X167319801Y-83253703D01*
X167459100Y-83160626D01*
X167577564Y-83042162D01*
X167670641Y-82902863D01*
X167734754Y-82748082D01*
X167767438Y-82583767D01*
X167767438Y-82416233D01*
X167767437Y-82416228D01*
X170236438Y-82416228D01*
X170236438Y-82583771D01*
X170269120Y-82748074D01*
X170269122Y-82748082D01*
X170333233Y-82902860D01*
X170426311Y-83042162D01*
X170544775Y-83160626D01*
X170637432Y-83222537D01*
X170684075Y-83253703D01*
X170838856Y-83317816D01*
X171003166Y-83350499D01*
X171003170Y-83350500D01*
X171003171Y-83350500D01*
X171170706Y-83350500D01*
X171170707Y-83350499D01*
X171335020Y-83317816D01*
X171489801Y-83253703D01*
X171629100Y-83160626D01*
X171747564Y-83042162D01*
X171840641Y-82902863D01*
X171904754Y-82748082D01*
X171937438Y-82583767D01*
X171937438Y-82416233D01*
X171937437Y-82416228D01*
X206456438Y-82416228D01*
X206456438Y-82583771D01*
X206489120Y-82748074D01*
X206489122Y-82748082D01*
X206553233Y-82902860D01*
X206646311Y-83042162D01*
X206764775Y-83160626D01*
X206857432Y-83222537D01*
X206904075Y-83253703D01*
X207058856Y-83317816D01*
X207223166Y-83350499D01*
X207223170Y-83350500D01*
X207223171Y-83350500D01*
X207390706Y-83350500D01*
X207390707Y-83350499D01*
X207555020Y-83317816D01*
X207709801Y-83253703D01*
X207849100Y-83160626D01*
X207967564Y-83042162D01*
X208060641Y-82902863D01*
X208124754Y-82748082D01*
X208157438Y-82583767D01*
X208157438Y-82416233D01*
X208124754Y-82251918D01*
X208060641Y-82097137D01*
X208029475Y-82050494D01*
X207967564Y-81957837D01*
X207849100Y-81839373D01*
X207709798Y-81746295D01*
X207555020Y-81682184D01*
X207555012Y-81682182D01*
X207390709Y-81649500D01*
X207390705Y-81649500D01*
X207223171Y-81649500D01*
X207223166Y-81649500D01*
X207058863Y-81682182D01*
X207058855Y-81682184D01*
X206904077Y-81746295D01*
X206764775Y-81839373D01*
X206646311Y-81957837D01*
X206553233Y-82097139D01*
X206489122Y-82251917D01*
X206489120Y-82251925D01*
X206456438Y-82416228D01*
X171937437Y-82416228D01*
X171904754Y-82251918D01*
X171840641Y-82097137D01*
X171809475Y-82050494D01*
X171747564Y-81957837D01*
X171629100Y-81839373D01*
X171489798Y-81746295D01*
X171335020Y-81682184D01*
X171335012Y-81682182D01*
X171170709Y-81649500D01*
X171170705Y-81649500D01*
X171003171Y-81649500D01*
X171003166Y-81649500D01*
X170838863Y-81682182D01*
X170838855Y-81682184D01*
X170684077Y-81746295D01*
X170544775Y-81839373D01*
X170426311Y-81957837D01*
X170333233Y-82097139D01*
X170269122Y-82251917D01*
X170269120Y-82251925D01*
X170236438Y-82416228D01*
X167767437Y-82416228D01*
X167734754Y-82251918D01*
X167670641Y-82097137D01*
X167639475Y-82050494D01*
X167577564Y-81957837D01*
X167459100Y-81839373D01*
X167319798Y-81746295D01*
X167165020Y-81682184D01*
X167165012Y-81682182D01*
X167000709Y-81649500D01*
X167000705Y-81649500D01*
X166833171Y-81649500D01*
X166833166Y-81649500D01*
X166668863Y-81682182D01*
X166668855Y-81682184D01*
X166514077Y-81746295D01*
X166374775Y-81839373D01*
X166256311Y-81957837D01*
X166163233Y-82097139D01*
X166099122Y-82251917D01*
X166099120Y-82251925D01*
X166066438Y-82416228D01*
X164697438Y-82416228D01*
X164697438Y-78380304D01*
X168095500Y-78380304D01*
X168095500Y-78557695D01*
X168130103Y-78731658D01*
X168130106Y-78731667D01*
X168197983Y-78895540D01*
X168197990Y-78895553D01*
X168296535Y-79043034D01*
X168296538Y-79043038D01*
X168421961Y-79168461D01*
X168421965Y-79168464D01*
X168569446Y-79267009D01*
X168569459Y-79267016D01*
X168689960Y-79316928D01*
X168733334Y-79334894D01*
X168733336Y-79334894D01*
X168733341Y-79334896D01*
X168907304Y-79369499D01*
X168907307Y-79369500D01*
X168907309Y-79369500D01*
X169084693Y-79369500D01*
X169084694Y-79369499D01*
X169142682Y-79357964D01*
X169258658Y-79334896D01*
X169258661Y-79334894D01*
X169258666Y-79334894D01*
X169286647Y-79323304D01*
X177522500Y-79323304D01*
X177522500Y-79500695D01*
X177557103Y-79674658D01*
X177557106Y-79674667D01*
X177624983Y-79838540D01*
X177624990Y-79838553D01*
X177723535Y-79986034D01*
X177723538Y-79986038D01*
X177848961Y-80111461D01*
X177848965Y-80111464D01*
X177996446Y-80210009D01*
X177996459Y-80210016D01*
X178119363Y-80260923D01*
X178160334Y-80277894D01*
X178160336Y-80277894D01*
X178160341Y-80277896D01*
X178334304Y-80312499D01*
X178334307Y-80312500D01*
X178334309Y-80312500D01*
X178511693Y-80312500D01*
X178511694Y-80312499D01*
X178569682Y-80300964D01*
X178685658Y-80277896D01*
X178685661Y-80277894D01*
X178685666Y-80277894D01*
X178849547Y-80210013D01*
X178997035Y-80111464D01*
X179122464Y-79986035D01*
X179221013Y-79838547D01*
X179288894Y-79674666D01*
X179289146Y-79673402D01*
X179323499Y-79500695D01*
X179323500Y-79500693D01*
X179323500Y-79323306D01*
X179323499Y-79323304D01*
X179288896Y-79149341D01*
X179288893Y-79149332D01*
X179221016Y-78985459D01*
X179221009Y-78985446D01*
X179122464Y-78837965D01*
X179122461Y-78837961D01*
X178997038Y-78712538D01*
X178997034Y-78712535D01*
X178849552Y-78613990D01*
X178849540Y-78613983D01*
X178685667Y-78546106D01*
X178685658Y-78546103D01*
X178521191Y-78513389D01*
X186667500Y-78513389D01*
X186667500Y-78686611D01*
X186674635Y-78731658D01*
X186694260Y-78855571D01*
X186694598Y-78857701D01*
X186748127Y-79022445D01*
X186826768Y-79176788D01*
X186928586Y-79316928D01*
X187051072Y-79439414D01*
X187191212Y-79541232D01*
X187345555Y-79619873D01*
X187510299Y-79673402D01*
X187681389Y-79700500D01*
X187681390Y-79700500D01*
X187854610Y-79700500D01*
X187854611Y-79700500D01*
X188025701Y-79673402D01*
X188190445Y-79619873D01*
X188344788Y-79541232D01*
X188484928Y-79439414D01*
X188555470Y-79368872D01*
X195196438Y-79368872D01*
X195196438Y-79631127D01*
X195206769Y-79709592D01*
X195230668Y-79891116D01*
X195289709Y-80111461D01*
X195298540Y-80144418D01*
X195298543Y-80144428D01*
X195398891Y-80386690D01*
X195398896Y-80386700D01*
X195530013Y-80613803D01*
X195689656Y-80821851D01*
X195689664Y-80821860D01*
X195875078Y-81007274D01*
X195875086Y-81007281D01*
X195875087Y-81007282D01*
X195891006Y-81019497D01*
X196083134Y-81166924D01*
X196310237Y-81298041D01*
X196310247Y-81298046D01*
X196552509Y-81398394D01*
X196552519Y-81398398D01*
X196805822Y-81466270D01*
X197065818Y-81500500D01*
X197065825Y-81500500D01*
X197328051Y-81500500D01*
X197328058Y-81500500D01*
X197588054Y-81466270D01*
X197841357Y-81398398D01*
X198083635Y-81298043D01*
X198310741Y-81166924D01*
X198518789Y-81007282D01*
X198518793Y-81007277D01*
X198518798Y-81007274D01*
X198604919Y-80921153D01*
X203496438Y-80921153D01*
X203496438Y-81078846D01*
X203527199Y-81233489D01*
X203527202Y-81233501D01*
X203587540Y-81379172D01*
X203587547Y-81379185D01*
X203675148Y-81510288D01*
X203675151Y-81510292D01*
X203786645Y-81621786D01*
X203786649Y-81621789D01*
X203917752Y-81709390D01*
X203917765Y-81709397D01*
X204063436Y-81769735D01*
X204063441Y-81769737D01*
X204218091Y-81800499D01*
X204218094Y-81800500D01*
X204218096Y-81800500D01*
X204375782Y-81800500D01*
X204375783Y-81800499D01*
X204530435Y-81769737D01*
X204676117Y-81709394D01*
X204807227Y-81621789D01*
X204918727Y-81510289D01*
X205006332Y-81379179D01*
X205066675Y-81233497D01*
X205097438Y-81078842D01*
X205097438Y-80921158D01*
X205097438Y-80921155D01*
X205097437Y-80921153D01*
X205066676Y-80766510D01*
X205066675Y-80766503D01*
X205042094Y-80707158D01*
X205006335Y-80620827D01*
X205006328Y-80620814D01*
X204918727Y-80489711D01*
X204918724Y-80489707D01*
X204807230Y-80378213D01*
X204807226Y-80378210D01*
X204676123Y-80290609D01*
X204676110Y-80290602D01*
X204530439Y-80230264D01*
X204530427Y-80230261D01*
X204375783Y-80199500D01*
X204375780Y-80199500D01*
X204218096Y-80199500D01*
X204218093Y-80199500D01*
X204063448Y-80230261D01*
X204063436Y-80230264D01*
X203917765Y-80290602D01*
X203917752Y-80290609D01*
X203786649Y-80378210D01*
X203786645Y-80378213D01*
X203675151Y-80489707D01*
X203675148Y-80489711D01*
X203587547Y-80620814D01*
X203587540Y-80620827D01*
X203527202Y-80766498D01*
X203527199Y-80766510D01*
X203496438Y-80921153D01*
X198604919Y-80921153D01*
X198704212Y-80821860D01*
X198704215Y-80821855D01*
X198704220Y-80821851D01*
X198863862Y-80613803D01*
X198994981Y-80386697D01*
X198998497Y-80378210D01*
X199037522Y-80283995D01*
X199095336Y-80144419D01*
X199133384Y-80002420D01*
X206237499Y-80002420D01*
X206266340Y-80147407D01*
X206266343Y-80147417D01*
X206322912Y-80283988D01*
X206322919Y-80284001D01*
X206405048Y-80406915D01*
X206405051Y-80406919D01*
X206509580Y-80511448D01*
X206509584Y-80511451D01*
X206632498Y-80593580D01*
X206632511Y-80593587D01*
X206759954Y-80646375D01*
X206769087Y-80650158D01*
X206769091Y-80650158D01*
X206769092Y-80650159D01*
X206914079Y-80679000D01*
X206914082Y-80679000D01*
X207061920Y-80679000D01*
X207159462Y-80659596D01*
X207206913Y-80650158D01*
X207216046Y-80646374D01*
X207285514Y-80638905D01*
X207347994Y-80670178D01*
X207383648Y-80730266D01*
X207387500Y-80760935D01*
X207387500Y-80864846D01*
X207418261Y-81019489D01*
X207418264Y-81019501D01*
X207478602Y-81165172D01*
X207478609Y-81165185D01*
X207566210Y-81296288D01*
X207566213Y-81296292D01*
X207677707Y-81407786D01*
X207677711Y-81407789D01*
X207808814Y-81495390D01*
X207808827Y-81495397D01*
X207925300Y-81543641D01*
X207954503Y-81555737D01*
X208109153Y-81586499D01*
X208109156Y-81586500D01*
X208109158Y-81586500D01*
X208266844Y-81586500D01*
X208266845Y-81586499D01*
X208421497Y-81555737D01*
X208567179Y-81495394D01*
X208698289Y-81407789D01*
X208809789Y-81296289D01*
X208897394Y-81165179D01*
X208957737Y-81019497D01*
X208988500Y-80864842D01*
X208988500Y-80707158D01*
X208988500Y-80707155D01*
X208988499Y-80707153D01*
X208977162Y-80650157D01*
X208957737Y-80552503D01*
X208931728Y-80489711D01*
X208897397Y-80406827D01*
X208897390Y-80406814D01*
X208809789Y-80275711D01*
X208809786Y-80275707D01*
X208698292Y-80164213D01*
X208698288Y-80164210D01*
X208567185Y-80076609D01*
X208567172Y-80076602D01*
X208421501Y-80016264D01*
X208421489Y-80016261D01*
X208351906Y-80002420D01*
X209710499Y-80002420D01*
X209739340Y-80147407D01*
X209739343Y-80147417D01*
X209795912Y-80283988D01*
X209795919Y-80284001D01*
X209878048Y-80406915D01*
X209878051Y-80406919D01*
X209982580Y-80511448D01*
X209982584Y-80511451D01*
X210105498Y-80593580D01*
X210105511Y-80593587D01*
X210232954Y-80646375D01*
X210242087Y-80650158D01*
X210242091Y-80650158D01*
X210242092Y-80650159D01*
X210387079Y-80679000D01*
X210387082Y-80679000D01*
X210534920Y-80679000D01*
X210632462Y-80659596D01*
X210679913Y-80650158D01*
X210689046Y-80646374D01*
X210758514Y-80638905D01*
X210820994Y-80670178D01*
X210856648Y-80730266D01*
X210860500Y-80760935D01*
X210860500Y-80864846D01*
X210891261Y-81019489D01*
X210891264Y-81019501D01*
X210951602Y-81165172D01*
X210951609Y-81165185D01*
X211039210Y-81296288D01*
X211039213Y-81296292D01*
X211150707Y-81407786D01*
X211150711Y-81407789D01*
X211241232Y-81468274D01*
X211286037Y-81521886D01*
X211294744Y-81591211D01*
X211264589Y-81654239D01*
X211219794Y-81685937D01*
X211074077Y-81746295D01*
X210934775Y-81839373D01*
X210816311Y-81957837D01*
X210723233Y-82097139D01*
X210659122Y-82251917D01*
X210659120Y-82251925D01*
X210626438Y-82416228D01*
X210626438Y-82583771D01*
X210659120Y-82748074D01*
X210659122Y-82748082D01*
X210723233Y-82902860D01*
X210816311Y-83042162D01*
X210934775Y-83160626D01*
X211027432Y-83222537D01*
X211074075Y-83253703D01*
X211228856Y-83317816D01*
X211393166Y-83350499D01*
X211393170Y-83350500D01*
X211393171Y-83350500D01*
X211560706Y-83350500D01*
X211560707Y-83350499D01*
X211725020Y-83317816D01*
X211879801Y-83253703D01*
X212019100Y-83160626D01*
X212137564Y-83042162D01*
X212230641Y-82902863D01*
X212294754Y-82748082D01*
X212327438Y-82583767D01*
X212327438Y-82416233D01*
X212294754Y-82251918D01*
X212230641Y-82097137D01*
X212199475Y-82050494D01*
X212137564Y-81957837D01*
X212019100Y-81839373D01*
X211902260Y-81761304D01*
X211857455Y-81707692D01*
X211848748Y-81638367D01*
X211878902Y-81575340D01*
X211923698Y-81543641D01*
X212004212Y-81510292D01*
X212040173Y-81495397D01*
X212040176Y-81495395D01*
X212040179Y-81495394D01*
X212171289Y-81407789D01*
X212282789Y-81296289D01*
X212370394Y-81165179D01*
X212430737Y-81019497D01*
X212461500Y-80864842D01*
X212461500Y-80707158D01*
X212461500Y-80707155D01*
X212461499Y-80707153D01*
X212450162Y-80650157D01*
X212430737Y-80552503D01*
X212404728Y-80489711D01*
X212370397Y-80406827D01*
X212370390Y-80406814D01*
X212282789Y-80275711D01*
X212282786Y-80275707D01*
X212171292Y-80164213D01*
X212171288Y-80164210D01*
X212040185Y-80076609D01*
X212040172Y-80076602D01*
X211894501Y-80016264D01*
X211894489Y-80016261D01*
X211739845Y-79985500D01*
X211739842Y-79985500D01*
X211582158Y-79985500D01*
X211582155Y-79985500D01*
X211427510Y-80016261D01*
X211427498Y-80016264D01*
X211382952Y-80034716D01*
X211313483Y-80042185D01*
X211251004Y-80010909D01*
X211215352Y-79950820D01*
X211211500Y-79920155D01*
X211211500Y-79854579D01*
X211182659Y-79709592D01*
X211182658Y-79709591D01*
X211182658Y-79709587D01*
X211150153Y-79631113D01*
X211126087Y-79573011D01*
X211126080Y-79572998D01*
X211043951Y-79450084D01*
X211043948Y-79450080D01*
X210939419Y-79345551D01*
X210939415Y-79345548D01*
X210816501Y-79263419D01*
X210816488Y-79263412D01*
X210679917Y-79206843D01*
X210679907Y-79206840D01*
X210534920Y-79178000D01*
X210534918Y-79178000D01*
X210387082Y-79178000D01*
X210387080Y-79178000D01*
X210242092Y-79206840D01*
X210242082Y-79206843D01*
X210105511Y-79263412D01*
X210105498Y-79263419D01*
X209982584Y-79345548D01*
X209982580Y-79345551D01*
X209878051Y-79450080D01*
X209878048Y-79450084D01*
X209795919Y-79572998D01*
X209795912Y-79573011D01*
X209739343Y-79709582D01*
X209739340Y-79709592D01*
X209710500Y-79854579D01*
X209710500Y-79854582D01*
X209710500Y-80002418D01*
X209710500Y-80002420D01*
X209710499Y-80002420D01*
X208351906Y-80002420D01*
X208266845Y-79985500D01*
X208266842Y-79985500D01*
X208109158Y-79985500D01*
X208109155Y-79985500D01*
X207954510Y-80016261D01*
X207954498Y-80016264D01*
X207909952Y-80034716D01*
X207877326Y-80038223D01*
X207844853Y-80042893D01*
X207842765Y-80041939D01*
X207840483Y-80042185D01*
X207811150Y-80027501D01*
X207781297Y-80013868D01*
X207780055Y-80011935D01*
X207778004Y-80010909D01*
X207761270Y-79982706D01*
X207743523Y-79955090D01*
X207743087Y-79952059D01*
X207742352Y-79950820D01*
X207738500Y-79920155D01*
X207738500Y-79854579D01*
X207709659Y-79709592D01*
X207709658Y-79709591D01*
X207709658Y-79709587D01*
X207677153Y-79631113D01*
X207653087Y-79573011D01*
X207653080Y-79572998D01*
X207570951Y-79450084D01*
X207570948Y-79450080D01*
X207466419Y-79345551D01*
X207466415Y-79345548D01*
X207343501Y-79263419D01*
X207343488Y-79263412D01*
X207206917Y-79206843D01*
X207206907Y-79206840D01*
X207061920Y-79178000D01*
X207061918Y-79178000D01*
X206914082Y-79178000D01*
X206914080Y-79178000D01*
X206769092Y-79206840D01*
X206769082Y-79206843D01*
X206632511Y-79263412D01*
X206632498Y-79263419D01*
X206509584Y-79345548D01*
X206509580Y-79345551D01*
X206405051Y-79450080D01*
X206405048Y-79450084D01*
X206322919Y-79572998D01*
X206322912Y-79573011D01*
X206266343Y-79709582D01*
X206266340Y-79709592D01*
X206237500Y-79854579D01*
X206237500Y-79854582D01*
X206237500Y-80002418D01*
X206237500Y-80002420D01*
X206237499Y-80002420D01*
X199133384Y-80002420D01*
X199163208Y-79891116D01*
X199197438Y-79631120D01*
X199197438Y-79368880D01*
X199163208Y-79108884D01*
X199095336Y-78855581D01*
X199044009Y-78731666D01*
X198994984Y-78613309D01*
X198994979Y-78613299D01*
X198863862Y-78386196D01*
X198704219Y-78178148D01*
X198704212Y-78178140D01*
X198518798Y-77992726D01*
X198518789Y-77992718D01*
X198310741Y-77833075D01*
X198083638Y-77701958D01*
X198083628Y-77701953D01*
X197841366Y-77601605D01*
X197841359Y-77601603D01*
X197841357Y-77601602D01*
X197588054Y-77533730D01*
X197530277Y-77526123D01*
X197328065Y-77499500D01*
X197328058Y-77499500D01*
X197065818Y-77499500D01*
X197065810Y-77499500D01*
X196834710Y-77529926D01*
X196805822Y-77533730D01*
X196552519Y-77601602D01*
X196552509Y-77601605D01*
X196310247Y-77701953D01*
X196310237Y-77701958D01*
X196083134Y-77833075D01*
X195875086Y-77992718D01*
X195689656Y-78178148D01*
X195530013Y-78386196D01*
X195398896Y-78613299D01*
X195398891Y-78613309D01*
X195298543Y-78855571D01*
X195298540Y-78855581D01*
X195231987Y-79103964D01*
X195230668Y-79108885D01*
X195196438Y-79368872D01*
X188555470Y-79368872D01*
X188607414Y-79316928D01*
X188709232Y-79176788D01*
X188787873Y-79022445D01*
X188841402Y-78857701D01*
X188868500Y-78686611D01*
X188868500Y-78513389D01*
X188841402Y-78342299D01*
X188787873Y-78177555D01*
X188709232Y-78023212D01*
X188607414Y-77883072D01*
X188484928Y-77760586D01*
X188344788Y-77658768D01*
X188190445Y-77580127D01*
X188025701Y-77526598D01*
X188025699Y-77526597D01*
X188025698Y-77526597D01*
X187883023Y-77504000D01*
X187854611Y-77499500D01*
X187681389Y-77499500D01*
X187652977Y-77504000D01*
X187510302Y-77526597D01*
X187345552Y-77580128D01*
X187191211Y-77658768D01*
X187131766Y-77701958D01*
X187051072Y-77760586D01*
X187051070Y-77760588D01*
X187051069Y-77760588D01*
X186928588Y-77883069D01*
X186928588Y-77883070D01*
X186928586Y-77883072D01*
X186884859Y-77943256D01*
X186826768Y-78023211D01*
X186748128Y-78177552D01*
X186694597Y-78342302D01*
X186687645Y-78386196D01*
X186667500Y-78513389D01*
X178521191Y-78513389D01*
X178511694Y-78511500D01*
X178511691Y-78511500D01*
X178334309Y-78511500D01*
X178334306Y-78511500D01*
X178160341Y-78546103D01*
X178160332Y-78546106D01*
X177996459Y-78613983D01*
X177996446Y-78613990D01*
X177848965Y-78712535D01*
X177848961Y-78712538D01*
X177723538Y-78837961D01*
X177723535Y-78837965D01*
X177624990Y-78985446D01*
X177624983Y-78985459D01*
X177557106Y-79149332D01*
X177557103Y-79149341D01*
X177522500Y-79323304D01*
X169286647Y-79323304D01*
X169414380Y-79270396D01*
X169422540Y-79267016D01*
X169422540Y-79267015D01*
X169422547Y-79267013D01*
X169570035Y-79168464D01*
X169695464Y-79043035D01*
X169794013Y-78895547D01*
X169861894Y-78731666D01*
X169865700Y-78712536D01*
X169896499Y-78557695D01*
X169896500Y-78557693D01*
X169896500Y-78380306D01*
X169896499Y-78380304D01*
X169887271Y-78333908D01*
X169883670Y-78315804D01*
X171789500Y-78315804D01*
X171789500Y-78493195D01*
X171824103Y-78667158D01*
X171824106Y-78667167D01*
X171891983Y-78831040D01*
X171891990Y-78831053D01*
X171990535Y-78978534D01*
X171990538Y-78978538D01*
X172115961Y-79103961D01*
X172115965Y-79103964D01*
X172263446Y-79202509D01*
X172263459Y-79202516D01*
X172386363Y-79253423D01*
X172427334Y-79270394D01*
X172427336Y-79270394D01*
X172427341Y-79270396D01*
X172601304Y-79304999D01*
X172601307Y-79305000D01*
X172601309Y-79305000D01*
X172778693Y-79305000D01*
X172778694Y-79304999D01*
X172844373Y-79291935D01*
X172952658Y-79270396D01*
X172952661Y-79270394D01*
X172952666Y-79270394D01*
X173039925Y-79234250D01*
X173116203Y-79202656D01*
X173116204Y-79202655D01*
X173116547Y-79202513D01*
X173264035Y-79103964D01*
X173389464Y-78978535D01*
X173488013Y-78831047D01*
X173555894Y-78667166D01*
X173566472Y-78613990D01*
X173590499Y-78493195D01*
X173590500Y-78493193D01*
X173590500Y-78315806D01*
X173590499Y-78315804D01*
X173555896Y-78141841D01*
X173555893Y-78141832D01*
X173488016Y-77977959D01*
X173488009Y-77977946D01*
X173389464Y-77830465D01*
X173389461Y-77830461D01*
X173264038Y-77705038D01*
X173264034Y-77705035D01*
X173116553Y-77606490D01*
X173116540Y-77606483D01*
X172952667Y-77538606D01*
X172952658Y-77538603D01*
X172778694Y-77504000D01*
X172778691Y-77504000D01*
X172601309Y-77504000D01*
X172601306Y-77504000D01*
X172427341Y-77538603D01*
X172427332Y-77538606D01*
X172263459Y-77606483D01*
X172263446Y-77606490D01*
X172115965Y-77705035D01*
X172115961Y-77705038D01*
X171990538Y-77830461D01*
X171990535Y-77830465D01*
X171891990Y-77977946D01*
X171891983Y-77977959D01*
X171824106Y-78141832D01*
X171824103Y-78141841D01*
X171789500Y-78315804D01*
X169883670Y-78315804D01*
X169861895Y-78206340D01*
X169861894Y-78206334D01*
X169844923Y-78165363D01*
X169794016Y-78042459D01*
X169794009Y-78042446D01*
X169695464Y-77894965D01*
X169695461Y-77894961D01*
X169570038Y-77769538D01*
X169570034Y-77769535D01*
X169422553Y-77670990D01*
X169422540Y-77670983D01*
X169258667Y-77603106D01*
X169258658Y-77603103D01*
X169084694Y-77568500D01*
X169084691Y-77568500D01*
X168907309Y-77568500D01*
X168907306Y-77568500D01*
X168733341Y-77603103D01*
X168733332Y-77603106D01*
X168569459Y-77670983D01*
X168569446Y-77670990D01*
X168421965Y-77769535D01*
X168421961Y-77769538D01*
X168296538Y-77894961D01*
X168296535Y-77894965D01*
X168197990Y-78042446D01*
X168197983Y-78042459D01*
X168130106Y-78206332D01*
X168130103Y-78206341D01*
X168095500Y-78380304D01*
X164697438Y-78380304D01*
X164697438Y-76978583D01*
X164715621Y-76913940D01*
X164824787Y-76735239D01*
X165130332Y-76235073D01*
X165132578Y-76231534D01*
X165270671Y-76021789D01*
X165616082Y-75497153D01*
X166760500Y-75497153D01*
X166760500Y-75654846D01*
X166791261Y-75809489D01*
X166791264Y-75809501D01*
X166851602Y-75955172D01*
X166851609Y-75955185D01*
X166939210Y-76086288D01*
X166939213Y-76086292D01*
X167050707Y-76197786D01*
X167050711Y-76197789D01*
X167181814Y-76285390D01*
X167181827Y-76285397D01*
X167327498Y-76345735D01*
X167327503Y-76345737D01*
X167482153Y-76376499D01*
X167482156Y-76376500D01*
X167482158Y-76376500D01*
X167639844Y-76376500D01*
X167639845Y-76376499D01*
X167794497Y-76345737D01*
X167940179Y-76285394D01*
X168071289Y-76197789D01*
X168182789Y-76086289D01*
X168270394Y-75955179D01*
X168330737Y-75809497D01*
X168361500Y-75654842D01*
X168361500Y-75497158D01*
X168361500Y-75497155D01*
X168361499Y-75497153D01*
X168352271Y-75450757D01*
X168348670Y-75432653D01*
X170454500Y-75432653D01*
X170454500Y-75590346D01*
X170485261Y-75744989D01*
X170485264Y-75745001D01*
X170545602Y-75890672D01*
X170545609Y-75890685D01*
X170633210Y-76021788D01*
X170633213Y-76021792D01*
X170744707Y-76133286D01*
X170744711Y-76133289D01*
X170875814Y-76220890D01*
X170875827Y-76220897D01*
X171021498Y-76281235D01*
X171021503Y-76281237D01*
X171176153Y-76311999D01*
X171176156Y-76312000D01*
X171176158Y-76312000D01*
X171333844Y-76312000D01*
X171333845Y-76311999D01*
X171488497Y-76281237D01*
X171634179Y-76220894D01*
X171765289Y-76133289D01*
X171876789Y-76021789D01*
X171964394Y-75890679D01*
X172024737Y-75744997D01*
X172055500Y-75590342D01*
X172055500Y-75432658D01*
X172055500Y-75432655D01*
X172055499Y-75432653D01*
X172024738Y-75278010D01*
X172024737Y-75278003D01*
X171991108Y-75196814D01*
X171964397Y-75132327D01*
X171964390Y-75132314D01*
X171876789Y-75001211D01*
X171876786Y-75001207D01*
X171765292Y-74889713D01*
X171765288Y-74889710D01*
X171634185Y-74802109D01*
X171634172Y-74802102D01*
X171488501Y-74741764D01*
X171488489Y-74741761D01*
X171333845Y-74711000D01*
X171333842Y-74711000D01*
X171176158Y-74711000D01*
X171176155Y-74711000D01*
X171021510Y-74741761D01*
X171021498Y-74741764D01*
X170875827Y-74802102D01*
X170875814Y-74802109D01*
X170744711Y-74889710D01*
X170744707Y-74889713D01*
X170633213Y-75001207D01*
X170633210Y-75001211D01*
X170545609Y-75132314D01*
X170545602Y-75132327D01*
X170485264Y-75277998D01*
X170485261Y-75278010D01*
X170454500Y-75432653D01*
X168348670Y-75432653D01*
X168330738Y-75342508D01*
X168330737Y-75342507D01*
X168330737Y-75342503D01*
X168330735Y-75342498D01*
X168270397Y-75196827D01*
X168270390Y-75196814D01*
X168182789Y-75065711D01*
X168182786Y-75065707D01*
X168071292Y-74954213D01*
X168071288Y-74954210D01*
X167940185Y-74866609D01*
X167940172Y-74866602D01*
X167794501Y-74806264D01*
X167794489Y-74806261D01*
X167639845Y-74775500D01*
X167639842Y-74775500D01*
X167482158Y-74775500D01*
X167482155Y-74775500D01*
X167327510Y-74806261D01*
X167327498Y-74806264D01*
X167181827Y-74866602D01*
X167181814Y-74866609D01*
X167050711Y-74954210D01*
X167050707Y-74954213D01*
X166939213Y-75065707D01*
X166939210Y-75065711D01*
X166851609Y-75196814D01*
X166851602Y-75196827D01*
X166791264Y-75342498D01*
X166791261Y-75342510D01*
X166760500Y-75497153D01*
X165616082Y-75497153D01*
X165660880Y-75429111D01*
X165663233Y-75425667D01*
X165664030Y-75424540D01*
X166218433Y-74641534D01*
X166220883Y-74638198D01*
X166802283Y-73873344D01*
X166804843Y-73870093D01*
X167411824Y-73125332D01*
X167414472Y-73122193D01*
X167420751Y-73115000D01*
X204200000Y-73115000D01*
X206100000Y-73115000D01*
X206100000Y-71025000D01*
X204200000Y-71025000D01*
X204200000Y-73115000D01*
X167420751Y-73115000D01*
X168046323Y-72398398D01*
X168049078Y-72395347D01*
X168705090Y-71693336D01*
X168707949Y-71690379D01*
X169387319Y-71011007D01*
X169390276Y-71008148D01*
X170092285Y-70352134D01*
X170095336Y-70349379D01*
X170819101Y-69717549D01*
X170822268Y-69714876D01*
X171567067Y-69107861D01*
X171570248Y-69105357D01*
X172335140Y-68523924D01*
X172338516Y-68521448D01*
X172495895Y-68410016D01*
X173122640Y-67966249D01*
X173126031Y-67963935D01*
X173928511Y-67435592D01*
X173931961Y-67433402D01*
X174610836Y-67018682D01*
X174675479Y-67000500D01*
X177516964Y-67000500D01*
X177584003Y-67020185D01*
G37*
%TD.AperFunction*%
%TD*%
M02*
