%TF.GenerationSoftware,KiCad,Pcbnew,9.0.4*%
%TF.CreationDate,2025-09-18T11:58:12+02:00*%
%TF.ProjectId,gaia-lte,67616961-2d6c-4746-952e-6b696361645f,1.0*%
%TF.SameCoordinates,Original*%
%TF.FileFunction,Legend,Bot*%
%TF.FilePolarity,Positive*%
%FSLAX46Y46*%
G04 Gerber Fmt 4.6, Leading zero omitted, Abs format (unit mm)*
G04 Created by KiCad (PCBNEW 9.0.4) date 2025-09-18 11:58:12*
%MOMM*%
%LPD*%
G01*
G04 APERTURE LIST*
%ADD10C,0.017999*%
%ADD11C,0.120000*%
%ADD12C,0.200000*%
G04 APERTURE END LIST*
D10*
X170616675Y-72383326D02*
X171346562Y-72691663D01*
X170616675Y-73000000D01*
X170308338Y-73729888D01*
X170000000Y-73000000D01*
X169270113Y-72691663D01*
X170000000Y-72383326D01*
X170308338Y-71653438D01*
X170616675Y-72383326D01*
G36*
X170616675Y-72383326D02*
G01*
X171346562Y-72691663D01*
X170616675Y-73000000D01*
X170308338Y-73729888D01*
X170000000Y-73000000D01*
X169270113Y-72691663D01*
X170000000Y-72383326D01*
X170308338Y-71653438D01*
X170616675Y-72383326D01*
G37*
D11*
%TO.C,J6*%
X166891938Y-81390000D02*
X171111938Y-81390000D01*
X166891938Y-81690000D02*
X166891938Y-81390000D01*
X166891938Y-83690000D02*
X166891938Y-83310000D01*
X166891938Y-85690000D02*
X166891938Y-85310000D01*
X166891938Y-87690000D02*
X166891938Y-87310000D01*
X166891938Y-89690000D02*
X166891938Y-89310000D01*
X166891938Y-91690000D02*
X166891938Y-91310000D01*
X166891938Y-93690000D02*
X166891938Y-93310000D01*
X166891938Y-95690000D02*
X166891938Y-95310000D01*
X166891938Y-97690000D02*
X166891938Y-97310000D01*
X166891938Y-99690000D02*
X166891938Y-99310000D01*
X166891938Y-101610000D02*
X166891938Y-101310000D01*
X166891938Y-101610000D02*
X171111938Y-101610000D01*
X171111938Y-81690000D02*
X171111938Y-81390000D01*
X171111938Y-83690000D02*
X171111938Y-83310000D01*
X171111938Y-85690000D02*
X171111938Y-85310000D01*
X171111938Y-87690000D02*
X171111938Y-87310000D01*
X171111938Y-89690000D02*
X171111938Y-89310000D01*
X171111938Y-91690000D02*
X171111938Y-91310000D01*
X171111938Y-93690000D02*
X171111938Y-93310000D01*
X171111938Y-95690000D02*
X171111938Y-95310000D01*
X171111938Y-97690000D02*
X171111938Y-97310000D01*
X171111938Y-99690000D02*
X171111938Y-99310000D01*
X171111938Y-101610000D02*
X171111938Y-101310000D01*
%TO.C,J7*%
X207281938Y-81390000D02*
X211501938Y-81390000D01*
X207281938Y-81690000D02*
X207281938Y-81390000D01*
X207281938Y-83690000D02*
X207281938Y-83310000D01*
X207281938Y-85690000D02*
X207281938Y-85310000D01*
X207281938Y-87690000D02*
X207281938Y-87310000D01*
X207281938Y-89690000D02*
X207281938Y-89310000D01*
X207281938Y-91690000D02*
X207281938Y-91310000D01*
X207281938Y-93690000D02*
X207281938Y-93310000D01*
X207281938Y-95690000D02*
X207281938Y-95310000D01*
X207281938Y-97690000D02*
X207281938Y-97310000D01*
X207281938Y-99690000D02*
X207281938Y-99310000D01*
X207281938Y-101610000D02*
X207281938Y-101310000D01*
X207281938Y-101610000D02*
X211501938Y-101610000D01*
X211501938Y-81690000D02*
X211501938Y-81390000D01*
X211501938Y-83690000D02*
X211501938Y-83310000D01*
X211501938Y-85690000D02*
X211501938Y-85310000D01*
X211501938Y-87690000D02*
X211501938Y-87310000D01*
X211501938Y-89690000D02*
X211501938Y-89310000D01*
X211501938Y-91690000D02*
X211501938Y-91310000D01*
X211501938Y-93690000D02*
X211501938Y-93310000D01*
X211501938Y-95690000D02*
X211501938Y-95310000D01*
X211501938Y-97690000D02*
X211501938Y-97310000D01*
X211501938Y-99690000D02*
X211501938Y-99310000D01*
X211501938Y-101610000D02*
X211501938Y-101310000D01*
%TO.C,TP1*%
X203350000Y-77960000D02*
X203350000Y-79860000D01*
X203350000Y-79860000D02*
X205250000Y-79860000D01*
X205250000Y-77960000D02*
X203350000Y-77960000D01*
X205250000Y-79860000D02*
X205250000Y-77960000D01*
%TO.C,C18*%
X192236938Y-85740000D02*
X192236938Y-87440000D01*
X192236938Y-91260000D02*
X192236938Y-89560000D01*
X196692501Y-85740000D02*
X192236938Y-85740000D01*
X196692501Y-91260000D02*
X192236938Y-91260000D01*
X197756938Y-86804437D02*
X196692501Y-85740000D01*
X197756938Y-86804437D02*
X197756938Y-87440000D01*
X197756938Y-90195563D02*
X196692501Y-91260000D01*
X197756938Y-90195563D02*
X197756938Y-89560000D01*
X198309438Y-86502500D02*
X198309438Y-87127500D01*
X198621938Y-86815000D02*
X197996938Y-86815000D01*
%TO.C,D7*%
X169320000Y-102900000D02*
X169320000Y-102100000D01*
X170680000Y-102100000D02*
X169320000Y-102100000D01*
X170680000Y-102900000D02*
X169320000Y-102900000D01*
%TO.C,C7*%
X192236938Y-91740000D02*
X192236938Y-93440000D01*
X192236938Y-97260000D02*
X192236938Y-95560000D01*
X196692501Y-91740000D02*
X192236938Y-91740000D01*
X196692501Y-97260000D02*
X192236938Y-97260000D01*
X197756938Y-92804437D02*
X196692501Y-91740000D01*
X197756938Y-92804437D02*
X197756938Y-93440000D01*
X197756938Y-96195563D02*
X196692501Y-97260000D01*
X197756938Y-96195563D02*
X197756938Y-95560000D01*
X198309438Y-92502500D02*
X198309438Y-93127500D01*
X198621938Y-92815000D02*
X197996938Y-92815000D01*
%TO.C,C6*%
X192236938Y-97740000D02*
X192236938Y-99440000D01*
X192236938Y-103260000D02*
X192236938Y-101560000D01*
X196692501Y-97740000D02*
X192236938Y-97740000D01*
X196692501Y-103260000D02*
X192236938Y-103260000D01*
X197756938Y-98804437D02*
X196692501Y-97740000D01*
X197756938Y-98804437D02*
X197756938Y-99440000D01*
X197756938Y-102195563D02*
X196692501Y-103260000D01*
X197756938Y-102195563D02*
X197756938Y-101560000D01*
X198309438Y-98502500D02*
X198309438Y-99127500D01*
X198621938Y-98815000D02*
X197996938Y-98815000D01*
%TO.C,D6*%
X167327500Y-102100000D02*
X168687500Y-102100000D01*
X167327500Y-102900000D02*
X168687500Y-102900000D01*
X168687500Y-102100000D02*
X168687500Y-102900000D01*
%TO.C,C11*%
X188655580Y-67120000D02*
X188374420Y-67120000D01*
X188655580Y-68140000D02*
X188374420Y-68140000D01*
%TO.C,C14*%
X192236938Y-79740000D02*
X192236938Y-81440000D01*
X192236938Y-85260000D02*
X192236938Y-83560000D01*
X196692501Y-79740000D02*
X192236938Y-79740000D01*
X196692501Y-85260000D02*
X192236938Y-85260000D01*
X197756938Y-80804437D02*
X196692501Y-79740000D01*
X197756938Y-80804437D02*
X197756938Y-81440000D01*
X197756938Y-84195563D02*
X196692501Y-85260000D01*
X197756938Y-84195563D02*
X197756938Y-83560000D01*
X198309438Y-80502500D02*
X198309438Y-81127500D01*
X198621938Y-80815000D02*
X197996938Y-80815000D01*
%TO.C,C13*%
X174540000Y-91637836D02*
X174540000Y-91422164D01*
X175260000Y-91637836D02*
X175260000Y-91422164D01*
%TO.C,J4*%
X175858000Y-100559000D02*
X175858000Y-102369000D01*
X175858000Y-104269000D02*
X175858000Y-110569000D01*
X175968000Y-100559000D02*
X175858000Y-100559000D01*
X188728000Y-100559000D02*
X177468000Y-100559000D01*
X188728000Y-101719000D02*
X188728000Y-100559000D01*
X188728000Y-104969000D02*
X188728000Y-110569000D01*
D12*
%TO.C,J5*%
X176193000Y-67412000D02*
X176193000Y-71662000D01*
X176193000Y-67412000D02*
X177563000Y-67412000D01*
X176193000Y-75362000D02*
X176193000Y-79612000D01*
X176193000Y-79612000D02*
X177563000Y-79612000D01*
X184363000Y-67412000D02*
X185733000Y-67412000D01*
X184363000Y-79612000D02*
X185733000Y-79612000D01*
X185733000Y-67412000D02*
X185733000Y-71662000D01*
X185733000Y-75362000D02*
X185733000Y-79612000D01*
%TD*%
M02*
