M48
; DRILL file {KiCad 9.0.4} date 2025-09-18T11:58:27+0200
; FORMAT={-:-/ absolute / inch / decimal}
; #@! TF.CreationDate,2025-09-18T11:58:27+02:00
; #@! TF.GenerationSoftware,Kicad,Pcbnew,9.0.4
; #@! TF.FileFunction,Plated,1,6,PTH
FMAT,2
INCH
; #@! TA.AperFunction,Plated,PTH,ViaDrill
T1C0.0118
; #@! TA.AperFunction,Plated,PTH,ViaDrill
T2C0.0138
; #@! TA.AperFunction,Plated,PTH,ViaDrill
T3C0.0157
; #@! TA.AperFunction,Plated,PTH,ViaDrill
T4C0.0197
; #@! TA.AperFunction,Plated,PTH,ViaDrill
T5C0.0236
; #@! TA.AperFunction,Plated,PTH,ComponentDrill
T6C0.0276
; #@! TA.AperFunction,Plated,PTH,ViaDrill
T7C0.0591
%
G90
G05
T1
X6.5669Y-4.0354
X6.5969Y-2.9754
X6.7423Y-2.9729
X6.7441Y-4.0354
X6.7997Y-4.3155
X6.8371Y-4.3155
X6.8542Y-3.2283
X6.8542Y-3.2677
X6.8542Y-3.3071
X6.8542Y-3.3465
X6.8542Y-3.3858
X6.8542Y-3.5827
X6.8542Y-3.622
X6.8542Y-3.6614
X6.8542Y-3.7008
X6.8542Y-3.7402
X6.8542Y-3.8583
X6.8542Y-3.8976
X6.8542Y-3.937
X6.8542Y-4.0157
X6.8745Y-4.3155
X6.8986Y-2.8012
X6.9118Y-4.5229
X7.0098Y-4.485
X7.0099Y-4.5228
X7.0523Y-4.5138
X7.073Y-3.0062
X7.0747Y-4.2205
X7.0945Y-4.5138
X7.1141Y-4.2205
X7.1398Y-4.5138
X7.1534Y-3.0079
X7.1534Y-4.2205
X7.1831Y-4.5138
X7.1928Y-3.0079
X7.2264Y-4.5138
X7.311Y-4.5138
X7.3543Y-4.5138
X7.467Y-3.4646
X7.467Y-3.5039
X7.6461Y-2.9098
X7.6652Y-3.0079
X7.7046Y-3.0079
X7.7046Y-4.1969
X7.8227Y-3.0079
X7.8227Y-4.1969
X7.8749Y-3.4646
X7.8749Y-3.5039
X8.0432Y-3.189
X8.0432Y-3.2283
X8.0432Y-3.3071
X8.0432Y-3.3465
X8.0432Y-3.5827
X8.0432Y-3.6614
X8.0432Y-3.8976
X8.0432Y-3.9764
X8.1173Y-3.0402
X8.1181Y-2.9902
X8.1491Y-3.1468
X8.1964Y-3.1806
X8.2357Y-3.1806
X8.2859Y-3.1468
X8.3331Y-3.1806
X8.3725Y-3.1806
T2
X7.0519Y-4.3974
X7.0952Y-4.3974
X7.1385Y-4.3974
X7.1818Y-4.3974
X7.2251Y-4.3974
X7.2684Y-4.3974
X7.3117Y-4.3974
X7.355Y-4.3974
T3
X6.5924Y-3.0893
X6.6534Y-3.0893
X6.7368Y-3.0868
X6.7988Y-3.0868
X6.9417Y-4.0677
X6.961Y-4.5309
X7.0245Y-2.6619
X7.0245Y-3.1265
X7.1245Y-2.6619
X7.2245Y-2.6619
X7.4121Y-4.0933
X7.4524Y-2.6626
X7.5634Y-2.8437
T4
X6.9159Y-2.8942
X6.9554Y-4.3925
X7.2245Y-3.1265
X7.3332Y-2.8942
X8.0187Y-2.8396
X8.0886Y-4.2854
X8.1348Y-2.8396
X8.2047Y-4.2874
X8.2237Y-4.0481
X8.2237Y-4.1635
T5
X7.3924Y-3.0945
X7.4733Y-4.5053
T6
X6.5715Y-3.248
X6.5715Y-3.3268
X6.5715Y-3.4055
X6.5715Y-3.4843
X6.5715Y-3.563
X6.5715Y-3.6417
X6.5715Y-3.7205
X6.5715Y-3.7992
X6.5715Y-3.878
X6.5715Y-3.9567
X6.7357Y-3.248
X6.7357Y-3.3268
X6.7357Y-3.4055
X6.7357Y-3.4843
X6.7357Y-3.563
X6.7357Y-3.6417
X6.7357Y-3.7205
X6.7357Y-3.7992
X6.7357Y-3.878
X6.7357Y-3.9567
X8.1617Y-3.248
X8.1617Y-3.3268
X8.1617Y-3.4055
X8.1617Y-3.4843
X8.1617Y-3.563
X8.1617Y-3.6417
X8.1617Y-3.7205
X8.1617Y-3.7992
X8.1617Y-3.878
X8.1617Y-3.9567
X8.3259Y-3.248
X8.3259Y-3.3268
X8.3259Y-3.4055
X8.3259Y-3.4843
X8.3259Y-3.563
X8.3259Y-3.6417
X8.3259Y-3.7205
X8.3259Y-3.7992
X8.3259Y-3.878
X8.3259Y-3.9567
T7
X7.5904Y-3.1299
X7.5904Y-3.3661
X7.5904Y-3.6024
X7.5904Y-3.8386
X7.5904Y-4.0748
X7.6022Y-4.4961
X7.7621Y-3.3661
X7.7621Y-3.6024
X7.7621Y-3.8386
X7.7637Y-2.7087
X7.7637Y-3.1299
X7.7637Y-4.0748
X7.7637Y-4.4961
X7.9251Y-2.7087
M30
