%TF.GenerationSoftware,KiCad,Pcbnew,9.0.4*%
%TF.CreationDate,2025-09-18T11:58:12+02:00*%
%TF.ProjectId,gaia-lte,67616961-2d6c-4746-952e-6b696361645f,1.0*%
%TF.SameCoordinates,Original*%
%TF.FileFunction,Copper,L3,Inr*%
%TF.FilePolarity,Positive*%
%FSLAX46Y46*%
G04 Gerber Fmt 4.6, Leading zero omitted, Abs format (unit mm)*
G04 Created by KiCad (PCBNEW 9.0.4) date 2025-09-18 11:58:12*
%MOMM*%
%LPD*%
G01*
G04 APERTURE LIST*
%TA.AperFunction,ComponentPad*%
%ADD10R,2.580000X1.000000*%
%TD*%
%TA.AperFunction,ViaPad*%
%ADD11C,0.800000*%
%TD*%
%TA.AperFunction,ViaPad*%
%ADD12C,0.600000*%
%TD*%
%TA.AperFunction,ViaPad*%
%ADD13C,1.000000*%
%TD*%
%TA.AperFunction,ViaPad*%
%ADD14C,3.000000*%
%TD*%
%TA.AperFunction,ViaPad*%
%ADD15C,0.550000*%
%TD*%
%TA.AperFunction,ViaPad*%
%ADD16C,0.700000*%
%TD*%
%TA.AperFunction,ViaPad*%
%ADD17C,1.200000*%
%TD*%
%TA.AperFunction,ViaPad*%
%ADD18C,0.500000*%
%TD*%
G04 APERTURE END LIST*
D10*
%TO.N,VBUS*%
%TO.C,J7*%
X207306938Y-84500000D03*
%TD*%
D11*
%TO.N,GND*%
X176810000Y-115085000D03*
X171115000Y-78404500D03*
D12*
X186800000Y-114650000D03*
X204296938Y-99000000D03*
X185700000Y-114650000D03*
X182696938Y-76400000D03*
X212661000Y-80786000D03*
D13*
X206625000Y-72125000D03*
D12*
X174096938Y-102000000D03*
X179127430Y-114650000D03*
D13*
X175663000Y-73512000D03*
D12*
X195696938Y-106600000D03*
D13*
X205450000Y-108850000D03*
D12*
X198696938Y-76400000D03*
X175225000Y-71150000D03*
X209188000Y-80786000D03*
X206180000Y-77220000D03*
D13*
X208881000Y-105752000D03*
X208400000Y-108900000D03*
X208881000Y-102822000D03*
D14*
X192796938Y-103500000D03*
D12*
X180200000Y-114650000D03*
X194210000Y-73910000D03*
D14*
X192796938Y-97500000D03*
D12*
X174096938Y-91000000D03*
D14*
X192796938Y-79500000D03*
D15*
X175558606Y-114880534D03*
D12*
X171300000Y-102500000D03*
D13*
X203675000Y-72125000D03*
D12*
X195696938Y-76400000D03*
D11*
X176318000Y-103319000D03*
D13*
X176668000Y-111569000D03*
D12*
X174096938Y-86000000D03*
D15*
X178051599Y-114879525D03*
D12*
X173662500Y-109612500D03*
D11*
X188268000Y-103969000D03*
D12*
X181350000Y-114650000D03*
D16*
X184618000Y-111694000D03*
D14*
X192796938Y-91500000D03*
D17*
X189823000Y-114435000D03*
D12*
X174096938Y-82000000D03*
D11*
X192110000Y-72230000D03*
D13*
X186263000Y-73512000D03*
D12*
X166800000Y-102500000D03*
X174096938Y-83000000D03*
D14*
X201296938Y-68800000D03*
D12*
X204296938Y-82000000D03*
X179653000Y-76358000D03*
X204296938Y-85000000D03*
D11*
X189290000Y-67630000D03*
D12*
X204296938Y-101000000D03*
X198696938Y-106600000D03*
X194696938Y-76400000D03*
X174096938Y-95000000D03*
X181696938Y-76400000D03*
X206200000Y-75950000D03*
X204296938Y-84000000D03*
D14*
X192796938Y-85500000D03*
D13*
X183503000Y-79412000D03*
D11*
X167446000Y-78469000D03*
D12*
X183550000Y-114650000D03*
D14*
X193096938Y-114200000D03*
D12*
X182450000Y-114650000D03*
D11*
%TO.N,/USIM_VDD*%
X183503000Y-67612000D03*
D17*
X187768000Y-78600000D03*
D12*
%TO.N,/reset_input*%
X167561000Y-75576000D03*
X200023000Y-88000000D03*
X189662000Y-88000000D03*
%TO.N,/USB_DP*%
X174096938Y-94000000D03*
%TO.N,/USB_DN*%
X174096938Y-93000000D03*
D11*
%TO.N,/USIM_DATA*%
X178423000Y-79412000D03*
D12*
X174096938Y-98000000D03*
%TO.N,/USIM_CLK*%
X174096938Y-100000000D03*
D11*
X178423000Y-67612000D03*
D12*
%TO.N,/USIM_RESET*%
X174096938Y-99000000D03*
D11*
X180963000Y-67612000D03*
D12*
%TO.N,/SD_CMD*%
X179696938Y-107200000D03*
D16*
X181318000Y-111694000D03*
D12*
%TO.N,/SD_DAT0*%
X180696938Y-107200000D03*
D16*
X185718000Y-111694000D03*
D12*
%TO.N,/SD_DAT1*%
X181696938Y-107200000D03*
D16*
X186818000Y-111694000D03*
%TO.N,/SD_CLK*%
X183518000Y-111694000D03*
%TO.N,/SD_DAT2*%
X179118000Y-111694000D03*
%TO.N,/SD_DAT3*%
X180218000Y-111694000D03*
D12*
%TO.N,/pwrkey_input*%
X189662000Y-89000000D03*
X171255000Y-75511500D03*
X200023000Y-89000000D03*
D11*
%TO.N,Net-(U3-RESET)*%
X168996000Y-78469000D03*
D12*
X174096938Y-85000000D03*
D16*
%TO.N,+2V8*%
X182418000Y-111694000D03*
D15*
X178050000Y-113920000D03*
D14*
%TO.N,VBUS*%
X197157938Y-97500000D03*
X197157938Y-85500000D03*
D18*
X206988000Y-79928500D03*
D14*
X197196938Y-79500000D03*
X197196938Y-114200000D03*
D12*
X174612500Y-109612500D03*
D18*
X210461000Y-79928500D03*
D12*
X172712500Y-109612500D03*
D14*
X197196938Y-68800000D03*
X197196938Y-103500000D03*
X197157938Y-91500000D03*
D12*
X174096938Y-92000000D03*
D11*
%TO.N,Net-(U3-PWRKEY)*%
X172690000Y-78404500D03*
D12*
X174096938Y-84000000D03*
%TO.N,Net-(U3-NETLIGHT)*%
X204296938Y-91000000D03*
X208188000Y-80786000D03*
%TO.N,Net-(U3-STATUS)*%
X204296938Y-93000000D03*
X211661000Y-80786000D03*
%TO.N,Net-(U3-BOOT_CFG0)*%
X204296938Y-81000000D03*
%TD*%
%TA.AperFunction,Conductor*%
%TO.N,VBUS*%
G36*
X177584003Y-67020185D02*
G01*
X177629758Y-67072989D01*
X177639702Y-67142147D01*
X177626326Y-67182946D01*
X177624987Y-67185450D01*
X177557106Y-67349332D01*
X177557103Y-67349341D01*
X177522500Y-67523304D01*
X177522500Y-67700695D01*
X177557103Y-67874658D01*
X177557106Y-67874667D01*
X177624983Y-68038540D01*
X177624990Y-68038553D01*
X177723535Y-68186034D01*
X177723538Y-68186038D01*
X177848961Y-68311461D01*
X177848965Y-68311464D01*
X177996446Y-68410009D01*
X177996459Y-68410016D01*
X178119363Y-68460923D01*
X178160334Y-68477894D01*
X178160336Y-68477894D01*
X178160341Y-68477896D01*
X178334304Y-68512499D01*
X178334307Y-68512500D01*
X178334309Y-68512500D01*
X178511693Y-68512500D01*
X178511694Y-68512499D01*
X178569682Y-68500964D01*
X178685658Y-68477896D01*
X178685661Y-68477894D01*
X178685666Y-68477894D01*
X178849547Y-68410013D01*
X178997035Y-68311464D01*
X179122464Y-68186035D01*
X179221013Y-68038547D01*
X179288894Y-67874666D01*
X179323500Y-67700691D01*
X179323500Y-67523309D01*
X179323500Y-67523306D01*
X179323499Y-67523304D01*
X179288896Y-67349341D01*
X179288893Y-67349332D01*
X179221012Y-67185450D01*
X179219674Y-67182946D01*
X179219369Y-67181484D01*
X179218682Y-67179824D01*
X179218997Y-67179693D01*
X179205436Y-67114542D01*
X179230441Y-67049300D01*
X179286749Y-67007933D01*
X179329036Y-67000500D01*
X180056964Y-67000500D01*
X180124003Y-67020185D01*
X180169758Y-67072989D01*
X180179702Y-67142147D01*
X180166326Y-67182946D01*
X180164987Y-67185450D01*
X180097106Y-67349332D01*
X180097103Y-67349341D01*
X180062500Y-67523304D01*
X180062500Y-67700695D01*
X180097103Y-67874658D01*
X180097106Y-67874667D01*
X180164983Y-68038540D01*
X180164990Y-68038553D01*
X180263535Y-68186034D01*
X180263538Y-68186038D01*
X180388961Y-68311461D01*
X180388965Y-68311464D01*
X180536446Y-68410009D01*
X180536459Y-68410016D01*
X180659363Y-68460923D01*
X180700334Y-68477894D01*
X180700336Y-68477894D01*
X180700341Y-68477896D01*
X180874304Y-68512499D01*
X180874307Y-68512500D01*
X180874309Y-68512500D01*
X181051693Y-68512500D01*
X181051694Y-68512499D01*
X181109682Y-68500964D01*
X181225658Y-68477896D01*
X181225661Y-68477894D01*
X181225666Y-68477894D01*
X181389547Y-68410013D01*
X181537035Y-68311464D01*
X181662464Y-68186035D01*
X181761013Y-68038547D01*
X181828894Y-67874666D01*
X181863500Y-67700691D01*
X181863500Y-67523309D01*
X181863500Y-67523306D01*
X181863499Y-67523304D01*
X181828896Y-67349341D01*
X181828893Y-67349332D01*
X181761012Y-67185450D01*
X181759674Y-67182946D01*
X181759369Y-67181484D01*
X181758682Y-67179824D01*
X181758997Y-67179693D01*
X181745436Y-67114542D01*
X181770441Y-67049300D01*
X181826749Y-67007933D01*
X181869036Y-67000500D01*
X182596964Y-67000500D01*
X182664003Y-67020185D01*
X182709758Y-67072989D01*
X182719702Y-67142147D01*
X182706326Y-67182946D01*
X182704987Y-67185450D01*
X182637106Y-67349332D01*
X182637103Y-67349341D01*
X182602500Y-67523304D01*
X182602500Y-67700695D01*
X182637103Y-67874658D01*
X182637106Y-67874667D01*
X182704983Y-68038540D01*
X182704990Y-68038553D01*
X182803535Y-68186034D01*
X182803538Y-68186038D01*
X182928961Y-68311461D01*
X182928965Y-68311464D01*
X183076446Y-68410009D01*
X183076459Y-68410016D01*
X183199363Y-68460923D01*
X183240334Y-68477894D01*
X183240336Y-68477894D01*
X183240341Y-68477896D01*
X183414304Y-68512499D01*
X183414307Y-68512500D01*
X183414309Y-68512500D01*
X183591693Y-68512500D01*
X183591694Y-68512499D01*
X183649682Y-68500964D01*
X183765658Y-68477896D01*
X183765661Y-68477894D01*
X183765666Y-68477894D01*
X183929547Y-68410013D01*
X184077035Y-68311464D01*
X184202464Y-68186035D01*
X184301013Y-68038547D01*
X184368894Y-67874666D01*
X184403500Y-67700691D01*
X184403500Y-67523309D01*
X184403500Y-67523306D01*
X184403499Y-67523304D01*
X184368896Y-67349341D01*
X184368893Y-67349332D01*
X184301012Y-67185450D01*
X184299674Y-67182946D01*
X184299369Y-67181484D01*
X184298682Y-67179824D01*
X184298997Y-67179693D01*
X184285436Y-67114542D01*
X184310441Y-67049300D01*
X184366749Y-67007933D01*
X184409036Y-67000500D01*
X188395608Y-67000500D01*
X188462647Y-67020185D01*
X188508402Y-67072989D01*
X188518346Y-67142147D01*
X188498709Y-67193393D01*
X188491988Y-67203450D01*
X188491983Y-67203459D01*
X188424106Y-67367332D01*
X188424103Y-67367341D01*
X188389500Y-67541304D01*
X188389500Y-67718695D01*
X188424103Y-67892658D01*
X188424106Y-67892667D01*
X188491983Y-68056540D01*
X188491990Y-68056553D01*
X188590535Y-68204034D01*
X188590538Y-68204038D01*
X188715961Y-68329461D01*
X188715965Y-68329464D01*
X188863446Y-68428009D01*
X188863459Y-68428016D01*
X188986363Y-68478923D01*
X189027334Y-68495894D01*
X189027336Y-68495894D01*
X189027341Y-68495896D01*
X189201304Y-68530499D01*
X189201307Y-68530500D01*
X189201309Y-68530500D01*
X189378693Y-68530500D01*
X189378694Y-68530499D01*
X189469188Y-68512499D01*
X189552658Y-68495896D01*
X189552661Y-68495894D01*
X189552666Y-68495894D01*
X189716547Y-68428013D01*
X189864035Y-68329464D01*
X189989464Y-68204035D01*
X190088013Y-68056547D01*
X190155894Y-67892666D01*
X190159475Y-67874667D01*
X190190499Y-67718695D01*
X190190500Y-67718693D01*
X190190500Y-67541306D01*
X190190499Y-67541304D01*
X190155896Y-67367341D01*
X190155893Y-67367332D01*
X190088016Y-67203459D01*
X190088011Y-67203450D01*
X190081291Y-67193393D01*
X190060412Y-67126716D01*
X190078895Y-67059335D01*
X190130873Y-67012644D01*
X190184392Y-67000500D01*
X199990620Y-67000500D01*
X200057659Y-67020185D01*
X200103414Y-67072989D01*
X200113358Y-67142147D01*
X200084333Y-67205703D01*
X200066107Y-67222875D01*
X199975086Y-67292718D01*
X199789656Y-67478148D01*
X199630013Y-67686196D01*
X199498896Y-67913299D01*
X199498891Y-67913309D01*
X199398543Y-68155571D01*
X199398540Y-68155581D01*
X199351949Y-68329464D01*
X199330668Y-68408885D01*
X199296438Y-68668872D01*
X199296438Y-68931127D01*
X199319372Y-69105317D01*
X199330668Y-69191116D01*
X199352643Y-69273127D01*
X199398540Y-69444418D01*
X199398543Y-69444428D01*
X199498891Y-69686690D01*
X199498896Y-69686700D01*
X199630013Y-69913803D01*
X199789656Y-70121851D01*
X199789664Y-70121860D01*
X199975078Y-70307274D01*
X199975086Y-70307281D01*
X200183134Y-70466924D01*
X200410237Y-70598041D01*
X200410247Y-70598046D01*
X200652509Y-70698394D01*
X200652519Y-70698398D01*
X200905822Y-70766270D01*
X201165818Y-70800500D01*
X201165825Y-70800500D01*
X201428051Y-70800500D01*
X201428058Y-70800500D01*
X201688054Y-70766270D01*
X201941357Y-70698398D01*
X202183635Y-70598043D01*
X202410741Y-70466924D01*
X202618789Y-70307282D01*
X202618793Y-70307277D01*
X202618798Y-70307274D01*
X202804212Y-70121860D01*
X202804215Y-70121855D01*
X202804220Y-70121851D01*
X202963862Y-69913803D01*
X203094981Y-69686697D01*
X203195336Y-69444419D01*
X203263208Y-69191116D01*
X203297438Y-68931120D01*
X203297438Y-68668880D01*
X203263208Y-68408884D01*
X203195336Y-68155581D01*
X203154312Y-68056540D01*
X203094984Y-67913309D01*
X203094979Y-67913299D01*
X202963862Y-67686196D01*
X202804219Y-67478148D01*
X202804212Y-67478140D01*
X202618798Y-67292726D01*
X202618789Y-67292718D01*
X202527769Y-67222875D01*
X202486566Y-67166447D01*
X202482412Y-67096701D01*
X202516625Y-67035781D01*
X202578343Y-67003029D01*
X202603256Y-67000500D01*
X203718355Y-67000500D01*
X203782997Y-67018682D01*
X203810988Y-67035781D01*
X204461871Y-67433396D01*
X204465369Y-67435615D01*
X205267823Y-67963935D01*
X205271284Y-67966299D01*
X206042707Y-68512500D01*
X206055372Y-68521467D01*
X206058751Y-68523947D01*
X206249423Y-68668886D01*
X206823565Y-69105317D01*
X206826863Y-69107913D01*
X207029576Y-69273125D01*
X207571572Y-69714852D01*
X207574775Y-69717554D01*
X208037901Y-70121851D01*
X208298506Y-70349352D01*
X208301619Y-70352163D01*
X208606445Y-70637016D01*
X209003569Y-71008119D01*
X209006587Y-71011037D01*
X209685897Y-71690348D01*
X209688815Y-71693366D01*
X210344767Y-72395315D01*
X210347581Y-72398431D01*
X210979358Y-73122140D01*
X210982066Y-73125349D01*
X211557296Y-73831155D01*
X211589031Y-73870093D01*
X211591613Y-73873374D01*
X211990885Y-74398632D01*
X212172989Y-74638198D01*
X212175473Y-74641583D01*
X212730625Y-75425652D01*
X212732993Y-75429119D01*
X213261287Y-76231537D01*
X213263536Y-76235082D01*
X213331134Y-76345738D01*
X213676011Y-76910292D01*
X213678256Y-76913966D01*
X213696438Y-76978608D01*
X213696438Y-80629277D01*
X213676753Y-80696316D01*
X213623949Y-80742071D01*
X213554791Y-80752015D01*
X213491235Y-80722990D01*
X213453461Y-80664212D01*
X213450821Y-80653469D01*
X213430738Y-80552508D01*
X213430737Y-80552507D01*
X213430737Y-80552503D01*
X213404728Y-80489711D01*
X213370397Y-80406827D01*
X213370390Y-80406814D01*
X213282789Y-80275711D01*
X213282786Y-80275707D01*
X213171292Y-80164213D01*
X213171288Y-80164210D01*
X213040185Y-80076609D01*
X213040172Y-80076602D01*
X212894501Y-80016264D01*
X212894489Y-80016261D01*
X212739845Y-79985500D01*
X212739842Y-79985500D01*
X212582158Y-79985500D01*
X212582155Y-79985500D01*
X212427510Y-80016261D01*
X212427498Y-80016264D01*
X212281827Y-80076602D01*
X212281814Y-80076609D01*
X212229891Y-80111304D01*
X212163214Y-80132182D01*
X212095833Y-80113698D01*
X212092109Y-80111304D01*
X212040185Y-80076609D01*
X212040172Y-80076602D01*
X211894501Y-80016264D01*
X211894489Y-80016261D01*
X211739845Y-79985500D01*
X211739842Y-79985500D01*
X211582158Y-79985500D01*
X211582155Y-79985500D01*
X211427510Y-80016261D01*
X211427498Y-80016264D01*
X211281827Y-80076602D01*
X211281814Y-80076609D01*
X211150711Y-80164210D01*
X211150707Y-80164213D01*
X211039213Y-80275707D01*
X211039210Y-80275711D01*
X210951609Y-80406814D01*
X210951602Y-80406827D01*
X210891264Y-80552498D01*
X210891261Y-80552510D01*
X210860500Y-80707153D01*
X210860500Y-80864846D01*
X210891261Y-81019489D01*
X210891264Y-81019501D01*
X210951602Y-81165172D01*
X210951609Y-81165185D01*
X211039210Y-81296288D01*
X211039213Y-81296292D01*
X211150707Y-81407786D01*
X211150711Y-81407789D01*
X211241232Y-81468274D01*
X211286037Y-81521886D01*
X211294744Y-81591211D01*
X211264589Y-81654239D01*
X211219794Y-81685937D01*
X211074077Y-81746295D01*
X210934775Y-81839373D01*
X210816311Y-81957837D01*
X210723233Y-82097139D01*
X210659122Y-82251917D01*
X210659120Y-82251925D01*
X210626438Y-82416228D01*
X210626438Y-82583771D01*
X210659120Y-82748074D01*
X210659122Y-82748082D01*
X210723233Y-82902860D01*
X210816311Y-83042162D01*
X210934775Y-83160626D01*
X211027432Y-83222537D01*
X211074075Y-83253703D01*
X211228856Y-83317816D01*
X211393166Y-83350499D01*
X211393170Y-83350500D01*
X211393171Y-83350500D01*
X211560706Y-83350500D01*
X211560707Y-83350499D01*
X211725020Y-83317816D01*
X211879801Y-83253703D01*
X212019100Y-83160626D01*
X212137564Y-83042162D01*
X212230641Y-82902863D01*
X212294754Y-82748082D01*
X212327438Y-82583767D01*
X212327438Y-82416233D01*
X212294754Y-82251918D01*
X212230641Y-82097137D01*
X212199475Y-82050494D01*
X212137564Y-81957837D01*
X212019100Y-81839373D01*
X211930185Y-81779963D01*
X211902259Y-81761303D01*
X211898500Y-81756805D01*
X211893090Y-81754548D01*
X211876349Y-81730300D01*
X211857455Y-81707692D01*
X211856724Y-81701874D01*
X211853394Y-81697051D01*
X211852419Y-81667602D01*
X211848748Y-81638367D01*
X211851277Y-81633079D01*
X211851084Y-81627219D01*
X211866186Y-81601916D01*
X211878902Y-81575340D01*
X211884668Y-81570954D01*
X211886895Y-81567224D01*
X211903903Y-81556325D01*
X211915939Y-81547172D01*
X211919749Y-81545277D01*
X212040179Y-81495394D01*
X212098702Y-81456289D01*
X212105788Y-81452766D01*
X212132702Y-81447983D01*
X212158785Y-81439816D01*
X212166600Y-81441959D01*
X212174580Y-81440542D01*
X212199807Y-81451069D01*
X212226165Y-81458300D01*
X212229863Y-81460676D01*
X212281821Y-81495394D01*
X212281823Y-81495395D01*
X212281825Y-81495396D01*
X212406825Y-81547172D01*
X212427503Y-81555737D01*
X212582153Y-81586499D01*
X212582156Y-81586500D01*
X212582158Y-81586500D01*
X212739844Y-81586500D01*
X212739845Y-81586499D01*
X212894497Y-81555737D01*
X213040179Y-81495394D01*
X213171289Y-81407789D01*
X213282789Y-81296289D01*
X213370394Y-81165179D01*
X213430737Y-81019497D01*
X213450821Y-80918531D01*
X213483206Y-80856620D01*
X213543922Y-80822046D01*
X213613691Y-80825785D01*
X213670363Y-80866652D01*
X213695944Y-80931670D01*
X213696438Y-80942722D01*
X213696438Y-106021416D01*
X213678255Y-106086059D01*
X213263546Y-106764918D01*
X213261297Y-106768463D01*
X212733010Y-107570860D01*
X212730643Y-107574327D01*
X212175474Y-108358413D01*
X212172990Y-108361798D01*
X211591600Y-109126636D01*
X211589003Y-109129934D01*
X210982076Y-109874627D01*
X210979369Y-109877836D01*
X210347576Y-110601562D01*
X210344762Y-110604678D01*
X209688809Y-111306626D01*
X209685891Y-111309644D01*
X209006581Y-111988955D01*
X209003563Y-111991873D01*
X208301616Y-112647828D01*
X208298500Y-112650642D01*
X207574788Y-113282424D01*
X207571580Y-113285131D01*
X206826860Y-113892083D01*
X206823561Y-113894680D01*
X206058739Y-114476059D01*
X206055354Y-114478543D01*
X205271268Y-115033715D01*
X205267801Y-115036082D01*
X204465406Y-115564369D01*
X204461861Y-115566618D01*
X204105260Y-115784464D01*
X203785482Y-115979815D01*
X203783023Y-115981317D01*
X203718380Y-115999500D01*
X194403256Y-115999500D01*
X194336217Y-115979815D01*
X194290462Y-115927011D01*
X194280518Y-115857853D01*
X194309543Y-115794297D01*
X194327769Y-115777125D01*
X194353416Y-115757444D01*
X194418789Y-115707282D01*
X194418793Y-115707277D01*
X194418798Y-115707274D01*
X194604212Y-115521860D01*
X194604215Y-115521855D01*
X194604220Y-115521851D01*
X194763862Y-115313803D01*
X194894981Y-115086697D01*
X194995336Y-114844419D01*
X195063208Y-114591116D01*
X195097438Y-114331120D01*
X195097438Y-114068880D01*
X195063208Y-113808884D01*
X194995336Y-113555581D01*
X194994127Y-113552663D01*
X194894984Y-113313309D01*
X194894979Y-113313299D01*
X194763862Y-113086196D01*
X194604219Y-112878148D01*
X194604212Y-112878140D01*
X194418798Y-112692726D01*
X194418789Y-112692718D01*
X194210741Y-112533075D01*
X193983638Y-112401958D01*
X193983628Y-112401953D01*
X193741366Y-112301605D01*
X193741359Y-112301603D01*
X193741357Y-112301602D01*
X193488054Y-112233730D01*
X193430277Y-112226123D01*
X193228065Y-112199500D01*
X193228058Y-112199500D01*
X192965818Y-112199500D01*
X192965810Y-112199500D01*
X192734710Y-112229926D01*
X192705822Y-112233730D01*
X192452519Y-112301602D01*
X192452509Y-112301605D01*
X192210247Y-112401953D01*
X192210237Y-112401958D01*
X191983134Y-112533075D01*
X191775086Y-112692718D01*
X191589656Y-112878148D01*
X191430013Y-113086196D01*
X191298896Y-113313299D01*
X191298891Y-113313309D01*
X191198543Y-113555571D01*
X191198540Y-113555581D01*
X191130668Y-113808884D01*
X191126095Y-113843620D01*
X191100128Y-114040851D01*
X191071861Y-114104747D01*
X191013537Y-114143218D01*
X190943672Y-114144049D01*
X190884449Y-114106977D01*
X190859259Y-114062986D01*
X190842873Y-114012555D01*
X190764232Y-113858212D01*
X190662414Y-113718072D01*
X190539928Y-113595586D01*
X190399788Y-113493768D01*
X190245445Y-113415127D01*
X190080701Y-113361598D01*
X190080699Y-113361597D01*
X190080698Y-113361597D01*
X189949271Y-113340781D01*
X189909611Y-113334500D01*
X189736389Y-113334500D01*
X189696728Y-113340781D01*
X189565302Y-113361597D01*
X189400552Y-113415128D01*
X189246211Y-113493768D01*
X189166256Y-113551859D01*
X189106072Y-113595586D01*
X189106070Y-113595588D01*
X189106069Y-113595588D01*
X188983588Y-113718069D01*
X188983588Y-113718070D01*
X188983586Y-113718072D01*
X188945608Y-113770344D01*
X188881768Y-113858211D01*
X188803128Y-114012552D01*
X188803127Y-114012554D01*
X188803127Y-114012555D01*
X188785137Y-114067922D01*
X188749597Y-114177302D01*
X188722500Y-114348389D01*
X188722500Y-114521610D01*
X188743521Y-114654336D01*
X188749598Y-114692701D01*
X188803127Y-114857445D01*
X188881768Y-115011788D01*
X188983586Y-115151928D01*
X189106072Y-115274414D01*
X189246212Y-115376232D01*
X189400555Y-115454873D01*
X189565299Y-115508402D01*
X189736389Y-115535500D01*
X189736390Y-115535500D01*
X189909610Y-115535500D01*
X189909611Y-115535500D01*
X190080701Y-115508402D01*
X190245445Y-115454873D01*
X190399788Y-115376232D01*
X190539928Y-115274414D01*
X190662414Y-115151928D01*
X190764232Y-115011788D01*
X190842873Y-114857445D01*
X190896402Y-114692701D01*
X190902285Y-114655553D01*
X190932213Y-114592421D01*
X190991524Y-114555490D01*
X191061387Y-114556486D01*
X191119620Y-114595096D01*
X191144532Y-114642858D01*
X191187750Y-114804149D01*
X191198540Y-114844418D01*
X191198543Y-114844428D01*
X191298891Y-115086690D01*
X191298896Y-115086700D01*
X191430013Y-115313803D01*
X191589656Y-115521851D01*
X191589664Y-115521860D01*
X191775078Y-115707274D01*
X191775086Y-115707281D01*
X191866107Y-115777125D01*
X191907310Y-115833553D01*
X191911464Y-115903299D01*
X191877251Y-115964219D01*
X191815533Y-115996971D01*
X191790620Y-115999500D01*
X177468362Y-115999500D01*
X177401323Y-115979815D01*
X177355568Y-115927011D01*
X177345624Y-115857853D01*
X177374649Y-115794297D01*
X177380681Y-115787819D01*
X177509461Y-115659038D01*
X177509462Y-115659037D01*
X177509464Y-115659035D01*
X177539107Y-115614670D01*
X177592718Y-115569866D01*
X177662043Y-115561159D01*
X177689662Y-115569001D01*
X177715828Y-115579839D01*
X177825394Y-115625223D01*
X177975214Y-115655024D01*
X177975218Y-115655025D01*
X177975219Y-115655025D01*
X178127980Y-115655025D01*
X178127981Y-115655024D01*
X178277804Y-115625223D01*
X178418936Y-115566764D01*
X178545951Y-115481895D01*
X178633239Y-115394606D01*
X178694560Y-115361123D01*
X178764252Y-115366107D01*
X178768356Y-115367721D01*
X178893933Y-115419737D01*
X179048583Y-115450499D01*
X179048586Y-115450500D01*
X179048588Y-115450500D01*
X179206274Y-115450500D01*
X179206275Y-115450499D01*
X179360927Y-115419737D01*
X179506609Y-115359394D01*
X179574841Y-115313803D01*
X179594824Y-115300451D01*
X179661501Y-115279573D01*
X179728882Y-115298057D01*
X179732606Y-115300451D01*
X179820814Y-115359390D01*
X179820827Y-115359397D01*
X179966498Y-115419735D01*
X179966503Y-115419737D01*
X180121153Y-115450499D01*
X180121156Y-115450500D01*
X180121158Y-115450500D01*
X180278844Y-115450500D01*
X180278845Y-115450499D01*
X180433497Y-115419737D01*
X180579179Y-115359394D01*
X180706109Y-115274582D01*
X180772786Y-115253704D01*
X180840166Y-115272188D01*
X180843891Y-115274582D01*
X180970814Y-115359390D01*
X180970827Y-115359397D01*
X181116498Y-115419735D01*
X181116503Y-115419737D01*
X181271153Y-115450499D01*
X181271156Y-115450500D01*
X181271158Y-115450500D01*
X181428844Y-115450500D01*
X181428845Y-115450499D01*
X181583497Y-115419737D01*
X181729179Y-115359394D01*
X181831111Y-115291284D01*
X181897786Y-115270408D01*
X181965166Y-115288892D01*
X181968847Y-115291257D01*
X182070821Y-115359394D01*
X182070823Y-115359395D01*
X182070827Y-115359397D01*
X182216498Y-115419735D01*
X182216503Y-115419737D01*
X182371153Y-115450499D01*
X182371156Y-115450500D01*
X182371158Y-115450500D01*
X182528844Y-115450500D01*
X182528845Y-115450499D01*
X182683497Y-115419737D01*
X182829179Y-115359394D01*
X182931111Y-115291284D01*
X182997786Y-115270408D01*
X183065166Y-115288892D01*
X183068847Y-115291257D01*
X183170821Y-115359394D01*
X183170823Y-115359395D01*
X183170827Y-115359397D01*
X183316498Y-115419735D01*
X183316503Y-115419737D01*
X183471153Y-115450499D01*
X183471156Y-115450500D01*
X183471158Y-115450500D01*
X183628844Y-115450500D01*
X183628845Y-115450499D01*
X183783497Y-115419737D01*
X183929179Y-115359394D01*
X184060289Y-115271789D01*
X184171789Y-115160289D01*
X184259394Y-115029179D01*
X184319737Y-114883497D01*
X184350500Y-114728842D01*
X184350500Y-114571158D01*
X184350500Y-114571155D01*
X184350499Y-114571153D01*
X184899500Y-114571153D01*
X184899500Y-114728846D01*
X184930261Y-114883489D01*
X184930264Y-114883501D01*
X184990602Y-115029172D01*
X184990609Y-115029185D01*
X185078210Y-115160288D01*
X185078213Y-115160292D01*
X185189707Y-115271786D01*
X185189711Y-115271789D01*
X185320814Y-115359390D01*
X185320827Y-115359397D01*
X185466498Y-115419735D01*
X185466503Y-115419737D01*
X185621153Y-115450499D01*
X185621156Y-115450500D01*
X185621158Y-115450500D01*
X185778844Y-115450500D01*
X185778845Y-115450499D01*
X185933497Y-115419737D01*
X186079179Y-115359394D01*
X186181111Y-115291284D01*
X186247786Y-115270408D01*
X186315166Y-115288892D01*
X186318847Y-115291257D01*
X186420821Y-115359394D01*
X186420823Y-115359395D01*
X186420827Y-115359397D01*
X186566498Y-115419735D01*
X186566503Y-115419737D01*
X186721153Y-115450499D01*
X186721156Y-115450500D01*
X186721158Y-115450500D01*
X186878844Y-115450500D01*
X186878845Y-115450499D01*
X187033497Y-115419737D01*
X187179179Y-115359394D01*
X187310289Y-115271789D01*
X187421789Y-115160289D01*
X187509394Y-115029179D01*
X187569737Y-114883497D01*
X187600500Y-114728842D01*
X187600500Y-114571158D01*
X187600500Y-114571155D01*
X187600499Y-114571153D01*
X187569737Y-114416503D01*
X187554688Y-114380171D01*
X187509397Y-114270827D01*
X187509390Y-114270814D01*
X187421789Y-114139711D01*
X187421786Y-114139707D01*
X187310292Y-114028213D01*
X187310288Y-114028210D01*
X187179185Y-113940609D01*
X187179172Y-113940602D01*
X187033501Y-113880264D01*
X187033489Y-113880261D01*
X186878845Y-113849500D01*
X186878842Y-113849500D01*
X186721158Y-113849500D01*
X186721155Y-113849500D01*
X186566510Y-113880261D01*
X186566498Y-113880264D01*
X186420827Y-113940602D01*
X186420814Y-113940609D01*
X186318891Y-114008713D01*
X186252213Y-114029591D01*
X186184833Y-114011107D01*
X186181109Y-114008713D01*
X186079185Y-113940609D01*
X186079172Y-113940602D01*
X185933501Y-113880264D01*
X185933489Y-113880261D01*
X185778845Y-113849500D01*
X185778842Y-113849500D01*
X185621158Y-113849500D01*
X185621155Y-113849500D01*
X185466510Y-113880261D01*
X185466498Y-113880264D01*
X185320827Y-113940602D01*
X185320814Y-113940609D01*
X185189711Y-114028210D01*
X185189707Y-114028213D01*
X185078213Y-114139707D01*
X185078210Y-114139711D01*
X184990609Y-114270814D01*
X184990602Y-114270827D01*
X184930264Y-114416498D01*
X184930261Y-114416510D01*
X184899500Y-114571153D01*
X184350499Y-114571153D01*
X184319737Y-114416503D01*
X184304688Y-114380171D01*
X184259397Y-114270827D01*
X184259390Y-114270814D01*
X184171789Y-114139711D01*
X184171786Y-114139707D01*
X184060292Y-114028213D01*
X184060288Y-114028210D01*
X183929185Y-113940609D01*
X183929172Y-113940602D01*
X183783501Y-113880264D01*
X183783489Y-113880261D01*
X183628845Y-113849500D01*
X183628842Y-113849500D01*
X183471158Y-113849500D01*
X183471155Y-113849500D01*
X183316510Y-113880261D01*
X183316498Y-113880264D01*
X183170827Y-113940602D01*
X183170814Y-113940609D01*
X183068891Y-114008713D01*
X183002213Y-114029591D01*
X182934833Y-114011107D01*
X182931109Y-114008713D01*
X182829185Y-113940609D01*
X182829172Y-113940602D01*
X182683501Y-113880264D01*
X182683489Y-113880261D01*
X182528845Y-113849500D01*
X182528842Y-113849500D01*
X182371158Y-113849500D01*
X182371155Y-113849500D01*
X182216510Y-113880261D01*
X182216498Y-113880264D01*
X182070827Y-113940602D01*
X182070814Y-113940609D01*
X181968891Y-114008713D01*
X181902213Y-114029591D01*
X181834833Y-114011107D01*
X181831109Y-114008713D01*
X181729185Y-113940609D01*
X181729172Y-113940602D01*
X181583501Y-113880264D01*
X181583489Y-113880261D01*
X181428845Y-113849500D01*
X181428842Y-113849500D01*
X181271158Y-113849500D01*
X181271155Y-113849500D01*
X181116510Y-113880261D01*
X181116498Y-113880264D01*
X180970827Y-113940602D01*
X180970814Y-113940609D01*
X180843891Y-114025417D01*
X180777213Y-114046295D01*
X180709833Y-114027810D01*
X180706109Y-114025417D01*
X180579185Y-113940609D01*
X180579172Y-113940602D01*
X180433501Y-113880264D01*
X180433489Y-113880261D01*
X180278845Y-113849500D01*
X180278842Y-113849500D01*
X180121158Y-113849500D01*
X180121155Y-113849500D01*
X179966510Y-113880261D01*
X179966498Y-113880264D01*
X179820827Y-113940602D01*
X179820814Y-113940609D01*
X179732606Y-113999549D01*
X179665929Y-114020427D01*
X179598548Y-114001943D01*
X179594824Y-113999549D01*
X179506615Y-113940609D01*
X179506602Y-113940602D01*
X179360931Y-113880264D01*
X179360919Y-113880261D01*
X179206275Y-113849500D01*
X179206272Y-113849500D01*
X179048588Y-113849500D01*
X179048583Y-113849500D01*
X178956733Y-113867770D01*
X178887141Y-113861543D01*
X178831964Y-113818679D01*
X178810925Y-113770344D01*
X178800527Y-113718072D01*
X178795698Y-113693795D01*
X178737239Y-113552663D01*
X178737238Y-113552662D01*
X178737235Y-113552656D01*
X178652370Y-113425648D01*
X178652367Y-113425644D01*
X178544355Y-113317632D01*
X178544351Y-113317629D01*
X178417343Y-113232764D01*
X178417334Y-113232759D01*
X178276205Y-113174302D01*
X178276197Y-113174300D01*
X178126384Y-113144500D01*
X178126380Y-113144500D01*
X177973620Y-113144500D01*
X177973615Y-113144500D01*
X177823802Y-113174300D01*
X177823794Y-113174302D01*
X177682665Y-113232759D01*
X177682656Y-113232764D01*
X177555648Y-113317629D01*
X177555644Y-113317632D01*
X177447632Y-113425644D01*
X177447629Y-113425648D01*
X177362764Y-113552656D01*
X177362759Y-113552665D01*
X177304302Y-113693794D01*
X177304300Y-113693802D01*
X177274500Y-113843615D01*
X177274500Y-113996384D01*
X177295644Y-114102683D01*
X177289417Y-114172275D01*
X177246553Y-114227452D01*
X177180663Y-114250696D01*
X177126576Y-114241436D01*
X177125602Y-114241032D01*
X177072666Y-114219106D01*
X177072662Y-114219105D01*
X177072658Y-114219103D01*
X176898694Y-114184500D01*
X176898691Y-114184500D01*
X176721309Y-114184500D01*
X176721306Y-114184500D01*
X176547341Y-114219103D01*
X176547332Y-114219106D01*
X176383459Y-114286983D01*
X176383446Y-114286990D01*
X176275239Y-114359293D01*
X176208562Y-114380171D01*
X176141181Y-114361687D01*
X176118667Y-114343872D01*
X176052961Y-114278166D01*
X176052957Y-114278163D01*
X175925949Y-114193298D01*
X175925940Y-114193293D01*
X175784811Y-114134836D01*
X175784803Y-114134834D01*
X175634990Y-114105034D01*
X175634986Y-114105034D01*
X175482226Y-114105034D01*
X175482221Y-114105034D01*
X175332408Y-114134834D01*
X175332400Y-114134836D01*
X175191271Y-114193293D01*
X175191262Y-114193298D01*
X175064254Y-114278163D01*
X175064250Y-114278166D01*
X174956238Y-114386178D01*
X174956235Y-114386182D01*
X174871370Y-114513190D01*
X174871365Y-114513199D01*
X174812908Y-114654328D01*
X174812906Y-114654336D01*
X174783106Y-114804149D01*
X174783106Y-114956918D01*
X174812906Y-115106731D01*
X174812908Y-115106739D01*
X174871365Y-115247868D01*
X174871370Y-115247877D01*
X174956235Y-115374885D01*
X174956238Y-115374889D01*
X175064250Y-115482901D01*
X175064254Y-115482904D01*
X175191262Y-115567769D01*
X175191271Y-115567774D01*
X175196322Y-115569866D01*
X175332401Y-115626232D01*
X175477148Y-115655024D01*
X175482221Y-115656033D01*
X175482225Y-115656034D01*
X175482226Y-115656034D01*
X175634987Y-115656034D01*
X175634988Y-115656033D01*
X175784811Y-115626232D01*
X175925943Y-115567773D01*
X175925945Y-115567771D01*
X175928742Y-115566613D01*
X175998211Y-115559144D01*
X176060690Y-115590419D01*
X176079297Y-115612283D01*
X176110535Y-115659034D01*
X176110538Y-115659038D01*
X176239319Y-115787819D01*
X176272804Y-115849142D01*
X176267820Y-115918834D01*
X176225948Y-115974767D01*
X176160484Y-115999184D01*
X176151638Y-115999500D01*
X174675521Y-115999500D01*
X174610878Y-115981317D01*
X173932016Y-115566608D01*
X173928471Y-115564359D01*
X173126075Y-115036075D01*
X173122608Y-115033708D01*
X172338522Y-114478539D01*
X172335138Y-114476055D01*
X171570300Y-113894666D01*
X171567001Y-113892069D01*
X171552516Y-113880264D01*
X170822309Y-113285142D01*
X170819100Y-113282435D01*
X170095375Y-112650642D01*
X170092259Y-112647828D01*
X169946709Y-112511815D01*
X169390312Y-111991873D01*
X169387295Y-111988956D01*
X169259168Y-111860829D01*
X169065883Y-111667543D01*
X175667499Y-111667543D01*
X175705947Y-111860829D01*
X175705950Y-111860839D01*
X175781364Y-112042907D01*
X175781371Y-112042920D01*
X175890860Y-112206781D01*
X175890863Y-112206785D01*
X176030214Y-112346136D01*
X176030218Y-112346139D01*
X176194079Y-112455628D01*
X176194092Y-112455635D01*
X176376160Y-112531049D01*
X176376165Y-112531051D01*
X176376169Y-112531051D01*
X176376170Y-112531052D01*
X176569456Y-112569500D01*
X176569459Y-112569500D01*
X176766543Y-112569500D01*
X176896582Y-112543632D01*
X176959835Y-112531051D01*
X177141914Y-112455632D01*
X177305782Y-112346139D01*
X177445139Y-112206782D01*
X177554632Y-112042914D01*
X177630051Y-111860835D01*
X177668500Y-111667541D01*
X177668500Y-111610228D01*
X178267500Y-111610228D01*
X178267500Y-111777771D01*
X178300182Y-111942074D01*
X178300184Y-111942082D01*
X178364295Y-112096860D01*
X178457373Y-112236162D01*
X178575837Y-112354626D01*
X178646675Y-112401958D01*
X178715137Y-112447703D01*
X178869918Y-112511816D01*
X179034228Y-112544499D01*
X179034232Y-112544500D01*
X179034233Y-112544500D01*
X179201768Y-112544500D01*
X179201769Y-112544499D01*
X179366082Y-112511816D01*
X179520863Y-112447703D01*
X179599110Y-112395419D01*
X179665786Y-112374542D01*
X179733167Y-112393026D01*
X179736872Y-112395407D01*
X179815137Y-112447703D01*
X179969918Y-112511816D01*
X180134228Y-112544499D01*
X180134232Y-112544500D01*
X180134233Y-112544500D01*
X180301768Y-112544500D01*
X180301769Y-112544499D01*
X180466082Y-112511816D01*
X180620863Y-112447703D01*
X180699110Y-112395419D01*
X180765786Y-112374542D01*
X180833167Y-112393026D01*
X180836872Y-112395407D01*
X180915137Y-112447703D01*
X181069918Y-112511816D01*
X181234228Y-112544499D01*
X181234232Y-112544500D01*
X181234233Y-112544500D01*
X181401768Y-112544500D01*
X181401769Y-112544499D01*
X181566082Y-112511816D01*
X181720863Y-112447703D01*
X181799110Y-112395419D01*
X181865786Y-112374542D01*
X181933167Y-112393026D01*
X181936872Y-112395407D01*
X182015137Y-112447703D01*
X182169918Y-112511816D01*
X182334228Y-112544499D01*
X182334232Y-112544500D01*
X182334233Y-112544500D01*
X182501768Y-112544500D01*
X182501769Y-112544499D01*
X182666082Y-112511816D01*
X182820863Y-112447703D01*
X182899110Y-112395419D01*
X182965786Y-112374542D01*
X183033167Y-112393026D01*
X183036872Y-112395407D01*
X183115137Y-112447703D01*
X183269918Y-112511816D01*
X183434228Y-112544499D01*
X183434232Y-112544500D01*
X183434233Y-112544500D01*
X183601768Y-112544500D01*
X183601769Y-112544499D01*
X183766082Y-112511816D01*
X183920863Y-112447703D01*
X183999110Y-112395419D01*
X184065786Y-112374542D01*
X184133167Y-112393026D01*
X184136872Y-112395407D01*
X184215137Y-112447703D01*
X184369918Y-112511816D01*
X184534228Y-112544499D01*
X184534232Y-112544500D01*
X184534233Y-112544500D01*
X184701768Y-112544500D01*
X184701769Y-112544499D01*
X184866082Y-112511816D01*
X185020863Y-112447703D01*
X185099110Y-112395419D01*
X185165786Y-112374542D01*
X185233167Y-112393026D01*
X185236872Y-112395407D01*
X185315137Y-112447703D01*
X185469918Y-112511816D01*
X185634228Y-112544499D01*
X185634232Y-112544500D01*
X185634233Y-112544500D01*
X185801768Y-112544500D01*
X185801769Y-112544499D01*
X185966082Y-112511816D01*
X186120863Y-112447703D01*
X186199110Y-112395419D01*
X186265786Y-112374542D01*
X186333167Y-112393026D01*
X186336872Y-112395407D01*
X186415137Y-112447703D01*
X186569918Y-112511816D01*
X186734228Y-112544499D01*
X186734232Y-112544500D01*
X186734233Y-112544500D01*
X186901768Y-112544500D01*
X186901769Y-112544499D01*
X187066082Y-112511816D01*
X187220863Y-112447703D01*
X187360162Y-112354626D01*
X187478626Y-112236162D01*
X187571703Y-112096863D01*
X187635816Y-111942082D01*
X187668500Y-111777767D01*
X187668500Y-111610233D01*
X187635816Y-111445918D01*
X187571703Y-111291137D01*
X187540537Y-111244494D01*
X187478626Y-111151837D01*
X187360162Y-111033373D01*
X187220860Y-110940295D01*
X187066082Y-110876184D01*
X187066074Y-110876182D01*
X186901771Y-110843500D01*
X186901767Y-110843500D01*
X186734233Y-110843500D01*
X186734228Y-110843500D01*
X186569925Y-110876182D01*
X186569917Y-110876184D01*
X186415140Y-110940295D01*
X186336890Y-110992580D01*
X186270213Y-111013457D01*
X186202833Y-110994972D01*
X186199110Y-110992580D01*
X186181909Y-110981087D01*
X186120863Y-110940297D01*
X186120860Y-110940295D01*
X186120859Y-110940295D01*
X185966082Y-110876184D01*
X185966074Y-110876182D01*
X185801771Y-110843500D01*
X185801767Y-110843500D01*
X185634233Y-110843500D01*
X185634228Y-110843500D01*
X185469925Y-110876182D01*
X185469917Y-110876184D01*
X185315140Y-110940295D01*
X185236890Y-110992580D01*
X185170213Y-111013457D01*
X185102833Y-110994972D01*
X185099110Y-110992580D01*
X185081909Y-110981087D01*
X185020863Y-110940297D01*
X185020860Y-110940295D01*
X185020859Y-110940295D01*
X184866082Y-110876184D01*
X184866074Y-110876182D01*
X184701771Y-110843500D01*
X184701767Y-110843500D01*
X184534233Y-110843500D01*
X184534228Y-110843500D01*
X184369925Y-110876182D01*
X184369917Y-110876184D01*
X184215140Y-110940295D01*
X184136890Y-110992580D01*
X184070213Y-111013457D01*
X184002833Y-110994972D01*
X183999110Y-110992580D01*
X183981909Y-110981087D01*
X183920863Y-110940297D01*
X183920860Y-110940295D01*
X183920859Y-110940295D01*
X183766082Y-110876184D01*
X183766074Y-110876182D01*
X183601771Y-110843500D01*
X183601767Y-110843500D01*
X183434233Y-110843500D01*
X183434228Y-110843500D01*
X183269925Y-110876182D01*
X183269917Y-110876184D01*
X183115140Y-110940295D01*
X183036890Y-110992580D01*
X182970213Y-111013457D01*
X182902833Y-110994972D01*
X182899110Y-110992580D01*
X182881909Y-110981087D01*
X182820863Y-110940297D01*
X182820860Y-110940295D01*
X182820859Y-110940295D01*
X182666082Y-110876184D01*
X182666074Y-110876182D01*
X182501771Y-110843500D01*
X182501767Y-110843500D01*
X182334233Y-110843500D01*
X182334228Y-110843500D01*
X182169925Y-110876182D01*
X182169917Y-110876184D01*
X182015140Y-110940295D01*
X181936890Y-110992580D01*
X181870213Y-111013457D01*
X181802833Y-110994972D01*
X181799110Y-110992580D01*
X181781909Y-110981087D01*
X181720863Y-110940297D01*
X181720860Y-110940295D01*
X181720859Y-110940295D01*
X181566082Y-110876184D01*
X181566074Y-110876182D01*
X181401771Y-110843500D01*
X181401767Y-110843500D01*
X181234233Y-110843500D01*
X181234228Y-110843500D01*
X181069925Y-110876182D01*
X181069917Y-110876184D01*
X180915140Y-110940295D01*
X180836890Y-110992580D01*
X180770213Y-111013457D01*
X180702833Y-110994972D01*
X180699110Y-110992580D01*
X180681909Y-110981087D01*
X180620863Y-110940297D01*
X180620860Y-110940295D01*
X180620859Y-110940295D01*
X180466082Y-110876184D01*
X180466074Y-110876182D01*
X180301771Y-110843500D01*
X180301767Y-110843500D01*
X180134233Y-110843500D01*
X180134228Y-110843500D01*
X179969925Y-110876182D01*
X179969917Y-110876184D01*
X179815140Y-110940295D01*
X179736890Y-110992580D01*
X179670213Y-111013457D01*
X179602833Y-110994972D01*
X179599110Y-110992580D01*
X179581909Y-110981087D01*
X179520863Y-110940297D01*
X179520860Y-110940295D01*
X179520859Y-110940295D01*
X179366082Y-110876184D01*
X179366074Y-110876182D01*
X179201771Y-110843500D01*
X179201767Y-110843500D01*
X179034233Y-110843500D01*
X179034228Y-110843500D01*
X178869925Y-110876182D01*
X178869917Y-110876184D01*
X178715139Y-110940295D01*
X178575837Y-111033373D01*
X178457373Y-111151837D01*
X178364295Y-111291139D01*
X178300184Y-111445917D01*
X178300182Y-111445925D01*
X178267500Y-111610228D01*
X177668500Y-111610228D01*
X177668500Y-111470459D01*
X177668500Y-111470456D01*
X177630052Y-111277170D01*
X177630051Y-111277169D01*
X177630051Y-111277165D01*
X177630049Y-111277160D01*
X177554635Y-111095092D01*
X177554628Y-111095079D01*
X177445139Y-110931218D01*
X177445136Y-110931214D01*
X177305785Y-110791863D01*
X177305781Y-110791860D01*
X177141920Y-110682371D01*
X177141907Y-110682364D01*
X176959839Y-110606950D01*
X176959829Y-110606947D01*
X176766543Y-110568500D01*
X176766541Y-110568500D01*
X176569459Y-110568500D01*
X176569457Y-110568500D01*
X176376170Y-110606947D01*
X176376160Y-110606950D01*
X176194092Y-110682364D01*
X176194079Y-110682371D01*
X176030218Y-110791860D01*
X176030214Y-110791863D01*
X175890863Y-110931214D01*
X175890860Y-110931218D01*
X175781371Y-111095079D01*
X175781364Y-111095092D01*
X175705950Y-111277160D01*
X175705947Y-111277170D01*
X175667500Y-111470456D01*
X175667500Y-111470459D01*
X175667500Y-111667541D01*
X175667500Y-111667543D01*
X175667499Y-111667543D01*
X169065883Y-111667543D01*
X168707985Y-111309644D01*
X168705067Y-111306626D01*
X168677541Y-111277170D01*
X168049112Y-110604675D01*
X168046301Y-110601562D01*
X167881692Y-110413000D01*
X167414505Y-109877829D01*
X167411803Y-109874626D01*
X167401554Y-109862051D01*
X167133910Y-109533653D01*
X172862000Y-109533653D01*
X172862000Y-109691346D01*
X172892761Y-109845989D01*
X172892764Y-109846001D01*
X172953102Y-109991672D01*
X172953109Y-109991685D01*
X173040710Y-110122788D01*
X173040713Y-110122792D01*
X173152207Y-110234286D01*
X173152211Y-110234289D01*
X173283314Y-110321890D01*
X173283327Y-110321897D01*
X173428998Y-110382235D01*
X173429003Y-110382237D01*
X173583653Y-110412999D01*
X173583656Y-110413000D01*
X173583658Y-110413000D01*
X173741344Y-110413000D01*
X173741345Y-110412999D01*
X173895997Y-110382237D01*
X174041679Y-110321894D01*
X174172789Y-110234289D01*
X174284289Y-110122789D01*
X174371894Y-109991679D01*
X174432237Y-109845997D01*
X174463000Y-109691342D01*
X174463000Y-109533658D01*
X174463000Y-109533655D01*
X174462999Y-109533653D01*
X174432238Y-109379010D01*
X174432237Y-109379003D01*
X174409416Y-109323907D01*
X174371897Y-109233327D01*
X174371890Y-109233314D01*
X174284289Y-109102211D01*
X174284286Y-109102207D01*
X174172792Y-108990713D01*
X174172788Y-108990710D01*
X174109681Y-108948543D01*
X204449499Y-108948543D01*
X204487947Y-109141829D01*
X204487950Y-109141839D01*
X204563364Y-109323907D01*
X204563371Y-109323920D01*
X204672860Y-109487781D01*
X204672863Y-109487785D01*
X204812214Y-109627136D01*
X204812218Y-109627139D01*
X204976079Y-109736628D01*
X204976092Y-109736635D01*
X205157926Y-109811952D01*
X205158165Y-109812051D01*
X205158169Y-109812051D01*
X205158170Y-109812052D01*
X205351456Y-109850500D01*
X205351459Y-109850500D01*
X205548543Y-109850500D01*
X205678582Y-109824632D01*
X205741835Y-109812051D01*
X205771704Y-109799678D01*
X205799548Y-109788146D01*
X205869017Y-109780677D01*
X205931496Y-109811952D01*
X205967148Y-109872041D01*
X205971000Y-109902707D01*
X205971000Y-109917000D01*
X207871000Y-109917000D01*
X207884465Y-109903534D01*
X207890685Y-109882354D01*
X207943489Y-109836599D01*
X208012647Y-109826655D01*
X208042450Y-109834831D01*
X208108165Y-109862051D01*
X208108169Y-109862051D01*
X208108170Y-109862052D01*
X208301456Y-109900500D01*
X208301459Y-109900500D01*
X208498543Y-109900500D01*
X208641612Y-109872041D01*
X208691835Y-109862051D01*
X208873914Y-109786632D01*
X209037782Y-109677139D01*
X209177139Y-109537782D01*
X209286632Y-109373914D01*
X209362051Y-109191835D01*
X209400500Y-108998541D01*
X209400500Y-108801459D01*
X209400500Y-108801456D01*
X209362052Y-108608170D01*
X209362051Y-108608169D01*
X209362051Y-108608165D01*
X209341343Y-108558170D01*
X209286635Y-108426092D01*
X209286628Y-108426079D01*
X209177139Y-108262218D01*
X209177136Y-108262214D01*
X209037785Y-108122863D01*
X209037781Y-108122860D01*
X208873920Y-108013371D01*
X208873907Y-108013364D01*
X208691839Y-107937950D01*
X208691829Y-107937947D01*
X208498543Y-107899500D01*
X208498541Y-107899500D01*
X208301459Y-107899500D01*
X208301457Y-107899500D01*
X208108170Y-107937947D01*
X208108165Y-107937949D01*
X208042451Y-107965168D01*
X207972982Y-107972636D01*
X207910503Y-107941360D01*
X207874851Y-107881271D01*
X207871000Y-107850606D01*
X207871000Y-107827000D01*
X205971000Y-107827000D01*
X205958650Y-107839349D01*
X205951315Y-107864332D01*
X205898511Y-107910087D01*
X205829353Y-107920031D01*
X205799548Y-107911854D01*
X205741839Y-107887950D01*
X205741829Y-107887947D01*
X205548543Y-107849500D01*
X205548541Y-107849500D01*
X205351459Y-107849500D01*
X205351457Y-107849500D01*
X205158170Y-107887947D01*
X205158160Y-107887950D01*
X204976092Y-107963364D01*
X204976079Y-107963371D01*
X204812218Y-108072860D01*
X204812214Y-108072863D01*
X204672863Y-108212214D01*
X204672860Y-108212218D01*
X204563371Y-108376079D01*
X204563364Y-108376092D01*
X204487950Y-108558160D01*
X204487947Y-108558170D01*
X204449500Y-108751456D01*
X204449500Y-108751459D01*
X204449500Y-108948541D01*
X204449500Y-108948543D01*
X204449499Y-108948543D01*
X174109681Y-108948543D01*
X174041685Y-108903109D01*
X174041672Y-108903102D01*
X173937438Y-108859928D01*
X173896001Y-108842764D01*
X173895989Y-108842761D01*
X173741345Y-108812000D01*
X173741342Y-108812000D01*
X173583658Y-108812000D01*
X173583655Y-108812000D01*
X173429010Y-108842761D01*
X173428998Y-108842764D01*
X173283327Y-108903102D01*
X173283314Y-108903109D01*
X173152211Y-108990710D01*
X173152207Y-108990713D01*
X173040713Y-109102207D01*
X173040710Y-109102211D01*
X172953109Y-109233314D01*
X172953102Y-109233327D01*
X172892764Y-109378998D01*
X172892761Y-109379010D01*
X172862000Y-109533653D01*
X167133910Y-109533653D01*
X166804866Y-109129917D01*
X166802270Y-109126619D01*
X166599547Y-108859928D01*
X166220887Y-108361785D01*
X166218410Y-108358410D01*
X166150299Y-108262214D01*
X165663248Y-107574327D01*
X165660890Y-107570875D01*
X165405688Y-107183253D01*
X165364803Y-107121153D01*
X178896438Y-107121153D01*
X178896438Y-107278846D01*
X178927199Y-107433489D01*
X178927202Y-107433501D01*
X178987540Y-107579172D01*
X178987547Y-107579185D01*
X179075148Y-107710288D01*
X179075151Y-107710292D01*
X179186645Y-107821786D01*
X179186649Y-107821789D01*
X179317752Y-107909390D01*
X179317765Y-107909397D01*
X179448072Y-107963371D01*
X179463441Y-107969737D01*
X179618091Y-108000499D01*
X179618094Y-108000500D01*
X179618096Y-108000500D01*
X179775782Y-108000500D01*
X179775783Y-108000499D01*
X179930435Y-107969737D01*
X180076117Y-107909394D01*
X180128048Y-107874694D01*
X180194723Y-107853816D01*
X180262103Y-107872300D01*
X180265801Y-107874676D01*
X180317759Y-107909394D01*
X180317761Y-107909395D01*
X180317763Y-107909396D01*
X180394932Y-107941360D01*
X180463441Y-107969737D01*
X180618091Y-108000499D01*
X180618094Y-108000500D01*
X180618096Y-108000500D01*
X180775782Y-108000500D01*
X180775783Y-108000499D01*
X180930435Y-107969737D01*
X181076117Y-107909394D01*
X181128048Y-107874694D01*
X181194723Y-107853816D01*
X181262103Y-107872300D01*
X181265801Y-107874676D01*
X181317759Y-107909394D01*
X181317761Y-107909395D01*
X181317763Y-107909396D01*
X181394932Y-107941360D01*
X181463441Y-107969737D01*
X181618091Y-108000499D01*
X181618094Y-108000500D01*
X181618096Y-108000500D01*
X181775782Y-108000500D01*
X181775783Y-108000499D01*
X181930435Y-107969737D01*
X182076117Y-107909394D01*
X182207227Y-107821789D01*
X182318727Y-107710289D01*
X182406332Y-107579179D01*
X182409046Y-107572628D01*
X182466673Y-107433501D01*
X182466675Y-107433497D01*
X182497438Y-107278842D01*
X182497438Y-107121158D01*
X182497438Y-107121155D01*
X182497437Y-107121153D01*
X182495276Y-107110288D01*
X182466675Y-106966503D01*
X182466673Y-106966498D01*
X182406335Y-106820827D01*
X182406328Y-106820814D01*
X182318727Y-106689711D01*
X182318724Y-106689707D01*
X182207230Y-106578213D01*
X182207226Y-106578210D01*
X182121835Y-106521153D01*
X194896438Y-106521153D01*
X194896438Y-106678846D01*
X194927199Y-106833489D01*
X194927202Y-106833501D01*
X194987540Y-106979172D01*
X194987547Y-106979185D01*
X195075148Y-107110288D01*
X195075151Y-107110292D01*
X195186645Y-107221786D01*
X195186649Y-107221789D01*
X195317752Y-107309390D01*
X195317765Y-107309397D01*
X195463436Y-107369735D01*
X195463441Y-107369737D01*
X195618091Y-107400499D01*
X195618094Y-107400500D01*
X195618096Y-107400500D01*
X195775782Y-107400500D01*
X195775783Y-107400499D01*
X195930435Y-107369737D01*
X196076117Y-107309394D01*
X196207227Y-107221789D01*
X196318727Y-107110289D01*
X196406332Y-106979179D01*
X196466675Y-106833497D01*
X196497438Y-106678842D01*
X196497438Y-106521158D01*
X196497438Y-106521155D01*
X196497437Y-106521153D01*
X197896438Y-106521153D01*
X197896438Y-106678846D01*
X197927199Y-106833489D01*
X197927202Y-106833501D01*
X197987540Y-106979172D01*
X197987547Y-106979185D01*
X198075148Y-107110288D01*
X198075151Y-107110292D01*
X198186645Y-107221786D01*
X198186649Y-107221789D01*
X198317752Y-107309390D01*
X198317765Y-107309397D01*
X198463436Y-107369735D01*
X198463441Y-107369737D01*
X198618091Y-107400499D01*
X198618094Y-107400500D01*
X198618096Y-107400500D01*
X198775782Y-107400500D01*
X198775783Y-107400499D01*
X198930435Y-107369737D01*
X199076117Y-107309394D01*
X199207227Y-107221789D01*
X199318727Y-107110289D01*
X199406332Y-106979179D01*
X199466675Y-106833497D01*
X199497438Y-106678842D01*
X199497438Y-106521158D01*
X199497438Y-106521155D01*
X199497437Y-106521153D01*
X199491360Y-106490602D01*
X199466675Y-106366503D01*
X199466673Y-106366498D01*
X199406335Y-106220827D01*
X199406328Y-106220814D01*
X199318727Y-106089711D01*
X199318724Y-106089707D01*
X199207230Y-105978213D01*
X199207226Y-105978210D01*
X199076123Y-105890609D01*
X199076110Y-105890602D01*
X198979398Y-105850543D01*
X207880499Y-105850543D01*
X207918947Y-106043829D01*
X207918950Y-106043839D01*
X207994364Y-106225907D01*
X207994371Y-106225920D01*
X208103860Y-106389781D01*
X208103863Y-106389785D01*
X208243214Y-106529136D01*
X208243218Y-106529139D01*
X208407079Y-106638628D01*
X208407092Y-106638635D01*
X208589160Y-106714049D01*
X208589165Y-106714051D01*
X208589169Y-106714051D01*
X208589170Y-106714052D01*
X208782456Y-106752500D01*
X208782459Y-106752500D01*
X208979543Y-106752500D01*
X209109582Y-106726632D01*
X209172835Y-106714051D01*
X209354914Y-106638632D01*
X209518782Y-106529139D01*
X209658139Y-106389782D01*
X209767632Y-106225914D01*
X209769745Y-106220814D01*
X209806100Y-106133043D01*
X209843051Y-106043835D01*
X209873530Y-105890609D01*
X209881500Y-105850543D01*
X209881500Y-105653456D01*
X209843052Y-105460170D01*
X209843051Y-105460169D01*
X209843051Y-105460165D01*
X209843049Y-105460160D01*
X209767635Y-105278092D01*
X209767628Y-105278079D01*
X209658139Y-105114218D01*
X209658136Y-105114214D01*
X209518785Y-104974863D01*
X209518781Y-104974860D01*
X209354920Y-104865371D01*
X209354907Y-104865364D01*
X209172839Y-104789950D01*
X209172829Y-104789947D01*
X208979543Y-104751500D01*
X208979541Y-104751500D01*
X208782459Y-104751500D01*
X208782457Y-104751500D01*
X208589170Y-104789947D01*
X208589160Y-104789950D01*
X208407092Y-104865364D01*
X208407079Y-104865371D01*
X208243218Y-104974860D01*
X208243214Y-104974863D01*
X208103863Y-105114214D01*
X208103860Y-105114218D01*
X207994371Y-105278079D01*
X207994364Y-105278092D01*
X207918950Y-105460160D01*
X207918947Y-105460170D01*
X207880500Y-105653456D01*
X207880500Y-105653459D01*
X207880500Y-105850541D01*
X207880500Y-105850543D01*
X207880499Y-105850543D01*
X198979398Y-105850543D01*
X198930439Y-105830264D01*
X198930427Y-105830261D01*
X198775783Y-105799500D01*
X198775780Y-105799500D01*
X198618096Y-105799500D01*
X198618093Y-105799500D01*
X198463448Y-105830261D01*
X198463436Y-105830264D01*
X198317765Y-105890602D01*
X198317752Y-105890609D01*
X198186649Y-105978210D01*
X198186645Y-105978213D01*
X198075151Y-106089707D01*
X198075148Y-106089711D01*
X197987547Y-106220814D01*
X197987540Y-106220827D01*
X197927202Y-106366498D01*
X197927199Y-106366510D01*
X197896438Y-106521153D01*
X196497437Y-106521153D01*
X196491360Y-106490602D01*
X196466675Y-106366503D01*
X196466673Y-106366498D01*
X196406335Y-106220827D01*
X196406328Y-106220814D01*
X196318727Y-106089711D01*
X196318724Y-106089707D01*
X196207230Y-105978213D01*
X196207226Y-105978210D01*
X196076123Y-105890609D01*
X196076110Y-105890602D01*
X195930439Y-105830264D01*
X195930427Y-105830261D01*
X195775783Y-105799500D01*
X195775780Y-105799500D01*
X195618096Y-105799500D01*
X195618093Y-105799500D01*
X195463448Y-105830261D01*
X195463436Y-105830264D01*
X195317765Y-105890602D01*
X195317752Y-105890609D01*
X195186649Y-105978210D01*
X195186645Y-105978213D01*
X195075151Y-106089707D01*
X195075148Y-106089711D01*
X194987547Y-106220814D01*
X194987540Y-106220827D01*
X194927202Y-106366498D01*
X194927199Y-106366510D01*
X194896438Y-106521153D01*
X182121835Y-106521153D01*
X182076123Y-106490609D01*
X182076110Y-106490602D01*
X181930439Y-106430264D01*
X181930427Y-106430261D01*
X181775783Y-106399500D01*
X181775780Y-106399500D01*
X181618096Y-106399500D01*
X181618093Y-106399500D01*
X181463448Y-106430261D01*
X181463436Y-106430264D01*
X181317765Y-106490602D01*
X181317752Y-106490609D01*
X181265829Y-106525304D01*
X181199152Y-106546182D01*
X181131771Y-106527698D01*
X181128047Y-106525304D01*
X181076123Y-106490609D01*
X181076110Y-106490602D01*
X180930439Y-106430264D01*
X180930427Y-106430261D01*
X180775783Y-106399500D01*
X180775780Y-106399500D01*
X180618096Y-106399500D01*
X180618093Y-106399500D01*
X180463448Y-106430261D01*
X180463436Y-106430264D01*
X180317765Y-106490602D01*
X180317752Y-106490609D01*
X180265829Y-106525304D01*
X180199152Y-106546182D01*
X180131771Y-106527698D01*
X180128047Y-106525304D01*
X180076123Y-106490609D01*
X180076110Y-106490602D01*
X179930439Y-106430264D01*
X179930427Y-106430261D01*
X179775783Y-106399500D01*
X179775780Y-106399500D01*
X179618096Y-106399500D01*
X179618093Y-106399500D01*
X179463448Y-106430261D01*
X179463436Y-106430264D01*
X179317765Y-106490602D01*
X179317752Y-106490609D01*
X179186649Y-106578210D01*
X179186645Y-106578213D01*
X179075151Y-106689707D01*
X179075148Y-106689711D01*
X178987547Y-106820814D01*
X178987540Y-106820827D01*
X178927202Y-106966498D01*
X178927199Y-106966510D01*
X178896438Y-107121153D01*
X165364803Y-107121153D01*
X165132595Y-106768457D01*
X165130346Y-106764912D01*
X165099276Y-106714052D01*
X164826033Y-106266760D01*
X164715620Y-106086016D01*
X164697438Y-106021374D01*
X164697438Y-102421153D01*
X165999500Y-102421153D01*
X165999500Y-102578846D01*
X166030261Y-102733489D01*
X166030264Y-102733501D01*
X166090602Y-102879172D01*
X166090609Y-102879185D01*
X166178210Y-103010288D01*
X166178213Y-103010292D01*
X166289707Y-103121786D01*
X166289711Y-103121789D01*
X166420814Y-103209390D01*
X166420827Y-103209397D01*
X166566498Y-103269735D01*
X166566503Y-103269737D01*
X166698068Y-103295907D01*
X166721153Y-103300499D01*
X166721156Y-103300500D01*
X166721158Y-103300500D01*
X166878844Y-103300500D01*
X166878845Y-103300499D01*
X167033497Y-103269737D01*
X167179179Y-103209394D01*
X167310289Y-103121789D01*
X167421789Y-103010289D01*
X167509394Y-102879179D01*
X167569737Y-102733497D01*
X167600500Y-102578842D01*
X167600500Y-102421158D01*
X167600500Y-102421155D01*
X167600499Y-102421153D01*
X170499500Y-102421153D01*
X170499500Y-102578846D01*
X170530261Y-102733489D01*
X170530264Y-102733501D01*
X170590602Y-102879172D01*
X170590609Y-102879185D01*
X170678210Y-103010288D01*
X170678213Y-103010292D01*
X170789707Y-103121786D01*
X170789711Y-103121789D01*
X170920814Y-103209390D01*
X170920827Y-103209397D01*
X171066498Y-103269735D01*
X171066503Y-103269737D01*
X171198068Y-103295907D01*
X171221153Y-103300499D01*
X171221156Y-103300500D01*
X171221158Y-103300500D01*
X171378844Y-103300500D01*
X171378845Y-103300499D01*
X171533497Y-103269737D01*
X171628697Y-103230304D01*
X175417500Y-103230304D01*
X175417500Y-103407695D01*
X175452103Y-103581658D01*
X175452106Y-103581667D01*
X175519983Y-103745540D01*
X175519990Y-103745553D01*
X175618535Y-103893034D01*
X175618538Y-103893038D01*
X175743961Y-104018461D01*
X175743965Y-104018464D01*
X175891446Y-104117009D01*
X175891459Y-104117016D01*
X175957639Y-104144428D01*
X176055334Y-104184894D01*
X176055336Y-104184894D01*
X176055341Y-104184896D01*
X176229304Y-104219499D01*
X176229307Y-104219500D01*
X176229309Y-104219500D01*
X176406693Y-104219500D01*
X176406694Y-104219499D01*
X176464682Y-104207964D01*
X176580658Y-104184896D01*
X176580661Y-104184894D01*
X176580666Y-104184894D01*
X176744547Y-104117013D01*
X176892035Y-104018464D01*
X177017464Y-103893035D01*
X177025971Y-103880304D01*
X187367500Y-103880304D01*
X187367500Y-104057695D01*
X187402103Y-104231658D01*
X187402106Y-104231667D01*
X187469983Y-104395540D01*
X187469990Y-104395553D01*
X187568535Y-104543034D01*
X187568538Y-104543038D01*
X187693961Y-104668461D01*
X187693965Y-104668464D01*
X187841446Y-104767009D01*
X187841459Y-104767016D01*
X187896828Y-104789950D01*
X188005334Y-104834894D01*
X188005336Y-104834894D01*
X188005341Y-104834896D01*
X188179304Y-104869499D01*
X188179307Y-104869500D01*
X188179309Y-104869500D01*
X188356693Y-104869500D01*
X188356694Y-104869499D01*
X188414682Y-104857964D01*
X188530658Y-104834896D01*
X188530661Y-104834894D01*
X188530666Y-104834894D01*
X188694547Y-104767013D01*
X188842035Y-104668464D01*
X188967464Y-104543035D01*
X189066013Y-104395547D01*
X189133894Y-104231666D01*
X189136315Y-104219499D01*
X189168499Y-104057695D01*
X189168500Y-104057693D01*
X189168500Y-103880306D01*
X189168499Y-103880304D01*
X189133896Y-103706341D01*
X189133893Y-103706332D01*
X189066016Y-103542459D01*
X189066009Y-103542446D01*
X188993355Y-103433712D01*
X188993354Y-103433711D01*
X188967466Y-103394967D01*
X188967461Y-103394961D01*
X188941372Y-103368872D01*
X190796438Y-103368872D01*
X190796438Y-103631127D01*
X190816572Y-103784049D01*
X190830668Y-103891116D01*
X190898540Y-104144418D01*
X190898543Y-104144428D01*
X190998891Y-104386690D01*
X190998896Y-104386700D01*
X191130013Y-104613803D01*
X191289656Y-104821851D01*
X191289664Y-104821860D01*
X191475078Y-105007274D01*
X191475086Y-105007281D01*
X191683134Y-105166924D01*
X191910237Y-105298041D01*
X191910247Y-105298046D01*
X192152509Y-105398394D01*
X192152519Y-105398398D01*
X192405822Y-105466270D01*
X192665818Y-105500500D01*
X192665825Y-105500500D01*
X192928051Y-105500500D01*
X192928058Y-105500500D01*
X193188054Y-105466270D01*
X193441357Y-105398398D01*
X193683635Y-105298043D01*
X193910741Y-105166924D01*
X194118789Y-105007282D01*
X194118793Y-105007277D01*
X194118798Y-105007274D01*
X194304212Y-104821860D01*
X194304215Y-104821855D01*
X194304220Y-104821851D01*
X194463862Y-104613803D01*
X194594981Y-104386697D01*
X194695336Y-104144419D01*
X194763208Y-103891116D01*
X194797438Y-103631120D01*
X194797438Y-103368880D01*
X194763208Y-103108884D01*
X194712742Y-102920543D01*
X207880499Y-102920543D01*
X207918947Y-103113829D01*
X207918950Y-103113839D01*
X207994364Y-103295907D01*
X207994371Y-103295920D01*
X208103860Y-103459781D01*
X208103863Y-103459785D01*
X208243214Y-103599136D01*
X208243218Y-103599139D01*
X208407079Y-103708628D01*
X208407092Y-103708635D01*
X208589160Y-103784049D01*
X208589165Y-103784051D01*
X208589169Y-103784051D01*
X208589170Y-103784052D01*
X208782456Y-103822500D01*
X208782459Y-103822500D01*
X208979543Y-103822500D01*
X209109582Y-103796632D01*
X209172835Y-103784051D01*
X209354914Y-103708632D01*
X209518782Y-103599139D01*
X209658139Y-103459782D01*
X209767632Y-103295914D01*
X209843051Y-103113835D01*
X209881500Y-102920541D01*
X209881500Y-102723459D01*
X209881500Y-102723456D01*
X209843052Y-102530170D01*
X209843051Y-102530169D01*
X209843051Y-102530165D01*
X209839248Y-102520983D01*
X209767635Y-102348092D01*
X209767628Y-102348079D01*
X209658139Y-102184218D01*
X209658136Y-102184214D01*
X209518785Y-102044863D01*
X209518781Y-102044860D01*
X209354920Y-101935371D01*
X209354907Y-101935364D01*
X209172839Y-101859950D01*
X209172829Y-101859947D01*
X208979543Y-101821500D01*
X208979541Y-101821500D01*
X208782459Y-101821500D01*
X208782457Y-101821500D01*
X208589170Y-101859947D01*
X208589160Y-101859950D01*
X208407092Y-101935364D01*
X208407079Y-101935371D01*
X208243218Y-102044860D01*
X208243214Y-102044863D01*
X208103863Y-102184214D01*
X208103860Y-102184218D01*
X207994371Y-102348079D01*
X207994364Y-102348092D01*
X207918950Y-102530160D01*
X207918947Y-102530170D01*
X207880500Y-102723456D01*
X207880500Y-102723459D01*
X207880500Y-102920541D01*
X207880500Y-102920543D01*
X207880499Y-102920543D01*
X194712742Y-102920543D01*
X194695336Y-102855581D01*
X194672521Y-102800500D01*
X194657742Y-102764820D01*
X194594984Y-102613309D01*
X194594979Y-102613299D01*
X194463862Y-102386196D01*
X194304219Y-102178148D01*
X194304212Y-102178140D01*
X194118798Y-101992726D01*
X194118789Y-101992718D01*
X193910741Y-101833075D01*
X193683638Y-101701958D01*
X193683628Y-101701953D01*
X193441366Y-101601605D01*
X193441359Y-101601603D01*
X193441357Y-101601602D01*
X193188054Y-101533730D01*
X193130277Y-101526123D01*
X192928065Y-101499500D01*
X192928058Y-101499500D01*
X192665818Y-101499500D01*
X192665810Y-101499500D01*
X192434710Y-101529926D01*
X192405822Y-101533730D01*
X192152519Y-101601602D01*
X192152509Y-101601605D01*
X191910247Y-101701953D01*
X191910237Y-101701958D01*
X191683134Y-101833075D01*
X191475086Y-101992718D01*
X191289656Y-102178148D01*
X191130013Y-102386196D01*
X190998896Y-102613299D01*
X190998891Y-102613309D01*
X190898543Y-102855571D01*
X190898540Y-102855581D01*
X190830668Y-103108885D01*
X190796438Y-103368872D01*
X188941372Y-103368872D01*
X188842038Y-103269538D01*
X188842034Y-103269535D01*
X188694553Y-103170990D01*
X188694540Y-103170983D01*
X188530667Y-103103106D01*
X188530658Y-103103103D01*
X188356694Y-103068500D01*
X188356691Y-103068500D01*
X188179309Y-103068500D01*
X188179306Y-103068500D01*
X188005341Y-103103103D01*
X188005332Y-103103106D01*
X187841459Y-103170983D01*
X187841446Y-103170990D01*
X187693965Y-103269535D01*
X187693961Y-103269538D01*
X187568538Y-103394961D01*
X187568535Y-103394965D01*
X187469990Y-103542446D01*
X187469983Y-103542459D01*
X187402106Y-103706332D01*
X187402103Y-103706341D01*
X187367500Y-103880304D01*
X177025971Y-103880304D01*
X177116013Y-103745547D01*
X177183894Y-103581666D01*
X177191696Y-103542446D01*
X177218499Y-103407695D01*
X177218500Y-103407693D01*
X177218500Y-103230306D01*
X177218499Y-103230304D01*
X177183896Y-103056341D01*
X177183893Y-103056332D01*
X177116016Y-102892459D01*
X177116009Y-102892446D01*
X177017464Y-102744965D01*
X177017461Y-102744961D01*
X176892038Y-102619538D01*
X176892034Y-102619535D01*
X176744553Y-102520990D01*
X176744540Y-102520983D01*
X176580667Y-102453106D01*
X176580658Y-102453103D01*
X176406694Y-102418500D01*
X176406691Y-102418500D01*
X176229309Y-102418500D01*
X176229306Y-102418500D01*
X176055341Y-102453103D01*
X176055332Y-102453106D01*
X175891459Y-102520983D01*
X175891446Y-102520990D01*
X175743965Y-102619535D01*
X175743961Y-102619538D01*
X175618538Y-102744961D01*
X175618535Y-102744965D01*
X175519990Y-102892446D01*
X175519983Y-102892459D01*
X175452106Y-103056332D01*
X175452103Y-103056341D01*
X175417500Y-103230304D01*
X171628697Y-103230304D01*
X171679179Y-103209394D01*
X171810289Y-103121789D01*
X171921789Y-103010289D01*
X172009394Y-102879179D01*
X172069737Y-102733497D01*
X172100500Y-102578842D01*
X172100500Y-102421158D01*
X172100500Y-102421155D01*
X172100499Y-102421153D01*
X172093546Y-102386197D01*
X172069737Y-102266503D01*
X172033140Y-102178149D01*
X172009397Y-102120827D01*
X172009390Y-102120814D01*
X171921790Y-101989712D01*
X171921784Y-101989705D01*
X171853232Y-101921153D01*
X173296438Y-101921153D01*
X173296438Y-102078846D01*
X173327199Y-102233489D01*
X173327202Y-102233501D01*
X173387540Y-102379172D01*
X173387547Y-102379185D01*
X173475148Y-102510288D01*
X173475151Y-102510292D01*
X173586645Y-102621786D01*
X173586649Y-102621789D01*
X173717752Y-102709390D01*
X173717765Y-102709397D01*
X173851570Y-102764820D01*
X173863441Y-102769737D01*
X174018091Y-102800499D01*
X174018094Y-102800500D01*
X174018096Y-102800500D01*
X174175782Y-102800500D01*
X174175783Y-102800499D01*
X174330435Y-102769737D01*
X174476117Y-102709394D01*
X174607227Y-102621789D01*
X174718727Y-102510289D01*
X174806332Y-102379179D01*
X174866675Y-102233497D01*
X174897438Y-102078842D01*
X174897438Y-101921158D01*
X174897438Y-101921155D01*
X174897437Y-101921153D01*
X174879917Y-101833075D01*
X174866675Y-101766503D01*
X174866673Y-101766498D01*
X174806335Y-101620827D01*
X174806328Y-101620814D01*
X174718727Y-101489711D01*
X174718724Y-101489707D01*
X174607230Y-101378213D01*
X174607226Y-101378210D01*
X174476123Y-101290609D01*
X174476110Y-101290602D01*
X174330439Y-101230264D01*
X174330427Y-101230261D01*
X174175783Y-101199500D01*
X174175780Y-101199500D01*
X174018096Y-101199500D01*
X174018093Y-101199500D01*
X173863448Y-101230261D01*
X173863436Y-101230264D01*
X173717765Y-101290602D01*
X173717752Y-101290609D01*
X173586649Y-101378210D01*
X173586645Y-101378213D01*
X173475151Y-101489707D01*
X173475148Y-101489711D01*
X173387547Y-101620814D01*
X173387540Y-101620827D01*
X173327202Y-101766498D01*
X173327199Y-101766510D01*
X173296438Y-101921153D01*
X171853232Y-101921153D01*
X171810292Y-101878213D01*
X171810288Y-101878210D01*
X171679185Y-101790609D01*
X171679172Y-101790602D01*
X171533501Y-101730264D01*
X171533489Y-101730261D01*
X171378845Y-101699500D01*
X171378842Y-101699500D01*
X171221158Y-101699500D01*
X171221155Y-101699500D01*
X171066510Y-101730261D01*
X171066498Y-101730264D01*
X170920827Y-101790602D01*
X170920814Y-101790609D01*
X170789711Y-101878210D01*
X170789707Y-101878213D01*
X170678213Y-101989707D01*
X170678210Y-101989711D01*
X170590609Y-102120814D01*
X170590602Y-102120827D01*
X170530264Y-102266498D01*
X170530261Y-102266510D01*
X170499500Y-102421153D01*
X167600499Y-102421153D01*
X167593546Y-102386197D01*
X167569737Y-102266503D01*
X167533140Y-102178149D01*
X167509397Y-102120827D01*
X167509390Y-102120814D01*
X167421789Y-101989711D01*
X167421786Y-101989707D01*
X167310292Y-101878213D01*
X167310288Y-101878210D01*
X167179185Y-101790609D01*
X167179172Y-101790602D01*
X167033501Y-101730264D01*
X167033489Y-101730261D01*
X166878845Y-101699500D01*
X166878842Y-101699500D01*
X166721158Y-101699500D01*
X166721155Y-101699500D01*
X166566510Y-101730261D01*
X166566498Y-101730264D01*
X166420827Y-101790602D01*
X166420814Y-101790609D01*
X166289711Y-101878210D01*
X166289707Y-101878213D01*
X166178213Y-101989707D01*
X166178210Y-101989711D01*
X166090609Y-102120814D01*
X166090602Y-102120827D01*
X166030264Y-102266498D01*
X166030261Y-102266510D01*
X165999500Y-102421153D01*
X164697438Y-102421153D01*
X164697438Y-100416228D01*
X166066438Y-100416228D01*
X166066438Y-100583771D01*
X166099120Y-100748074D01*
X166099122Y-100748082D01*
X166163233Y-100902860D01*
X166256311Y-101042162D01*
X166374775Y-101160626D01*
X166467432Y-101222537D01*
X166514075Y-101253703D01*
X166668856Y-101317816D01*
X166833166Y-101350499D01*
X166833170Y-101350500D01*
X166833171Y-101350500D01*
X167000706Y-101350500D01*
X167000707Y-101350499D01*
X167165020Y-101317816D01*
X167319801Y-101253703D01*
X167459100Y-101160626D01*
X167577564Y-101042162D01*
X167670641Y-100902863D01*
X167734754Y-100748082D01*
X167767438Y-100583767D01*
X167767438Y-100416233D01*
X167767437Y-100416228D01*
X170236438Y-100416228D01*
X170236438Y-100583771D01*
X170269120Y-100748074D01*
X170269122Y-100748082D01*
X170333233Y-100902860D01*
X170426311Y-101042162D01*
X170544775Y-101160626D01*
X170637432Y-101222537D01*
X170684075Y-101253703D01*
X170838856Y-101317816D01*
X171003166Y-101350499D01*
X171003170Y-101350500D01*
X171003171Y-101350500D01*
X171170706Y-101350500D01*
X171170707Y-101350499D01*
X171335020Y-101317816D01*
X171489801Y-101253703D01*
X171629100Y-101160626D01*
X171747564Y-101042162D01*
X171828420Y-100921153D01*
X203496438Y-100921153D01*
X203496438Y-101078846D01*
X203527199Y-101233489D01*
X203527202Y-101233501D01*
X203587540Y-101379172D01*
X203587547Y-101379185D01*
X203675148Y-101510288D01*
X203675151Y-101510292D01*
X203786645Y-101621786D01*
X203786649Y-101621789D01*
X203917752Y-101709390D01*
X203917765Y-101709397D01*
X204055621Y-101766498D01*
X204063441Y-101769737D01*
X204218091Y-101800499D01*
X204218094Y-101800500D01*
X204218096Y-101800500D01*
X204375782Y-101800500D01*
X204375783Y-101800499D01*
X204530435Y-101769737D01*
X204676117Y-101709394D01*
X204807227Y-101621789D01*
X204918727Y-101510289D01*
X205006332Y-101379179D01*
X205066675Y-101233497D01*
X205097438Y-101078842D01*
X205097438Y-100921158D01*
X205097438Y-100921155D01*
X205097437Y-100921153D01*
X205066676Y-100766510D01*
X205066675Y-100766503D01*
X205006732Y-100621786D01*
X205006335Y-100620827D01*
X205006328Y-100620814D01*
X204918728Y-100489712D01*
X204918723Y-100489706D01*
X204845245Y-100416228D01*
X206456438Y-100416228D01*
X206456438Y-100583771D01*
X206489120Y-100748074D01*
X206489122Y-100748082D01*
X206553233Y-100902860D01*
X206646311Y-101042162D01*
X206764775Y-101160626D01*
X206857432Y-101222537D01*
X206904075Y-101253703D01*
X207058856Y-101317816D01*
X207223166Y-101350499D01*
X207223170Y-101350500D01*
X207223171Y-101350500D01*
X207390706Y-101350500D01*
X207390707Y-101350499D01*
X207555020Y-101317816D01*
X207709801Y-101253703D01*
X207849100Y-101160626D01*
X207967564Y-101042162D01*
X208060641Y-100902863D01*
X208124754Y-100748082D01*
X208157438Y-100583767D01*
X208157438Y-100416233D01*
X208157437Y-100416228D01*
X210626438Y-100416228D01*
X210626438Y-100583771D01*
X210659120Y-100748074D01*
X210659122Y-100748082D01*
X210723233Y-100902860D01*
X210816311Y-101042162D01*
X210934775Y-101160626D01*
X211027432Y-101222537D01*
X211074075Y-101253703D01*
X211228856Y-101317816D01*
X211393166Y-101350499D01*
X211393170Y-101350500D01*
X211393171Y-101350500D01*
X211560706Y-101350500D01*
X211560707Y-101350499D01*
X211725020Y-101317816D01*
X211879801Y-101253703D01*
X212019100Y-101160626D01*
X212137564Y-101042162D01*
X212230641Y-100902863D01*
X212294754Y-100748082D01*
X212327438Y-100583767D01*
X212327438Y-100416233D01*
X212294754Y-100251918D01*
X212230641Y-100097137D01*
X212199475Y-100050494D01*
X212137564Y-99957837D01*
X212019100Y-99839373D01*
X211879798Y-99746295D01*
X211725020Y-99682184D01*
X211725012Y-99682182D01*
X211560709Y-99649500D01*
X211560705Y-99649500D01*
X211393171Y-99649500D01*
X211393166Y-99649500D01*
X211228863Y-99682182D01*
X211228855Y-99682184D01*
X211074077Y-99746295D01*
X210934775Y-99839373D01*
X210816311Y-99957837D01*
X210723233Y-100097139D01*
X210659122Y-100251917D01*
X210659120Y-100251925D01*
X210626438Y-100416228D01*
X208157437Y-100416228D01*
X208124754Y-100251918D01*
X208060641Y-100097137D01*
X208029475Y-100050494D01*
X207967564Y-99957837D01*
X207849100Y-99839373D01*
X207709798Y-99746295D01*
X207555020Y-99682184D01*
X207555012Y-99682182D01*
X207390709Y-99649500D01*
X207390705Y-99649500D01*
X207223171Y-99649500D01*
X207223166Y-99649500D01*
X207058863Y-99682182D01*
X207058855Y-99682184D01*
X206904077Y-99746295D01*
X206764775Y-99839373D01*
X206646311Y-99957837D01*
X206553233Y-100097139D01*
X206489122Y-100251917D01*
X206489120Y-100251925D01*
X206456438Y-100416228D01*
X204845245Y-100416228D01*
X204807230Y-100378213D01*
X204807226Y-100378210D01*
X204676123Y-100290609D01*
X204676110Y-100290602D01*
X204530439Y-100230264D01*
X204530427Y-100230261D01*
X204375783Y-100199500D01*
X204375780Y-100199500D01*
X204218096Y-100199500D01*
X204218093Y-100199500D01*
X204063448Y-100230261D01*
X204063436Y-100230264D01*
X203917765Y-100290602D01*
X203917752Y-100290609D01*
X203786649Y-100378210D01*
X203786645Y-100378213D01*
X203675151Y-100489707D01*
X203675148Y-100489711D01*
X203587547Y-100620814D01*
X203587540Y-100620827D01*
X203527202Y-100766498D01*
X203527199Y-100766510D01*
X203496438Y-100921153D01*
X171828420Y-100921153D01*
X171840641Y-100902863D01*
X171904754Y-100748082D01*
X171937438Y-100583767D01*
X171937438Y-100416233D01*
X171904754Y-100251918D01*
X171840641Y-100097137D01*
X171809475Y-100050494D01*
X171747564Y-99957837D01*
X171629100Y-99839373D01*
X171489798Y-99746295D01*
X171335020Y-99682184D01*
X171335012Y-99682182D01*
X171170709Y-99649500D01*
X171170705Y-99649500D01*
X171003171Y-99649500D01*
X171003166Y-99649500D01*
X170838863Y-99682182D01*
X170838855Y-99682184D01*
X170684077Y-99746295D01*
X170544775Y-99839373D01*
X170426311Y-99957837D01*
X170333233Y-100097139D01*
X170269122Y-100251917D01*
X170269120Y-100251925D01*
X170236438Y-100416228D01*
X167767437Y-100416228D01*
X167734754Y-100251918D01*
X167670641Y-100097137D01*
X167639475Y-100050494D01*
X167577564Y-99957837D01*
X167459100Y-99839373D01*
X167319798Y-99746295D01*
X167165020Y-99682184D01*
X167165012Y-99682182D01*
X167000709Y-99649500D01*
X167000705Y-99649500D01*
X166833171Y-99649500D01*
X166833166Y-99649500D01*
X166668863Y-99682182D01*
X166668855Y-99682184D01*
X166514077Y-99746295D01*
X166374775Y-99839373D01*
X166256311Y-99957837D01*
X166163233Y-100097139D01*
X166099122Y-100251917D01*
X166099120Y-100251925D01*
X166066438Y-100416228D01*
X164697438Y-100416228D01*
X164697438Y-98416228D01*
X166066438Y-98416228D01*
X166066438Y-98583771D01*
X166099120Y-98748074D01*
X166099122Y-98748082D01*
X166163233Y-98902860D01*
X166256311Y-99042162D01*
X166374775Y-99160626D01*
X166467432Y-99222537D01*
X166514075Y-99253703D01*
X166668856Y-99317816D01*
X166833166Y-99350499D01*
X166833170Y-99350500D01*
X166833171Y-99350500D01*
X167000706Y-99350500D01*
X167000707Y-99350499D01*
X167165020Y-99317816D01*
X167319801Y-99253703D01*
X167459100Y-99160626D01*
X167577564Y-99042162D01*
X167670641Y-98902863D01*
X167734754Y-98748082D01*
X167767438Y-98583767D01*
X167767438Y-98416233D01*
X167767437Y-98416228D01*
X170236438Y-98416228D01*
X170236438Y-98583771D01*
X170269120Y-98748074D01*
X170269122Y-98748082D01*
X170333233Y-98902860D01*
X170426311Y-99042162D01*
X170544775Y-99160626D01*
X170637432Y-99222537D01*
X170684075Y-99253703D01*
X170838856Y-99317816D01*
X171003166Y-99350499D01*
X171003170Y-99350500D01*
X171003171Y-99350500D01*
X171170706Y-99350500D01*
X171170707Y-99350499D01*
X171335020Y-99317816D01*
X171489801Y-99253703D01*
X171629100Y-99160626D01*
X171747564Y-99042162D01*
X171840641Y-98902863D01*
X171904754Y-98748082D01*
X171937438Y-98583767D01*
X171937438Y-98416233D01*
X171904754Y-98251918D01*
X171840641Y-98097137D01*
X171747564Y-97957838D01*
X171747563Y-97957837D01*
X171747562Y-97957835D01*
X171710880Y-97921153D01*
X173296438Y-97921153D01*
X173296438Y-98078846D01*
X173327199Y-98233489D01*
X173327202Y-98233501D01*
X173387540Y-98379172D01*
X173387547Y-98379185D01*
X173422242Y-98431109D01*
X173443120Y-98497786D01*
X173424636Y-98565167D01*
X173422242Y-98568891D01*
X173387547Y-98620814D01*
X173387540Y-98620827D01*
X173327202Y-98766498D01*
X173327199Y-98766510D01*
X173296438Y-98921153D01*
X173296438Y-99078846D01*
X173327199Y-99233489D01*
X173327202Y-99233501D01*
X173387540Y-99379172D01*
X173387547Y-99379185D01*
X173422242Y-99431109D01*
X173443120Y-99497786D01*
X173424636Y-99565167D01*
X173422242Y-99568891D01*
X173387547Y-99620814D01*
X173387540Y-99620827D01*
X173327202Y-99766498D01*
X173327199Y-99766510D01*
X173296438Y-99921153D01*
X173296438Y-100078846D01*
X173327199Y-100233489D01*
X173327202Y-100233501D01*
X173387540Y-100379172D01*
X173387547Y-100379185D01*
X173475148Y-100510288D01*
X173475151Y-100510292D01*
X173586645Y-100621786D01*
X173586649Y-100621789D01*
X173717752Y-100709390D01*
X173717765Y-100709397D01*
X173855621Y-100766498D01*
X173863441Y-100769737D01*
X174018091Y-100800499D01*
X174018094Y-100800500D01*
X174018096Y-100800500D01*
X174175782Y-100800500D01*
X174175783Y-100800499D01*
X174186117Y-100798443D01*
X174211225Y-100793450D01*
X174211230Y-100793449D01*
X174296738Y-100776439D01*
X174330435Y-100769737D01*
X174476117Y-100709394D01*
X174607227Y-100621789D01*
X174718727Y-100510289D01*
X174806332Y-100379179D01*
X174866675Y-100233497D01*
X174897438Y-100078842D01*
X174897438Y-99921158D01*
X174897438Y-99921155D01*
X174897437Y-99921153D01*
X174866676Y-99766510D01*
X174866675Y-99766503D01*
X174866673Y-99766498D01*
X174806334Y-99620825D01*
X174806332Y-99620822D01*
X174806332Y-99620821D01*
X174771632Y-99568889D01*
X174750754Y-99502215D01*
X174769238Y-99434835D01*
X174771614Y-99431136D01*
X174806332Y-99379179D01*
X174866675Y-99233497D01*
X174897438Y-99078842D01*
X174897438Y-98921158D01*
X174897438Y-98921155D01*
X174897437Y-98921153D01*
X174866676Y-98766510D01*
X174866675Y-98766503D01*
X174859042Y-98748074D01*
X174806334Y-98620825D01*
X174806332Y-98620822D01*
X174806332Y-98620821D01*
X174771632Y-98568889D01*
X174750754Y-98502215D01*
X174769238Y-98434835D01*
X174771614Y-98431136D01*
X174806332Y-98379179D01*
X174866675Y-98233497D01*
X174897438Y-98078842D01*
X174897438Y-97921158D01*
X174897438Y-97921155D01*
X174897437Y-97921153D01*
X174866676Y-97766510D01*
X174866675Y-97766503D01*
X174866673Y-97766498D01*
X174806335Y-97620827D01*
X174806328Y-97620814D01*
X174718727Y-97489711D01*
X174718724Y-97489707D01*
X174607230Y-97378213D01*
X174607226Y-97378210D01*
X174593251Y-97368872D01*
X190796438Y-97368872D01*
X190796438Y-97631127D01*
X190814261Y-97766498D01*
X190830668Y-97891116D01*
X190898540Y-98144418D01*
X190898543Y-98144428D01*
X190998891Y-98386690D01*
X190998896Y-98386700D01*
X191130013Y-98613803D01*
X191289656Y-98821851D01*
X191289664Y-98821860D01*
X191475078Y-99007274D01*
X191475086Y-99007281D01*
X191683134Y-99166924D01*
X191910237Y-99298041D01*
X191910247Y-99298046D01*
X192152509Y-99398394D01*
X192152519Y-99398398D01*
X192405822Y-99466270D01*
X192665818Y-99500500D01*
X192665825Y-99500500D01*
X192928051Y-99500500D01*
X192928058Y-99500500D01*
X193188054Y-99466270D01*
X193441357Y-99398398D01*
X193683635Y-99298043D01*
X193910741Y-99166924D01*
X194118789Y-99007282D01*
X194118793Y-99007277D01*
X194118798Y-99007274D01*
X194204919Y-98921153D01*
X203496438Y-98921153D01*
X203496438Y-99078846D01*
X203527199Y-99233489D01*
X203527202Y-99233501D01*
X203587540Y-99379172D01*
X203587547Y-99379185D01*
X203675148Y-99510288D01*
X203675151Y-99510292D01*
X203786645Y-99621786D01*
X203786649Y-99621789D01*
X203917752Y-99709390D01*
X203917765Y-99709397D01*
X204006851Y-99746297D01*
X204063441Y-99769737D01*
X204218091Y-99800499D01*
X204218094Y-99800500D01*
X204218096Y-99800500D01*
X204375782Y-99800500D01*
X204375783Y-99800499D01*
X204530435Y-99769737D01*
X204676117Y-99709394D01*
X204807227Y-99621789D01*
X204918727Y-99510289D01*
X205006332Y-99379179D01*
X205066675Y-99233497D01*
X205097438Y-99078842D01*
X205097438Y-98921158D01*
X205097438Y-98921155D01*
X205097437Y-98921153D01*
X205066676Y-98766510D01*
X205066675Y-98766503D01*
X205059042Y-98748074D01*
X205006335Y-98620827D01*
X205006328Y-98620814D01*
X204918728Y-98489712D01*
X204918723Y-98489706D01*
X204845245Y-98416228D01*
X206456438Y-98416228D01*
X206456438Y-98583771D01*
X206489120Y-98748074D01*
X206489122Y-98748082D01*
X206553233Y-98902860D01*
X206646311Y-99042162D01*
X206764775Y-99160626D01*
X206857432Y-99222537D01*
X206904075Y-99253703D01*
X207058856Y-99317816D01*
X207223166Y-99350499D01*
X207223170Y-99350500D01*
X207223171Y-99350500D01*
X207390706Y-99350500D01*
X207390707Y-99350499D01*
X207555020Y-99317816D01*
X207709801Y-99253703D01*
X207849100Y-99160626D01*
X207967564Y-99042162D01*
X208060641Y-98902863D01*
X208124754Y-98748082D01*
X208157438Y-98583767D01*
X208157438Y-98416233D01*
X208157437Y-98416228D01*
X210626438Y-98416228D01*
X210626438Y-98583771D01*
X210659120Y-98748074D01*
X210659122Y-98748082D01*
X210723233Y-98902860D01*
X210816311Y-99042162D01*
X210934775Y-99160626D01*
X211027432Y-99222537D01*
X211074075Y-99253703D01*
X211228856Y-99317816D01*
X211393166Y-99350499D01*
X211393170Y-99350500D01*
X211393171Y-99350500D01*
X211560706Y-99350500D01*
X211560707Y-99350499D01*
X211725020Y-99317816D01*
X211879801Y-99253703D01*
X212019100Y-99160626D01*
X212137564Y-99042162D01*
X212230641Y-98902863D01*
X212294754Y-98748082D01*
X212327438Y-98583767D01*
X212327438Y-98416233D01*
X212294754Y-98251918D01*
X212230641Y-98097137D01*
X212199475Y-98050494D01*
X212137564Y-97957837D01*
X212019100Y-97839373D01*
X211879798Y-97746295D01*
X211725020Y-97682184D01*
X211725012Y-97682182D01*
X211560709Y-97649500D01*
X211560705Y-97649500D01*
X211393171Y-97649500D01*
X211393166Y-97649500D01*
X211228863Y-97682182D01*
X211228855Y-97682184D01*
X211074077Y-97746295D01*
X210934775Y-97839373D01*
X210816311Y-97957837D01*
X210723233Y-98097139D01*
X210659122Y-98251917D01*
X210659120Y-98251925D01*
X210626438Y-98416228D01*
X208157437Y-98416228D01*
X208124754Y-98251918D01*
X208060641Y-98097137D01*
X208029475Y-98050494D01*
X207967564Y-97957837D01*
X207849100Y-97839373D01*
X207709798Y-97746295D01*
X207555020Y-97682184D01*
X207555012Y-97682182D01*
X207390709Y-97649500D01*
X207390705Y-97649500D01*
X207223171Y-97649500D01*
X207223166Y-97649500D01*
X207058863Y-97682182D01*
X207058855Y-97682184D01*
X206904077Y-97746295D01*
X206764775Y-97839373D01*
X206646311Y-97957837D01*
X206553233Y-98097139D01*
X206489122Y-98251917D01*
X206489120Y-98251925D01*
X206456438Y-98416228D01*
X204845245Y-98416228D01*
X204807230Y-98378213D01*
X204807226Y-98378210D01*
X204676123Y-98290609D01*
X204676110Y-98290602D01*
X204530439Y-98230264D01*
X204530427Y-98230261D01*
X204375783Y-98199500D01*
X204375780Y-98199500D01*
X204218096Y-98199500D01*
X204218093Y-98199500D01*
X204063448Y-98230261D01*
X204063436Y-98230264D01*
X203917765Y-98290602D01*
X203917752Y-98290609D01*
X203786649Y-98378210D01*
X203786645Y-98378213D01*
X203675151Y-98489707D01*
X203675148Y-98489711D01*
X203587547Y-98620814D01*
X203587540Y-98620827D01*
X203527202Y-98766498D01*
X203527199Y-98766510D01*
X203496438Y-98921153D01*
X194204919Y-98921153D01*
X194304212Y-98821860D01*
X194304215Y-98821855D01*
X194304220Y-98821851D01*
X194463862Y-98613803D01*
X194594981Y-98386697D01*
X194598497Y-98378210D01*
X194658437Y-98233501D01*
X194695336Y-98144419D01*
X194763208Y-97891116D01*
X194797438Y-97631120D01*
X194797438Y-97368880D01*
X194763208Y-97108884D01*
X194695336Y-96855581D01*
X194695332Y-96855571D01*
X194594984Y-96613309D01*
X194594979Y-96613299D01*
X194513482Y-96472141D01*
X194481201Y-96416228D01*
X206456438Y-96416228D01*
X206456438Y-96583771D01*
X206489120Y-96748074D01*
X206489122Y-96748082D01*
X206553233Y-96902860D01*
X206646311Y-97042162D01*
X206764775Y-97160626D01*
X206857432Y-97222537D01*
X206904075Y-97253703D01*
X207058856Y-97317816D01*
X207223166Y-97350499D01*
X207223170Y-97350500D01*
X207223171Y-97350500D01*
X207390706Y-97350500D01*
X207390707Y-97350499D01*
X207555020Y-97317816D01*
X207709801Y-97253703D01*
X207849100Y-97160626D01*
X207967564Y-97042162D01*
X208060641Y-96902863D01*
X208124754Y-96748082D01*
X208157438Y-96583767D01*
X208157438Y-96416233D01*
X208157437Y-96416228D01*
X210626438Y-96416228D01*
X210626438Y-96583771D01*
X210659120Y-96748074D01*
X210659122Y-96748082D01*
X210723233Y-96902860D01*
X210816311Y-97042162D01*
X210934775Y-97160626D01*
X211027432Y-97222537D01*
X211074075Y-97253703D01*
X211228856Y-97317816D01*
X211393166Y-97350499D01*
X211393170Y-97350500D01*
X211393171Y-97350500D01*
X211560706Y-97350500D01*
X211560707Y-97350499D01*
X211725020Y-97317816D01*
X211879801Y-97253703D01*
X212019100Y-97160626D01*
X212137564Y-97042162D01*
X212230641Y-96902863D01*
X212294754Y-96748082D01*
X212327438Y-96583767D01*
X212327438Y-96416233D01*
X212294754Y-96251918D01*
X212230641Y-96097137D01*
X212160876Y-95992726D01*
X212137564Y-95957837D01*
X212019100Y-95839373D01*
X211879798Y-95746295D01*
X211725020Y-95682184D01*
X211725012Y-95682182D01*
X211560709Y-95649500D01*
X211560705Y-95649500D01*
X211393171Y-95649500D01*
X211393166Y-95649500D01*
X211228863Y-95682182D01*
X211228855Y-95682184D01*
X211074077Y-95746295D01*
X210934775Y-95839373D01*
X210816311Y-95957837D01*
X210723233Y-96097139D01*
X210659122Y-96251917D01*
X210659120Y-96251925D01*
X210626438Y-96416228D01*
X208157437Y-96416228D01*
X208124754Y-96251918D01*
X208060641Y-96097137D01*
X207990876Y-95992726D01*
X207967564Y-95957837D01*
X207849100Y-95839373D01*
X207709798Y-95746295D01*
X207555020Y-95682184D01*
X207555012Y-95682182D01*
X207390709Y-95649500D01*
X207390705Y-95649500D01*
X207223171Y-95649500D01*
X207223166Y-95649500D01*
X207058863Y-95682182D01*
X207058855Y-95682184D01*
X206904077Y-95746295D01*
X206764775Y-95839373D01*
X206646311Y-95957837D01*
X206553233Y-96097139D01*
X206489122Y-96251917D01*
X206489120Y-96251925D01*
X206456438Y-96416228D01*
X194481201Y-96416228D01*
X194463862Y-96386196D01*
X194304219Y-96178148D01*
X194304212Y-96178140D01*
X194118798Y-95992726D01*
X194118789Y-95992718D01*
X193910741Y-95833075D01*
X193683638Y-95701958D01*
X193683628Y-95701953D01*
X193441366Y-95601605D01*
X193441359Y-95601603D01*
X193441357Y-95601602D01*
X193188054Y-95533730D01*
X193130277Y-95526123D01*
X192928065Y-95499500D01*
X192928058Y-95499500D01*
X192665818Y-95499500D01*
X192665810Y-95499500D01*
X192434710Y-95529926D01*
X192405822Y-95533730D01*
X192152519Y-95601602D01*
X192152509Y-95601605D01*
X191910247Y-95701953D01*
X191910237Y-95701958D01*
X191683134Y-95833075D01*
X191475086Y-95992718D01*
X191289656Y-96178148D01*
X191130013Y-96386196D01*
X190998896Y-96613299D01*
X190998891Y-96613309D01*
X190898543Y-96855571D01*
X190898540Y-96855581D01*
X190830668Y-97108885D01*
X190796438Y-97368872D01*
X174593251Y-97368872D01*
X174476123Y-97290609D01*
X174476110Y-97290602D01*
X174330439Y-97230264D01*
X174330427Y-97230261D01*
X174175783Y-97199500D01*
X174175780Y-97199500D01*
X174018096Y-97199500D01*
X174018093Y-97199500D01*
X173863448Y-97230261D01*
X173863436Y-97230264D01*
X173717765Y-97290602D01*
X173717752Y-97290609D01*
X173586649Y-97378210D01*
X173586645Y-97378213D01*
X173475151Y-97489707D01*
X173475148Y-97489711D01*
X173387547Y-97620814D01*
X173387540Y-97620827D01*
X173327202Y-97766498D01*
X173327199Y-97766510D01*
X173296438Y-97921153D01*
X171710880Y-97921153D01*
X171629100Y-97839373D01*
X171489798Y-97746295D01*
X171335020Y-97682184D01*
X171335012Y-97682182D01*
X171170709Y-97649500D01*
X171170705Y-97649500D01*
X171003171Y-97649500D01*
X171003166Y-97649500D01*
X170838863Y-97682182D01*
X170838855Y-97682184D01*
X170684077Y-97746295D01*
X170544775Y-97839373D01*
X170426311Y-97957837D01*
X170333233Y-98097139D01*
X170269122Y-98251917D01*
X170269120Y-98251925D01*
X170236438Y-98416228D01*
X167767437Y-98416228D01*
X167734754Y-98251918D01*
X167670641Y-98097137D01*
X167639475Y-98050494D01*
X167577564Y-97957837D01*
X167459100Y-97839373D01*
X167319798Y-97746295D01*
X167165020Y-97682184D01*
X167165012Y-97682182D01*
X167000709Y-97649500D01*
X167000705Y-97649500D01*
X166833171Y-97649500D01*
X166833166Y-97649500D01*
X166668863Y-97682182D01*
X166668855Y-97682184D01*
X166514077Y-97746295D01*
X166374775Y-97839373D01*
X166256311Y-97957837D01*
X166163233Y-98097139D01*
X166099122Y-98251917D01*
X166099120Y-98251925D01*
X166066438Y-98416228D01*
X164697438Y-98416228D01*
X164697438Y-96416228D01*
X166066438Y-96416228D01*
X166066438Y-96583771D01*
X166099120Y-96748074D01*
X166099122Y-96748082D01*
X166163233Y-96902860D01*
X166256311Y-97042162D01*
X166374775Y-97160626D01*
X166467432Y-97222537D01*
X166514075Y-97253703D01*
X166668856Y-97317816D01*
X166833166Y-97350499D01*
X166833170Y-97350500D01*
X166833171Y-97350500D01*
X167000706Y-97350500D01*
X167000707Y-97350499D01*
X167165020Y-97317816D01*
X167319801Y-97253703D01*
X167459100Y-97160626D01*
X167577564Y-97042162D01*
X167670641Y-96902863D01*
X167734754Y-96748082D01*
X167767438Y-96583767D01*
X167767438Y-96416233D01*
X167767437Y-96416228D01*
X170236438Y-96416228D01*
X170236438Y-96583771D01*
X170269120Y-96748074D01*
X170269122Y-96748082D01*
X170333233Y-96902860D01*
X170426311Y-97042162D01*
X170544775Y-97160626D01*
X170637432Y-97222537D01*
X170684075Y-97253703D01*
X170838856Y-97317816D01*
X171003166Y-97350499D01*
X171003170Y-97350500D01*
X171003171Y-97350500D01*
X171170706Y-97350500D01*
X171170707Y-97350499D01*
X171335020Y-97317816D01*
X171489801Y-97253703D01*
X171629100Y-97160626D01*
X171747564Y-97042162D01*
X171840641Y-96902863D01*
X171904754Y-96748082D01*
X171937438Y-96583767D01*
X171937438Y-96416233D01*
X171904754Y-96251918D01*
X171840641Y-96097137D01*
X171770876Y-95992726D01*
X171747564Y-95957837D01*
X171629100Y-95839373D01*
X171489798Y-95746295D01*
X171335020Y-95682184D01*
X171335012Y-95682182D01*
X171170709Y-95649500D01*
X171170705Y-95649500D01*
X171003171Y-95649500D01*
X171003166Y-95649500D01*
X170838863Y-95682182D01*
X170838855Y-95682184D01*
X170684077Y-95746295D01*
X170544775Y-95839373D01*
X170426311Y-95957837D01*
X170333233Y-96097139D01*
X170269122Y-96251917D01*
X170269120Y-96251925D01*
X170236438Y-96416228D01*
X167767437Y-96416228D01*
X167734754Y-96251918D01*
X167670641Y-96097137D01*
X167600876Y-95992726D01*
X167577564Y-95957837D01*
X167459100Y-95839373D01*
X167319798Y-95746295D01*
X167165020Y-95682184D01*
X167165012Y-95682182D01*
X167000709Y-95649500D01*
X167000705Y-95649500D01*
X166833171Y-95649500D01*
X166833166Y-95649500D01*
X166668863Y-95682182D01*
X166668855Y-95682184D01*
X166514077Y-95746295D01*
X166374775Y-95839373D01*
X166256311Y-95957837D01*
X166163233Y-96097139D01*
X166099122Y-96251917D01*
X166099120Y-96251925D01*
X166066438Y-96416228D01*
X164697438Y-96416228D01*
X164697438Y-94416228D01*
X166066438Y-94416228D01*
X166066438Y-94583771D01*
X166099120Y-94748074D01*
X166099122Y-94748082D01*
X166163233Y-94902860D01*
X166256311Y-95042162D01*
X166374775Y-95160626D01*
X166467432Y-95222537D01*
X166514075Y-95253703D01*
X166668856Y-95317816D01*
X166833166Y-95350499D01*
X166833170Y-95350500D01*
X166833171Y-95350500D01*
X167000706Y-95350500D01*
X167000707Y-95350499D01*
X167165020Y-95317816D01*
X167319801Y-95253703D01*
X167459100Y-95160626D01*
X167577564Y-95042162D01*
X167670641Y-94902863D01*
X167734754Y-94748082D01*
X167767438Y-94583767D01*
X167767438Y-94416233D01*
X167767437Y-94416228D01*
X170236438Y-94416228D01*
X170236438Y-94583771D01*
X170269120Y-94748074D01*
X170269122Y-94748082D01*
X170333233Y-94902860D01*
X170426311Y-95042162D01*
X170544775Y-95160626D01*
X170637432Y-95222537D01*
X170684075Y-95253703D01*
X170838856Y-95317816D01*
X171003166Y-95350499D01*
X171003170Y-95350500D01*
X171003171Y-95350500D01*
X171170706Y-95350500D01*
X171170707Y-95350499D01*
X171335020Y-95317816D01*
X171489801Y-95253703D01*
X171629100Y-95160626D01*
X171747564Y-95042162D01*
X171840641Y-94902863D01*
X171904754Y-94748082D01*
X171937438Y-94583767D01*
X171937438Y-94416233D01*
X171904754Y-94251918D01*
X171840641Y-94097137D01*
X171809475Y-94050494D01*
X171747564Y-93957837D01*
X171629100Y-93839373D01*
X171489798Y-93746295D01*
X171335020Y-93682184D01*
X171335012Y-93682182D01*
X171170709Y-93649500D01*
X171170705Y-93649500D01*
X171003171Y-93649500D01*
X171003166Y-93649500D01*
X170838863Y-93682182D01*
X170838855Y-93682184D01*
X170684077Y-93746295D01*
X170544775Y-93839373D01*
X170426311Y-93957837D01*
X170333233Y-94097139D01*
X170269122Y-94251917D01*
X170269120Y-94251925D01*
X170236438Y-94416228D01*
X167767437Y-94416228D01*
X167734754Y-94251918D01*
X167670641Y-94097137D01*
X167639475Y-94050494D01*
X167577564Y-93957837D01*
X167459100Y-93839373D01*
X167319798Y-93746295D01*
X167165020Y-93682184D01*
X167165012Y-93682182D01*
X167000709Y-93649500D01*
X167000705Y-93649500D01*
X166833171Y-93649500D01*
X166833166Y-93649500D01*
X166668863Y-93682182D01*
X166668855Y-93682184D01*
X166514077Y-93746295D01*
X166374775Y-93839373D01*
X166256311Y-93957837D01*
X166163233Y-94097139D01*
X166099122Y-94251917D01*
X166099120Y-94251925D01*
X166066438Y-94416228D01*
X164697438Y-94416228D01*
X164697438Y-92416228D01*
X166066438Y-92416228D01*
X166066438Y-92583771D01*
X166099120Y-92748074D01*
X166099122Y-92748082D01*
X166163233Y-92902860D01*
X166256311Y-93042162D01*
X166374775Y-93160626D01*
X166467432Y-93222537D01*
X166514075Y-93253703D01*
X166668856Y-93317816D01*
X166833166Y-93350499D01*
X166833170Y-93350500D01*
X166833171Y-93350500D01*
X167000706Y-93350500D01*
X167000707Y-93350499D01*
X167165020Y-93317816D01*
X167319801Y-93253703D01*
X167459100Y-93160626D01*
X167577564Y-93042162D01*
X167670641Y-92902863D01*
X167734754Y-92748082D01*
X167767438Y-92583767D01*
X167767438Y-92416233D01*
X167767437Y-92416228D01*
X170236438Y-92416228D01*
X170236438Y-92583771D01*
X170269120Y-92748074D01*
X170269122Y-92748082D01*
X170333233Y-92902860D01*
X170426311Y-93042162D01*
X170544775Y-93160626D01*
X170637432Y-93222537D01*
X170684075Y-93253703D01*
X170838856Y-93317816D01*
X171003166Y-93350499D01*
X171003170Y-93350500D01*
X171003171Y-93350500D01*
X171170706Y-93350500D01*
X171170707Y-93350499D01*
X171335020Y-93317816D01*
X171489801Y-93253703D01*
X171629100Y-93160626D01*
X171747564Y-93042162D01*
X171828420Y-92921153D01*
X173296438Y-92921153D01*
X173296438Y-93078846D01*
X173327199Y-93233489D01*
X173327202Y-93233501D01*
X173387540Y-93379172D01*
X173387547Y-93379185D01*
X173422242Y-93431109D01*
X173443120Y-93497786D01*
X173424636Y-93565167D01*
X173422242Y-93568891D01*
X173387547Y-93620814D01*
X173387540Y-93620827D01*
X173327202Y-93766498D01*
X173327199Y-93766510D01*
X173296438Y-93921153D01*
X173296438Y-94078846D01*
X173327199Y-94233489D01*
X173327202Y-94233501D01*
X173387540Y-94379172D01*
X173387547Y-94379185D01*
X173422242Y-94431109D01*
X173443120Y-94497786D01*
X173424636Y-94565167D01*
X173422242Y-94568891D01*
X173387547Y-94620814D01*
X173387540Y-94620827D01*
X173327202Y-94766498D01*
X173327199Y-94766510D01*
X173296438Y-94921153D01*
X173296438Y-95078846D01*
X173327199Y-95233489D01*
X173327202Y-95233501D01*
X173387540Y-95379172D01*
X173387547Y-95379185D01*
X173475148Y-95510288D01*
X173475151Y-95510292D01*
X173586645Y-95621786D01*
X173586649Y-95621789D01*
X173717752Y-95709390D01*
X173717765Y-95709397D01*
X173806851Y-95746297D01*
X173863441Y-95769737D01*
X174018091Y-95800499D01*
X174018094Y-95800500D01*
X174018096Y-95800500D01*
X174175782Y-95800500D01*
X174175783Y-95800499D01*
X174330435Y-95769737D01*
X174476117Y-95709394D01*
X174607227Y-95621789D01*
X174718727Y-95510289D01*
X174806332Y-95379179D01*
X174866675Y-95233497D01*
X174897438Y-95078842D01*
X174897438Y-94921158D01*
X174897438Y-94921155D01*
X174897437Y-94921153D01*
X174866676Y-94766510D01*
X174866675Y-94766503D01*
X174859042Y-94748074D01*
X174806334Y-94620825D01*
X174806332Y-94620822D01*
X174806332Y-94620821D01*
X174771632Y-94568889D01*
X174766678Y-94553070D01*
X174757185Y-94539475D01*
X174756453Y-94520415D01*
X174750754Y-94502215D01*
X174755117Y-94485642D01*
X174754504Y-94469657D01*
X174766343Y-94443013D01*
X174767923Y-94437013D01*
X174769687Y-94434020D01*
X174781576Y-94416228D01*
X206456438Y-94416228D01*
X206456438Y-94583771D01*
X206489120Y-94748074D01*
X206489122Y-94748082D01*
X206553233Y-94902860D01*
X206646311Y-95042162D01*
X206764775Y-95160626D01*
X206857432Y-95222537D01*
X206904075Y-95253703D01*
X207058856Y-95317816D01*
X207223166Y-95350499D01*
X207223170Y-95350500D01*
X207223171Y-95350500D01*
X207390706Y-95350500D01*
X207390707Y-95350499D01*
X207555020Y-95317816D01*
X207709801Y-95253703D01*
X207849100Y-95160626D01*
X207967564Y-95042162D01*
X208060641Y-94902863D01*
X208124754Y-94748082D01*
X208157438Y-94583767D01*
X208157438Y-94416233D01*
X208157437Y-94416228D01*
X210626438Y-94416228D01*
X210626438Y-94583771D01*
X210659120Y-94748074D01*
X210659122Y-94748082D01*
X210723233Y-94902860D01*
X210816311Y-95042162D01*
X210934775Y-95160626D01*
X211027432Y-95222537D01*
X211074075Y-95253703D01*
X211228856Y-95317816D01*
X211393166Y-95350499D01*
X211393170Y-95350500D01*
X211393171Y-95350500D01*
X211560706Y-95350500D01*
X211560707Y-95350499D01*
X211725020Y-95317816D01*
X211879801Y-95253703D01*
X212019100Y-95160626D01*
X212137564Y-95042162D01*
X212230641Y-94902863D01*
X212294754Y-94748082D01*
X212327438Y-94583767D01*
X212327438Y-94416233D01*
X212294754Y-94251918D01*
X212230641Y-94097137D01*
X212199475Y-94050494D01*
X212137564Y-93957837D01*
X212019100Y-93839373D01*
X211879798Y-93746295D01*
X211725020Y-93682184D01*
X211725012Y-93682182D01*
X211560709Y-93649500D01*
X211560705Y-93649500D01*
X211393171Y-93649500D01*
X211393166Y-93649500D01*
X211228863Y-93682182D01*
X211228855Y-93682184D01*
X211074077Y-93746295D01*
X210934775Y-93839373D01*
X210816311Y-93957837D01*
X210723233Y-94097139D01*
X210659122Y-94251917D01*
X210659120Y-94251925D01*
X210626438Y-94416228D01*
X208157437Y-94416228D01*
X208124754Y-94251918D01*
X208060641Y-94097137D01*
X208029475Y-94050494D01*
X207967564Y-93957837D01*
X207849100Y-93839373D01*
X207709798Y-93746295D01*
X207555020Y-93682184D01*
X207555012Y-93682182D01*
X207390709Y-93649500D01*
X207390705Y-93649500D01*
X207223171Y-93649500D01*
X207223166Y-93649500D01*
X207058863Y-93682182D01*
X207058855Y-93682184D01*
X206904077Y-93746295D01*
X206764775Y-93839373D01*
X206646311Y-93957837D01*
X206553233Y-94097139D01*
X206489122Y-94251917D01*
X206489120Y-94251925D01*
X206456438Y-94416228D01*
X174781576Y-94416228D01*
X174806332Y-94379179D01*
X174866675Y-94233497D01*
X174897438Y-94078842D01*
X174897438Y-93921158D01*
X174897438Y-93921155D01*
X174897437Y-93921153D01*
X174866676Y-93766510D01*
X174866675Y-93766503D01*
X174866673Y-93766498D01*
X174806334Y-93620825D01*
X174806332Y-93620822D01*
X174806332Y-93620821D01*
X174771632Y-93568889D01*
X174750754Y-93502215D01*
X174769238Y-93434835D01*
X174771614Y-93431136D01*
X174806332Y-93379179D01*
X174866675Y-93233497D01*
X174897438Y-93078842D01*
X174897438Y-92921158D01*
X174897438Y-92921155D01*
X174897437Y-92921153D01*
X174866676Y-92766510D01*
X174866675Y-92766503D01*
X174859042Y-92748074D01*
X174806335Y-92620827D01*
X174806328Y-92620814D01*
X174718727Y-92489711D01*
X174718724Y-92489707D01*
X174607230Y-92378213D01*
X174607226Y-92378210D01*
X174476123Y-92290609D01*
X174476110Y-92290602D01*
X174330439Y-92230264D01*
X174330427Y-92230261D01*
X174175783Y-92199500D01*
X174175780Y-92199500D01*
X174018096Y-92199500D01*
X174018093Y-92199500D01*
X173863448Y-92230261D01*
X173863436Y-92230264D01*
X173717765Y-92290602D01*
X173717752Y-92290609D01*
X173586649Y-92378210D01*
X173586645Y-92378213D01*
X173475151Y-92489707D01*
X173475148Y-92489711D01*
X173387547Y-92620814D01*
X173387540Y-92620827D01*
X173327202Y-92766498D01*
X173327199Y-92766510D01*
X173296438Y-92921153D01*
X171828420Y-92921153D01*
X171840641Y-92902863D01*
X171904754Y-92748082D01*
X171937438Y-92583767D01*
X171937438Y-92416233D01*
X171904754Y-92251918D01*
X171840641Y-92097137D01*
X171809475Y-92050494D01*
X171747564Y-91957837D01*
X171629100Y-91839373D01*
X171489798Y-91746295D01*
X171335020Y-91682184D01*
X171335012Y-91682182D01*
X171170709Y-91649500D01*
X171170705Y-91649500D01*
X171003171Y-91649500D01*
X171003166Y-91649500D01*
X170838863Y-91682182D01*
X170838855Y-91682184D01*
X170684077Y-91746295D01*
X170544775Y-91839373D01*
X170426311Y-91957837D01*
X170333233Y-92097139D01*
X170269122Y-92251917D01*
X170269120Y-92251925D01*
X170236438Y-92416228D01*
X167767437Y-92416228D01*
X167734754Y-92251918D01*
X167670641Y-92097137D01*
X167639475Y-92050494D01*
X167577564Y-91957837D01*
X167459100Y-91839373D01*
X167319798Y-91746295D01*
X167165020Y-91682184D01*
X167165012Y-91682182D01*
X167000709Y-91649500D01*
X167000705Y-91649500D01*
X166833171Y-91649500D01*
X166833166Y-91649500D01*
X166668863Y-91682182D01*
X166668855Y-91682184D01*
X166514077Y-91746295D01*
X166374775Y-91839373D01*
X166256311Y-91957837D01*
X166163233Y-92097139D01*
X166099122Y-92251917D01*
X166099120Y-92251925D01*
X166066438Y-92416228D01*
X164697438Y-92416228D01*
X164697438Y-90416228D01*
X166066438Y-90416228D01*
X166066438Y-90583771D01*
X166099120Y-90748074D01*
X166099122Y-90748082D01*
X166163233Y-90902860D01*
X166256311Y-91042162D01*
X166374775Y-91160626D01*
X166467432Y-91222537D01*
X166514075Y-91253703D01*
X166668856Y-91317816D01*
X166833166Y-91350499D01*
X166833170Y-91350500D01*
X166833171Y-91350500D01*
X167000706Y-91350500D01*
X167000707Y-91350499D01*
X167165020Y-91317816D01*
X167319801Y-91253703D01*
X167459100Y-91160626D01*
X167577564Y-91042162D01*
X167670641Y-90902863D01*
X167734754Y-90748082D01*
X167767438Y-90583767D01*
X167767438Y-90416233D01*
X167767437Y-90416228D01*
X170236438Y-90416228D01*
X170236438Y-90583771D01*
X170269120Y-90748074D01*
X170269122Y-90748082D01*
X170333233Y-90902860D01*
X170426311Y-91042162D01*
X170544775Y-91160626D01*
X170637432Y-91222537D01*
X170684075Y-91253703D01*
X170838856Y-91317816D01*
X171003166Y-91350499D01*
X171003170Y-91350500D01*
X171003171Y-91350500D01*
X171170706Y-91350500D01*
X171170707Y-91350499D01*
X171335020Y-91317816D01*
X171489801Y-91253703D01*
X171629100Y-91160626D01*
X171747564Y-91042162D01*
X171828420Y-90921153D01*
X173296438Y-90921153D01*
X173296438Y-91078846D01*
X173327199Y-91233489D01*
X173327202Y-91233501D01*
X173387540Y-91379172D01*
X173387547Y-91379185D01*
X173475148Y-91510288D01*
X173475151Y-91510292D01*
X173586645Y-91621786D01*
X173586649Y-91621789D01*
X173717752Y-91709390D01*
X173717765Y-91709397D01*
X173806851Y-91746297D01*
X173863441Y-91769737D01*
X174018091Y-91800499D01*
X174018094Y-91800500D01*
X174018096Y-91800500D01*
X174175782Y-91800500D01*
X174175783Y-91800499D01*
X174330435Y-91769737D01*
X174476117Y-91709394D01*
X174607227Y-91621789D01*
X174718727Y-91510289D01*
X174806332Y-91379179D01*
X174810601Y-91368872D01*
X190796438Y-91368872D01*
X190796438Y-91631127D01*
X190814688Y-91769738D01*
X190830668Y-91891116D01*
X190898540Y-92144418D01*
X190898543Y-92144428D01*
X190998891Y-92386690D01*
X190998896Y-92386700D01*
X191130013Y-92613803D01*
X191289656Y-92821851D01*
X191289664Y-92821860D01*
X191475078Y-93007274D01*
X191475086Y-93007281D01*
X191683134Y-93166924D01*
X191910237Y-93298041D01*
X191910247Y-93298046D01*
X192152509Y-93398394D01*
X192152519Y-93398398D01*
X192405822Y-93466270D01*
X192665818Y-93500500D01*
X192665825Y-93500500D01*
X192928051Y-93500500D01*
X192928058Y-93500500D01*
X193188054Y-93466270D01*
X193441357Y-93398398D01*
X193683635Y-93298043D01*
X193910741Y-93166924D01*
X194118789Y-93007282D01*
X194118793Y-93007277D01*
X194118798Y-93007274D01*
X194204919Y-92921153D01*
X203496438Y-92921153D01*
X203496438Y-93078846D01*
X203527199Y-93233489D01*
X203527202Y-93233501D01*
X203587540Y-93379172D01*
X203587547Y-93379185D01*
X203675148Y-93510288D01*
X203675151Y-93510292D01*
X203786645Y-93621786D01*
X203786649Y-93621789D01*
X203917752Y-93709390D01*
X203917765Y-93709397D01*
X204006851Y-93746297D01*
X204063441Y-93769737D01*
X204218091Y-93800499D01*
X204218094Y-93800500D01*
X204218096Y-93800500D01*
X204375782Y-93800500D01*
X204375783Y-93800499D01*
X204530435Y-93769737D01*
X204676117Y-93709394D01*
X204807227Y-93621789D01*
X204918727Y-93510289D01*
X205006332Y-93379179D01*
X205066675Y-93233497D01*
X205097438Y-93078842D01*
X205097438Y-92921158D01*
X205097438Y-92921155D01*
X205097437Y-92921153D01*
X205066676Y-92766510D01*
X205066675Y-92766503D01*
X205059042Y-92748074D01*
X205006335Y-92620827D01*
X205006328Y-92620814D01*
X204918728Y-92489712D01*
X204918723Y-92489706D01*
X204845245Y-92416228D01*
X206456438Y-92416228D01*
X206456438Y-92583771D01*
X206489120Y-92748074D01*
X206489122Y-92748082D01*
X206553233Y-92902860D01*
X206646311Y-93042162D01*
X206764775Y-93160626D01*
X206857432Y-93222537D01*
X206904075Y-93253703D01*
X207058856Y-93317816D01*
X207223166Y-93350499D01*
X207223170Y-93350500D01*
X207223171Y-93350500D01*
X207390706Y-93350500D01*
X207390707Y-93350499D01*
X207555020Y-93317816D01*
X207709801Y-93253703D01*
X207849100Y-93160626D01*
X207967564Y-93042162D01*
X208060641Y-92902863D01*
X208124754Y-92748082D01*
X208157438Y-92583767D01*
X208157438Y-92416233D01*
X208157437Y-92416228D01*
X210626438Y-92416228D01*
X210626438Y-92583771D01*
X210659120Y-92748074D01*
X210659122Y-92748082D01*
X210723233Y-92902860D01*
X210816311Y-93042162D01*
X210934775Y-93160626D01*
X211027432Y-93222537D01*
X211074075Y-93253703D01*
X211228856Y-93317816D01*
X211393166Y-93350499D01*
X211393170Y-93350500D01*
X211393171Y-93350500D01*
X211560706Y-93350500D01*
X211560707Y-93350499D01*
X211725020Y-93317816D01*
X211879801Y-93253703D01*
X212019100Y-93160626D01*
X212137564Y-93042162D01*
X212230641Y-92902863D01*
X212294754Y-92748082D01*
X212327438Y-92583767D01*
X212327438Y-92416233D01*
X212294754Y-92251918D01*
X212230641Y-92097137D01*
X212199475Y-92050494D01*
X212137564Y-91957837D01*
X212019100Y-91839373D01*
X211879798Y-91746295D01*
X211725020Y-91682184D01*
X211725012Y-91682182D01*
X211560709Y-91649500D01*
X211560705Y-91649500D01*
X211393171Y-91649500D01*
X211393166Y-91649500D01*
X211228863Y-91682182D01*
X211228855Y-91682184D01*
X211074077Y-91746295D01*
X210934775Y-91839373D01*
X210816311Y-91957837D01*
X210723233Y-92097139D01*
X210659122Y-92251917D01*
X210659120Y-92251925D01*
X210626438Y-92416228D01*
X208157437Y-92416228D01*
X208124754Y-92251918D01*
X208060641Y-92097137D01*
X208029475Y-92050494D01*
X207967564Y-91957837D01*
X207849100Y-91839373D01*
X207709798Y-91746295D01*
X207555020Y-91682184D01*
X207555012Y-91682182D01*
X207390709Y-91649500D01*
X207390705Y-91649500D01*
X207223171Y-91649500D01*
X207223166Y-91649500D01*
X207058863Y-91682182D01*
X207058855Y-91682184D01*
X206904077Y-91746295D01*
X206764775Y-91839373D01*
X206646311Y-91957837D01*
X206553233Y-92097139D01*
X206489122Y-92251917D01*
X206489120Y-92251925D01*
X206456438Y-92416228D01*
X204845245Y-92416228D01*
X204807230Y-92378213D01*
X204807226Y-92378210D01*
X204676123Y-92290609D01*
X204676110Y-92290602D01*
X204530439Y-92230264D01*
X204530427Y-92230261D01*
X204375783Y-92199500D01*
X204375780Y-92199500D01*
X204218096Y-92199500D01*
X204218093Y-92199500D01*
X204063448Y-92230261D01*
X204063436Y-92230264D01*
X203917765Y-92290602D01*
X203917752Y-92290609D01*
X203786649Y-92378210D01*
X203786645Y-92378213D01*
X203675151Y-92489707D01*
X203675148Y-92489711D01*
X203587547Y-92620814D01*
X203587540Y-92620827D01*
X203527202Y-92766498D01*
X203527199Y-92766510D01*
X203496438Y-92921153D01*
X194204919Y-92921153D01*
X194304212Y-92821860D01*
X194304215Y-92821855D01*
X194304220Y-92821851D01*
X194463862Y-92613803D01*
X194594981Y-92386697D01*
X194598497Y-92378210D01*
X194659779Y-92230261D01*
X194695336Y-92144419D01*
X194763208Y-91891116D01*
X194797438Y-91631120D01*
X194797438Y-91368880D01*
X194763208Y-91108884D01*
X194712906Y-90921153D01*
X203496438Y-90921153D01*
X203496438Y-91078846D01*
X203527199Y-91233489D01*
X203527202Y-91233501D01*
X203587540Y-91379172D01*
X203587547Y-91379185D01*
X203675148Y-91510288D01*
X203675151Y-91510292D01*
X203786645Y-91621786D01*
X203786649Y-91621789D01*
X203917752Y-91709390D01*
X203917765Y-91709397D01*
X204006851Y-91746297D01*
X204063441Y-91769737D01*
X204218091Y-91800499D01*
X204218094Y-91800500D01*
X204218096Y-91800500D01*
X204375782Y-91800500D01*
X204375783Y-91800499D01*
X204530435Y-91769737D01*
X204676117Y-91709394D01*
X204807227Y-91621789D01*
X204918727Y-91510289D01*
X205006332Y-91379179D01*
X205010596Y-91368886D01*
X205031935Y-91317368D01*
X205066675Y-91233497D01*
X205097438Y-91078842D01*
X205097438Y-90921158D01*
X205097438Y-90921155D01*
X205097437Y-90921153D01*
X205066676Y-90766510D01*
X205066675Y-90766503D01*
X205059042Y-90748074D01*
X205006335Y-90620827D01*
X205006328Y-90620814D01*
X204918728Y-90489712D01*
X204918723Y-90489706D01*
X204845245Y-90416228D01*
X206456438Y-90416228D01*
X206456438Y-90583771D01*
X206489120Y-90748074D01*
X206489122Y-90748082D01*
X206553233Y-90902860D01*
X206646311Y-91042162D01*
X206764775Y-91160626D01*
X206857432Y-91222537D01*
X206904075Y-91253703D01*
X207058856Y-91317816D01*
X207223166Y-91350499D01*
X207223170Y-91350500D01*
X207223171Y-91350500D01*
X207390706Y-91350500D01*
X207390707Y-91350499D01*
X207555020Y-91317816D01*
X207709801Y-91253703D01*
X207849100Y-91160626D01*
X207967564Y-91042162D01*
X208060641Y-90902863D01*
X208124754Y-90748082D01*
X208157438Y-90583767D01*
X208157438Y-90416233D01*
X208157437Y-90416228D01*
X210626438Y-90416228D01*
X210626438Y-90583771D01*
X210659120Y-90748074D01*
X210659122Y-90748082D01*
X210723233Y-90902860D01*
X210816311Y-91042162D01*
X210934775Y-91160626D01*
X211027432Y-91222537D01*
X211074075Y-91253703D01*
X211228856Y-91317816D01*
X211393166Y-91350499D01*
X211393170Y-91350500D01*
X211393171Y-91350500D01*
X211560706Y-91350500D01*
X211560707Y-91350499D01*
X211725020Y-91317816D01*
X211879801Y-91253703D01*
X212019100Y-91160626D01*
X212137564Y-91042162D01*
X212230641Y-90902863D01*
X212294754Y-90748082D01*
X212327438Y-90583767D01*
X212327438Y-90416233D01*
X212294754Y-90251918D01*
X212230641Y-90097137D01*
X212160876Y-89992726D01*
X212137564Y-89957837D01*
X212019100Y-89839373D01*
X211879798Y-89746295D01*
X211725020Y-89682184D01*
X211725012Y-89682182D01*
X211560709Y-89649500D01*
X211560705Y-89649500D01*
X211393171Y-89649500D01*
X211393166Y-89649500D01*
X211228863Y-89682182D01*
X211228855Y-89682184D01*
X211074077Y-89746295D01*
X210934775Y-89839373D01*
X210816311Y-89957837D01*
X210723233Y-90097139D01*
X210659122Y-90251917D01*
X210659120Y-90251925D01*
X210626438Y-90416228D01*
X208157437Y-90416228D01*
X208124754Y-90251918D01*
X208060641Y-90097137D01*
X207990876Y-89992726D01*
X207967564Y-89957837D01*
X207849100Y-89839373D01*
X207709798Y-89746295D01*
X207555020Y-89682184D01*
X207555012Y-89682182D01*
X207390709Y-89649500D01*
X207390705Y-89649500D01*
X207223171Y-89649500D01*
X207223166Y-89649500D01*
X207058863Y-89682182D01*
X207058855Y-89682184D01*
X206904077Y-89746295D01*
X206764775Y-89839373D01*
X206646311Y-89957837D01*
X206553233Y-90097139D01*
X206489122Y-90251917D01*
X206489120Y-90251925D01*
X206456438Y-90416228D01*
X204845245Y-90416228D01*
X204807230Y-90378213D01*
X204807226Y-90378210D01*
X204676123Y-90290609D01*
X204676110Y-90290602D01*
X204530439Y-90230264D01*
X204530427Y-90230261D01*
X204375783Y-90199500D01*
X204375780Y-90199500D01*
X204218096Y-90199500D01*
X204218093Y-90199500D01*
X204063448Y-90230261D01*
X204063436Y-90230264D01*
X203917765Y-90290602D01*
X203917752Y-90290609D01*
X203786649Y-90378210D01*
X203786645Y-90378213D01*
X203675151Y-90489707D01*
X203675148Y-90489711D01*
X203587547Y-90620814D01*
X203587540Y-90620827D01*
X203527202Y-90766498D01*
X203527199Y-90766510D01*
X203496438Y-90921153D01*
X194712906Y-90921153D01*
X194695336Y-90855581D01*
X194658437Y-90766498D01*
X194594984Y-90613309D01*
X194594979Y-90613299D01*
X194463862Y-90386196D01*
X194304219Y-90178148D01*
X194304212Y-90178140D01*
X194118798Y-89992726D01*
X194118789Y-89992718D01*
X193910741Y-89833075D01*
X193683638Y-89701958D01*
X193683628Y-89701953D01*
X193441366Y-89601605D01*
X193441359Y-89601603D01*
X193441357Y-89601602D01*
X193188054Y-89533730D01*
X193130277Y-89526123D01*
X192928065Y-89499500D01*
X192928058Y-89499500D01*
X192665818Y-89499500D01*
X192665810Y-89499500D01*
X192434710Y-89529926D01*
X192405822Y-89533730D01*
X192152519Y-89601602D01*
X192152509Y-89601605D01*
X191910247Y-89701953D01*
X191910237Y-89701958D01*
X191683134Y-89833075D01*
X191475086Y-89992718D01*
X191289656Y-90178148D01*
X191130013Y-90386196D01*
X190998896Y-90613299D01*
X190998891Y-90613309D01*
X190898543Y-90855571D01*
X190898540Y-90855581D01*
X190830668Y-91108885D01*
X190796438Y-91368872D01*
X174810601Y-91368872D01*
X174866675Y-91233497D01*
X174897438Y-91078842D01*
X174897438Y-90921158D01*
X174897438Y-90921155D01*
X174897437Y-90921153D01*
X174866676Y-90766510D01*
X174866675Y-90766503D01*
X174859042Y-90748074D01*
X174806335Y-90620827D01*
X174806328Y-90620814D01*
X174718727Y-90489711D01*
X174718724Y-90489707D01*
X174607230Y-90378213D01*
X174607226Y-90378210D01*
X174476123Y-90290609D01*
X174476110Y-90290602D01*
X174330439Y-90230264D01*
X174330427Y-90230261D01*
X174175783Y-90199500D01*
X174175780Y-90199500D01*
X174018096Y-90199500D01*
X174018093Y-90199500D01*
X173863448Y-90230261D01*
X173863436Y-90230264D01*
X173717765Y-90290602D01*
X173717752Y-90290609D01*
X173586649Y-90378210D01*
X173586645Y-90378213D01*
X173475151Y-90489707D01*
X173475148Y-90489711D01*
X173387547Y-90620814D01*
X173387540Y-90620827D01*
X173327202Y-90766498D01*
X173327199Y-90766510D01*
X173296438Y-90921153D01*
X171828420Y-90921153D01*
X171840641Y-90902863D01*
X171904754Y-90748082D01*
X171937438Y-90583767D01*
X171937438Y-90416233D01*
X171904754Y-90251918D01*
X171840641Y-90097137D01*
X171770876Y-89992726D01*
X171747564Y-89957837D01*
X171629100Y-89839373D01*
X171489798Y-89746295D01*
X171335020Y-89682184D01*
X171335012Y-89682182D01*
X171170709Y-89649500D01*
X171170705Y-89649500D01*
X171003171Y-89649500D01*
X171003166Y-89649500D01*
X170838863Y-89682182D01*
X170838855Y-89682184D01*
X170684077Y-89746295D01*
X170544775Y-89839373D01*
X170426311Y-89957837D01*
X170333233Y-90097139D01*
X170269122Y-90251917D01*
X170269120Y-90251925D01*
X170236438Y-90416228D01*
X167767437Y-90416228D01*
X167734754Y-90251918D01*
X167670641Y-90097137D01*
X167600876Y-89992726D01*
X167577564Y-89957837D01*
X167459100Y-89839373D01*
X167319798Y-89746295D01*
X167165020Y-89682184D01*
X167165012Y-89682182D01*
X167000709Y-89649500D01*
X167000705Y-89649500D01*
X166833171Y-89649500D01*
X166833166Y-89649500D01*
X166668863Y-89682182D01*
X166668855Y-89682184D01*
X166514077Y-89746295D01*
X166374775Y-89839373D01*
X166256311Y-89957837D01*
X166163233Y-90097139D01*
X166099122Y-90251917D01*
X166099120Y-90251925D01*
X166066438Y-90416228D01*
X164697438Y-90416228D01*
X164697438Y-88416228D01*
X166066438Y-88416228D01*
X166066438Y-88583771D01*
X166099120Y-88748074D01*
X166099122Y-88748082D01*
X166163233Y-88902860D01*
X166256311Y-89042162D01*
X166374775Y-89160626D01*
X166467432Y-89222537D01*
X166514075Y-89253703D01*
X166668856Y-89317816D01*
X166833166Y-89350499D01*
X166833170Y-89350500D01*
X166833171Y-89350500D01*
X167000706Y-89350500D01*
X167000707Y-89350499D01*
X167165020Y-89317816D01*
X167319801Y-89253703D01*
X167459100Y-89160626D01*
X167577564Y-89042162D01*
X167670641Y-88902863D01*
X167734754Y-88748082D01*
X167767438Y-88583767D01*
X167767438Y-88416233D01*
X167767437Y-88416228D01*
X170236438Y-88416228D01*
X170236438Y-88583771D01*
X170269120Y-88748074D01*
X170269122Y-88748082D01*
X170333233Y-88902860D01*
X170426311Y-89042162D01*
X170544775Y-89160626D01*
X170637432Y-89222537D01*
X170684075Y-89253703D01*
X170838856Y-89317816D01*
X171003166Y-89350499D01*
X171003170Y-89350500D01*
X171003171Y-89350500D01*
X171170706Y-89350500D01*
X171170707Y-89350499D01*
X171335020Y-89317816D01*
X171489801Y-89253703D01*
X171629100Y-89160626D01*
X171747564Y-89042162D01*
X171840641Y-88902863D01*
X171904754Y-88748082D01*
X171937438Y-88583767D01*
X171937438Y-88416233D01*
X171904754Y-88251918D01*
X171840641Y-88097137D01*
X171747564Y-87957838D01*
X171747563Y-87957837D01*
X171747562Y-87957835D01*
X171710880Y-87921153D01*
X188861500Y-87921153D01*
X188861500Y-88078846D01*
X188892261Y-88233489D01*
X188892264Y-88233501D01*
X188952602Y-88379172D01*
X188952609Y-88379185D01*
X188987304Y-88431109D01*
X189008182Y-88497786D01*
X188989698Y-88565167D01*
X188987304Y-88568891D01*
X188952609Y-88620814D01*
X188952602Y-88620827D01*
X188892264Y-88766498D01*
X188892261Y-88766510D01*
X188861500Y-88921153D01*
X188861500Y-89078846D01*
X188892261Y-89233489D01*
X188892264Y-89233501D01*
X188952602Y-89379172D01*
X188952609Y-89379185D01*
X189040210Y-89510288D01*
X189040213Y-89510292D01*
X189151707Y-89621786D01*
X189151711Y-89621789D01*
X189282814Y-89709390D01*
X189282827Y-89709397D01*
X189371913Y-89746297D01*
X189428503Y-89769737D01*
X189583153Y-89800499D01*
X189583156Y-89800500D01*
X189583158Y-89800500D01*
X189740844Y-89800500D01*
X189740845Y-89800499D01*
X189895497Y-89769737D01*
X190041179Y-89709394D01*
X190172289Y-89621789D01*
X190283789Y-89510289D01*
X190371394Y-89379179D01*
X190431737Y-89233497D01*
X190462500Y-89078842D01*
X190462500Y-88921158D01*
X190462500Y-88921155D01*
X190462499Y-88921153D01*
X190431738Y-88766510D01*
X190431737Y-88766503D01*
X190424104Y-88748074D01*
X190371396Y-88620825D01*
X190371394Y-88620822D01*
X190371394Y-88620821D01*
X190336694Y-88568889D01*
X190315816Y-88502215D01*
X190334300Y-88434835D01*
X190336676Y-88431136D01*
X190371394Y-88379179D01*
X190431737Y-88233497D01*
X190462500Y-88078842D01*
X190462500Y-87921158D01*
X190462500Y-87921155D01*
X190462499Y-87921153D01*
X199222500Y-87921153D01*
X199222500Y-88078846D01*
X199253261Y-88233489D01*
X199253264Y-88233501D01*
X199313602Y-88379172D01*
X199313609Y-88379185D01*
X199348304Y-88431109D01*
X199369182Y-88497786D01*
X199350698Y-88565167D01*
X199348304Y-88568891D01*
X199313609Y-88620814D01*
X199313602Y-88620827D01*
X199253264Y-88766498D01*
X199253261Y-88766510D01*
X199222500Y-88921153D01*
X199222500Y-89078846D01*
X199253261Y-89233489D01*
X199253264Y-89233501D01*
X199313602Y-89379172D01*
X199313609Y-89379185D01*
X199401210Y-89510288D01*
X199401213Y-89510292D01*
X199512707Y-89621786D01*
X199512711Y-89621789D01*
X199643814Y-89709390D01*
X199643827Y-89709397D01*
X199732913Y-89746297D01*
X199789503Y-89769737D01*
X199944153Y-89800499D01*
X199944156Y-89800500D01*
X199944158Y-89800500D01*
X200101844Y-89800500D01*
X200101845Y-89800499D01*
X200256497Y-89769737D01*
X200402179Y-89709394D01*
X200533289Y-89621789D01*
X200644789Y-89510289D01*
X200732394Y-89379179D01*
X200792737Y-89233497D01*
X200823500Y-89078842D01*
X200823500Y-88921158D01*
X200823500Y-88921155D01*
X200823499Y-88921153D01*
X200792738Y-88766510D01*
X200792737Y-88766503D01*
X200785104Y-88748074D01*
X200732396Y-88620825D01*
X200732394Y-88620822D01*
X200732394Y-88620821D01*
X200697694Y-88568889D01*
X200692740Y-88553070D01*
X200683247Y-88539475D01*
X200682515Y-88520415D01*
X200676816Y-88502215D01*
X200681179Y-88485642D01*
X200680566Y-88469657D01*
X200692405Y-88443013D01*
X200693985Y-88437013D01*
X200695749Y-88434020D01*
X200707638Y-88416228D01*
X206456438Y-88416228D01*
X206456438Y-88583771D01*
X206489120Y-88748074D01*
X206489122Y-88748082D01*
X206553233Y-88902860D01*
X206646311Y-89042162D01*
X206764775Y-89160626D01*
X206857432Y-89222537D01*
X206904075Y-89253703D01*
X207058856Y-89317816D01*
X207223166Y-89350499D01*
X207223170Y-89350500D01*
X207223171Y-89350500D01*
X207390706Y-89350500D01*
X207390707Y-89350499D01*
X207555020Y-89317816D01*
X207709801Y-89253703D01*
X207849100Y-89160626D01*
X207967564Y-89042162D01*
X208060641Y-88902863D01*
X208124754Y-88748082D01*
X208157438Y-88583767D01*
X208157438Y-88416233D01*
X208157437Y-88416228D01*
X210626438Y-88416228D01*
X210626438Y-88583771D01*
X210659120Y-88748074D01*
X210659122Y-88748082D01*
X210723233Y-88902860D01*
X210816311Y-89042162D01*
X210934775Y-89160626D01*
X211027432Y-89222537D01*
X211074075Y-89253703D01*
X211228856Y-89317816D01*
X211393166Y-89350499D01*
X211393170Y-89350500D01*
X211393171Y-89350500D01*
X211560706Y-89350500D01*
X211560707Y-89350499D01*
X211725020Y-89317816D01*
X211879801Y-89253703D01*
X212019100Y-89160626D01*
X212137564Y-89042162D01*
X212230641Y-88902863D01*
X212294754Y-88748082D01*
X212327438Y-88583767D01*
X212327438Y-88416233D01*
X212294754Y-88251918D01*
X212230641Y-88097137D01*
X212199475Y-88050494D01*
X212137564Y-87957837D01*
X212019100Y-87839373D01*
X211879798Y-87746295D01*
X211725020Y-87682184D01*
X211725012Y-87682182D01*
X211560709Y-87649500D01*
X211560705Y-87649500D01*
X211393171Y-87649500D01*
X211393166Y-87649500D01*
X211228863Y-87682182D01*
X211228855Y-87682184D01*
X211074077Y-87746295D01*
X210934775Y-87839373D01*
X210816311Y-87957837D01*
X210723233Y-88097139D01*
X210659122Y-88251917D01*
X210659120Y-88251925D01*
X210626438Y-88416228D01*
X208157437Y-88416228D01*
X208124754Y-88251918D01*
X208060641Y-88097137D01*
X208029475Y-88050494D01*
X207967564Y-87957837D01*
X207849100Y-87839373D01*
X207709798Y-87746295D01*
X207555020Y-87682184D01*
X207555012Y-87682182D01*
X207390709Y-87649500D01*
X207390705Y-87649500D01*
X207223171Y-87649500D01*
X207223166Y-87649500D01*
X207058863Y-87682182D01*
X207058855Y-87682184D01*
X206904077Y-87746295D01*
X206764775Y-87839373D01*
X206646311Y-87957837D01*
X206553233Y-88097139D01*
X206489122Y-88251917D01*
X206489120Y-88251925D01*
X206456438Y-88416228D01*
X200707638Y-88416228D01*
X200732394Y-88379179D01*
X200792737Y-88233497D01*
X200823500Y-88078842D01*
X200823500Y-87921158D01*
X200823500Y-87921155D01*
X200823499Y-87921153D01*
X200792738Y-87766510D01*
X200792737Y-87766503D01*
X200792735Y-87766498D01*
X200732397Y-87620827D01*
X200732390Y-87620814D01*
X200644789Y-87489711D01*
X200644786Y-87489707D01*
X200533292Y-87378213D01*
X200533288Y-87378210D01*
X200402185Y-87290609D01*
X200402172Y-87290602D01*
X200256501Y-87230264D01*
X200256489Y-87230261D01*
X200101845Y-87199500D01*
X200101842Y-87199500D01*
X199944158Y-87199500D01*
X199944155Y-87199500D01*
X199789510Y-87230261D01*
X199789498Y-87230264D01*
X199643827Y-87290602D01*
X199643814Y-87290609D01*
X199512711Y-87378210D01*
X199512707Y-87378213D01*
X199401213Y-87489707D01*
X199401210Y-87489711D01*
X199313609Y-87620814D01*
X199313602Y-87620827D01*
X199253264Y-87766498D01*
X199253261Y-87766510D01*
X199222500Y-87921153D01*
X190462499Y-87921153D01*
X190431738Y-87766510D01*
X190431737Y-87766503D01*
X190431735Y-87766498D01*
X190371397Y-87620827D01*
X190371390Y-87620814D01*
X190283789Y-87489711D01*
X190283786Y-87489707D01*
X190172292Y-87378213D01*
X190172288Y-87378210D01*
X190041185Y-87290609D01*
X190041172Y-87290602D01*
X189895501Y-87230264D01*
X189895489Y-87230261D01*
X189740845Y-87199500D01*
X189740842Y-87199500D01*
X189583158Y-87199500D01*
X189583155Y-87199500D01*
X189428510Y-87230261D01*
X189428498Y-87230264D01*
X189282827Y-87290602D01*
X189282814Y-87290609D01*
X189151711Y-87378210D01*
X189151707Y-87378213D01*
X189040213Y-87489707D01*
X189040210Y-87489711D01*
X188952609Y-87620814D01*
X188952602Y-87620827D01*
X188892264Y-87766498D01*
X188892261Y-87766510D01*
X188861500Y-87921153D01*
X171710880Y-87921153D01*
X171629100Y-87839373D01*
X171489798Y-87746295D01*
X171335020Y-87682184D01*
X171335012Y-87682182D01*
X171170709Y-87649500D01*
X171170705Y-87649500D01*
X171003171Y-87649500D01*
X171003166Y-87649500D01*
X170838863Y-87682182D01*
X170838855Y-87682184D01*
X170684077Y-87746295D01*
X170544775Y-87839373D01*
X170426311Y-87957837D01*
X170333233Y-88097139D01*
X170269122Y-88251917D01*
X170269120Y-88251925D01*
X170236438Y-88416228D01*
X167767437Y-88416228D01*
X167734754Y-88251918D01*
X167670641Y-88097137D01*
X167639475Y-88050494D01*
X167577564Y-87957837D01*
X167459100Y-87839373D01*
X167319798Y-87746295D01*
X167165020Y-87682184D01*
X167165012Y-87682182D01*
X167000709Y-87649500D01*
X167000705Y-87649500D01*
X166833171Y-87649500D01*
X166833166Y-87649500D01*
X166668863Y-87682182D01*
X166668855Y-87682184D01*
X166514077Y-87746295D01*
X166374775Y-87839373D01*
X166256311Y-87957837D01*
X166163233Y-88097139D01*
X166099122Y-88251917D01*
X166099120Y-88251925D01*
X166066438Y-88416228D01*
X164697438Y-88416228D01*
X164697438Y-86416228D01*
X166066438Y-86416228D01*
X166066438Y-86583771D01*
X166099120Y-86748074D01*
X166099122Y-86748082D01*
X166163233Y-86902860D01*
X166256311Y-87042162D01*
X166374775Y-87160626D01*
X166467432Y-87222537D01*
X166514075Y-87253703D01*
X166668856Y-87317816D01*
X166833166Y-87350499D01*
X166833170Y-87350500D01*
X166833171Y-87350500D01*
X167000706Y-87350500D01*
X167000707Y-87350499D01*
X167165020Y-87317816D01*
X167319801Y-87253703D01*
X167459100Y-87160626D01*
X167577564Y-87042162D01*
X167670641Y-86902863D01*
X167734754Y-86748082D01*
X167767438Y-86583767D01*
X167767438Y-86416233D01*
X167767437Y-86416228D01*
X170236438Y-86416228D01*
X170236438Y-86583771D01*
X170269120Y-86748074D01*
X170269122Y-86748082D01*
X170333233Y-86902860D01*
X170426311Y-87042162D01*
X170544775Y-87160626D01*
X170637432Y-87222537D01*
X170684075Y-87253703D01*
X170838856Y-87317816D01*
X171003166Y-87350499D01*
X171003170Y-87350500D01*
X171003171Y-87350500D01*
X171170706Y-87350500D01*
X171170707Y-87350499D01*
X171335020Y-87317816D01*
X171489801Y-87253703D01*
X171629100Y-87160626D01*
X171747564Y-87042162D01*
X171840641Y-86902863D01*
X171904754Y-86748082D01*
X171937438Y-86583767D01*
X171937438Y-86416233D01*
X171904754Y-86251918D01*
X171840641Y-86097137D01*
X171809475Y-86050494D01*
X171747564Y-85957837D01*
X171629100Y-85839373D01*
X171489798Y-85746295D01*
X171335020Y-85682184D01*
X171335012Y-85682182D01*
X171170709Y-85649500D01*
X171170705Y-85649500D01*
X171003171Y-85649500D01*
X171003166Y-85649500D01*
X170838863Y-85682182D01*
X170838855Y-85682184D01*
X170684077Y-85746295D01*
X170544775Y-85839373D01*
X170426311Y-85957837D01*
X170333233Y-86097139D01*
X170269122Y-86251917D01*
X170269120Y-86251925D01*
X170236438Y-86416228D01*
X167767437Y-86416228D01*
X167734754Y-86251918D01*
X167670641Y-86097137D01*
X167639475Y-86050494D01*
X167577564Y-85957837D01*
X167459100Y-85839373D01*
X167319798Y-85746295D01*
X167165020Y-85682184D01*
X167165012Y-85682182D01*
X167000709Y-85649500D01*
X167000705Y-85649500D01*
X166833171Y-85649500D01*
X166833166Y-85649500D01*
X166668863Y-85682182D01*
X166668855Y-85682184D01*
X166514077Y-85746295D01*
X166374775Y-85839373D01*
X166256311Y-85957837D01*
X166163233Y-86097139D01*
X166099122Y-86251917D01*
X166099120Y-86251925D01*
X166066438Y-86416228D01*
X164697438Y-86416228D01*
X164697438Y-84416228D01*
X166066438Y-84416228D01*
X166066438Y-84583771D01*
X166099120Y-84748074D01*
X166099122Y-84748082D01*
X166163233Y-84902860D01*
X166256311Y-85042162D01*
X166374775Y-85160626D01*
X166467432Y-85222537D01*
X166514075Y-85253703D01*
X166668856Y-85317816D01*
X166833166Y-85350499D01*
X166833170Y-85350500D01*
X166833171Y-85350500D01*
X167000706Y-85350500D01*
X167000707Y-85350499D01*
X167165020Y-85317816D01*
X167319801Y-85253703D01*
X167459100Y-85160626D01*
X167577564Y-85042162D01*
X167670641Y-84902863D01*
X167734754Y-84748082D01*
X167767438Y-84583767D01*
X167767438Y-84416233D01*
X167767437Y-84416228D01*
X170236438Y-84416228D01*
X170236438Y-84583771D01*
X170269120Y-84748074D01*
X170269122Y-84748082D01*
X170333233Y-84902860D01*
X170426311Y-85042162D01*
X170544775Y-85160626D01*
X170637432Y-85222537D01*
X170684075Y-85253703D01*
X170838856Y-85317816D01*
X171003166Y-85350499D01*
X171003170Y-85350500D01*
X171003171Y-85350500D01*
X171170706Y-85350500D01*
X171170707Y-85350499D01*
X171335020Y-85317816D01*
X171489801Y-85253703D01*
X171629100Y-85160626D01*
X171747564Y-85042162D01*
X171840641Y-84902863D01*
X171904754Y-84748082D01*
X171937438Y-84583767D01*
X171937438Y-84416233D01*
X171904754Y-84251918D01*
X171840641Y-84097137D01*
X171770876Y-83992726D01*
X171747564Y-83957837D01*
X171629100Y-83839373D01*
X171489798Y-83746295D01*
X171335020Y-83682184D01*
X171335012Y-83682182D01*
X171170709Y-83649500D01*
X171170705Y-83649500D01*
X171003171Y-83649500D01*
X171003166Y-83649500D01*
X170838863Y-83682182D01*
X170838855Y-83682184D01*
X170684077Y-83746295D01*
X170544775Y-83839373D01*
X170426311Y-83957837D01*
X170333233Y-84097139D01*
X170269122Y-84251917D01*
X170269120Y-84251925D01*
X170236438Y-84416228D01*
X167767437Y-84416228D01*
X167734754Y-84251918D01*
X167670641Y-84097137D01*
X167600876Y-83992726D01*
X167577564Y-83957837D01*
X167459100Y-83839373D01*
X167319798Y-83746295D01*
X167165020Y-83682184D01*
X167165012Y-83682182D01*
X167000709Y-83649500D01*
X167000705Y-83649500D01*
X166833171Y-83649500D01*
X166833166Y-83649500D01*
X166668863Y-83682182D01*
X166668855Y-83682184D01*
X166514077Y-83746295D01*
X166374775Y-83839373D01*
X166256311Y-83957837D01*
X166163233Y-84097139D01*
X166099122Y-84251917D01*
X166099120Y-84251925D01*
X166066438Y-84416228D01*
X164697438Y-84416228D01*
X164697438Y-82416228D01*
X166066438Y-82416228D01*
X166066438Y-82583771D01*
X166099120Y-82748074D01*
X166099122Y-82748082D01*
X166163233Y-82902860D01*
X166256311Y-83042162D01*
X166374775Y-83160626D01*
X166467432Y-83222537D01*
X166514075Y-83253703D01*
X166668856Y-83317816D01*
X166833166Y-83350499D01*
X166833170Y-83350500D01*
X166833171Y-83350500D01*
X167000706Y-83350500D01*
X167000707Y-83350499D01*
X167165020Y-83317816D01*
X167319801Y-83253703D01*
X167459100Y-83160626D01*
X167577564Y-83042162D01*
X167670641Y-82902863D01*
X167734754Y-82748082D01*
X167767438Y-82583767D01*
X167767438Y-82416233D01*
X167767437Y-82416228D01*
X170236438Y-82416228D01*
X170236438Y-82583771D01*
X170269120Y-82748074D01*
X170269122Y-82748082D01*
X170333233Y-82902860D01*
X170426311Y-83042162D01*
X170544775Y-83160626D01*
X170637432Y-83222537D01*
X170684075Y-83253703D01*
X170838856Y-83317816D01*
X171003166Y-83350499D01*
X171003170Y-83350500D01*
X171003171Y-83350500D01*
X171170706Y-83350500D01*
X171170707Y-83350499D01*
X171335020Y-83317816D01*
X171489801Y-83253703D01*
X171629100Y-83160626D01*
X171747564Y-83042162D01*
X171840641Y-82902863D01*
X171904754Y-82748082D01*
X171937438Y-82583767D01*
X171937438Y-82416233D01*
X171904754Y-82251918D01*
X171840641Y-82097137D01*
X171747564Y-81957838D01*
X171747563Y-81957837D01*
X171747562Y-81957835D01*
X171710880Y-81921153D01*
X173296438Y-81921153D01*
X173296438Y-82078846D01*
X173327199Y-82233489D01*
X173327202Y-82233501D01*
X173387540Y-82379172D01*
X173387547Y-82379185D01*
X173422242Y-82431109D01*
X173443120Y-82497786D01*
X173424636Y-82565167D01*
X173422242Y-82568891D01*
X173387547Y-82620814D01*
X173387540Y-82620827D01*
X173327202Y-82766498D01*
X173327199Y-82766510D01*
X173296438Y-82921153D01*
X173296438Y-83078846D01*
X173327199Y-83233489D01*
X173327202Y-83233501D01*
X173387540Y-83379172D01*
X173387547Y-83379185D01*
X173422242Y-83431109D01*
X173443120Y-83497786D01*
X173424636Y-83565167D01*
X173422242Y-83568891D01*
X173387547Y-83620814D01*
X173387540Y-83620827D01*
X173327202Y-83766498D01*
X173327199Y-83766510D01*
X173296438Y-83921153D01*
X173296438Y-84078846D01*
X173327199Y-84233489D01*
X173327202Y-84233501D01*
X173387540Y-84379172D01*
X173387547Y-84379185D01*
X173422242Y-84431109D01*
X173443120Y-84497786D01*
X173424636Y-84565167D01*
X173422242Y-84568891D01*
X173387547Y-84620814D01*
X173387540Y-84620827D01*
X173327202Y-84766498D01*
X173327199Y-84766510D01*
X173296438Y-84921153D01*
X173296438Y-85078846D01*
X173327199Y-85233489D01*
X173327202Y-85233501D01*
X173387540Y-85379172D01*
X173387547Y-85379185D01*
X173422242Y-85431109D01*
X173443120Y-85497786D01*
X173424636Y-85565167D01*
X173422242Y-85568891D01*
X173387547Y-85620814D01*
X173387540Y-85620827D01*
X173327202Y-85766498D01*
X173327199Y-85766510D01*
X173296438Y-85921153D01*
X173296438Y-86078846D01*
X173327199Y-86233489D01*
X173327202Y-86233501D01*
X173387540Y-86379172D01*
X173387547Y-86379185D01*
X173475148Y-86510288D01*
X173475151Y-86510292D01*
X173586645Y-86621786D01*
X173586649Y-86621789D01*
X173717752Y-86709390D01*
X173717765Y-86709397D01*
X173863436Y-86769735D01*
X173863441Y-86769737D01*
X174018091Y-86800499D01*
X174018094Y-86800500D01*
X174018096Y-86800500D01*
X174175782Y-86800500D01*
X174175783Y-86800499D01*
X174330435Y-86769737D01*
X174476117Y-86709394D01*
X174607227Y-86621789D01*
X174718727Y-86510289D01*
X174806332Y-86379179D01*
X174866675Y-86233497D01*
X174897438Y-86078842D01*
X174897438Y-85921158D01*
X174897438Y-85921155D01*
X174897437Y-85921153D01*
X174866676Y-85766510D01*
X174866675Y-85766503D01*
X174866673Y-85766498D01*
X174806334Y-85620825D01*
X174806332Y-85620822D01*
X174806332Y-85620821D01*
X174771632Y-85568889D01*
X174767496Y-85555681D01*
X174759070Y-85544697D01*
X174757260Y-85522995D01*
X174750754Y-85502215D01*
X174754296Y-85487426D01*
X174753266Y-85475069D01*
X174762615Y-85452691D01*
X174765210Y-85441858D01*
X174768145Y-85436328D01*
X174806332Y-85379179D01*
X174810601Y-85368872D01*
X190796438Y-85368872D01*
X190796438Y-85631127D01*
X190814688Y-85769738D01*
X190830668Y-85891116D01*
X190898540Y-86144418D01*
X190898543Y-86144428D01*
X190998891Y-86386690D01*
X190998896Y-86386700D01*
X191130013Y-86613803D01*
X191289656Y-86821851D01*
X191289664Y-86821860D01*
X191475078Y-87007274D01*
X191475086Y-87007281D01*
X191683134Y-87166924D01*
X191910237Y-87298041D01*
X191910247Y-87298046D01*
X192103783Y-87378211D01*
X192152519Y-87398398D01*
X192405822Y-87466270D01*
X192665818Y-87500500D01*
X192665825Y-87500500D01*
X192928051Y-87500500D01*
X192928058Y-87500500D01*
X193188054Y-87466270D01*
X193441357Y-87398398D01*
X193683635Y-87298043D01*
X193910741Y-87166924D01*
X194118789Y-87007282D01*
X194118793Y-87007277D01*
X194118798Y-87007274D01*
X194304212Y-86821860D01*
X194304215Y-86821855D01*
X194304220Y-86821851D01*
X194463862Y-86613803D01*
X194594981Y-86386697D01*
X194695336Y-86144419D01*
X194763208Y-85891116D01*
X194797438Y-85631120D01*
X194797438Y-85368880D01*
X194763208Y-85108884D01*
X194695336Y-84855581D01*
X194693024Y-84850000D01*
X194594984Y-84613309D01*
X194594979Y-84613299D01*
X194463862Y-84386196D01*
X194304219Y-84178148D01*
X194304212Y-84178140D01*
X194118798Y-83992726D01*
X194118789Y-83992718D01*
X194025525Y-83921153D01*
X203496438Y-83921153D01*
X203496438Y-84078846D01*
X203527199Y-84233489D01*
X203527202Y-84233501D01*
X203587540Y-84379172D01*
X203587547Y-84379185D01*
X203622242Y-84431109D01*
X203643120Y-84497786D01*
X203624636Y-84565167D01*
X203622242Y-84568891D01*
X203587547Y-84620814D01*
X203587540Y-84620827D01*
X203527202Y-84766498D01*
X203527199Y-84766510D01*
X203496438Y-84921153D01*
X203496438Y-85078846D01*
X203527199Y-85233489D01*
X203527202Y-85233501D01*
X203587540Y-85379172D01*
X203587547Y-85379185D01*
X203675148Y-85510288D01*
X203675151Y-85510292D01*
X203786645Y-85621786D01*
X203786649Y-85621789D01*
X203917752Y-85709390D01*
X203917765Y-85709397D01*
X204006851Y-85746297D01*
X204063441Y-85769737D01*
X204218091Y-85800499D01*
X204218094Y-85800500D01*
X204218096Y-85800500D01*
X204375782Y-85800500D01*
X204375783Y-85800499D01*
X204530435Y-85769737D01*
X204676117Y-85709394D01*
X204807227Y-85621789D01*
X204918727Y-85510289D01*
X205006332Y-85379179D01*
X205010596Y-85368886D01*
X205066673Y-85233501D01*
X205066675Y-85233497D01*
X205097438Y-85078842D01*
X205097438Y-84921158D01*
X205097438Y-84921155D01*
X205097437Y-84921153D01*
X205078539Y-84826148D01*
X205066675Y-84766503D01*
X205066673Y-84766498D01*
X205058220Y-84746090D01*
X205006334Y-84620825D01*
X205006332Y-84620822D01*
X205006332Y-84620821D01*
X204971632Y-84568889D01*
X204966678Y-84553070D01*
X204957185Y-84539475D01*
X204956453Y-84520415D01*
X204950754Y-84502215D01*
X204955117Y-84485642D01*
X204954504Y-84469657D01*
X204966343Y-84443013D01*
X204967923Y-84437013D01*
X204969687Y-84434020D01*
X205006332Y-84379179D01*
X205066675Y-84233497D01*
X205097438Y-84078842D01*
X205097438Y-83952155D01*
X205516938Y-83952155D01*
X205516938Y-84250000D01*
X207061963Y-84250000D01*
X207026868Y-84285095D01*
X206980790Y-84364905D01*
X206956938Y-84453922D01*
X206956938Y-84546078D01*
X206980790Y-84635095D01*
X207026868Y-84714905D01*
X207061963Y-84750000D01*
X205516938Y-84750000D01*
X205516938Y-85047844D01*
X205523339Y-85107372D01*
X205523341Y-85107379D01*
X205573583Y-85242086D01*
X205573587Y-85242093D01*
X205659747Y-85357187D01*
X205659750Y-85357190D01*
X205774844Y-85443350D01*
X205774851Y-85443354D01*
X205909558Y-85493596D01*
X205909565Y-85493598D01*
X205969093Y-85499999D01*
X205969110Y-85500000D01*
X206875298Y-85500000D01*
X206942337Y-85519685D01*
X206988092Y-85572489D01*
X206998036Y-85641647D01*
X206969011Y-85705203D01*
X206922751Y-85738561D01*
X206904076Y-85746296D01*
X206764775Y-85839373D01*
X206646311Y-85957837D01*
X206553233Y-86097139D01*
X206489122Y-86251917D01*
X206489120Y-86251925D01*
X206456438Y-86416228D01*
X206456438Y-86583771D01*
X206489120Y-86748074D01*
X206489122Y-86748082D01*
X206553233Y-86902860D01*
X206646311Y-87042162D01*
X206764775Y-87160626D01*
X206857432Y-87222537D01*
X206904075Y-87253703D01*
X207058856Y-87317816D01*
X207223166Y-87350499D01*
X207223170Y-87350500D01*
X207223171Y-87350500D01*
X207390706Y-87350500D01*
X207390707Y-87350499D01*
X207555020Y-87317816D01*
X207709801Y-87253703D01*
X207849100Y-87160626D01*
X207967564Y-87042162D01*
X208060641Y-86902863D01*
X208124754Y-86748082D01*
X208157438Y-86583767D01*
X208157438Y-86416233D01*
X208157437Y-86416228D01*
X210626438Y-86416228D01*
X210626438Y-86583771D01*
X210659120Y-86748074D01*
X210659122Y-86748082D01*
X210723233Y-86902860D01*
X210816311Y-87042162D01*
X210934775Y-87160626D01*
X211027432Y-87222537D01*
X211074075Y-87253703D01*
X211228856Y-87317816D01*
X211393166Y-87350499D01*
X211393170Y-87350500D01*
X211393171Y-87350500D01*
X211560706Y-87350500D01*
X211560707Y-87350499D01*
X211725020Y-87317816D01*
X211879801Y-87253703D01*
X212019100Y-87160626D01*
X212137564Y-87042162D01*
X212230641Y-86902863D01*
X212294754Y-86748082D01*
X212327438Y-86583767D01*
X212327438Y-86416233D01*
X212294754Y-86251918D01*
X212230641Y-86097137D01*
X212199475Y-86050494D01*
X212137564Y-85957837D01*
X212019100Y-85839373D01*
X211879798Y-85746295D01*
X211725020Y-85682184D01*
X211725012Y-85682182D01*
X211560709Y-85649500D01*
X211560705Y-85649500D01*
X211393171Y-85649500D01*
X211393166Y-85649500D01*
X211228863Y-85682182D01*
X211228855Y-85682184D01*
X211074077Y-85746295D01*
X210934775Y-85839373D01*
X210816311Y-85957837D01*
X210723233Y-86097139D01*
X210659122Y-86251917D01*
X210659120Y-86251925D01*
X210626438Y-86416228D01*
X208157437Y-86416228D01*
X208124754Y-86251918D01*
X208060641Y-86097137D01*
X208029475Y-86050494D01*
X207967564Y-85957837D01*
X207849100Y-85839373D01*
X207740034Y-85766498D01*
X207709801Y-85746297D01*
X207709796Y-85746295D01*
X207691125Y-85738561D01*
X207636722Y-85694720D01*
X207614657Y-85628426D01*
X207631936Y-85560727D01*
X207683073Y-85513116D01*
X207738578Y-85500000D01*
X208644766Y-85500000D01*
X208644782Y-85499999D01*
X208704310Y-85493598D01*
X208704317Y-85493596D01*
X208839024Y-85443354D01*
X208839031Y-85443350D01*
X208954125Y-85357190D01*
X208954128Y-85357187D01*
X209040288Y-85242093D01*
X209040292Y-85242086D01*
X209090534Y-85107379D01*
X209090536Y-85107372D01*
X209096937Y-85047844D01*
X209096938Y-85047827D01*
X209096938Y-84750000D01*
X207551913Y-84750000D01*
X207587008Y-84714905D01*
X207633086Y-84635095D01*
X207656938Y-84546078D01*
X207656938Y-84453922D01*
X207646838Y-84416228D01*
X210626438Y-84416228D01*
X210626438Y-84583771D01*
X210659120Y-84748074D01*
X210659122Y-84748082D01*
X210723233Y-84902860D01*
X210816311Y-85042162D01*
X210934775Y-85160626D01*
X211027432Y-85222537D01*
X211074075Y-85253703D01*
X211228856Y-85317816D01*
X211393166Y-85350499D01*
X211393170Y-85350500D01*
X211393171Y-85350500D01*
X211560706Y-85350500D01*
X211560707Y-85350499D01*
X211725020Y-85317816D01*
X211879801Y-85253703D01*
X212019100Y-85160626D01*
X212137564Y-85042162D01*
X212230641Y-84902863D01*
X212294754Y-84748082D01*
X212327438Y-84583767D01*
X212327438Y-84416233D01*
X212294754Y-84251918D01*
X212230641Y-84097137D01*
X212160876Y-83992726D01*
X212137564Y-83957837D01*
X212019100Y-83839373D01*
X211879798Y-83746295D01*
X211725020Y-83682184D01*
X211725012Y-83682182D01*
X211560709Y-83649500D01*
X211560705Y-83649500D01*
X211393171Y-83649500D01*
X211393166Y-83649500D01*
X211228863Y-83682182D01*
X211228855Y-83682184D01*
X211074077Y-83746295D01*
X210934775Y-83839373D01*
X210816311Y-83957837D01*
X210723233Y-84097139D01*
X210659122Y-84251917D01*
X210659120Y-84251925D01*
X210626438Y-84416228D01*
X207646838Y-84416228D01*
X207633086Y-84364905D01*
X207587008Y-84285095D01*
X207551913Y-84250000D01*
X209096938Y-84250000D01*
X209096938Y-83952172D01*
X209096937Y-83952155D01*
X209090536Y-83892627D01*
X209090534Y-83892620D01*
X209040292Y-83757913D01*
X209040288Y-83757906D01*
X208954128Y-83642812D01*
X208954125Y-83642809D01*
X208839031Y-83556649D01*
X208839024Y-83556645D01*
X208704317Y-83506403D01*
X208704310Y-83506401D01*
X208644782Y-83500000D01*
X207738578Y-83500000D01*
X207671539Y-83480315D01*
X207625784Y-83427511D01*
X207615840Y-83358353D01*
X207644865Y-83294797D01*
X207691125Y-83261439D01*
X207692653Y-83260805D01*
X207709801Y-83253703D01*
X207849100Y-83160626D01*
X207967564Y-83042162D01*
X208060641Y-82902863D01*
X208124754Y-82748082D01*
X208157438Y-82583767D01*
X208157438Y-82416233D01*
X208124754Y-82251918D01*
X208060641Y-82097137D01*
X208029475Y-82050494D01*
X207967564Y-81957837D01*
X207849100Y-81839373D01*
X207709798Y-81746295D01*
X207555020Y-81682184D01*
X207555012Y-81682182D01*
X207390709Y-81649500D01*
X207390705Y-81649500D01*
X207223171Y-81649500D01*
X207223166Y-81649500D01*
X207058863Y-81682182D01*
X207058855Y-81682184D01*
X206904077Y-81746295D01*
X206764775Y-81839373D01*
X206646311Y-81957837D01*
X206553233Y-82097139D01*
X206489122Y-82251917D01*
X206489120Y-82251925D01*
X206456438Y-82416228D01*
X206456438Y-82583771D01*
X206489120Y-82748074D01*
X206489122Y-82748082D01*
X206553233Y-82902860D01*
X206646311Y-83042162D01*
X206764775Y-83160626D01*
X206822955Y-83199500D01*
X206904075Y-83253703D01*
X206919925Y-83260268D01*
X206922751Y-83261439D01*
X206977154Y-83305280D01*
X206999219Y-83371574D01*
X206981940Y-83439273D01*
X206930803Y-83486884D01*
X206875298Y-83500000D01*
X205969093Y-83500000D01*
X205909565Y-83506401D01*
X205909558Y-83506403D01*
X205774851Y-83556645D01*
X205774844Y-83556649D01*
X205659750Y-83642809D01*
X205659747Y-83642812D01*
X205573587Y-83757906D01*
X205573583Y-83757913D01*
X205523341Y-83892620D01*
X205523339Y-83892627D01*
X205516938Y-83952155D01*
X205097438Y-83952155D01*
X205097438Y-83921158D01*
X205097438Y-83921155D01*
X205097437Y-83921153D01*
X205066676Y-83766510D01*
X205066675Y-83766503D01*
X205063114Y-83757906D01*
X205006335Y-83620827D01*
X205006328Y-83620814D01*
X204918727Y-83489711D01*
X204918724Y-83489707D01*
X204807230Y-83378213D01*
X204807226Y-83378210D01*
X204676123Y-83290609D01*
X204676110Y-83290602D01*
X204530439Y-83230264D01*
X204530427Y-83230261D01*
X204375783Y-83199500D01*
X204375780Y-83199500D01*
X204218096Y-83199500D01*
X204218093Y-83199500D01*
X204063448Y-83230261D01*
X204063436Y-83230264D01*
X203917765Y-83290602D01*
X203917752Y-83290609D01*
X203786649Y-83378210D01*
X203786645Y-83378213D01*
X203675151Y-83489707D01*
X203675148Y-83489711D01*
X203587547Y-83620814D01*
X203587540Y-83620827D01*
X203527202Y-83766498D01*
X203527199Y-83766510D01*
X203496438Y-83921153D01*
X194025525Y-83921153D01*
X193910741Y-83833075D01*
X193683638Y-83701958D01*
X193683628Y-83701953D01*
X193441366Y-83601605D01*
X193441359Y-83601603D01*
X193441357Y-83601602D01*
X193188054Y-83533730D01*
X193130277Y-83526123D01*
X192928065Y-83499500D01*
X192928058Y-83499500D01*
X192665818Y-83499500D01*
X192665810Y-83499500D01*
X192434710Y-83529926D01*
X192405822Y-83533730D01*
X192320302Y-83556645D01*
X192152519Y-83601602D01*
X192152509Y-83601605D01*
X191910247Y-83701953D01*
X191910237Y-83701958D01*
X191683134Y-83833075D01*
X191475086Y-83992718D01*
X191289656Y-84178148D01*
X191130013Y-84386196D01*
X190998896Y-84613299D01*
X190998891Y-84613309D01*
X190898543Y-84855571D01*
X190898540Y-84855581D01*
X190831072Y-85107379D01*
X190830668Y-85108885D01*
X190796438Y-85368872D01*
X174810601Y-85368872D01*
X174866675Y-85233497D01*
X174897438Y-85078842D01*
X174897438Y-84921158D01*
X174897438Y-84921155D01*
X174897437Y-84921153D01*
X174878539Y-84826148D01*
X174866675Y-84766503D01*
X174845303Y-84714905D01*
X174806334Y-84620825D01*
X174806332Y-84620822D01*
X174806332Y-84620821D01*
X174771632Y-84568889D01*
X174750754Y-84502215D01*
X174769238Y-84434835D01*
X174771614Y-84431136D01*
X174806332Y-84379179D01*
X174866675Y-84233497D01*
X174897438Y-84078842D01*
X174897438Y-83921158D01*
X174897438Y-83921155D01*
X174897437Y-83921153D01*
X174866676Y-83766510D01*
X174866675Y-83766503D01*
X174863114Y-83757906D01*
X174806334Y-83620825D01*
X174806332Y-83620822D01*
X174806332Y-83620821D01*
X174771632Y-83568889D01*
X174750754Y-83502215D01*
X174769238Y-83434835D01*
X174771614Y-83431136D01*
X174806332Y-83379179D01*
X174866675Y-83233497D01*
X174897438Y-83078842D01*
X174897438Y-82921158D01*
X174897438Y-82921155D01*
X174897437Y-82921153D01*
X174866676Y-82766510D01*
X174866675Y-82766503D01*
X174806732Y-82621786D01*
X174806334Y-82620825D01*
X174806332Y-82620822D01*
X174806332Y-82620821D01*
X174771632Y-82568889D01*
X174750754Y-82502215D01*
X174769238Y-82434835D01*
X174771614Y-82431136D01*
X174806332Y-82379179D01*
X174866675Y-82233497D01*
X174897438Y-82078842D01*
X174897438Y-81921158D01*
X174897438Y-81921155D01*
X174897437Y-81921153D01*
X174866676Y-81766510D01*
X174866675Y-81766503D01*
X174861723Y-81754548D01*
X174806335Y-81620827D01*
X174806328Y-81620814D01*
X174718727Y-81489711D01*
X174718724Y-81489707D01*
X174607230Y-81378213D01*
X174607226Y-81378210D01*
X174476123Y-81290609D01*
X174476110Y-81290602D01*
X174330439Y-81230264D01*
X174330427Y-81230261D01*
X174175783Y-81199500D01*
X174175780Y-81199500D01*
X174018096Y-81199500D01*
X174018093Y-81199500D01*
X173863448Y-81230261D01*
X173863436Y-81230264D01*
X173717765Y-81290602D01*
X173717752Y-81290609D01*
X173586649Y-81378210D01*
X173586645Y-81378213D01*
X173475151Y-81489707D01*
X173475148Y-81489711D01*
X173387547Y-81620814D01*
X173387540Y-81620827D01*
X173327202Y-81766498D01*
X173327199Y-81766510D01*
X173296438Y-81921153D01*
X171710880Y-81921153D01*
X171629100Y-81839373D01*
X171489798Y-81746295D01*
X171335020Y-81682184D01*
X171335012Y-81682182D01*
X171170709Y-81649500D01*
X171170705Y-81649500D01*
X171003171Y-81649500D01*
X171003166Y-81649500D01*
X170838863Y-81682182D01*
X170838855Y-81682184D01*
X170684077Y-81746295D01*
X170544775Y-81839373D01*
X170426311Y-81957837D01*
X170333233Y-82097139D01*
X170269122Y-82251917D01*
X170269120Y-82251925D01*
X170236438Y-82416228D01*
X167767437Y-82416228D01*
X167734754Y-82251918D01*
X167670641Y-82097137D01*
X167639475Y-82050494D01*
X167577564Y-81957837D01*
X167459100Y-81839373D01*
X167319798Y-81746295D01*
X167165020Y-81682184D01*
X167165012Y-81682182D01*
X167000709Y-81649500D01*
X167000705Y-81649500D01*
X166833171Y-81649500D01*
X166833166Y-81649500D01*
X166668863Y-81682182D01*
X166668855Y-81682184D01*
X166514077Y-81746295D01*
X166374775Y-81839373D01*
X166256311Y-81957837D01*
X166163233Y-82097139D01*
X166099122Y-82251917D01*
X166099120Y-82251925D01*
X166066438Y-82416228D01*
X164697438Y-82416228D01*
X164697438Y-78380304D01*
X166545500Y-78380304D01*
X166545500Y-78557695D01*
X166580103Y-78731658D01*
X166580106Y-78731667D01*
X166647983Y-78895540D01*
X166647990Y-78895553D01*
X166746535Y-79043034D01*
X166746538Y-79043038D01*
X166871961Y-79168461D01*
X166871965Y-79168464D01*
X167019446Y-79267009D01*
X167019459Y-79267016D01*
X167131585Y-79313459D01*
X167183334Y-79334894D01*
X167183336Y-79334894D01*
X167183341Y-79334896D01*
X167357304Y-79369499D01*
X167357307Y-79369500D01*
X167357309Y-79369500D01*
X167534693Y-79369500D01*
X167534694Y-79369499D01*
X167592682Y-79357964D01*
X167708658Y-79334896D01*
X167708661Y-79334894D01*
X167708666Y-79334894D01*
X167864380Y-79270396D01*
X167872540Y-79267016D01*
X167872540Y-79267015D01*
X167872547Y-79267013D01*
X168020035Y-79168464D01*
X168068339Y-79120160D01*
X168133319Y-79055181D01*
X168194642Y-79021696D01*
X168264334Y-79026680D01*
X168308681Y-79055181D01*
X168421961Y-79168461D01*
X168421965Y-79168464D01*
X168569446Y-79267009D01*
X168569459Y-79267016D01*
X168681585Y-79313459D01*
X168733334Y-79334894D01*
X168733336Y-79334894D01*
X168733341Y-79334896D01*
X168907304Y-79369499D01*
X168907307Y-79369500D01*
X168907309Y-79369500D01*
X169084693Y-79369500D01*
X169084694Y-79369499D01*
X169142682Y-79357964D01*
X169258658Y-79334896D01*
X169258661Y-79334894D01*
X169258666Y-79334894D01*
X169286647Y-79323304D01*
X177522500Y-79323304D01*
X177522500Y-79500695D01*
X177557103Y-79674658D01*
X177557106Y-79674667D01*
X177624983Y-79838540D01*
X177624990Y-79838553D01*
X177723535Y-79986034D01*
X177723538Y-79986038D01*
X177848961Y-80111461D01*
X177848965Y-80111464D01*
X177996446Y-80210009D01*
X177996459Y-80210016D01*
X178119363Y-80260923D01*
X178160334Y-80277894D01*
X178160336Y-80277894D01*
X178160341Y-80277896D01*
X178334304Y-80312499D01*
X178334307Y-80312500D01*
X178334309Y-80312500D01*
X178511693Y-80312500D01*
X178511694Y-80312499D01*
X178581430Y-80298628D01*
X178685658Y-80277896D01*
X178685661Y-80277894D01*
X178685666Y-80277894D01*
X178849547Y-80210013D01*
X178997035Y-80111464D01*
X179122464Y-79986035D01*
X179221013Y-79838547D01*
X179288894Y-79674666D01*
X179289146Y-79673402D01*
X179321540Y-79510543D01*
X182502499Y-79510543D01*
X182540947Y-79703829D01*
X182540950Y-79703839D01*
X182616364Y-79885907D01*
X182616371Y-79885920D01*
X182725860Y-80049781D01*
X182725863Y-80049785D01*
X182865214Y-80189136D01*
X182865218Y-80189139D01*
X183029079Y-80298628D01*
X183029092Y-80298635D01*
X183211160Y-80374049D01*
X183211165Y-80374051D01*
X183211169Y-80374051D01*
X183211170Y-80374052D01*
X183404456Y-80412500D01*
X183404459Y-80412500D01*
X183601543Y-80412500D01*
X183773911Y-80378213D01*
X183794835Y-80374051D01*
X183976914Y-80298632D01*
X184140782Y-80189139D01*
X184280139Y-80049782D01*
X184389632Y-79885914D01*
X184465051Y-79703835D01*
X184497395Y-79541232D01*
X184503500Y-79510543D01*
X184503500Y-79313456D01*
X184465052Y-79120170D01*
X184465051Y-79120169D01*
X184465051Y-79120165D01*
X184426329Y-79026680D01*
X184389635Y-78938092D01*
X184389628Y-78938079D01*
X184280139Y-78774218D01*
X184280136Y-78774214D01*
X184140784Y-78634862D01*
X184105999Y-78611620D01*
X184105998Y-78611619D01*
X183976920Y-78525371D01*
X183976907Y-78525364D01*
X183947996Y-78513389D01*
X186667500Y-78513389D01*
X186667500Y-78686611D01*
X186674635Y-78731658D01*
X186694260Y-78855571D01*
X186694598Y-78857701D01*
X186748127Y-79022445D01*
X186826768Y-79176788D01*
X186928586Y-79316928D01*
X187051072Y-79439414D01*
X187191212Y-79541232D01*
X187345555Y-79619873D01*
X187510299Y-79673402D01*
X187681389Y-79700500D01*
X187681390Y-79700500D01*
X187854610Y-79700500D01*
X187854611Y-79700500D01*
X188025701Y-79673402D01*
X188190445Y-79619873D01*
X188344788Y-79541232D01*
X188484928Y-79439414D01*
X188555470Y-79368872D01*
X190796438Y-79368872D01*
X190796438Y-79631127D01*
X190823061Y-79833339D01*
X190830668Y-79891116D01*
X190895261Y-80132182D01*
X190898540Y-80144418D01*
X190898543Y-80144428D01*
X190998891Y-80386690D01*
X190998896Y-80386700D01*
X191130013Y-80613803D01*
X191289656Y-80821851D01*
X191289664Y-80821860D01*
X191475078Y-81007274D01*
X191475086Y-81007281D01*
X191475087Y-81007282D01*
X191491006Y-81019497D01*
X191683134Y-81166924D01*
X191910237Y-81298041D01*
X191910247Y-81298046D01*
X192152509Y-81398394D01*
X192152519Y-81398398D01*
X192405822Y-81466270D01*
X192665818Y-81500500D01*
X192665825Y-81500500D01*
X192928051Y-81500500D01*
X192928058Y-81500500D01*
X193188054Y-81466270D01*
X193441357Y-81398398D01*
X193683635Y-81298043D01*
X193910741Y-81166924D01*
X194118789Y-81007282D01*
X194118793Y-81007277D01*
X194118798Y-81007274D01*
X194204919Y-80921153D01*
X203496438Y-80921153D01*
X203496438Y-81078846D01*
X203527199Y-81233489D01*
X203527202Y-81233501D01*
X203587540Y-81379172D01*
X203587547Y-81379185D01*
X203622242Y-81431109D01*
X203643120Y-81497786D01*
X203624636Y-81565167D01*
X203622242Y-81568891D01*
X203587547Y-81620814D01*
X203587540Y-81620827D01*
X203527202Y-81766498D01*
X203527199Y-81766510D01*
X203496438Y-81921153D01*
X203496438Y-82078846D01*
X203527199Y-82233489D01*
X203527202Y-82233501D01*
X203587540Y-82379172D01*
X203587547Y-82379185D01*
X203675148Y-82510288D01*
X203675151Y-82510292D01*
X203786645Y-82621786D01*
X203786649Y-82621789D01*
X203917752Y-82709390D01*
X203917765Y-82709397D01*
X204055621Y-82766498D01*
X204063441Y-82769737D01*
X204218091Y-82800499D01*
X204218094Y-82800500D01*
X204218096Y-82800500D01*
X204375782Y-82800500D01*
X204375783Y-82800499D01*
X204530435Y-82769737D01*
X204676117Y-82709394D01*
X204807227Y-82621789D01*
X204918727Y-82510289D01*
X205006332Y-82379179D01*
X205066675Y-82233497D01*
X205097438Y-82078842D01*
X205097438Y-81921158D01*
X205097438Y-81921155D01*
X205097437Y-81921153D01*
X205066676Y-81766510D01*
X205066675Y-81766503D01*
X205061723Y-81754548D01*
X205006334Y-81620825D01*
X205006332Y-81620822D01*
X205006332Y-81620821D01*
X204971632Y-81568889D01*
X204950754Y-81502215D01*
X204969238Y-81434835D01*
X204971614Y-81431136D01*
X205006332Y-81379179D01*
X205066675Y-81233497D01*
X205097438Y-81078842D01*
X205097438Y-80921158D01*
X205097438Y-80921155D01*
X205097437Y-80921153D01*
X205086236Y-80864842D01*
X205066675Y-80766503D01*
X205042092Y-80707153D01*
X207387500Y-80707153D01*
X207387500Y-80864846D01*
X207418261Y-81019489D01*
X207418264Y-81019501D01*
X207478602Y-81165172D01*
X207478609Y-81165185D01*
X207566210Y-81296288D01*
X207566213Y-81296292D01*
X207677707Y-81407786D01*
X207677711Y-81407789D01*
X207808814Y-81495390D01*
X207808827Y-81495397D01*
X207933825Y-81547172D01*
X207954503Y-81555737D01*
X208109153Y-81586499D01*
X208109156Y-81586500D01*
X208109158Y-81586500D01*
X208266844Y-81586500D01*
X208266845Y-81586499D01*
X208421497Y-81555737D01*
X208567179Y-81495394D01*
X208619110Y-81460694D01*
X208685785Y-81439816D01*
X208753165Y-81458300D01*
X208756863Y-81460676D01*
X208808821Y-81495394D01*
X208808823Y-81495395D01*
X208808825Y-81495396D01*
X208933825Y-81547172D01*
X208954503Y-81555737D01*
X209109153Y-81586499D01*
X209109156Y-81586500D01*
X209109158Y-81586500D01*
X209266844Y-81586500D01*
X209266845Y-81586499D01*
X209421497Y-81555737D01*
X209567179Y-81495394D01*
X209698289Y-81407789D01*
X209809789Y-81296289D01*
X209897394Y-81165179D01*
X209957737Y-81019497D01*
X209988500Y-80864842D01*
X209988500Y-80707158D01*
X209988500Y-80707155D01*
X209988499Y-80707153D01*
X209979957Y-80664212D01*
X209957737Y-80552503D01*
X209931728Y-80489711D01*
X209897397Y-80406827D01*
X209897390Y-80406814D01*
X209809789Y-80275711D01*
X209809786Y-80275707D01*
X209698292Y-80164213D01*
X209698288Y-80164210D01*
X209567185Y-80076609D01*
X209567172Y-80076602D01*
X209421501Y-80016264D01*
X209421489Y-80016261D01*
X209266845Y-79985500D01*
X209266842Y-79985500D01*
X209109158Y-79985500D01*
X209109155Y-79985500D01*
X208954510Y-80016261D01*
X208954498Y-80016264D01*
X208808827Y-80076602D01*
X208808814Y-80076609D01*
X208756891Y-80111304D01*
X208690214Y-80132182D01*
X208622833Y-80113698D01*
X208619109Y-80111304D01*
X208567185Y-80076609D01*
X208567172Y-80076602D01*
X208421501Y-80016264D01*
X208421489Y-80016261D01*
X208266845Y-79985500D01*
X208266842Y-79985500D01*
X208109158Y-79985500D01*
X208109155Y-79985500D01*
X207954510Y-80016261D01*
X207954498Y-80016264D01*
X207808827Y-80076602D01*
X207808814Y-80076609D01*
X207677711Y-80164210D01*
X207677707Y-80164213D01*
X207566213Y-80275707D01*
X207566210Y-80275711D01*
X207478609Y-80406814D01*
X207478602Y-80406827D01*
X207418264Y-80552498D01*
X207418261Y-80552510D01*
X207387500Y-80707153D01*
X205042092Y-80707153D01*
X205009835Y-80629277D01*
X205006335Y-80620827D01*
X205006328Y-80620814D01*
X204918727Y-80489711D01*
X204918724Y-80489707D01*
X204807230Y-80378213D01*
X204807226Y-80378210D01*
X204676123Y-80290609D01*
X204676110Y-80290602D01*
X204530439Y-80230264D01*
X204530427Y-80230261D01*
X204375783Y-80199500D01*
X204375780Y-80199500D01*
X204218096Y-80199500D01*
X204218093Y-80199500D01*
X204063448Y-80230261D01*
X204063436Y-80230264D01*
X203917765Y-80290602D01*
X203917752Y-80290609D01*
X203786649Y-80378210D01*
X203786645Y-80378213D01*
X203675151Y-80489707D01*
X203675148Y-80489711D01*
X203587547Y-80620814D01*
X203587540Y-80620827D01*
X203527202Y-80766498D01*
X203527199Y-80766510D01*
X203496438Y-80921153D01*
X194204919Y-80921153D01*
X194304212Y-80821860D01*
X194304215Y-80821855D01*
X194304220Y-80821851D01*
X194463862Y-80613803D01*
X194594981Y-80386697D01*
X194598497Y-80378210D01*
X194668168Y-80210009D01*
X194695336Y-80144419D01*
X194763208Y-79891116D01*
X194797438Y-79631120D01*
X194797438Y-79368880D01*
X194763208Y-79108884D01*
X194695336Y-78855581D01*
X194685171Y-78831040D01*
X194594984Y-78613309D01*
X194594979Y-78613299D01*
X194463862Y-78386196D01*
X194304219Y-78178148D01*
X194304212Y-78178140D01*
X194118798Y-77992726D01*
X194118789Y-77992718D01*
X193910741Y-77833075D01*
X193683638Y-77701958D01*
X193683628Y-77701953D01*
X193441366Y-77601605D01*
X193441359Y-77601603D01*
X193441357Y-77601602D01*
X193188054Y-77533730D01*
X193130277Y-77526123D01*
X192928065Y-77499500D01*
X192928058Y-77499500D01*
X192665818Y-77499500D01*
X192665810Y-77499500D01*
X192434710Y-77529926D01*
X192405822Y-77533730D01*
X192161588Y-77599172D01*
X192152519Y-77601602D01*
X192152509Y-77601605D01*
X191910247Y-77701953D01*
X191910237Y-77701958D01*
X191683134Y-77833075D01*
X191475086Y-77992718D01*
X191289656Y-78178148D01*
X191130013Y-78386196D01*
X190998896Y-78613299D01*
X190998891Y-78613309D01*
X190898543Y-78855571D01*
X190898540Y-78855581D01*
X190830668Y-79108884D01*
X190829183Y-79120165D01*
X190796438Y-79368872D01*
X188555470Y-79368872D01*
X188607414Y-79316928D01*
X188709232Y-79176788D01*
X188787873Y-79022445D01*
X188841402Y-78857701D01*
X188868500Y-78686611D01*
X188868500Y-78513389D01*
X188841402Y-78342299D01*
X188787873Y-78177555D01*
X188709232Y-78023212D01*
X188607414Y-77883072D01*
X188484928Y-77760586D01*
X188344788Y-77658768D01*
X188190445Y-77580127D01*
X188025701Y-77526598D01*
X188025699Y-77526597D01*
X188025698Y-77526597D01*
X187883023Y-77504000D01*
X187854611Y-77499500D01*
X187681389Y-77499500D01*
X187652977Y-77504000D01*
X187510302Y-77526597D01*
X187345552Y-77580128D01*
X187191211Y-77658768D01*
X187131766Y-77701958D01*
X187051072Y-77760586D01*
X187051070Y-77760588D01*
X187051069Y-77760588D01*
X186928588Y-77883069D01*
X186928588Y-77883070D01*
X186928586Y-77883072D01*
X186894934Y-77929390D01*
X186826768Y-78023211D01*
X186748128Y-78177552D01*
X186694597Y-78342302D01*
X186677548Y-78449947D01*
X186667500Y-78513389D01*
X183947996Y-78513389D01*
X183794839Y-78449950D01*
X183794829Y-78449947D01*
X183601543Y-78411500D01*
X183601541Y-78411500D01*
X183404459Y-78411500D01*
X183404457Y-78411500D01*
X183211170Y-78449947D01*
X183211160Y-78449950D01*
X183029092Y-78525364D01*
X183029079Y-78525371D01*
X182865218Y-78634860D01*
X182865214Y-78634863D01*
X182725863Y-78774214D01*
X182725860Y-78774218D01*
X182616371Y-78938079D01*
X182616364Y-78938092D01*
X182540950Y-79120160D01*
X182540947Y-79120170D01*
X182502500Y-79313456D01*
X182502500Y-79313459D01*
X182502500Y-79510541D01*
X182502500Y-79510543D01*
X182502499Y-79510543D01*
X179321540Y-79510543D01*
X179323499Y-79500695D01*
X179323500Y-79500693D01*
X179323500Y-79323306D01*
X179323499Y-79323304D01*
X179288896Y-79149341D01*
X179288893Y-79149332D01*
X179221016Y-78985459D01*
X179221009Y-78985446D01*
X179122464Y-78837965D01*
X179122461Y-78837961D01*
X178997038Y-78712538D01*
X178997034Y-78712535D01*
X178849553Y-78613990D01*
X178849540Y-78613983D01*
X178685667Y-78546106D01*
X178685658Y-78546103D01*
X178511694Y-78511500D01*
X178511691Y-78511500D01*
X178334309Y-78511500D01*
X178334306Y-78511500D01*
X178160341Y-78546103D01*
X178160332Y-78546106D01*
X177996459Y-78613983D01*
X177996446Y-78613990D01*
X177848965Y-78712535D01*
X177848961Y-78712538D01*
X177723538Y-78837961D01*
X177723535Y-78837965D01*
X177624990Y-78985446D01*
X177624983Y-78985459D01*
X177557106Y-79149332D01*
X177557103Y-79149341D01*
X177522500Y-79323304D01*
X169286647Y-79323304D01*
X169414380Y-79270396D01*
X169422540Y-79267016D01*
X169422540Y-79267015D01*
X169422547Y-79267013D01*
X169570035Y-79168464D01*
X169695464Y-79043035D01*
X169794013Y-78895547D01*
X169861894Y-78731666D01*
X169865700Y-78712536D01*
X169896499Y-78557695D01*
X169896500Y-78557693D01*
X169896500Y-78380306D01*
X169896499Y-78380304D01*
X169887271Y-78333908D01*
X169883670Y-78315804D01*
X170214500Y-78315804D01*
X170214500Y-78493195D01*
X170249103Y-78667158D01*
X170249106Y-78667167D01*
X170316983Y-78831040D01*
X170316990Y-78831053D01*
X170415535Y-78978534D01*
X170415538Y-78978538D01*
X170540961Y-79103961D01*
X170540965Y-79103964D01*
X170688446Y-79202509D01*
X170688459Y-79202516D01*
X170811363Y-79253423D01*
X170852334Y-79270394D01*
X170852336Y-79270394D01*
X170852341Y-79270396D01*
X171026304Y-79304999D01*
X171026307Y-79305000D01*
X171026309Y-79305000D01*
X171203693Y-79305000D01*
X171203694Y-79304999D01*
X171269373Y-79291935D01*
X171377658Y-79270396D01*
X171377661Y-79270394D01*
X171377666Y-79270394D01*
X171541547Y-79202513D01*
X171689035Y-79103964D01*
X171749965Y-79043034D01*
X171814819Y-78978181D01*
X171876142Y-78944696D01*
X171945834Y-78949680D01*
X171990181Y-78978181D01*
X172115961Y-79103961D01*
X172115965Y-79103964D01*
X172263446Y-79202509D01*
X172263459Y-79202516D01*
X172386363Y-79253423D01*
X172427334Y-79270394D01*
X172427336Y-79270394D01*
X172427341Y-79270396D01*
X172601304Y-79304999D01*
X172601307Y-79305000D01*
X172601309Y-79305000D01*
X172778693Y-79305000D01*
X172778694Y-79304999D01*
X172844373Y-79291935D01*
X172952658Y-79270396D01*
X172952661Y-79270394D01*
X172952666Y-79270394D01*
X173039925Y-79234250D01*
X173116203Y-79202656D01*
X173116204Y-79202655D01*
X173116547Y-79202513D01*
X173264035Y-79103964D01*
X173389464Y-78978535D01*
X173488013Y-78831047D01*
X173555894Y-78667166D01*
X173566472Y-78613990D01*
X173584099Y-78525371D01*
X173590500Y-78493191D01*
X173590500Y-78315809D01*
X173590500Y-78315806D01*
X173590499Y-78315804D01*
X173555896Y-78141841D01*
X173555893Y-78141832D01*
X173488016Y-77977959D01*
X173488009Y-77977946D01*
X173389464Y-77830465D01*
X173389461Y-77830461D01*
X173264038Y-77705038D01*
X173264034Y-77705035D01*
X173116553Y-77606490D01*
X173116540Y-77606483D01*
X172952667Y-77538606D01*
X172952658Y-77538603D01*
X172778694Y-77504000D01*
X172778691Y-77504000D01*
X172601309Y-77504000D01*
X172601306Y-77504000D01*
X172427341Y-77538603D01*
X172427332Y-77538606D01*
X172263459Y-77606483D01*
X172263446Y-77606490D01*
X172115965Y-77705035D01*
X172115961Y-77705038D01*
X171990181Y-77830819D01*
X171928858Y-77864304D01*
X171859166Y-77859320D01*
X171814819Y-77830819D01*
X171689038Y-77705038D01*
X171689034Y-77705035D01*
X171541553Y-77606490D01*
X171541540Y-77606483D01*
X171377667Y-77538606D01*
X171377658Y-77538603D01*
X171203694Y-77504000D01*
X171203691Y-77504000D01*
X171026309Y-77504000D01*
X171026306Y-77504000D01*
X170852341Y-77538603D01*
X170852332Y-77538606D01*
X170688459Y-77606483D01*
X170688446Y-77606490D01*
X170540965Y-77705035D01*
X170540961Y-77705038D01*
X170415538Y-77830461D01*
X170415535Y-77830465D01*
X170316990Y-77977946D01*
X170316983Y-77977959D01*
X170249106Y-78141832D01*
X170249103Y-78141841D01*
X170214500Y-78315804D01*
X169883670Y-78315804D01*
X169861895Y-78206340D01*
X169861894Y-78206334D01*
X169844923Y-78165363D01*
X169794016Y-78042459D01*
X169794009Y-78042446D01*
X169695464Y-77894965D01*
X169695461Y-77894961D01*
X169570038Y-77769538D01*
X169570034Y-77769535D01*
X169422553Y-77670990D01*
X169422540Y-77670983D01*
X169258667Y-77603106D01*
X169258658Y-77603103D01*
X169084694Y-77568500D01*
X169084691Y-77568500D01*
X168907309Y-77568500D01*
X168907306Y-77568500D01*
X168733341Y-77603103D01*
X168733332Y-77603106D01*
X168569459Y-77670983D01*
X168569446Y-77670990D01*
X168421965Y-77769535D01*
X168421961Y-77769538D01*
X168308681Y-77882819D01*
X168247358Y-77916304D01*
X168177666Y-77911320D01*
X168133319Y-77882819D01*
X168020038Y-77769538D01*
X168020034Y-77769535D01*
X167872553Y-77670990D01*
X167872540Y-77670983D01*
X167708667Y-77603106D01*
X167708658Y-77603103D01*
X167534694Y-77568500D01*
X167534691Y-77568500D01*
X167357309Y-77568500D01*
X167357306Y-77568500D01*
X167183341Y-77603103D01*
X167183332Y-77603106D01*
X167019459Y-77670983D01*
X167019446Y-77670990D01*
X166871965Y-77769535D01*
X166871961Y-77769538D01*
X166746538Y-77894961D01*
X166746535Y-77894965D01*
X166647990Y-78042446D01*
X166647983Y-78042459D01*
X166580106Y-78206332D01*
X166580103Y-78206341D01*
X166545500Y-78380304D01*
X164697438Y-78380304D01*
X164697438Y-76978583D01*
X164715621Y-76913940D01*
X164797949Y-76779172D01*
X165130332Y-76235073D01*
X165132578Y-76231534D01*
X165175389Y-76166510D01*
X165616082Y-75497153D01*
X166760500Y-75497153D01*
X166760500Y-75654846D01*
X166791261Y-75809489D01*
X166791264Y-75809501D01*
X166851602Y-75955172D01*
X166851609Y-75955185D01*
X166939210Y-76086288D01*
X166939213Y-76086292D01*
X167050707Y-76197786D01*
X167050711Y-76197789D01*
X167181814Y-76285390D01*
X167181827Y-76285397D01*
X167327498Y-76345735D01*
X167327503Y-76345737D01*
X167482153Y-76376499D01*
X167482156Y-76376500D01*
X167482158Y-76376500D01*
X167639844Y-76376500D01*
X167639845Y-76376499D01*
X167794497Y-76345737D01*
X167940179Y-76285394D01*
X168071289Y-76197789D01*
X168182789Y-76086289D01*
X168270394Y-75955179D01*
X168330737Y-75809497D01*
X168361500Y-75654842D01*
X168361500Y-75497158D01*
X168361500Y-75497155D01*
X168361499Y-75497153D01*
X168352271Y-75450757D01*
X168348670Y-75432653D01*
X170454500Y-75432653D01*
X170454500Y-75590346D01*
X170485261Y-75744989D01*
X170485264Y-75745001D01*
X170545602Y-75890672D01*
X170545609Y-75890685D01*
X170633210Y-76021788D01*
X170633213Y-76021792D01*
X170744707Y-76133286D01*
X170744711Y-76133289D01*
X170875814Y-76220890D01*
X170875827Y-76220897D01*
X171016484Y-76279158D01*
X171021503Y-76281237D01*
X171176153Y-76311999D01*
X171176156Y-76312000D01*
X171176158Y-76312000D01*
X171333844Y-76312000D01*
X171333845Y-76311999D01*
X171488497Y-76281237D01*
X171493528Y-76279153D01*
X178852500Y-76279153D01*
X178852500Y-76436846D01*
X178883261Y-76591489D01*
X178883264Y-76591501D01*
X178943602Y-76737172D01*
X178943609Y-76737185D01*
X179031210Y-76868288D01*
X179031213Y-76868292D01*
X179142707Y-76979786D01*
X179142711Y-76979789D01*
X179273814Y-77067390D01*
X179273827Y-77067397D01*
X179419498Y-77127735D01*
X179419503Y-77127737D01*
X179574153Y-77158499D01*
X179574156Y-77158500D01*
X179574158Y-77158500D01*
X179731844Y-77158500D01*
X179731845Y-77158499D01*
X179886497Y-77127737D01*
X180032179Y-77067394D01*
X180163289Y-76979789D01*
X180274789Y-76868289D01*
X180362394Y-76737179D01*
X180422737Y-76591497D01*
X180453500Y-76436842D01*
X180453500Y-76321153D01*
X180896438Y-76321153D01*
X180896438Y-76478846D01*
X180927199Y-76633489D01*
X180927202Y-76633501D01*
X180987540Y-76779172D01*
X180987547Y-76779185D01*
X181075148Y-76910288D01*
X181075151Y-76910292D01*
X181186645Y-77021786D01*
X181186649Y-77021789D01*
X181317752Y-77109390D01*
X181317765Y-77109397D01*
X181436312Y-77158500D01*
X181463441Y-77169737D01*
X181618091Y-77200499D01*
X181618094Y-77200500D01*
X181618096Y-77200500D01*
X181775782Y-77200500D01*
X181775783Y-77200499D01*
X181930435Y-77169737D01*
X182076117Y-77109394D01*
X182128048Y-77074694D01*
X182194723Y-77053816D01*
X182262103Y-77072300D01*
X182265801Y-77074676D01*
X182317759Y-77109394D01*
X182317761Y-77109395D01*
X182317763Y-77109396D01*
X182436310Y-77158499D01*
X182463441Y-77169737D01*
X182618091Y-77200499D01*
X182618094Y-77200500D01*
X182618096Y-77200500D01*
X182775782Y-77200500D01*
X182775783Y-77200499D01*
X182930435Y-77169737D01*
X183076117Y-77109394D01*
X183207227Y-77021789D01*
X183318727Y-76910289D01*
X183406332Y-76779179D01*
X183466675Y-76633497D01*
X183497438Y-76478842D01*
X183497438Y-76321158D01*
X183497438Y-76321155D01*
X183497437Y-76321153D01*
X193896438Y-76321153D01*
X193896438Y-76478846D01*
X193927199Y-76633489D01*
X193927202Y-76633501D01*
X193987540Y-76779172D01*
X193987547Y-76779185D01*
X194075148Y-76910288D01*
X194075151Y-76910292D01*
X194186645Y-77021786D01*
X194186649Y-77021789D01*
X194317752Y-77109390D01*
X194317765Y-77109397D01*
X194436312Y-77158500D01*
X194463441Y-77169737D01*
X194618091Y-77200499D01*
X194618094Y-77200500D01*
X194618096Y-77200500D01*
X194775782Y-77200500D01*
X194775783Y-77200499D01*
X194930435Y-77169737D01*
X195076117Y-77109394D01*
X195128048Y-77074694D01*
X195194723Y-77053816D01*
X195262103Y-77072300D01*
X195265801Y-77074676D01*
X195317759Y-77109394D01*
X195317761Y-77109395D01*
X195317763Y-77109396D01*
X195436310Y-77158499D01*
X195463441Y-77169737D01*
X195618091Y-77200499D01*
X195618094Y-77200500D01*
X195618096Y-77200500D01*
X195775782Y-77200500D01*
X195775783Y-77200499D01*
X195930435Y-77169737D01*
X196076117Y-77109394D01*
X196207227Y-77021789D01*
X196318727Y-76910289D01*
X196406332Y-76779179D01*
X196466675Y-76633497D01*
X196497438Y-76478842D01*
X196497438Y-76321158D01*
X196497438Y-76321155D01*
X196497437Y-76321153D01*
X197896438Y-76321153D01*
X197896438Y-76478846D01*
X197927199Y-76633489D01*
X197927202Y-76633501D01*
X197987540Y-76779172D01*
X197987547Y-76779185D01*
X198075148Y-76910288D01*
X198075151Y-76910292D01*
X198186645Y-77021786D01*
X198186649Y-77021789D01*
X198317752Y-77109390D01*
X198317765Y-77109397D01*
X198436312Y-77158500D01*
X198463441Y-77169737D01*
X198618091Y-77200499D01*
X198618094Y-77200500D01*
X198618096Y-77200500D01*
X198775782Y-77200500D01*
X198775783Y-77200499D01*
X198930435Y-77169737D01*
X198999443Y-77141153D01*
X205379500Y-77141153D01*
X205379500Y-77298846D01*
X205410261Y-77453489D01*
X205410264Y-77453501D01*
X205470602Y-77599172D01*
X205470609Y-77599185D01*
X205558210Y-77730288D01*
X205558213Y-77730292D01*
X205669707Y-77841786D01*
X205669711Y-77841789D01*
X205800814Y-77929390D01*
X205800827Y-77929397D01*
X205918068Y-77977959D01*
X205946503Y-77989737D01*
X206101153Y-78020499D01*
X206101156Y-78020500D01*
X206101158Y-78020500D01*
X206258844Y-78020500D01*
X206258845Y-78020499D01*
X206413497Y-77989737D01*
X206559179Y-77929394D01*
X206690289Y-77841789D01*
X206801789Y-77730289D01*
X206889394Y-77599179D01*
X206949737Y-77453497D01*
X206980500Y-77298842D01*
X206980500Y-77141158D01*
X206980500Y-77141155D01*
X206980499Y-77141153D01*
X206974181Y-77109390D01*
X206949737Y-76986503D01*
X206946467Y-76978608D01*
X206889397Y-76840827D01*
X206889390Y-76840814D01*
X206801789Y-76709711D01*
X206801786Y-76709707D01*
X206774759Y-76682680D01*
X206741274Y-76621357D01*
X206746258Y-76551665D01*
X206774756Y-76507321D01*
X206821789Y-76460289D01*
X206909394Y-76329179D01*
X206912719Y-76321153D01*
X206948371Y-76235079D01*
X206969737Y-76183497D01*
X207000500Y-76028842D01*
X207000500Y-75871158D01*
X207000500Y-75871155D01*
X207000499Y-75871153D01*
X206995835Y-75847707D01*
X206969737Y-75716503D01*
X206969735Y-75716498D01*
X206909397Y-75570827D01*
X206909390Y-75570814D01*
X206821789Y-75439711D01*
X206821786Y-75439707D01*
X206710292Y-75328213D01*
X206710288Y-75328210D01*
X206579185Y-75240609D01*
X206579172Y-75240602D01*
X206433501Y-75180264D01*
X206433489Y-75180261D01*
X206278845Y-75149500D01*
X206278842Y-75149500D01*
X206121158Y-75149500D01*
X206121155Y-75149500D01*
X205966510Y-75180261D01*
X205966498Y-75180264D01*
X205820827Y-75240602D01*
X205820814Y-75240609D01*
X205689711Y-75328210D01*
X205689707Y-75328213D01*
X205578213Y-75439707D01*
X205578210Y-75439711D01*
X205490609Y-75570814D01*
X205490602Y-75570827D01*
X205430264Y-75716498D01*
X205430261Y-75716510D01*
X205399500Y-75871153D01*
X205399500Y-76028846D01*
X205430261Y-76183489D01*
X205430264Y-76183501D01*
X205490602Y-76329172D01*
X205490609Y-76329185D01*
X205578210Y-76460288D01*
X205578213Y-76460292D01*
X205605240Y-76487319D01*
X205638725Y-76548642D01*
X205633741Y-76618334D01*
X205605240Y-76662681D01*
X205558213Y-76709707D01*
X205558210Y-76709711D01*
X205470609Y-76840814D01*
X205470602Y-76840827D01*
X205410264Y-76986498D01*
X205410261Y-76986510D01*
X205379500Y-77141153D01*
X198999443Y-77141153D01*
X199076117Y-77109394D01*
X199138970Y-77067397D01*
X199192000Y-77031964D01*
X199192000Y-77031963D01*
X199207227Y-77021789D01*
X199318727Y-76910289D01*
X199406332Y-76779179D01*
X199466675Y-76633497D01*
X199497438Y-76478842D01*
X199497438Y-76321158D01*
X199497438Y-76321155D01*
X199497437Y-76321153D01*
X199480316Y-76235082D01*
X199466675Y-76166503D01*
X199466673Y-76166498D01*
X199406335Y-76020827D01*
X199406328Y-76020814D01*
X199318727Y-75889711D01*
X199318724Y-75889707D01*
X199207230Y-75778213D01*
X199207226Y-75778210D01*
X199076123Y-75690609D01*
X199076110Y-75690602D01*
X198930439Y-75630264D01*
X198930427Y-75630261D01*
X198775783Y-75599500D01*
X198775780Y-75599500D01*
X198618096Y-75599500D01*
X198618093Y-75599500D01*
X198463448Y-75630261D01*
X198463436Y-75630264D01*
X198317765Y-75690602D01*
X198317752Y-75690609D01*
X198186649Y-75778210D01*
X198186645Y-75778213D01*
X198075151Y-75889707D01*
X198075148Y-75889711D01*
X197987547Y-76020814D01*
X197987540Y-76020827D01*
X197927202Y-76166498D01*
X197927199Y-76166510D01*
X197896438Y-76321153D01*
X196497437Y-76321153D01*
X196480316Y-76235082D01*
X196466675Y-76166503D01*
X196466673Y-76166498D01*
X196406335Y-76020827D01*
X196406328Y-76020814D01*
X196318727Y-75889711D01*
X196318724Y-75889707D01*
X196207230Y-75778213D01*
X196207226Y-75778210D01*
X196076123Y-75690609D01*
X196076110Y-75690602D01*
X195930439Y-75630264D01*
X195930427Y-75630261D01*
X195775783Y-75599500D01*
X195775780Y-75599500D01*
X195618096Y-75599500D01*
X195618093Y-75599500D01*
X195463448Y-75630261D01*
X195463436Y-75630264D01*
X195317765Y-75690602D01*
X195317752Y-75690609D01*
X195265829Y-75725304D01*
X195199152Y-75746182D01*
X195131771Y-75727698D01*
X195128047Y-75725304D01*
X195076123Y-75690609D01*
X195076110Y-75690602D01*
X194930439Y-75630264D01*
X194930427Y-75630261D01*
X194775783Y-75599500D01*
X194775780Y-75599500D01*
X194618096Y-75599500D01*
X194618093Y-75599500D01*
X194463448Y-75630261D01*
X194463436Y-75630264D01*
X194317765Y-75690602D01*
X194317752Y-75690609D01*
X194186649Y-75778210D01*
X194186645Y-75778213D01*
X194075151Y-75889707D01*
X194075148Y-75889711D01*
X193987547Y-76020814D01*
X193987540Y-76020827D01*
X193927202Y-76166498D01*
X193927199Y-76166510D01*
X193896438Y-76321153D01*
X183497437Y-76321153D01*
X183480316Y-76235082D01*
X183466675Y-76166503D01*
X183466673Y-76166498D01*
X183406335Y-76020827D01*
X183406328Y-76020814D01*
X183318727Y-75889711D01*
X183318724Y-75889707D01*
X183207230Y-75778213D01*
X183207226Y-75778210D01*
X183076123Y-75690609D01*
X183076110Y-75690602D01*
X182930439Y-75630264D01*
X182930427Y-75630261D01*
X182775783Y-75599500D01*
X182775780Y-75599500D01*
X182618096Y-75599500D01*
X182618093Y-75599500D01*
X182463448Y-75630261D01*
X182463436Y-75630264D01*
X182317765Y-75690602D01*
X182317752Y-75690609D01*
X182265829Y-75725304D01*
X182199152Y-75746182D01*
X182131771Y-75727698D01*
X182128047Y-75725304D01*
X182076123Y-75690609D01*
X182076110Y-75690602D01*
X181930439Y-75630264D01*
X181930427Y-75630261D01*
X181775783Y-75599500D01*
X181775780Y-75599500D01*
X181618096Y-75599500D01*
X181618093Y-75599500D01*
X181463448Y-75630261D01*
X181463436Y-75630264D01*
X181317765Y-75690602D01*
X181317752Y-75690609D01*
X181186649Y-75778210D01*
X181186645Y-75778213D01*
X181075151Y-75889707D01*
X181075148Y-75889711D01*
X180987547Y-76020814D01*
X180987540Y-76020827D01*
X180927202Y-76166498D01*
X180927199Y-76166510D01*
X180896438Y-76321153D01*
X180453500Y-76321153D01*
X180453500Y-76279158D01*
X180453500Y-76279155D01*
X180453499Y-76279153D01*
X180444376Y-76233290D01*
X180422737Y-76124503D01*
X180406910Y-76086292D01*
X180362397Y-75978827D01*
X180362390Y-75978814D01*
X180274789Y-75847711D01*
X180274786Y-75847707D01*
X180163292Y-75736213D01*
X180163288Y-75736210D01*
X180032185Y-75648609D01*
X180032172Y-75648602D01*
X179886501Y-75588264D01*
X179886489Y-75588261D01*
X179731845Y-75557500D01*
X179731842Y-75557500D01*
X179574158Y-75557500D01*
X179574155Y-75557500D01*
X179419510Y-75588261D01*
X179419498Y-75588264D01*
X179273827Y-75648602D01*
X179273814Y-75648609D01*
X179142711Y-75736210D01*
X179142707Y-75736213D01*
X179031213Y-75847707D01*
X179031210Y-75847711D01*
X178943609Y-75978814D01*
X178943602Y-75978827D01*
X178883264Y-76124498D01*
X178883261Y-76124510D01*
X178852500Y-76279153D01*
X171493528Y-76279153D01*
X171634179Y-76220894D01*
X171690148Y-76183497D01*
X171710402Y-76169964D01*
X171737205Y-76152053D01*
X171765289Y-76133289D01*
X171876789Y-76021789D01*
X171964394Y-75890679D01*
X172024737Y-75744997D01*
X172055500Y-75590342D01*
X172055500Y-75432658D01*
X172055500Y-75432655D01*
X172055499Y-75432653D01*
X172024738Y-75278010D01*
X172024737Y-75278003D01*
X171991108Y-75196814D01*
X171964397Y-75132327D01*
X171964390Y-75132314D01*
X171876789Y-75001211D01*
X171876786Y-75001207D01*
X171765292Y-74889713D01*
X171765288Y-74889710D01*
X171634185Y-74802109D01*
X171634172Y-74802102D01*
X171488501Y-74741764D01*
X171488489Y-74741761D01*
X171333845Y-74711000D01*
X171333842Y-74711000D01*
X171176158Y-74711000D01*
X171176155Y-74711000D01*
X171021510Y-74741761D01*
X171021498Y-74741764D01*
X170875827Y-74802102D01*
X170875814Y-74802109D01*
X170744711Y-74889710D01*
X170744707Y-74889713D01*
X170633213Y-75001207D01*
X170633210Y-75001211D01*
X170545609Y-75132314D01*
X170545602Y-75132327D01*
X170485264Y-75277998D01*
X170485261Y-75278010D01*
X170454500Y-75432653D01*
X168348670Y-75432653D01*
X168330738Y-75342508D01*
X168330737Y-75342507D01*
X168330737Y-75342503D01*
X168324817Y-75328210D01*
X168270397Y-75196827D01*
X168270390Y-75196814D01*
X168182789Y-75065711D01*
X168182786Y-75065707D01*
X168071292Y-74954213D01*
X168071288Y-74954210D01*
X167940185Y-74866609D01*
X167940172Y-74866602D01*
X167794501Y-74806264D01*
X167794489Y-74806261D01*
X167639845Y-74775500D01*
X167639842Y-74775500D01*
X167482158Y-74775500D01*
X167482155Y-74775500D01*
X167327510Y-74806261D01*
X167327498Y-74806264D01*
X167181827Y-74866602D01*
X167181814Y-74866609D01*
X167050711Y-74954210D01*
X167050707Y-74954213D01*
X166939213Y-75065707D01*
X166939210Y-75065711D01*
X166851609Y-75196814D01*
X166851602Y-75196827D01*
X166791264Y-75342498D01*
X166791261Y-75342510D01*
X166760500Y-75497153D01*
X165616082Y-75497153D01*
X165660880Y-75429111D01*
X165663233Y-75425667D01*
X165664030Y-75424540D01*
X166218433Y-74641534D01*
X166220883Y-74638198D01*
X166802283Y-73873344D01*
X166804843Y-73870093D01*
X167016377Y-73610543D01*
X174662499Y-73610543D01*
X174700947Y-73803829D01*
X174700950Y-73803839D01*
X174776364Y-73985907D01*
X174776371Y-73985920D01*
X174885860Y-74149781D01*
X174885863Y-74149785D01*
X175025214Y-74289136D01*
X175025218Y-74289139D01*
X175189079Y-74398628D01*
X175189092Y-74398635D01*
X175371160Y-74474049D01*
X175371165Y-74474051D01*
X175371169Y-74474051D01*
X175371170Y-74474052D01*
X175564456Y-74512500D01*
X175564459Y-74512500D01*
X175761543Y-74512500D01*
X175891582Y-74486632D01*
X175954835Y-74474051D01*
X176136914Y-74398632D01*
X176300782Y-74289139D01*
X176440139Y-74149782D01*
X176549632Y-73985914D01*
X176625051Y-73803835D01*
X176656644Y-73645010D01*
X176663500Y-73610543D01*
X185262499Y-73610543D01*
X185300947Y-73803829D01*
X185300950Y-73803839D01*
X185376364Y-73985907D01*
X185376371Y-73985920D01*
X185485860Y-74149781D01*
X185485863Y-74149785D01*
X185625214Y-74289136D01*
X185625218Y-74289139D01*
X185789079Y-74398628D01*
X185789092Y-74398635D01*
X185971160Y-74474049D01*
X185971165Y-74474051D01*
X185971169Y-74474051D01*
X185971170Y-74474052D01*
X186164456Y-74512500D01*
X186164459Y-74512500D01*
X186361543Y-74512500D01*
X186491582Y-74486632D01*
X186554835Y-74474051D01*
X186736914Y-74398632D01*
X186900782Y-74289139D01*
X187040139Y-74149782D01*
X187149632Y-73985914D01*
X187213736Y-73831153D01*
X193409500Y-73831153D01*
X193409500Y-73988846D01*
X193440261Y-74143489D01*
X193440264Y-74143501D01*
X193500602Y-74289172D01*
X193500609Y-74289185D01*
X193588210Y-74420288D01*
X193588213Y-74420292D01*
X193699707Y-74531786D01*
X193699711Y-74531789D01*
X193830814Y-74619390D01*
X193830827Y-74619397D01*
X193884390Y-74641583D01*
X193976503Y-74679737D01*
X194131153Y-74710499D01*
X194131156Y-74710500D01*
X194131158Y-74710500D01*
X194288844Y-74710500D01*
X194288845Y-74710499D01*
X194443497Y-74679737D01*
X194589179Y-74619394D01*
X194720289Y-74531789D01*
X194831789Y-74420289D01*
X194919394Y-74289179D01*
X194979737Y-74143497D01*
X195010500Y-73988842D01*
X195010500Y-73831158D01*
X195010500Y-73831155D01*
X195010499Y-73831153D01*
X194979738Y-73676510D01*
X194979737Y-73676503D01*
X194952415Y-73610541D01*
X194919397Y-73530827D01*
X194919390Y-73530814D01*
X194831789Y-73399711D01*
X194831786Y-73399707D01*
X194720292Y-73288213D01*
X194720288Y-73288210D01*
X194589185Y-73200609D01*
X194589172Y-73200602D01*
X194443501Y-73140264D01*
X194443489Y-73140261D01*
X194288845Y-73109500D01*
X194288842Y-73109500D01*
X194131158Y-73109500D01*
X194131155Y-73109500D01*
X193976510Y-73140261D01*
X193976498Y-73140264D01*
X193830827Y-73200602D01*
X193830814Y-73200609D01*
X193699711Y-73288210D01*
X193699707Y-73288213D01*
X193588213Y-73399707D01*
X193588210Y-73399711D01*
X193500609Y-73530814D01*
X193500602Y-73530827D01*
X193440264Y-73676498D01*
X193440261Y-73676510D01*
X193409500Y-73831153D01*
X187213736Y-73831153D01*
X187225051Y-73803835D01*
X187256644Y-73645010D01*
X187263500Y-73610543D01*
X187263500Y-73413456D01*
X187225052Y-73220170D01*
X187225051Y-73220169D01*
X187225051Y-73220165D01*
X187216951Y-73200609D01*
X187149635Y-73038092D01*
X187149628Y-73038079D01*
X187040139Y-72874218D01*
X187040136Y-72874214D01*
X186900785Y-72734863D01*
X186900781Y-72734860D01*
X186736920Y-72625371D01*
X186736907Y-72625364D01*
X186554839Y-72549950D01*
X186554829Y-72549947D01*
X186361543Y-72511500D01*
X186361541Y-72511500D01*
X186164459Y-72511500D01*
X186164457Y-72511500D01*
X185971170Y-72549947D01*
X185971160Y-72549950D01*
X185789092Y-72625364D01*
X185789079Y-72625371D01*
X185625218Y-72734860D01*
X185625214Y-72734863D01*
X185485863Y-72874214D01*
X185485860Y-72874218D01*
X185376371Y-73038079D01*
X185376364Y-73038092D01*
X185300950Y-73220160D01*
X185300947Y-73220170D01*
X185262500Y-73413456D01*
X185262500Y-73413459D01*
X185262500Y-73610541D01*
X185262500Y-73610543D01*
X185262499Y-73610543D01*
X176663500Y-73610543D01*
X176663500Y-73413456D01*
X176625052Y-73220170D01*
X176625051Y-73220169D01*
X176625051Y-73220165D01*
X176616951Y-73200609D01*
X176549635Y-73038092D01*
X176549628Y-73038079D01*
X176440139Y-72874218D01*
X176440136Y-72874214D01*
X176300785Y-72734863D01*
X176300781Y-72734860D01*
X176136920Y-72625371D01*
X176136907Y-72625364D01*
X175954839Y-72549950D01*
X175954829Y-72549947D01*
X175761543Y-72511500D01*
X175761541Y-72511500D01*
X175564459Y-72511500D01*
X175564457Y-72511500D01*
X175371170Y-72549947D01*
X175371160Y-72549950D01*
X175189092Y-72625364D01*
X175189079Y-72625371D01*
X175025218Y-72734860D01*
X175025214Y-72734863D01*
X174885863Y-72874214D01*
X174885860Y-72874218D01*
X174776371Y-73038079D01*
X174776364Y-73038092D01*
X174700950Y-73220160D01*
X174700947Y-73220170D01*
X174662500Y-73413456D01*
X174662500Y-73413459D01*
X174662500Y-73610541D01*
X174662500Y-73610543D01*
X174662499Y-73610543D01*
X167016377Y-73610543D01*
X167411824Y-73125332D01*
X167414472Y-73122193D01*
X168046323Y-72398398D01*
X168049078Y-72395347D01*
X168286475Y-72141304D01*
X191209500Y-72141304D01*
X191209500Y-72318695D01*
X191244103Y-72492658D01*
X191244106Y-72492667D01*
X191311983Y-72656540D01*
X191311990Y-72656553D01*
X191410535Y-72804034D01*
X191410538Y-72804038D01*
X191535961Y-72929461D01*
X191535965Y-72929464D01*
X191683446Y-73028009D01*
X191683459Y-73028016D01*
X191757420Y-73058651D01*
X191847334Y-73095894D01*
X191847336Y-73095894D01*
X191847341Y-73095896D01*
X192021304Y-73130499D01*
X192021307Y-73130500D01*
X192021309Y-73130500D01*
X192198693Y-73130500D01*
X192198694Y-73130499D01*
X192256682Y-73118964D01*
X192372658Y-73095896D01*
X192372661Y-73095894D01*
X192372666Y-73095894D01*
X192536547Y-73028013D01*
X192684035Y-72929464D01*
X192809464Y-72804035D01*
X192908013Y-72656547D01*
X192975894Y-72492666D01*
X192995259Y-72395315D01*
X193010499Y-72318695D01*
X193010500Y-72318693D01*
X193010500Y-72223543D01*
X202674499Y-72223543D01*
X202712947Y-72416829D01*
X202712950Y-72416839D01*
X202788364Y-72598907D01*
X202788371Y-72598920D01*
X202897860Y-72762781D01*
X202897863Y-72762785D01*
X203037214Y-72902136D01*
X203037218Y-72902139D01*
X203201079Y-73011628D01*
X203201092Y-73011635D01*
X203372074Y-73082457D01*
X203383165Y-73087051D01*
X203383169Y-73087051D01*
X203383170Y-73087052D01*
X203576456Y-73125500D01*
X203576459Y-73125500D01*
X203773543Y-73125500D01*
X203903582Y-73099632D01*
X203966835Y-73087051D01*
X204035399Y-73058650D01*
X204104866Y-73051182D01*
X204167345Y-73082457D01*
X204170531Y-73085531D01*
X204200000Y-73115000D01*
X206099998Y-73115000D01*
X206100000Y-73115000D01*
X206100000Y-73114998D01*
X206129467Y-73085531D01*
X206190790Y-73052046D01*
X206260482Y-73057030D01*
X206264578Y-73058641D01*
X206333165Y-73087051D01*
X206333169Y-73087051D01*
X206333170Y-73087052D01*
X206526456Y-73125500D01*
X206526459Y-73125500D01*
X206723543Y-73125500D01*
X206853582Y-73099632D01*
X206916835Y-73087051D01*
X207098914Y-73011632D01*
X207262782Y-72902139D01*
X207402139Y-72762782D01*
X207511632Y-72598914D01*
X207587051Y-72416835D01*
X207599632Y-72353582D01*
X207625500Y-72223543D01*
X207625500Y-72026456D01*
X207587052Y-71833170D01*
X207587051Y-71833169D01*
X207587051Y-71833165D01*
X207587049Y-71833160D01*
X207511635Y-71651092D01*
X207511628Y-71651079D01*
X207402139Y-71487218D01*
X207402136Y-71487214D01*
X207262785Y-71347863D01*
X207262781Y-71347860D01*
X207098920Y-71238371D01*
X207098907Y-71238364D01*
X206916839Y-71162950D01*
X206916829Y-71162947D01*
X206723543Y-71124500D01*
X206723541Y-71124500D01*
X206526459Y-71124500D01*
X206526457Y-71124500D01*
X206333170Y-71162947D01*
X206333165Y-71162949D01*
X206271451Y-71188511D01*
X206201982Y-71195978D01*
X206139503Y-71164703D01*
X206103851Y-71104613D01*
X206100000Y-71073949D01*
X206100000Y-71025000D01*
X204200000Y-71025000D01*
X204200000Y-71073949D01*
X204180315Y-71140988D01*
X204127511Y-71186743D01*
X204058353Y-71196687D01*
X204028549Y-71188511D01*
X203992665Y-71173648D01*
X203966835Y-71162949D01*
X203966833Y-71162948D01*
X203966829Y-71162947D01*
X203773543Y-71124500D01*
X203773541Y-71124500D01*
X203576459Y-71124500D01*
X203576457Y-71124500D01*
X203383170Y-71162947D01*
X203383160Y-71162950D01*
X203201092Y-71238364D01*
X203201079Y-71238371D01*
X203037218Y-71347860D01*
X203037214Y-71347863D01*
X202897863Y-71487214D01*
X202897860Y-71487218D01*
X202788371Y-71651079D01*
X202788364Y-71651092D01*
X202712950Y-71833160D01*
X202712947Y-71833170D01*
X202674500Y-72026456D01*
X202674500Y-72026459D01*
X202674500Y-72223541D01*
X202674500Y-72223543D01*
X202674499Y-72223543D01*
X193010500Y-72223543D01*
X193010500Y-72141306D01*
X192991255Y-72044559D01*
X192991255Y-72044558D01*
X192975896Y-71967341D01*
X192975893Y-71967332D01*
X192908016Y-71803459D01*
X192908009Y-71803446D01*
X192809464Y-71655965D01*
X192809461Y-71655961D01*
X192684038Y-71530538D01*
X192684034Y-71530535D01*
X192536553Y-71431990D01*
X192536540Y-71431983D01*
X192372667Y-71364106D01*
X192372658Y-71364103D01*
X192198694Y-71329500D01*
X192198691Y-71329500D01*
X192021309Y-71329500D01*
X192021306Y-71329500D01*
X191847341Y-71364103D01*
X191847332Y-71364106D01*
X191683459Y-71431983D01*
X191683446Y-71431990D01*
X191535965Y-71530535D01*
X191535961Y-71530538D01*
X191410538Y-71655961D01*
X191410535Y-71655965D01*
X191311990Y-71803446D01*
X191311983Y-71803459D01*
X191244106Y-71967332D01*
X191244103Y-71967341D01*
X191209500Y-72141304D01*
X168286475Y-72141304D01*
X168705090Y-71693336D01*
X168707949Y-71690379D01*
X169327173Y-71071153D01*
X174424500Y-71071153D01*
X174424500Y-71228846D01*
X174455261Y-71383489D01*
X174455264Y-71383501D01*
X174515602Y-71529172D01*
X174515609Y-71529185D01*
X174603210Y-71660288D01*
X174603213Y-71660292D01*
X174714707Y-71771786D01*
X174714711Y-71771789D01*
X174845814Y-71859390D01*
X174845827Y-71859397D01*
X174991498Y-71919735D01*
X174991503Y-71919737D01*
X175146153Y-71950499D01*
X175146156Y-71950500D01*
X175146158Y-71950500D01*
X175303844Y-71950500D01*
X175303845Y-71950499D01*
X175458497Y-71919737D01*
X175604179Y-71859394D01*
X175735289Y-71771789D01*
X175846789Y-71660289D01*
X175934394Y-71529179D01*
X175994737Y-71383497D01*
X176025500Y-71228842D01*
X176025500Y-71071158D01*
X176025500Y-71071155D01*
X176025499Y-71071153D01*
X175994737Y-70916503D01*
X175994735Y-70916498D01*
X175934397Y-70770827D01*
X175934390Y-70770814D01*
X175846789Y-70639711D01*
X175846786Y-70639707D01*
X175735292Y-70528213D01*
X175735288Y-70528210D01*
X175604185Y-70440609D01*
X175604172Y-70440602D01*
X175458501Y-70380264D01*
X175458489Y-70380261D01*
X175303845Y-70349500D01*
X175303842Y-70349500D01*
X175146158Y-70349500D01*
X175146155Y-70349500D01*
X174991510Y-70380261D01*
X174991498Y-70380264D01*
X174845827Y-70440602D01*
X174845814Y-70440609D01*
X174714711Y-70528210D01*
X174714707Y-70528213D01*
X174603213Y-70639707D01*
X174603210Y-70639711D01*
X174515609Y-70770814D01*
X174515602Y-70770827D01*
X174455264Y-70916498D01*
X174455261Y-70916510D01*
X174424500Y-71071153D01*
X169327173Y-71071153D01*
X169387319Y-71011007D01*
X169390277Y-71008147D01*
X170092285Y-70352134D01*
X170095336Y-70349379D01*
X170819101Y-69717549D01*
X170822268Y-69714876D01*
X171567067Y-69107861D01*
X171570248Y-69105357D01*
X172335140Y-68523924D01*
X172338516Y-68521448D01*
X172470473Y-68428016D01*
X173122640Y-67966249D01*
X173126031Y-67963935D01*
X173928511Y-67435592D01*
X173931961Y-67433402D01*
X174610836Y-67018682D01*
X174675479Y-67000500D01*
X177516964Y-67000500D01*
X177584003Y-67020185D01*
G37*
%TD.AperFunction*%
%TD*%
M02*
