%TF.GenerationSoftware,KiCad,Pcbnew,9.0.6*%
%TF.CreationDate,2026-02-01T23:45:28+01:00*%
%TF.ProjectId,gaia-lte,67616961-2d6c-4746-952e-6b696361645f,1.0*%
%TF.SameCoordinates,Original*%
%TF.FileFunction,Copper,L4,Inr*%
%TF.FilePolarity,Positive*%
%FSLAX46Y46*%
G04 Gerber Fmt 4.6, Leading zero omitted, Abs format (unit mm)*
G04 Created by KiCad (PCBNEW 9.0.6) date 2026-02-01 23:45:28*
%MOMM*%
%LPD*%
G01*
G04 APERTURE LIST*
%TA.AperFunction,ViaPad*%
%ADD10C,0.800000*%
%TD*%
%TA.AperFunction,ViaPad*%
%ADD11C,0.600000*%
%TD*%
%TA.AperFunction,ViaPad*%
%ADD12C,1.000000*%
%TD*%
%TA.AperFunction,ViaPad*%
%ADD13C,3.000000*%
%TD*%
%TA.AperFunction,ViaPad*%
%ADD14C,0.550000*%
%TD*%
%TA.AperFunction,ViaPad*%
%ADD15C,0.700000*%
%TD*%
%TA.AperFunction,ViaPad*%
%ADD16C,1.200000*%
%TD*%
%TA.AperFunction,ViaPad*%
%ADD17C,0.500000*%
%TD*%
%TA.AperFunction,Conductor*%
%ADD18C,0.600000*%
%TD*%
%TA.AperFunction,Conductor*%
%ADD19C,0.500000*%
%TD*%
%TA.AperFunction,Conductor*%
%ADD20C,0.400000*%
%TD*%
G04 APERTURE END LIST*
D10*
%TO.N,GND*%
X176810000Y-115085000D03*
X171115000Y-78404500D03*
D11*
X186800000Y-114650000D03*
X204296938Y-99000000D03*
X185700000Y-114650000D03*
X182696938Y-76400000D03*
X212661000Y-80786000D03*
D12*
X206625000Y-72125000D03*
D11*
X174096938Y-102000000D03*
X179127430Y-114650000D03*
D12*
X175663000Y-73512000D03*
D11*
X195696938Y-106600000D03*
D12*
X205450000Y-108850000D03*
D11*
X198696938Y-76400000D03*
X175225000Y-71150000D03*
X209188000Y-80786000D03*
X206180000Y-77220000D03*
D12*
X208881000Y-105752000D03*
X208400000Y-108900000D03*
X208881000Y-102822000D03*
D13*
X192796938Y-103500000D03*
D11*
X180200000Y-114650000D03*
X194210000Y-73910000D03*
D13*
X192796938Y-97500000D03*
D11*
X174096938Y-91000000D03*
D13*
X192796938Y-79500000D03*
D14*
X175558606Y-114880534D03*
D11*
X171496938Y-102500000D03*
D12*
X203675000Y-72125000D03*
D11*
X195696938Y-76400000D03*
D10*
X176318000Y-103319000D03*
D12*
X176668000Y-111569000D03*
D11*
X174096938Y-86000000D03*
D14*
X178051599Y-114879525D03*
D11*
X173662500Y-109612500D03*
D10*
X188268000Y-103969000D03*
D11*
X181350000Y-114650000D03*
D15*
X184618000Y-111694000D03*
D13*
X192796938Y-91500000D03*
D16*
X189823000Y-114435000D03*
D11*
X174096938Y-82000000D03*
D10*
X192110000Y-72230000D03*
D12*
X186263000Y-73512000D03*
D11*
X166800000Y-102500000D03*
X174096938Y-83000000D03*
D13*
X201296938Y-68800000D03*
D11*
X204296938Y-82000000D03*
X179653000Y-76358000D03*
X204296938Y-85000000D03*
D10*
X189290000Y-67630000D03*
D11*
X204296938Y-101000000D03*
X198696938Y-106600000D03*
X194696938Y-76400000D03*
X174096938Y-95000000D03*
X181696938Y-76400000D03*
X206200000Y-75950000D03*
X204296938Y-84000000D03*
D13*
X192796938Y-85500000D03*
D12*
X183503000Y-79412000D03*
D10*
X167446000Y-78469000D03*
D11*
X183550000Y-114650000D03*
D13*
X193096938Y-114200000D03*
D11*
X182450000Y-114650000D03*
D10*
%TO.N,/USIM_VDD*%
X183503000Y-67612000D03*
D16*
X187768000Y-78600000D03*
D11*
%TO.N,/reset_input*%
X167561000Y-75576000D03*
X200023000Y-88000000D03*
X189662000Y-88000000D03*
%TO.N,Net-(U3-USB_DP)*%
X174096938Y-94000000D03*
%TO.N,Net-(U3-USB_DN)*%
X174096938Y-93000000D03*
D10*
%TO.N,/USIM_DATA*%
X178423000Y-79412000D03*
D11*
X174096938Y-98000000D03*
%TO.N,/USIM_CLK*%
X174096938Y-100000000D03*
D10*
X178423000Y-67612000D03*
D11*
%TO.N,/USIM_RESET*%
X174096938Y-99000000D03*
D10*
X180963000Y-67612000D03*
D11*
%TO.N,/SD_CMD*%
X179696938Y-107200000D03*
D15*
X181318000Y-111694000D03*
D11*
%TO.N,/SD_DAT0*%
X180696938Y-107200000D03*
D15*
X185718000Y-111694000D03*
D11*
%TO.N,/SD_DAT1*%
X181696938Y-107200000D03*
D15*
X186818000Y-111694000D03*
%TO.N,/SD_CLK*%
X183518000Y-111694000D03*
%TO.N,/SD_DAT2*%
X179118000Y-111694000D03*
%TO.N,/SD_DAT3*%
X180218000Y-111694000D03*
D11*
%TO.N,/pwrkey_input*%
X189662000Y-89000000D03*
X171255000Y-75511500D03*
X200023000Y-89000000D03*
D10*
%TO.N,Net-(U3-RESET)*%
X168996000Y-78469000D03*
D11*
X174096938Y-85000000D03*
D15*
%TO.N,+2V8*%
X182418000Y-111694000D03*
D14*
X178050000Y-113920000D03*
D13*
%TO.N,VBUS*%
X197157938Y-97500000D03*
X197157938Y-85500000D03*
D17*
X206988000Y-79928500D03*
D13*
X197196938Y-79500000D03*
X197196938Y-114200000D03*
D11*
X174612500Y-109612500D03*
D17*
X210461000Y-79928500D03*
D11*
X172712500Y-109612500D03*
D13*
X197196938Y-68800000D03*
X197196938Y-103500000D03*
X197157938Y-91500000D03*
D11*
X174096938Y-92000000D03*
D10*
%TO.N,Net-(U3-PWRKEY)*%
X172690000Y-78404500D03*
D11*
X174096938Y-84000000D03*
%TO.N,Net-(U3-NETLIGHT)*%
X204296938Y-91000000D03*
X208188000Y-80786000D03*
%TO.N,Net-(U3-STATUS)*%
X204296938Y-93000000D03*
X211661000Y-80786000D03*
%TO.N,Net-(U3-BOOT_CFG0)*%
X204296938Y-81000000D03*
%TD*%
D18*
%TO.N,/USIM_DATA*%
X178460000Y-95795000D02*
X178460000Y-79449000D01*
X174096938Y-98000000D02*
X176255000Y-98000000D01*
X176255000Y-98000000D02*
X178460000Y-95795000D01*
X178460000Y-79449000D02*
X178423000Y-79412000D01*
%TO.N,/USIM_CLK*%
X178423000Y-72818000D02*
X178423000Y-67612000D01*
X174096938Y-100000000D02*
X173556000Y-100000000D01*
X173556000Y-100000000D02*
X173235000Y-99679000D01*
X173581000Y-96996000D02*
X175845000Y-96996000D01*
X173235000Y-99679000D02*
X173235000Y-97342000D01*
X176820000Y-74421000D02*
X178423000Y-72818000D01*
X173235000Y-97342000D02*
X173581000Y-96996000D01*
X176820000Y-96021000D02*
X176820000Y-74421000D01*
X175845000Y-96996000D02*
X176820000Y-96021000D01*
%TO.N,/USIM_RESET*%
X176630000Y-99000000D02*
X180370000Y-95260000D01*
X180370000Y-95260000D02*
X180370000Y-78130000D01*
X180370000Y-78130000D02*
X180700000Y-77800000D01*
X180963000Y-72699000D02*
X180963000Y-67612000D01*
X180700000Y-77800000D02*
X180700000Y-72962000D01*
X180700000Y-72962000D02*
X180963000Y-72699000D01*
X174096938Y-99000000D02*
X176630000Y-99000000D01*
D19*
%TO.N,Net-(U3-RESET)*%
X174122000Y-77381000D02*
X170084000Y-77381000D01*
X175921000Y-83843000D02*
X175921000Y-79180000D01*
X174096938Y-85000000D02*
X174764000Y-85000000D01*
X175921000Y-79180000D02*
X174122000Y-77381000D01*
X170084000Y-77381000D02*
X168996000Y-78469000D01*
X174764000Y-85000000D02*
X175921000Y-83843000D01*
%TO.N,Net-(U3-PWRKEY)*%
X174096938Y-84000000D02*
X174494000Y-84000000D01*
X173850500Y-78404500D02*
X172690000Y-78404500D01*
X175037000Y-79591000D02*
X173850500Y-78404500D01*
X174494000Y-84000000D02*
X175037000Y-83457000D01*
X175037000Y-83457000D02*
X175037000Y-79591000D01*
D20*
%TO.N,Net-(U3-NETLIGHT)*%
X205264000Y-81657000D02*
X206135000Y-80786000D01*
X204296938Y-91000000D02*
X205264000Y-90032938D01*
X206135000Y-80786000D02*
X208188000Y-80786000D01*
X205264000Y-90032938D02*
X205264000Y-81657000D01*
%TO.N,Net-(U3-STATUS)*%
X210960000Y-81495000D02*
X210960000Y-81487000D01*
X204296938Y-93000000D02*
X206078000Y-91218938D01*
X206078000Y-81983000D02*
X206463000Y-81598000D01*
X206078000Y-91218938D02*
X206078000Y-81983000D01*
X210857000Y-81598000D02*
X210960000Y-81495000D01*
X206463000Y-81598000D02*
X210857000Y-81598000D01*
X210960000Y-81487000D02*
X211661000Y-80786000D01*
%TD*%
M02*
