%TF.GenerationSoftware,KiCad,Pcbnew,9.0.4*%
%TF.CreationDate,2025-09-18T11:58:12+02:00*%
%TF.ProjectId,gaia-lte,67616961-2d6c-4746-952e-6b696361645f,1.0*%
%TF.SameCoordinates,Original*%
%TF.FileFunction,Copper,L1,Top*%
%TF.FilePolarity,Positive*%
%FSLAX46Y46*%
G04 Gerber Fmt 4.6, Leading zero omitted, Abs format (unit mm)*
G04 Created by KiCad (PCBNEW 9.0.4) date 2025-09-18 11:58:12*
%MOMM*%
%LPD*%
G01*
G04 APERTURE LIST*
G04 Aperture macros list*
%AMRoundRect*
0 Rectangle with rounded corners*
0 $1 Rounding radius*
0 $2 $3 $4 $5 $6 $7 $8 $9 X,Y pos of 4 corners*
0 Add a 4 corners polygon primitive as box body*
4,1,4,$2,$3,$4,$5,$6,$7,$8,$9,$2,$3,0*
0 Add four circle primitives for the rounded corners*
1,1,$1+$1,$2,$3*
1,1,$1+$1,$4,$5*
1,1,$1+$1,$6,$7*
1,1,$1+$1,$8,$9*
0 Add four rect primitives between the rounded corners*
20,1,$1+$1,$2,$3,$4,$5,0*
20,1,$1+$1,$4,$5,$6,$7,0*
20,1,$1+$1,$6,$7,$8,$9,0*
20,1,$1+$1,$8,$9,$2,$3,0*%
G04 Aperture macros list end*
%TA.AperFunction,ComponentPad*%
%ADD10R,2.580000X1.000000*%
%TD*%
%TA.AperFunction,SMDPad,CuDef*%
%ADD11RoundRect,0.135000X-0.135000X-0.185000X0.135000X-0.185000X0.135000X0.185000X-0.135000X0.185000X0*%
%TD*%
%TA.AperFunction,SMDPad,CuDef*%
%ADD12RoundRect,0.225000X0.225000X0.250000X-0.225000X0.250000X-0.225000X-0.250000X0.225000X-0.250000X0*%
%TD*%
%TA.AperFunction,SMDPad,CuDef*%
%ADD13RoundRect,0.062500X-0.062500X0.117500X-0.062500X-0.117500X0.062500X-0.117500X0.062500X0.117500X0*%
%TD*%
%TA.AperFunction,SMDPad,CuDef*%
%ADD14RoundRect,0.147500X-0.172500X0.147500X-0.172500X-0.147500X0.172500X-0.147500X0.172500X0.147500X0*%
%TD*%
%TA.AperFunction,SMDPad,CuDef*%
%ADD15RoundRect,0.140000X-0.170000X0.140000X-0.170000X-0.140000X0.170000X-0.140000X0.170000X0.140000X0*%
%TD*%
%TA.AperFunction,SMDPad,CuDef*%
%ADD16O,1.800000X0.600000*%
%TD*%
%TA.AperFunction,SMDPad,CuDef*%
%ADD17O,0.600000X1.800000*%
%TD*%
%TA.AperFunction,SMDPad,CuDef*%
%ADD18RoundRect,0.250000X0.250000X-0.275000X0.250000X0.275000X-0.250000X0.275000X-0.250000X-0.275000X0*%
%TD*%
%TA.AperFunction,SMDPad,CuDef*%
%ADD19RoundRect,0.250000X0.275000X-0.850000X0.275000X0.850000X-0.275000X0.850000X-0.275000X-0.850000X0*%
%TD*%
%TA.AperFunction,SMDPad,CuDef*%
%ADD20RoundRect,0.250000X-0.250000X0.275000X-0.250000X-0.275000X0.250000X-0.275000X0.250000X0.275000X0*%
%TD*%
%TA.AperFunction,SMDPad,CuDef*%
%ADD21RoundRect,0.250000X-0.275000X0.850000X-0.275000X-0.850000X0.275000X-0.850000X0.275000X0.850000X0*%
%TD*%
%TA.AperFunction,SMDPad,CuDef*%
%ADD22RoundRect,0.140000X0.140000X0.170000X-0.140000X0.170000X-0.140000X-0.170000X0.140000X-0.170000X0*%
%TD*%
%TA.AperFunction,SMDPad,CuDef*%
%ADD23RoundRect,0.135000X0.185000X-0.135000X0.185000X0.135000X-0.185000X0.135000X-0.185000X-0.135000X0*%
%TD*%
%TA.AperFunction,SMDPad,CuDef*%
%ADD24RoundRect,0.225000X-0.250000X0.225000X-0.250000X-0.225000X0.250000X-0.225000X0.250000X0.225000X0*%
%TD*%
%TA.AperFunction,SMDPad,CuDef*%
%ADD25RoundRect,0.135000X-0.185000X0.135000X-0.185000X-0.135000X0.185000X-0.135000X0.185000X0.135000X0*%
%TD*%
%TA.AperFunction,SMDPad,CuDef*%
%ADD26RoundRect,0.043750X0.131250X-0.361250X0.131250X0.361250X-0.131250X0.361250X-0.131250X-0.361250X0*%
%TD*%
%TA.AperFunction,SMDPad,CuDef*%
%ADD27RoundRect,0.140000X-0.140000X-0.170000X0.140000X-0.170000X0.140000X0.170000X-0.140000X0.170000X0*%
%TD*%
%TA.AperFunction,SMDPad,CuDef*%
%ADD28RoundRect,0.150000X-0.150000X0.512500X-0.150000X-0.512500X0.150000X-0.512500X0.150000X0.512500X0*%
%TD*%
%TA.AperFunction,SMDPad,CuDef*%
%ADD29RoundRect,0.249999X0.450001X1.450001X-0.450001X1.450001X-0.450001X-1.450001X0.450001X-1.450001X0*%
%TD*%
%TA.AperFunction,SMDPad,CuDef*%
%ADD30RoundRect,0.062500X0.117500X0.062500X-0.117500X0.062500X-0.117500X-0.062500X0.117500X-0.062500X0*%
%TD*%
%TA.AperFunction,SMDPad,CuDef*%
%ADD31RoundRect,0.043750X-0.361250X-0.131250X0.361250X-0.131250X0.361250X0.131250X-0.361250X0.131250X0*%
%TD*%
%TA.AperFunction,SMDPad,CuDef*%
%ADD32RoundRect,0.249999X-0.450001X-1.450001X0.450001X-1.450001X0.450001X1.450001X-0.450001X1.450001X0*%
%TD*%
%TA.AperFunction,SMDPad,CuDef*%
%ADD33RoundRect,0.225000X0.225000X0.375000X-0.225000X0.375000X-0.225000X-0.375000X0.225000X-0.375000X0*%
%TD*%
%TA.AperFunction,SMDPad,CuDef*%
%ADD34RoundRect,0.150000X0.512500X0.150000X-0.512500X0.150000X-0.512500X-0.150000X0.512500X-0.150000X0*%
%TD*%
%TA.AperFunction,ViaPad*%
%ADD35C,0.800000*%
%TD*%
%TA.AperFunction,ViaPad*%
%ADD36C,0.600000*%
%TD*%
%TA.AperFunction,ViaPad*%
%ADD37C,1.000000*%
%TD*%
%TA.AperFunction,ViaPad*%
%ADD38C,3.000000*%
%TD*%
%TA.AperFunction,ViaPad*%
%ADD39C,0.550000*%
%TD*%
%TA.AperFunction,ViaPad*%
%ADD40C,0.700000*%
%TD*%
%TA.AperFunction,ViaPad*%
%ADD41C,1.200000*%
%TD*%
%TA.AperFunction,ViaPad*%
%ADD42C,0.500000*%
%TD*%
%TA.AperFunction,Conductor*%
%ADD43C,0.350000*%
%TD*%
%TA.AperFunction,Conductor*%
%ADD44C,1.400000*%
%TD*%
%TA.AperFunction,Conductor*%
%ADD45C,0.300000*%
%TD*%
%TA.AperFunction,Conductor*%
%ADD46C,0.500000*%
%TD*%
%TA.AperFunction,Conductor*%
%ADD47C,0.200000*%
%TD*%
%TA.AperFunction,Conductor*%
%ADD48C,1.000000*%
%TD*%
%TA.AperFunction,Conductor*%
%ADD49C,0.349300*%
%TD*%
%TA.AperFunction,Conductor*%
%ADD50C,0.600000*%
%TD*%
%TA.AperFunction,Conductor*%
%ADD51C,0.900000*%
%TD*%
%TA.AperFunction,Conductor*%
%ADD52C,1.600000*%
%TD*%
G04 APERTURE END LIST*
D10*
%TO.P,J6,1,Pin_1*%
%TO.N,unconnected-(J6-Pin_1-Pad1)*%
X166916938Y-82500000D03*
%TO.P,J6,2,Pin_2*%
%TO.N,unconnected-(J6-Pin_2-Pad2)*%
X171086938Y-82500000D03*
%TO.P,J6,3,Pin_3*%
%TO.N,unconnected-(J6-Pin_3-Pad3)*%
X166916938Y-84500000D03*
%TO.P,J6,4,Pin_4*%
%TO.N,unconnected-(J6-Pin_4-Pad4)*%
X171086938Y-84500000D03*
%TO.P,J6,5,Pin_5*%
%TO.N,unconnected-(J6-Pin_5-Pad5)*%
X166916938Y-86500000D03*
%TO.P,J6,6,Pin_6*%
%TO.N,unconnected-(J6-Pin_6-Pad6)*%
X171086938Y-86500000D03*
%TO.P,J6,7,Pin_7*%
%TO.N,unconnected-(J6-Pin_7-Pad7)*%
X166916938Y-88500000D03*
%TO.P,J6,8,Pin_8*%
%TO.N,GND*%
X171086938Y-88500000D03*
%TO.P,J6,9,Pin_9*%
%TO.N,unconnected-(J6-Pin_9-Pad9)*%
X166916938Y-90500000D03*
%TO.P,J6,10,Pin_10*%
%TO.N,GND*%
X171086938Y-90500000D03*
%TO.P,J6,11,Pin_11*%
%TO.N,unconnected-(J6-Pin_11-Pad11)*%
X166916938Y-92500000D03*
%TO.P,J6,12,Pin_12*%
%TO.N,unconnected-(J6-Pin_12-Pad12)*%
X171086938Y-92500000D03*
%TO.P,J6,13,Pin_13*%
%TO.N,unconnected-(J6-Pin_13-Pad13)*%
X166916938Y-94500000D03*
%TO.P,J6,14,Pin_14*%
%TO.N,unconnected-(J6-Pin_14-Pad14)*%
X171086938Y-94500000D03*
%TO.P,J6,15,Pin_15*%
%TO.N,/USB_DN*%
X166916938Y-96500000D03*
%TO.P,J6,16,Pin_16*%
%TO.N,/USB_DP*%
X171086938Y-96500000D03*
%TO.P,J6,17,Pin_17*%
%TO.N,GND*%
X166916938Y-98500000D03*
%TO.P,J6,18,Pin_18*%
X171086938Y-98500000D03*
%TO.P,J6,19,Pin_19*%
X166916938Y-100500000D03*
%TO.P,J6,20,Pin_20*%
X171086938Y-100500000D03*
%TD*%
%TO.P,J7,1,Pin_1*%
%TO.N,unconnected-(J7-Pin_1-Pad1)*%
X207306938Y-82500000D03*
%TO.P,J7,2,Pin_2*%
%TO.N,unconnected-(J7-Pin_2-Pad2)*%
X211476938Y-82500000D03*
%TO.P,J7,3,Pin_3*%
%TO.N,VBUS*%
X207306938Y-84500000D03*
%TO.P,J7,4,Pin_4*%
%TO.N,unconnected-(J7-Pin_4-Pad4)*%
X211476938Y-84500000D03*
%TO.P,J7,5,Pin_5*%
%TO.N,unconnected-(J7-Pin_5-Pad5)*%
X207306938Y-86500000D03*
%TO.P,J7,6,Pin_6*%
%TO.N,unconnected-(J7-Pin_6-Pad6)*%
X211476938Y-86500000D03*
%TO.P,J7,7,Pin_7*%
%TO.N,unconnected-(J7-Pin_7-Pad7)*%
X207306938Y-88500000D03*
%TO.P,J7,8,Pin_8*%
%TO.N,unconnected-(J7-Pin_8-Pad8)*%
X211476938Y-88500000D03*
%TO.P,J7,9,Pin_9*%
%TO.N,unconnected-(J7-Pin_9-Pad9)*%
X207306938Y-90500000D03*
%TO.P,J7,10,Pin_10*%
%TO.N,unconnected-(J7-Pin_10-Pad10)*%
X211476938Y-90500000D03*
%TO.P,J7,11,Pin_11*%
%TO.N,/pwrkey_input*%
X207306938Y-92500000D03*
%TO.P,J7,12,Pin_12*%
%TO.N,/reset_input*%
X211476938Y-92500000D03*
%TO.P,J7,13,Pin_13*%
%TO.N,GND*%
X207306938Y-94500000D03*
%TO.P,J7,14,Pin_14*%
X211476938Y-94500000D03*
%TO.P,J7,15,Pin_15*%
X207306938Y-96500000D03*
%TO.P,J7,16,Pin_16*%
X211476938Y-96500000D03*
%TO.P,J7,17,Pin_17*%
%TO.N,unconnected-(J7-Pin_17-Pad17)*%
X207306938Y-98500000D03*
%TO.P,J7,18,Pin_18*%
%TO.N,unconnected-(J7-Pin_18-Pad18)*%
X211476938Y-98500000D03*
%TO.P,J7,19,Pin_19*%
%TO.N,unconnected-(J7-Pin_19-Pad19)*%
X207306938Y-100500000D03*
%TO.P,J7,20,Pin_20*%
%TO.N,unconnected-(J7-Pin_20-Pad20)*%
X211476938Y-100500000D03*
%TD*%
D11*
%TO.P,R2,1*%
%TO.N,Net-(D2-K)*%
X211141000Y-77366000D03*
%TO.P,R2,2*%
%TO.N,Net-(Q2-Pad3)*%
X212161000Y-77366000D03*
%TD*%
D12*
%TO.P,C15,1*%
%TO.N,Net-(U3-PWRKEY)*%
X172690000Y-78404500D03*
%TO.P,C15,2*%
%TO.N,GND*%
X171140000Y-78404500D03*
%TD*%
D13*
%TO.P,D14,1,A1*%
%TO.N,GND*%
X182450000Y-113840000D03*
%TO.P,D14,2,A2*%
%TO.N,+2V8*%
X182450000Y-113000000D03*
%TD*%
%TO.P,D9,1,A1*%
%TO.N,GND*%
X185700000Y-113840000D03*
%TO.P,D9,2,A2*%
%TO.N,/SD_DAT0*%
X185700000Y-113000000D03*
%TD*%
D14*
%TO.P,D1,1,K*%
%TO.N,Net-(D1-K)*%
X206988000Y-78958500D03*
%TO.P,D1,2,A*%
%TO.N,VBUS*%
X206988000Y-79928500D03*
%TD*%
D15*
%TO.P,C12,1*%
%TO.N,+2V8*%
X178050000Y-113920000D03*
%TO.P,C12,2*%
%TO.N,GND*%
X178050000Y-114880000D03*
%TD*%
D13*
%TO.P,D12,1,A1*%
%TO.N,GND*%
X180200000Y-113840000D03*
%TO.P,D12,2,A2*%
%TO.N,/SD_DAT3*%
X180200000Y-113000000D03*
%TD*%
D16*
%TO.P,U3,1,GND*%
%TO.N,GND*%
X174096938Y-82000000D03*
%TO.P,U3,2,GND*%
X174096938Y-83000000D03*
%TO.P,U3,3,PWRKEY*%
%TO.N,Net-(U3-PWRKEY)*%
X174096938Y-84000000D03*
%TO.P,U3,4,RESET*%
%TO.N,Net-(U3-RESET)*%
X174096938Y-85000000D03*
%TO.P,U3,5,GND*%
%TO.N,GND*%
X174096938Y-86000000D03*
%TO.P,U3,6,SPI_CLK*%
%TO.N,unconnected-(U3-SPI_CLK-Pad6)*%
X174096938Y-87000000D03*
%TO.P,U3,7,SPI_MISO*%
%TO.N,unconnected-(U3-SPI_MISO-Pad7)*%
X174096938Y-88000000D03*
%TO.P,U3,8,SPI_MOSI*%
%TO.N,unconnected-(U3-SPI_MOSI-Pad8)*%
X174096938Y-89000000D03*
%TO.P,U3,9,SPI_CS*%
%TO.N,unconnected-(U3-SPI_CS-Pad9)*%
X174096938Y-90000000D03*
%TO.P,U3,10,GND*%
%TO.N,GND*%
X174096938Y-91000000D03*
%TO.P,U3,11,USB_VBUS*%
%TO.N,VBUS*%
X174096938Y-92000000D03*
%TO.P,U3,12,USB_DN*%
%TO.N,/USB_DN*%
X174096938Y-93000000D03*
%TO.P,U3,13,USB_DP*%
%TO.N,/USB_DP*%
X174096938Y-94000000D03*
%TO.P,U3,14,GND*%
%TO.N,GND*%
X174096938Y-95000000D03*
%TO.P,U3,15,VDD_1V8*%
%TO.N,unconnected-(U3-VDD_1V8-Pad15)*%
X174096938Y-96000000D03*
%TO.P,U3,16,USB_ID*%
%TO.N,unconnected-(U3-USB_ID-Pad16)*%
X174096938Y-97000000D03*
%TO.P,U3,17,USIM_DATA*%
%TO.N,/USIM_DATA*%
X174096938Y-98000000D03*
%TO.P,U3,18,USIM_RESET*%
%TO.N,/USIM_RESET*%
X174096938Y-99000000D03*
%TO.P,U3,19,USIM_CLK*%
%TO.N,/USIM_CLK*%
X174096938Y-100000000D03*
%TO.P,U3,20,USIM_VDD*%
%TO.N,/USIM_VDD*%
X174096938Y-101000000D03*
D17*
%TO.P,U3,21,SD_CMD*%
%TO.N,/SD_CMD*%
X179696938Y-106600000D03*
%TO.P,U3,22,SD_DATA0*%
%TO.N,/SD_DAT0*%
X180696938Y-106600000D03*
%TO.P,U3,23,SD_DATA1*%
%TO.N,/SD_DAT1*%
X181696938Y-106600000D03*
%TO.P,U3,24,SD_DATA2*%
%TO.N,/SD_DAT2*%
X182696938Y-106600000D03*
%TO.P,U3,25,SD_DATA3*%
%TO.N,/SD_DAT3*%
X183696938Y-106600000D03*
%TO.P,U3,26,SD_CLK*%
%TO.N,/SD_CLK*%
X184696938Y-106600000D03*
%TO.P,U3,27,SDIO_DATA1*%
%TO.N,unconnected-(U3-SDIO_DATA1-Pad27)*%
X185696938Y-106600000D03*
%TO.P,U3,28,SDIO_DATA2*%
%TO.N,unconnected-(U3-SDIO_DATA2-Pad28)*%
X186696938Y-106600000D03*
%TO.P,U3,29,SDIO_CMD*%
%TO.N,unconnected-(U3-SDIO_CMD-Pad29)*%
X187696938Y-106600000D03*
%TO.P,U3,30,SDIO_DATA0*%
%TO.N,unconnected-(U3-SDIO_DATA0-Pad30)*%
X188696938Y-106600000D03*
%TO.P,U3,31,SDIO_DATA3*%
%TO.N,unconnected-(U3-SDIO_DATA3-Pad31)*%
X189696938Y-106600000D03*
%TO.P,U3,32,SDIO_CLK*%
%TO.N,unconnected-(U3-SDIO_CLK-Pad32)*%
X190696938Y-106600000D03*
%TO.P,U3,33,GPIO3*%
%TO.N,unconnected-(U3-GPIO3-Pad33)*%
X191696938Y-106600000D03*
%TO.P,U3,34,GPIO6*%
%TO.N,unconnected-(U3-GPIO6-Pad34)*%
X192696938Y-106600000D03*
%TO.P,U3,35,HSIC_STROBE*%
%TO.N,unconnected-(U3-HSIC_STROBE-Pad35)*%
X193696938Y-106600000D03*
%TO.P,U3,36,HSIC_DATA*%
%TO.N,unconnected-(U3-HSIC_DATA-Pad36)*%
X194696938Y-106600000D03*
%TO.P,U3,37,GND*%
%TO.N,GND*%
X195696938Y-106600000D03*
%TO.P,U3,38,VBAT*%
%TO.N,VBUS*%
X196696938Y-106600000D03*
%TO.P,U3,39,VBAT*%
X197696938Y-106600000D03*
%TO.P,U3,40,GND*%
%TO.N,GND*%
X198696938Y-106600000D03*
D16*
%TO.P,U3,41,GND*%
X204296938Y-101000000D03*
%TO.P,U3,42,NC*%
%TO.N,unconnected-(U3-NC-Pad42)*%
X204296938Y-100000000D03*
%TO.P,U3,43,GND*%
%TO.N,GND*%
X204296938Y-99000000D03*
%TO.P,U3,44,VDD_AUX*%
%TO.N,unconnected-(U3-VDD_AUX-Pad44)*%
X204296938Y-98000000D03*
%TO.P,U3,45,ISINK*%
%TO.N,unconnected-(U3-ISINK-Pad45)*%
X204296938Y-97000000D03*
%TO.P,U3,46,ADC2*%
%TO.N,unconnected-(U3-ADC2-Pad46)*%
X204296938Y-96000000D03*
%TO.P,U3,47,ADC1*%
%TO.N,unconnected-(U3-ADC1-Pad47)*%
X204296938Y-95000000D03*
%TO.P,U3,48,SD_DET*%
%TO.N,unconnected-(U3-SD_DET-Pad48)*%
X204296938Y-94000000D03*
%TO.P,U3,49,STATUS*%
%TO.N,Net-(U3-STATUS)*%
X204296938Y-93000000D03*
%TO.P,U3,50,GPIO43*%
%TO.N,unconnected-(U3-GPIO43-Pad50)*%
X204296938Y-92000000D03*
%TO.P,U3,51,NETLIGHT*%
%TO.N,Net-(U3-NETLIGHT)*%
X204296938Y-91000000D03*
%TO.P,U3,52,GPIO41*%
%TO.N,unconnected-(U3-GPIO41-Pad52)*%
X204296938Y-90000000D03*
%TO.P,U3,53,USIM_DET*%
%TO.N,unconnected-(U3-USIM_DET-Pad53)*%
X204296938Y-89000000D03*
%TO.P,U3,54,FLIGHTMODE*%
%TO.N,unconnected-(U3-FLIGHTMODE-Pad54)*%
X204296938Y-88000000D03*
%TO.P,U3,55,SCL*%
%TO.N,unconnected-(U3-SCL-Pad55)*%
X204296938Y-87000000D03*
%TO.P,U3,56,SDA*%
%TO.N,unconnected-(U3-SDA-Pad56)*%
X204296938Y-86000000D03*
%TO.P,U3,57,GND*%
%TO.N,GND*%
X204296938Y-85000000D03*
%TO.P,U3,58,GND*%
X204296938Y-84000000D03*
%TO.P,U3,59,AUX_ANT*%
%TO.N,Net-(U3-AUX_ANT)*%
X204296938Y-83000000D03*
%TO.P,U3,60,GND*%
%TO.N,GND*%
X204296938Y-82000000D03*
D17*
%TO.P,U3,61,GND*%
X198696938Y-76400000D03*
%TO.P,U3,62,VBAT*%
%TO.N,VBUS*%
X197696938Y-76400000D03*
%TO.P,U3,63,VBAT*%
X196696938Y-76400000D03*
%TO.P,U3,64,GND*%
%TO.N,GND*%
X195696938Y-76400000D03*
%TO.P,U3,65,GND*%
X194696938Y-76400000D03*
%TO.P,U3,66,RTS*%
%TO.N,unconnected-(U3-RTS-Pad66)*%
X193696938Y-76400000D03*
%TO.P,U3,67,CTS*%
%TO.N,unconnected-(U3-CTS-Pad67)*%
X192696938Y-76400000D03*
%TO.P,U3,68,RXD*%
%TO.N,unconnected-(U3-RXD-Pad68)*%
X191696938Y-76400000D03*
%TO.P,U3,69,RI*%
%TO.N,unconnected-(U3-RI-Pad69)*%
X190696938Y-76400000D03*
%TO.P,U3,70,DCD*%
%TO.N,unconnected-(U3-DCD-Pad70)*%
X189696938Y-76400000D03*
%TO.P,U3,71,TXD*%
%TO.N,unconnected-(U3-TXD-Pad71)*%
X188696938Y-76400000D03*
%TO.P,U3,72,DTR*%
%TO.N,unconnected-(U3-DTR-Pad72)*%
X187696938Y-76400000D03*
%TO.P,U3,73,PCM_OUT*%
%TO.N,unconnected-(U3-PCM_OUT-Pad73)*%
X186696938Y-76400000D03*
%TO.P,U3,74,PCM_IN*%
%TO.N,unconnected-(U3-PCM_IN-Pad74)*%
X185696938Y-76400000D03*
%TO.P,U3,75,PCM_SYNC*%
%TO.N,unconnected-(U3-PCM_SYNC-Pad75)*%
X184696938Y-76400000D03*
%TO.P,U3,76,PCM_CLK*%
%TO.N,unconnected-(U3-PCM_CLK-Pad76)*%
X183696938Y-76400000D03*
%TO.P,U3,77,GND*%
%TO.N,GND*%
X182696938Y-76400000D03*
%TO.P,U3,78,GND*%
X181696938Y-76400000D03*
%TO.P,U3,79,GNSS_ANT*%
%TO.N,unconnected-(U3-GNSS_ANT-Pad79)*%
X180696938Y-76400000D03*
%TO.P,U3,80,GND*%
%TO.N,GND*%
X179696938Y-76400000D03*
D16*
%TO.P,U3,81,GND*%
X174096938Y-102000000D03*
%TO.P,U3,82,MAIN_ANT*%
%TO.N,Net-(U3-MAIN_ANT)*%
X204296938Y-102000000D03*
D17*
%TO.P,U3,83,COEX1*%
%TO.N,unconnected-(U3-COEX1-Pad83)*%
X199696938Y-106600000D03*
%TO.P,U3,84,COEX2*%
%TO.N,unconnected-(U3-COEX2-Pad84)*%
X178696938Y-106600000D03*
D16*
%TO.P,U3,85,BOOT_CFG0*%
%TO.N,Net-(U3-BOOT_CFG0)*%
X204296938Y-81000000D03*
D17*
%TO.P,U3,86,COEX3*%
%TO.N,unconnected-(U3-COEX3-Pad86)*%
X178696938Y-76400000D03*
%TO.P,U3,87,GPIO77*%
%TO.N,unconnected-(U3-GPIO77-Pad87)*%
X199696938Y-76400000D03*
%TD*%
D11*
%TO.P,R1,1*%
%TO.N,Net-(D1-K)*%
X207668000Y-77366000D03*
%TO.P,R1,2*%
%TO.N,Net-(Q1-Pad3)*%
X208688000Y-77366000D03*
%TD*%
D13*
%TO.P,D13,1,A1*%
%TO.N,GND*%
X179150000Y-113840000D03*
%TO.P,D13,2,A2*%
%TO.N,/SD_DAT2*%
X179150000Y-113000000D03*
%TD*%
D18*
%TO.P,J2,1,In*%
%TO.N,Net-(J2-In)*%
X205150000Y-73650000D03*
D19*
%TO.P,J2,2,Ext*%
%TO.N,GND*%
X203675000Y-72125000D03*
X206625000Y-72125000D03*
%TD*%
D20*
%TO.P,J1,1,In*%
%TO.N,Net-(J1-In)*%
X206921000Y-107292000D03*
D21*
%TO.P,J1,2,Ext*%
%TO.N,GND*%
X208396000Y-108817000D03*
X205446000Y-108817000D03*
%TD*%
D22*
%TO.P,C8,1*%
%TO.N,GND*%
X207881000Y-102822000D03*
%TO.P,C8,2*%
%TO.N,Net-(U3-MAIN_ANT)*%
X206921000Y-102822000D03*
%TD*%
D12*
%TO.P,C1,1*%
%TO.N,Net-(U3-RESET)*%
X168996000Y-78469000D03*
%TO.P,C1,2*%
%TO.N,GND*%
X167446000Y-78469000D03*
%TD*%
D22*
%TO.P,C16,1*%
%TO.N,GND*%
X206180000Y-78000000D03*
%TO.P,C16,2*%
%TO.N,Net-(U3-AUX_ANT)*%
X205220000Y-78000000D03*
%TD*%
D23*
%TO.P,R3,1*%
%TO.N,Net-(U3-AUX_ANT)*%
X205250000Y-77070000D03*
%TO.P,R3,2*%
%TO.N,Net-(J2-In)*%
X205250000Y-76050000D03*
%TD*%
D13*
%TO.P,D11,1,A1*%
%TO.N,GND*%
X181350000Y-113840000D03*
%TO.P,D11,2,A2*%
%TO.N,/SD_CMD*%
X181350000Y-113000000D03*
%TD*%
D14*
%TO.P,D2,1,K*%
%TO.N,Net-(D2-K)*%
X210461000Y-78958500D03*
%TO.P,D2,2,A*%
%TO.N,VBUS*%
X210461000Y-79928500D03*
%TD*%
D24*
%TO.P,C2,1*%
%TO.N,+2V8*%
X176810000Y-113535000D03*
%TO.P,C2,2*%
%TO.N,GND*%
X176810000Y-115085000D03*
%TD*%
D13*
%TO.P,D10,1,A1*%
%TO.N,GND*%
X183550000Y-113840000D03*
%TO.P,D10,2,A2*%
%TO.N,/SD_CLK*%
X183550000Y-113000000D03*
%TD*%
D22*
%TO.P,C3,1*%
%TO.N,VBUS*%
X174630000Y-108200000D03*
%TO.P,C3,2*%
%TO.N,GND*%
X173670000Y-108200000D03*
%TD*%
D25*
%TO.P,R4,1*%
%TO.N,Net-(U3-MAIN_ANT)*%
X206921000Y-103777000D03*
%TO.P,R4,2*%
%TO.N,Net-(J1-In)*%
X206921000Y-104797000D03*
%TD*%
D26*
%TO.P,Q2,1*%
%TO.N,Net-(U3-STATUS)*%
X211661000Y-79986000D03*
%TO.P,Q2,2*%
%TO.N,GND*%
X212661000Y-79986000D03*
%TO.P,Q2,3*%
%TO.N,Net-(Q2-Pad3)*%
X212161000Y-78666000D03*
%TD*%
D27*
%TO.P,C9,1*%
%TO.N,Net-(J1-In)*%
X206921000Y-105752000D03*
%TO.P,C9,2*%
%TO.N,GND*%
X207881000Y-105752000D03*
%TD*%
D28*
%TO.P,U1,1,VIN*%
%TO.N,VBUS*%
X174612500Y-109612500D03*
%TO.P,U1,2,GND*%
%TO.N,GND*%
X173662500Y-109612500D03*
%TO.P,U1,3,EN*%
%TO.N,VBUS*%
X172712500Y-109612500D03*
%TO.P,U1,4,NC*%
%TO.N,unconnected-(U1-NC-Pad4)*%
X172712500Y-111887500D03*
%TO.P,U1,5,VOUT*%
%TO.N,+2V8*%
X174612500Y-111887500D03*
%TD*%
D27*
%TO.P,C17,1*%
%TO.N,Net-(J2-In)*%
X205220000Y-75150000D03*
%TO.P,C17,2*%
%TO.N,GND*%
X206180000Y-75150000D03*
%TD*%
D29*
%TO.P,C5,1*%
%TO.N,VBUS*%
X197196938Y-110600000D03*
%TO.P,C5,2*%
%TO.N,GND*%
X193096938Y-110600000D03*
%TD*%
D15*
%TO.P,C10,1*%
%TO.N,+2V8*%
X175550000Y-113920000D03*
%TO.P,C10,2*%
%TO.N,GND*%
X175550000Y-114880000D03*
%TD*%
D30*
%TO.P,D4,1,A1*%
%TO.N,GND*%
X195002500Y-73910000D03*
%TO.P,D4,2,A2*%
%TO.N,VBUS*%
X195842500Y-73910000D03*
%TD*%
D13*
%TO.P,D5,1,A1*%
%TO.N,GND*%
X186800000Y-113840000D03*
%TO.P,D5,2,A2*%
%TO.N,/SD_DAT1*%
X186800000Y-113000000D03*
%TD*%
D31*
%TO.P,Q4,1*%
%TO.N,/pwrkey_input*%
X171255000Y-76011500D03*
%TO.P,Q4,2*%
%TO.N,GND*%
X171255000Y-77011500D03*
%TO.P,Q4,3*%
%TO.N,Net-(U3-PWRKEY)*%
X172575000Y-76511500D03*
%TD*%
D32*
%TO.P,C4,1*%
%TO.N,VBUS*%
X197196938Y-72400000D03*
%TO.P,C4,2*%
%TO.N,GND*%
X201296938Y-72400000D03*
%TD*%
D33*
%TO.P,D3,1,K*%
%TO.N,VBUS*%
X195410000Y-72230000D03*
%TO.P,D3,2,A*%
%TO.N,GND*%
X192110000Y-72230000D03*
%TD*%
D26*
%TO.P,Q1,1*%
%TO.N,Net-(U3-NETLIGHT)*%
X208188000Y-79986000D03*
%TO.P,Q1,2*%
%TO.N,GND*%
X209188000Y-79986000D03*
%TO.P,Q1,3*%
%TO.N,Net-(Q1-Pad3)*%
X208688000Y-78666000D03*
%TD*%
D34*
%TO.P,D8,1,K*%
%TO.N,/USIM_VDD*%
X175225000Y-72100000D03*
%TO.P,D8,2,A*%
%TO.N,GND*%
X175225000Y-71150000D03*
%TO.P,D8,3,K*%
%TO.N,/USIM_RESET*%
X175225000Y-70200000D03*
%TO.P,D8,4,K*%
%TO.N,/USIM_CLK*%
X172950000Y-70200000D03*
%TO.P,D8,5,K*%
%TO.N,/USIM_DATA*%
X172950000Y-72100000D03*
%TD*%
D31*
%TO.P,Q3,1*%
%TO.N,/reset_input*%
X167561000Y-76076000D03*
%TO.P,Q3,2*%
%TO.N,GND*%
X167561000Y-77076000D03*
%TO.P,Q3,3*%
%TO.N,Net-(U3-RESET)*%
X168881000Y-76576000D03*
%TD*%
D35*
%TO.N,GND*%
X176810000Y-115085000D03*
X171115000Y-78404500D03*
D36*
X186800000Y-114650000D03*
X204296938Y-99000000D03*
X185700000Y-114650000D03*
X182696938Y-76400000D03*
X212661000Y-80786000D03*
D37*
X206625000Y-72125000D03*
D36*
X174096938Y-102000000D03*
X179127430Y-114650000D03*
D37*
X175663000Y-73512000D03*
D36*
X195696938Y-106600000D03*
D37*
X205450000Y-108850000D03*
D36*
X198696938Y-76400000D03*
X175225000Y-71150000D03*
X209188000Y-80786000D03*
X206180000Y-77220000D03*
D37*
X208881000Y-105752000D03*
X208400000Y-108900000D03*
X208881000Y-102822000D03*
D38*
X192796938Y-103500000D03*
D36*
X180200000Y-114650000D03*
X194210000Y-73910000D03*
D38*
X192796938Y-97500000D03*
D36*
X174096938Y-91000000D03*
D38*
X192796938Y-79500000D03*
D39*
X175558606Y-114880534D03*
D36*
X171300000Y-102500000D03*
D37*
X203675000Y-72125000D03*
D36*
X195696938Y-76400000D03*
D35*
X176318000Y-103319000D03*
D37*
X176668000Y-111569000D03*
D36*
X174096938Y-86000000D03*
D39*
X178051599Y-114879525D03*
D36*
X173662500Y-109612500D03*
D35*
X188268000Y-103969000D03*
D36*
X181350000Y-114650000D03*
D40*
X184618000Y-111694000D03*
D38*
X192796938Y-91500000D03*
D41*
X189823000Y-114435000D03*
D36*
X174096938Y-82000000D03*
D35*
X192110000Y-72230000D03*
D37*
X186263000Y-73512000D03*
D36*
X166800000Y-102500000D03*
X174096938Y-83000000D03*
D38*
X201296938Y-68800000D03*
D36*
X204296938Y-82000000D03*
X179653000Y-76358000D03*
X204296938Y-85000000D03*
D35*
X189290000Y-67630000D03*
D36*
X204296938Y-101000000D03*
X198696938Y-106600000D03*
X194696938Y-76400000D03*
X174096938Y-95000000D03*
X181696938Y-76400000D03*
X206200000Y-75950000D03*
X204296938Y-84000000D03*
D38*
X192796938Y-85500000D03*
D37*
X183503000Y-79412000D03*
D35*
X167446000Y-78469000D03*
D36*
X183550000Y-114650000D03*
D38*
X193096938Y-114200000D03*
D36*
X182450000Y-114650000D03*
D35*
%TO.N,/USIM_VDD*%
X183503000Y-67612000D03*
D41*
X187768000Y-78600000D03*
D36*
%TO.N,/reset_input*%
X167561000Y-75576000D03*
X200023000Y-88000000D03*
X189662000Y-88000000D03*
%TO.N,/USB_DP*%
X174096938Y-94000000D03*
%TO.N,/USB_DN*%
X174096938Y-93000000D03*
D35*
%TO.N,/USIM_DATA*%
X178423000Y-79412000D03*
D36*
X174096938Y-98000000D03*
%TO.N,/USIM_CLK*%
X174096938Y-100000000D03*
D35*
X178423000Y-67612000D03*
D36*
%TO.N,/USIM_RESET*%
X174096938Y-99000000D03*
D35*
X180963000Y-67612000D03*
D36*
%TO.N,/SD_CMD*%
X179696938Y-107200000D03*
D40*
X181318000Y-111694000D03*
D36*
%TO.N,/SD_DAT0*%
X180696938Y-107200000D03*
D40*
X185718000Y-111694000D03*
D36*
%TO.N,/SD_DAT1*%
X181696938Y-107200000D03*
D40*
X186818000Y-111694000D03*
%TO.N,/SD_CLK*%
X183518000Y-111694000D03*
%TO.N,/SD_DAT2*%
X179118000Y-111694000D03*
%TO.N,/SD_DAT3*%
X180218000Y-111694000D03*
D36*
%TO.N,/pwrkey_input*%
X189662000Y-89000000D03*
X171255000Y-75511500D03*
X200023000Y-89000000D03*
D35*
%TO.N,Net-(U3-RESET)*%
X168996000Y-78469000D03*
D36*
X174096938Y-85000000D03*
D40*
%TO.N,+2V8*%
X182418000Y-111694000D03*
D39*
X178050000Y-113920000D03*
D38*
%TO.N,VBUS*%
X197157938Y-97500000D03*
X197157938Y-85500000D03*
D42*
X206988000Y-79928500D03*
D38*
X197196938Y-79500000D03*
X197196938Y-114200000D03*
D36*
X174612500Y-109612500D03*
D42*
X210461000Y-79928500D03*
D36*
X172712500Y-109612500D03*
D38*
X197196938Y-68800000D03*
X197196938Y-103500000D03*
X197157938Y-91500000D03*
D36*
X174096938Y-92000000D03*
D35*
%TO.N,Net-(U3-PWRKEY)*%
X172690000Y-78404500D03*
D36*
X174096938Y-84000000D03*
%TO.N,Net-(U3-NETLIGHT)*%
X204296938Y-91000000D03*
X208188000Y-80786000D03*
%TO.N,Net-(U3-STATUS)*%
X204296938Y-93000000D03*
X211661000Y-80786000D03*
%TO.N,Net-(U3-BOOT_CFG0)*%
X204296938Y-81000000D03*
%TD*%
D43*
%TO.N,GND*%
X212661000Y-80786000D02*
X212661000Y-79986000D01*
D44*
X193096938Y-114200000D02*
X193096938Y-110600000D01*
D45*
X171255000Y-77011500D02*
X171255000Y-78289500D01*
D46*
X173662500Y-108207500D02*
X173670000Y-108200000D01*
X206180000Y-77220000D02*
X206180000Y-78000000D01*
D47*
X179150000Y-114636526D02*
X179127430Y-114659096D01*
D46*
X207881000Y-102822000D02*
X208881000Y-102822000D01*
D47*
X195002500Y-73910000D02*
X194210000Y-73910000D01*
D46*
X208881000Y-105752000D02*
X207881000Y-105752000D01*
D47*
X186800000Y-113840000D02*
X186800000Y-114600000D01*
X182450000Y-113840000D02*
X182450000Y-114600000D01*
X183550000Y-113840000D02*
X183550000Y-114650000D01*
D45*
X171255000Y-78289500D02*
X171140000Y-78404500D01*
X167561000Y-78354000D02*
X167561000Y-77076000D01*
D47*
X185700000Y-113840000D02*
X185700000Y-114600000D01*
X181350000Y-113840000D02*
X181350000Y-114653000D01*
D44*
X201296938Y-68800000D02*
X201296938Y-72400000D01*
D47*
X179150000Y-113840000D02*
X180200000Y-113840000D01*
D45*
X167446000Y-78469000D02*
X167561000Y-78354000D01*
D47*
X182450000Y-113840000D02*
X181350000Y-113840000D01*
D46*
X173662500Y-109612500D02*
X173662500Y-108207500D01*
D47*
X180200000Y-113840000D02*
X181350000Y-113840000D01*
X185700000Y-113840000D02*
X186800000Y-113840000D01*
D43*
X209188000Y-79986000D02*
X209188000Y-80786000D01*
D48*
X192796938Y-79500000D02*
X193423000Y-79500000D01*
D49*
X206180000Y-75930000D02*
X206200000Y-75950000D01*
D47*
X180200000Y-113840000D02*
X180200000Y-114653000D01*
D46*
X206180000Y-75150000D02*
X206180000Y-75930000D01*
D47*
X179150000Y-113840000D02*
X179150000Y-114636526D01*
D50*
%TO.N,/USIM_VDD*%
X183503000Y-67612000D02*
X179015000Y-72100000D01*
X179015000Y-72100000D02*
X175225000Y-72100000D01*
X187768000Y-92048000D02*
X187768000Y-78600000D01*
X178816000Y-101000000D02*
X187768000Y-92048000D01*
X174096938Y-101000000D02*
X178816000Y-101000000D01*
D49*
%TO.N,Net-(J1-In)*%
X206921000Y-104797000D02*
X206921000Y-105752000D01*
X206921000Y-105752000D02*
X206921000Y-107292000D01*
D46*
%TO.N,Net-(D1-K)*%
X206988000Y-78958500D02*
X206988000Y-78046000D01*
X206988000Y-78046000D02*
X207668000Y-77366000D01*
%TO.N,Net-(D2-K)*%
X211141000Y-77366000D02*
X210461000Y-78046000D01*
X210461000Y-78046000D02*
X210461000Y-78958500D01*
D43*
%TO.N,Net-(Q1-Pad3)*%
X208688000Y-78666000D02*
X208688000Y-77366000D01*
D46*
%TO.N,/reset_input*%
X200023000Y-88000000D02*
X189662000Y-88000000D01*
D45*
X167561000Y-76076000D02*
X167561000Y-75576000D01*
D50*
%TO.N,/USIM_DATA*%
X172950000Y-73939000D02*
X172950000Y-72100000D01*
X178423000Y-79412000D02*
X172950000Y-73939000D01*
%TO.N,/USIM_CLK*%
X175538000Y-67612000D02*
X172950000Y-70200000D01*
X178423000Y-67612000D02*
X175538000Y-67612000D01*
%TO.N,/USIM_RESET*%
X178375000Y-70200000D02*
X175225000Y-70200000D01*
X180963000Y-67612000D02*
X178375000Y-70200000D01*
D49*
%TO.N,Net-(U3-MAIN_ANT)*%
X206578000Y-102000000D02*
X206921000Y-102343000D01*
X206921000Y-102343000D02*
X206921000Y-102822000D01*
X206921000Y-103777000D02*
X206921000Y-102822000D01*
X204296938Y-102000000D02*
X206578000Y-102000000D01*
D47*
%TO.N,/SD_CMD*%
X181350000Y-113000000D02*
X181350000Y-111726000D01*
X181350000Y-111726000D02*
X181318000Y-111694000D01*
%TO.N,/SD_DAT0*%
X185700000Y-113000000D02*
X185700000Y-111712000D01*
X185700000Y-111712000D02*
X185718000Y-111694000D01*
%TO.N,/SD_DAT1*%
X186800000Y-113000000D02*
X186800000Y-111712000D01*
X186800000Y-111712000D02*
X186818000Y-111694000D01*
D49*
%TO.N,/SD_CLK*%
X184920938Y-109307865D02*
X186051604Y-109307865D01*
X184696938Y-108523865D02*
X184696938Y-108411865D01*
X186051604Y-108747865D02*
X184920938Y-108747865D01*
D47*
X183550000Y-111726000D02*
X183518000Y-111694000D01*
D49*
X184696938Y-108293832D02*
X184696938Y-107200000D01*
X184696938Y-108411865D02*
X184696938Y-108293832D01*
X184696938Y-110030000D02*
X184696938Y-109531865D01*
D47*
X183550000Y-113000000D02*
X183550000Y-111726000D01*
D49*
X186275604Y-109083865D02*
X186275604Y-108971865D01*
X184696938Y-110515062D02*
X184696938Y-110030000D01*
X183518000Y-111694000D02*
X184696938Y-110515062D01*
X184920938Y-108747865D02*
G75*
G02*
X184696935Y-108523865I-38J223965D01*
G01*
X186051604Y-109307865D02*
G75*
G03*
X186275565Y-109083865I-4J223965D01*
G01*
X184696938Y-109531865D02*
G75*
G02*
X184920938Y-109307938I223962J-35D01*
G01*
X186275604Y-108971865D02*
G75*
G03*
X186051604Y-108747896I-224004J-35D01*
G01*
D47*
%TO.N,/SD_DAT2*%
X179150000Y-111726000D02*
X179118000Y-111694000D01*
D49*
X180232771Y-109124232D02*
X180314793Y-109042208D01*
X179118000Y-111694000D02*
X179118000Y-110239000D01*
X179118000Y-110239000D02*
X179494548Y-109862452D01*
X180620000Y-108737000D02*
X181202000Y-108737000D01*
X179173533Y-108885240D02*
X179255558Y-108803216D01*
X180314793Y-109042208D02*
X180337058Y-109019942D01*
X182696938Y-107242062D02*
X182696938Y-107200000D01*
X179583656Y-108803215D02*
X179904673Y-109124232D01*
X179494549Y-109534354D02*
X179173533Y-109213338D01*
X180337058Y-109019942D02*
X180620000Y-108737000D01*
D47*
X179150000Y-113000000D02*
X179150000Y-111726000D01*
D49*
X181202000Y-108737000D02*
X182696938Y-107242062D01*
X179494548Y-109862452D02*
G75*
G03*
X179494552Y-109534352I-164048J164052D01*
G01*
X179173533Y-109213338D02*
G75*
G02*
X179173544Y-108885251I164067J164038D01*
G01*
X179904673Y-109124232D02*
G75*
G03*
X180232771Y-109124232I164049J164050D01*
G01*
X179255558Y-108803216D02*
G75*
G02*
X179583649Y-108803222I164042J-164084D01*
G01*
%TO.N,/SD_DAT3*%
X180850000Y-109393000D02*
X180218000Y-110025000D01*
X182300286Y-108727718D02*
X182215431Y-108812570D01*
X180218000Y-110025000D02*
X180218000Y-111694000D01*
D47*
X180200000Y-113000000D02*
X180200000Y-111712000D01*
D49*
X183696938Y-107200000D02*
X183696938Y-107331062D01*
X182203580Y-108824420D02*
X181635000Y-109393000D01*
X181635000Y-109393000D02*
X180850000Y-109393000D01*
D47*
X180200000Y-111712000D02*
X180218000Y-111694000D01*
D49*
X182215431Y-108812570D02*
X182203580Y-108824420D01*
X183351150Y-108930055D02*
X183266298Y-109014908D01*
X182926886Y-109014909D02*
X182639696Y-108727719D01*
X183063960Y-108303452D02*
X183351151Y-108590643D01*
X183696938Y-107331062D02*
X183063960Y-107964040D01*
X183266298Y-109014908D02*
G75*
G02*
X182926895Y-109014901I-169698J169708D01*
G01*
X182639696Y-108727719D02*
G75*
G03*
X182300296Y-108727727I-169696J-169681D01*
G01*
X183351151Y-108590643D02*
G75*
G02*
X183351102Y-108930007I-169751J-169657D01*
G01*
X183063960Y-107964040D02*
G75*
G03*
X183064006Y-108303406I169740J-169660D01*
G01*
D43*
%TO.N,Net-(Q2-Pad3)*%
X212161000Y-78666000D02*
X212161000Y-77366000D01*
D46*
%TO.N,/pwrkey_input*%
X189662000Y-89000000D02*
X200023000Y-89000000D01*
D45*
X171255000Y-76011500D02*
X171255000Y-75511500D01*
%TO.N,Net-(U3-RESET)*%
X168881000Y-78354000D02*
X168881000Y-76576000D01*
X168996000Y-78469000D02*
X168881000Y-78354000D01*
D46*
%TO.N,+2V8*%
X174612500Y-111887500D02*
X174612500Y-112982500D01*
X175550000Y-113920000D02*
X176425000Y-113920000D01*
X177195000Y-113920000D02*
X176810000Y-113535000D01*
X174612500Y-112982500D02*
X175550000Y-113920000D01*
D47*
X182450000Y-111726000D02*
X182418000Y-111694000D01*
D46*
X176425000Y-113920000D02*
X176810000Y-113535000D01*
D47*
X182450000Y-113000000D02*
X182450000Y-111726000D01*
D46*
X178050000Y-113920000D02*
X177195000Y-113920000D01*
D51*
%TO.N,VBUS*%
X195410000Y-72230000D02*
X197026938Y-72230000D01*
D52*
X197196938Y-114200000D02*
X197196938Y-103500000D01*
D46*
X174630000Y-108200000D02*
X174630000Y-109595000D01*
X174630000Y-109595000D02*
X174612500Y-109612500D01*
D52*
X197196938Y-72400000D02*
X197196938Y-79500000D01*
D47*
X197310000Y-73910000D02*
X197340000Y-73940000D01*
D51*
X197026938Y-72230000D02*
X197196938Y-72400000D01*
D52*
X197196938Y-72400000D02*
X197196938Y-68800000D01*
D47*
X195842500Y-73910000D02*
X197310000Y-73910000D01*
D45*
%TO.N,Net-(U3-PWRKEY)*%
X172575000Y-78289500D02*
X172690000Y-78404500D01*
X172575000Y-76511500D02*
X172575000Y-78289500D01*
D49*
%TO.N,Net-(U3-AUX_ANT)*%
X205220000Y-77100000D02*
X205250000Y-77070000D01*
X205220000Y-78000000D02*
X205220000Y-77100000D01*
X201850000Y-82050000D02*
X201850000Y-80200000D01*
X205220000Y-78830000D02*
X205220000Y-78000000D01*
X204296938Y-83000000D02*
X202800000Y-83000000D01*
X202800000Y-83000000D02*
X201850000Y-82050000D01*
X202500000Y-79550000D02*
X204500000Y-79550000D01*
X201850000Y-80200000D02*
X202500000Y-79550000D01*
X204500000Y-79550000D02*
X205220000Y-78830000D01*
%TO.N,Net-(J2-In)*%
X205220000Y-75150000D02*
X205220000Y-73720000D01*
X205250000Y-76050000D02*
X205250000Y-75180000D01*
X205250000Y-75180000D02*
X205220000Y-75150000D01*
X205220000Y-73720000D02*
X205150000Y-73650000D01*
D45*
%TO.N,Net-(U3-NETLIGHT)*%
X208188000Y-79986000D02*
X208188000Y-80786000D01*
%TO.N,Net-(U3-STATUS)*%
X211661000Y-79986000D02*
X211661000Y-80786000D01*
%TD*%
M02*
