%TF.GenerationSoftware,KiCad,Pcbnew,9.0.4*%
%TF.CreationDate,2025-09-18T11:58:12+02:00*%
%TF.ProjectId,gaia-lte,67616961-2d6c-4746-952e-6b696361645f,1.0*%
%TF.SameCoordinates,Original*%
%TF.FileFunction,Copper,L6,Bot*%
%TF.FilePolarity,Positive*%
%FSLAX46Y46*%
G04 Gerber Fmt 4.6, Leading zero omitted, Abs format (unit mm)*
G04 Created by KiCad (PCBNEW 9.0.4) date 2025-09-18 11:58:12*
%MOMM*%
%LPD*%
G01*
G04 APERTURE LIST*
G04 Aperture macros list*
%AMRoundRect*
0 Rectangle with rounded corners*
0 $1 Rounding radius*
0 $2 $3 $4 $5 $6 $7 $8 $9 X,Y pos of 4 corners*
0 Add a 4 corners polygon primitive as box body*
4,1,4,$2,$3,$4,$5,$6,$7,$8,$9,$2,$3,0*
0 Add four circle primitives for the rounded corners*
1,1,$1+$1,$2,$3*
1,1,$1+$1,$4,$5*
1,1,$1+$1,$6,$7*
1,1,$1+$1,$8,$9*
0 Add four rect primitives between the rounded corners*
20,1,$1+$1,$2,$3,$4,$5,0*
20,1,$1+$1,$4,$5,$6,$7,0*
20,1,$1+$1,$6,$7,$8,$9,0*
20,1,$1+$1,$8,$9,$2,$3,0*%
G04 Aperture macros list end*
%TA.AperFunction,ComponentPad*%
%ADD10R,2.580000X1.000000*%
%TD*%
%TA.AperFunction,SMDPad,CuDef*%
%ADD11R,1.500000X1.500000*%
%TD*%
%TA.AperFunction,SMDPad,CuDef*%
%ADD12RoundRect,0.250000X1.250000X0.550000X-1.250000X0.550000X-1.250000X-0.550000X1.250000X-0.550000X0*%
%TD*%
%TA.AperFunction,SMDPad,CuDef*%
%ADD13RoundRect,0.062500X0.117500X0.062500X-0.117500X0.062500X-0.117500X-0.062500X0.117500X-0.062500X0*%
%TD*%
%TA.AperFunction,SMDPad,CuDef*%
%ADD14RoundRect,0.062500X-0.117500X-0.062500X0.117500X-0.062500X0.117500X0.062500X-0.117500X0.062500X0*%
%TD*%
%TA.AperFunction,SMDPad,CuDef*%
%ADD15RoundRect,0.225000X0.225000X0.250000X-0.225000X0.250000X-0.225000X-0.250000X0.225000X-0.250000X0*%
%TD*%
%TA.AperFunction,SMDPad,CuDef*%
%ADD16RoundRect,0.140000X0.170000X-0.140000X0.170000X0.140000X-0.170000X0.140000X-0.170000X-0.140000X0*%
%TD*%
%TA.AperFunction,SMDPad,CuDef*%
%ADD17R,0.700000X1.750000*%
%TD*%
%TA.AperFunction,SMDPad,CuDef*%
%ADD18R,1.450000X1.000000*%
%TD*%
%TA.AperFunction,SMDPad,CuDef*%
%ADD19R,1.000000X1.550000*%
%TD*%
%TA.AperFunction,SMDPad,CuDef*%
%ADD20R,0.800000X1.500000*%
%TD*%
%TA.AperFunction,SMDPad,CuDef*%
%ADD21R,1.300000X1.500000*%
%TD*%
%TA.AperFunction,SMDPad,CuDef*%
%ADD22R,0.800000X1.400000*%
%TD*%
%TA.AperFunction,SMDPad,CuDef*%
%ADD23R,1.000000X1.100000*%
%TD*%
%TA.AperFunction,SMDPad,CuDef*%
%ADD24R,1.000000X3.000000*%
%TD*%
%TA.AperFunction,ViaPad*%
%ADD25C,0.800000*%
%TD*%
%TA.AperFunction,ViaPad*%
%ADD26C,0.600000*%
%TD*%
%TA.AperFunction,ViaPad*%
%ADD27C,1.000000*%
%TD*%
%TA.AperFunction,ViaPad*%
%ADD28C,3.000000*%
%TD*%
%TA.AperFunction,ViaPad*%
%ADD29C,0.550000*%
%TD*%
%TA.AperFunction,ViaPad*%
%ADD30C,0.700000*%
%TD*%
%TA.AperFunction,ViaPad*%
%ADD31C,1.200000*%
%TD*%
%TA.AperFunction,ViaPad*%
%ADD32C,0.500000*%
%TD*%
%TA.AperFunction,Conductor*%
%ADD33C,2.500000*%
%TD*%
%TA.AperFunction,Conductor*%
%ADD34C,0.200000*%
%TD*%
%TA.AperFunction,Conductor*%
%ADD35C,1.000000*%
%TD*%
%TA.AperFunction,Conductor*%
%ADD36C,0.400000*%
%TD*%
%TA.AperFunction,Conductor*%
%ADD37C,0.600000*%
%TD*%
%TA.AperFunction,Conductor*%
%ADD38C,0.500000*%
%TD*%
%TA.AperFunction,Conductor*%
%ADD39C,0.349300*%
%TD*%
G04 APERTURE END LIST*
D10*
%TO.P,J6,1,Pin_1*%
%TO.N,unconnected-(J6-Pin_1-Pad1)*%
X166916938Y-82500000D03*
%TO.P,J6,2,Pin_2*%
%TO.N,unconnected-(J6-Pin_2-Pad2)*%
X171086938Y-82500000D03*
%TO.P,J6,3,Pin_3*%
%TO.N,unconnected-(J6-Pin_3-Pad3)*%
X166916938Y-84500000D03*
%TO.P,J6,4,Pin_4*%
%TO.N,unconnected-(J6-Pin_4-Pad4)*%
X171086938Y-84500000D03*
%TO.P,J6,5,Pin_5*%
%TO.N,unconnected-(J6-Pin_5-Pad5)*%
X166916938Y-86500000D03*
%TO.P,J6,6,Pin_6*%
%TO.N,unconnected-(J6-Pin_6-Pad6)*%
X171086938Y-86500000D03*
%TO.P,J6,7,Pin_7*%
%TO.N,unconnected-(J6-Pin_7-Pad7)*%
X166916938Y-88500000D03*
%TO.P,J6,8,Pin_8*%
%TO.N,GND*%
X171086938Y-88500000D03*
%TO.P,J6,9,Pin_9*%
%TO.N,unconnected-(J6-Pin_9-Pad9)*%
X166916938Y-90500000D03*
%TO.P,J6,10,Pin_10*%
%TO.N,GND*%
X171086938Y-90500000D03*
%TO.P,J6,11,Pin_11*%
%TO.N,unconnected-(J6-Pin_11-Pad11)*%
X166916938Y-92500000D03*
%TO.P,J6,12,Pin_12*%
%TO.N,unconnected-(J6-Pin_12-Pad12)*%
X171086938Y-92500000D03*
%TO.P,J6,13,Pin_13*%
%TO.N,unconnected-(J6-Pin_13-Pad13)*%
X166916938Y-94500000D03*
%TO.P,J6,14,Pin_14*%
%TO.N,unconnected-(J6-Pin_14-Pad14)*%
X171086938Y-94500000D03*
%TO.P,J6,15,Pin_15*%
%TO.N,/USB_DN*%
X166916938Y-96500000D03*
%TO.P,J6,16,Pin_16*%
%TO.N,/USB_DP*%
X171086938Y-96500000D03*
%TO.P,J6,17,Pin_17*%
%TO.N,GND*%
X166916938Y-98500000D03*
%TO.P,J6,18,Pin_18*%
X171086938Y-98500000D03*
%TO.P,J6,19,Pin_19*%
X166916938Y-100500000D03*
%TO.P,J6,20,Pin_20*%
X171086938Y-100500000D03*
%TD*%
%TO.P,J7,1,Pin_1*%
%TO.N,unconnected-(J7-Pin_1-Pad1)*%
X207306938Y-82500000D03*
%TO.P,J7,2,Pin_2*%
%TO.N,unconnected-(J7-Pin_2-Pad2)*%
X211476938Y-82500000D03*
%TO.P,J7,3,Pin_3*%
%TO.N,VBUS*%
X207306938Y-84500000D03*
%TO.P,J7,4,Pin_4*%
%TO.N,unconnected-(J7-Pin_4-Pad4)*%
X211476938Y-84500000D03*
%TO.P,J7,5,Pin_5*%
%TO.N,unconnected-(J7-Pin_5-Pad5)*%
X207306938Y-86500000D03*
%TO.P,J7,6,Pin_6*%
%TO.N,unconnected-(J7-Pin_6-Pad6)*%
X211476938Y-86500000D03*
%TO.P,J7,7,Pin_7*%
%TO.N,unconnected-(J7-Pin_7-Pad7)*%
X207306938Y-88500000D03*
%TO.P,J7,8,Pin_8*%
%TO.N,unconnected-(J7-Pin_8-Pad8)*%
X211476938Y-88500000D03*
%TO.P,J7,9,Pin_9*%
%TO.N,unconnected-(J7-Pin_9-Pad9)*%
X207306938Y-90500000D03*
%TO.P,J7,10,Pin_10*%
%TO.N,unconnected-(J7-Pin_10-Pad10)*%
X211476938Y-90500000D03*
%TO.P,J7,11,Pin_11*%
%TO.N,/pwrkey_input*%
X207306938Y-92500000D03*
%TO.P,J7,12,Pin_12*%
%TO.N,/reset_input*%
X211476938Y-92500000D03*
%TO.P,J7,13,Pin_13*%
%TO.N,GND*%
X207306938Y-94500000D03*
%TO.P,J7,14,Pin_14*%
X211476938Y-94500000D03*
%TO.P,J7,15,Pin_15*%
X207306938Y-96500000D03*
%TO.P,J7,16,Pin_16*%
X211476938Y-96500000D03*
%TO.P,J7,17,Pin_17*%
%TO.N,unconnected-(J7-Pin_17-Pad17)*%
X207306938Y-98500000D03*
%TO.P,J7,18,Pin_18*%
%TO.N,unconnected-(J7-Pin_18-Pad18)*%
X211476938Y-98500000D03*
%TO.P,J7,19,Pin_19*%
%TO.N,unconnected-(J7-Pin_19-Pad19)*%
X207306938Y-100500000D03*
%TO.P,J7,20,Pin_20*%
%TO.N,unconnected-(J7-Pin_20-Pad20)*%
X211476938Y-100500000D03*
%TD*%
D11*
%TO.P,TP1,1,1*%
%TO.N,Net-(U3-BOOT_CFG0)*%
X204300000Y-78910000D03*
%TD*%
D12*
%TO.P,C18,1*%
%TO.N,VBUS*%
X197196938Y-88500000D03*
%TO.P,C18,2*%
%TO.N,GND*%
X192796938Y-88500000D03*
%TD*%
D13*
%TO.P,D7,1,A1*%
%TO.N,/USB_DP*%
X169760000Y-102500000D03*
%TO.P,D7,2,A2*%
%TO.N,GND*%
X170600000Y-102500000D03*
%TD*%
D12*
%TO.P,C7,1*%
%TO.N,VBUS*%
X197196938Y-94500000D03*
%TO.P,C7,2*%
%TO.N,GND*%
X192796938Y-94500000D03*
%TD*%
%TO.P,C6,1*%
%TO.N,VBUS*%
X197196938Y-100500000D03*
%TO.P,C6,2*%
%TO.N,GND*%
X192796938Y-100500000D03*
%TD*%
D14*
%TO.P,D6,1,A1*%
%TO.N,/USB_DN*%
X168247500Y-102500000D03*
%TO.P,D6,2,A2*%
%TO.N,GND*%
X167407500Y-102500000D03*
%TD*%
D15*
%TO.P,C11,1*%
%TO.N,GND*%
X189290000Y-67630000D03*
%TO.P,C11,2*%
%TO.N,/USIM_VDD*%
X187740000Y-67630000D03*
%TD*%
D12*
%TO.P,C14,1*%
%TO.N,VBUS*%
X197196938Y-82500000D03*
%TO.P,C14,2*%
%TO.N,GND*%
X192796938Y-82500000D03*
%TD*%
D16*
%TO.P,C13,1*%
%TO.N,VBUS*%
X174900000Y-92010000D03*
%TO.P,C13,2*%
%TO.N,GND*%
X174900000Y-91050000D03*
%TD*%
D17*
%TO.P,J4,1,DAT2*%
%TO.N,/SD_DAT2*%
X179118000Y-111694000D03*
%TO.P,J4,2,DAT3/CD*%
%TO.N,/SD_DAT3*%
X180218000Y-111694000D03*
%TO.P,J4,3,CMD*%
%TO.N,/SD_CMD*%
X181318000Y-111694000D03*
%TO.P,J4,4,VDD*%
%TO.N,+2V8*%
X182418000Y-111694000D03*
%TO.P,J4,5,CLK*%
%TO.N,/SD_CLK*%
X183518000Y-111694000D03*
%TO.P,J4,6,VSS*%
%TO.N,GND*%
X184618000Y-111694000D03*
%TO.P,J4,7,DAT0*%
%TO.N,/SD_DAT0*%
X185718000Y-111694000D03*
%TO.P,J4,8,DAT1*%
%TO.N,/SD_DAT1*%
X186818000Y-111694000D03*
D18*
%TO.P,J4,9,DET_B*%
%TO.N,unconnected-(J4-DET_B-Pad9)*%
X187943000Y-102469000D03*
D19*
%TO.P,J4,10,DET_A*%
%TO.N,unconnected-(J4-DET_A-Pad10)*%
X176718000Y-100894000D03*
D20*
%TO.P,J4,11,SHIELD*%
%TO.N,GND*%
X188268000Y-103969000D03*
D21*
X188018000Y-111569000D03*
D11*
X176668000Y-111569000D03*
D22*
X176318000Y-103319000D03*
%TD*%
D23*
%TO.P,J5,1,VCC*%
%TO.N,/USIM_VDD*%
X183503000Y-67612000D03*
%TO.P,J5,2,RST*%
%TO.N,/USIM_RESET*%
X180963000Y-67612000D03*
%TO.P,J5,3,CLK*%
%TO.N,/USIM_CLK*%
X178423000Y-67612000D03*
D24*
%TO.P,J5,4,SHIELD*%
%TO.N,GND*%
X186263000Y-73512000D03*
D23*
%TO.P,J5,5,GND*%
X183503000Y-79412000D03*
%TO.P,J5,6,VPP*%
%TO.N,unconnected-(J5-VPP-Pad6)*%
X180963000Y-79412000D03*
%TO.P,J5,7,I/O*%
%TO.N,/USIM_DATA*%
X178423000Y-79412000D03*
D24*
%TO.P,J5,8,SHIELD*%
%TO.N,GND*%
X175663000Y-73512000D03*
%TD*%
D25*
%TO.N,GND*%
X176810000Y-115085000D03*
X171115000Y-78404500D03*
D26*
X186800000Y-114650000D03*
X204296938Y-99000000D03*
X185700000Y-114650000D03*
X182696938Y-76400000D03*
X212661000Y-80786000D03*
D27*
X206625000Y-72125000D03*
D26*
X174096938Y-102000000D03*
X179127430Y-114650000D03*
D27*
X175663000Y-73512000D03*
D26*
X195696938Y-106600000D03*
D27*
X205450000Y-108850000D03*
D26*
X198696938Y-76400000D03*
X175225000Y-71150000D03*
X209188000Y-80786000D03*
X206180000Y-77220000D03*
D27*
X208881000Y-105752000D03*
X208400000Y-108900000D03*
X208881000Y-102822000D03*
D28*
X192796938Y-103500000D03*
D26*
X180200000Y-114650000D03*
X194210000Y-73910000D03*
D28*
X192796938Y-97500000D03*
D26*
X174096938Y-91000000D03*
D28*
X192796938Y-79500000D03*
D29*
X175558606Y-114880534D03*
D26*
X171300000Y-102500000D03*
D27*
X203675000Y-72125000D03*
D26*
X195696938Y-76400000D03*
D25*
X176318000Y-103319000D03*
D27*
X176668000Y-111569000D03*
D26*
X174096938Y-86000000D03*
D29*
X178051599Y-114879525D03*
D26*
X173662500Y-109612500D03*
D25*
X188268000Y-103969000D03*
D26*
X181350000Y-114650000D03*
D30*
X184618000Y-111694000D03*
D28*
X192796938Y-91500000D03*
D31*
X189823000Y-114435000D03*
D26*
X174096938Y-82000000D03*
D25*
X192110000Y-72230000D03*
D27*
X186263000Y-73512000D03*
D26*
X166800000Y-102500000D03*
X174096938Y-83000000D03*
D28*
X201296938Y-68800000D03*
D26*
X204296938Y-82000000D03*
X179653000Y-76358000D03*
X204296938Y-85000000D03*
D25*
X189290000Y-67630000D03*
D26*
X204296938Y-101000000D03*
X198696938Y-106600000D03*
X194696938Y-76400000D03*
X174096938Y-95000000D03*
X181696938Y-76400000D03*
X206200000Y-75950000D03*
X204296938Y-84000000D03*
D28*
X192796938Y-85500000D03*
D27*
X183503000Y-79412000D03*
D25*
X167446000Y-78469000D03*
D26*
X183550000Y-114650000D03*
D28*
X193096938Y-114200000D03*
D26*
X182450000Y-114650000D03*
D25*
%TO.N,/USIM_VDD*%
X183503000Y-67612000D03*
D31*
X187768000Y-78600000D03*
D26*
%TO.N,/reset_input*%
X167561000Y-75576000D03*
X200023000Y-88000000D03*
X189662000Y-88000000D03*
%TO.N,/USB_DP*%
X174096938Y-94000000D03*
%TO.N,/USB_DN*%
X174096938Y-93000000D03*
D25*
%TO.N,/USIM_DATA*%
X178423000Y-79412000D03*
D26*
X174096938Y-98000000D03*
%TO.N,/USIM_CLK*%
X174096938Y-100000000D03*
D25*
X178423000Y-67612000D03*
D26*
%TO.N,/USIM_RESET*%
X174096938Y-99000000D03*
D25*
X180963000Y-67612000D03*
D26*
%TO.N,/SD_CMD*%
X179696938Y-107200000D03*
D30*
X181318000Y-111694000D03*
D26*
%TO.N,/SD_DAT0*%
X180696938Y-107200000D03*
D30*
X185718000Y-111694000D03*
D26*
%TO.N,/SD_DAT1*%
X181696938Y-107200000D03*
D30*
X186818000Y-111694000D03*
%TO.N,/SD_CLK*%
X183518000Y-111694000D03*
%TO.N,/SD_DAT2*%
X179118000Y-111694000D03*
%TO.N,/SD_DAT3*%
X180218000Y-111694000D03*
D26*
%TO.N,/pwrkey_input*%
X189662000Y-89000000D03*
X171255000Y-75511500D03*
X200023000Y-89000000D03*
D25*
%TO.N,Net-(U3-RESET)*%
X168996000Y-78469000D03*
D26*
X174096938Y-85000000D03*
D30*
%TO.N,+2V8*%
X182418000Y-111694000D03*
D29*
X178050000Y-113920000D03*
D28*
%TO.N,VBUS*%
X197157938Y-97500000D03*
X197157938Y-85500000D03*
D32*
X206988000Y-79928500D03*
D28*
X197196938Y-79500000D03*
X197196938Y-114200000D03*
D26*
X174612500Y-109612500D03*
D32*
X210461000Y-79928500D03*
D26*
X172712500Y-109612500D03*
D28*
X197196938Y-68800000D03*
X197196938Y-103500000D03*
X197157938Y-91500000D03*
D26*
X174096938Y-92000000D03*
D25*
%TO.N,Net-(U3-PWRKEY)*%
X172690000Y-78404500D03*
D26*
X174096938Y-84000000D03*
%TO.N,Net-(U3-NETLIGHT)*%
X204296938Y-91000000D03*
X208188000Y-80786000D03*
%TO.N,Net-(U3-STATUS)*%
X204296938Y-93000000D03*
X211661000Y-80786000D03*
%TO.N,Net-(U3-BOOT_CFG0)*%
X204296938Y-81000000D03*
%TD*%
D33*
%TO.N,GND*%
X192796938Y-91500000D02*
X192796938Y-88500000D01*
X192796938Y-88500000D02*
X192796938Y-85500000D01*
X192796938Y-85500000D02*
X192796938Y-82500000D01*
D34*
X167460000Y-102500000D02*
X166800000Y-102500000D01*
D35*
X189823000Y-114435000D02*
X189823000Y-113374000D01*
D33*
X192796938Y-103500000D02*
X192796938Y-100500000D01*
D34*
X170600000Y-102500000D02*
X171300000Y-102500000D01*
D33*
X192796938Y-100500000D02*
X192796938Y-97500000D01*
D36*
X174850000Y-91000000D02*
X174900000Y-91050000D01*
D33*
X192796938Y-94500000D02*
X192796938Y-91500000D01*
X192796938Y-82500000D02*
X192796938Y-79500000D01*
D36*
X174096938Y-91000000D02*
X174850000Y-91000000D01*
D35*
X189823000Y-113374000D02*
X188018000Y-111569000D01*
D33*
X192796938Y-97500000D02*
X192796938Y-94500000D01*
D37*
%TO.N,/USIM_VDD*%
X187768000Y-67612000D02*
X183503000Y-67612000D01*
X187768000Y-78600000D02*
X187768000Y-67612000D01*
D38*
%TO.N,/reset_input*%
X210391000Y-92500000D02*
X211476938Y-92500000D01*
X200023000Y-88000000D02*
X200493000Y-88000000D01*
X171525000Y-74509000D02*
X168628000Y-74509000D01*
X209003000Y-89496000D02*
X209383000Y-89876000D01*
X209383000Y-89876000D02*
X209383000Y-91492000D01*
X201989000Y-89496000D02*
X209003000Y-89496000D01*
X168628000Y-74509000D02*
X167561000Y-75576000D01*
X200493000Y-88000000D02*
X201989000Y-89496000D01*
X189662000Y-88000000D02*
X185016000Y-88000000D01*
X185016000Y-88000000D02*
X171525000Y-74509000D01*
X209383000Y-91492000D02*
X210391000Y-92500000D01*
D34*
%TO.N,/USB_DP*%
X171070188Y-103347252D02*
X170950188Y-103347252D01*
X172510188Y-103870000D02*
X172510188Y-103587245D01*
X169222000Y-96500000D02*
X171086938Y-96500000D01*
X175001803Y-93725001D02*
X175412000Y-94135198D01*
X170350188Y-104110000D02*
X170334188Y-104110000D01*
X169991198Y-104110000D02*
X169222000Y-103340802D01*
X175412000Y-94135198D02*
X175412000Y-101811802D01*
X170710188Y-103587252D02*
X170710188Y-103870000D01*
X171910188Y-103587245D02*
X171910188Y-103870000D01*
X171670188Y-104110000D02*
X171550188Y-104110000D01*
X170470188Y-104110000D02*
X170350188Y-104110000D01*
X169222000Y-102500000D02*
X169222000Y-96500000D01*
X174371937Y-93725001D02*
X175001803Y-93725001D01*
X174096938Y-94000000D02*
X174371937Y-93725001D01*
X169222000Y-102500000D02*
X169760000Y-102500000D01*
X170334188Y-104110000D02*
X169991198Y-104110000D01*
X171310188Y-103870000D02*
X171310188Y-103587252D01*
X175412000Y-101811802D02*
X173113802Y-104110000D01*
X169222000Y-103340802D02*
X169222000Y-102500000D01*
X173113802Y-104110000D02*
X172750188Y-104110000D01*
X172270188Y-103347245D02*
X172150188Y-103347245D01*
X171310188Y-103587252D02*
G75*
G03*
X171070188Y-103347312I-239988J-48D01*
G01*
X171550188Y-104110000D02*
G75*
G02*
X171310200Y-103870000I12J240000D01*
G01*
X172750188Y-104110000D02*
G75*
G02*
X172510200Y-103870000I12J240000D01*
G01*
X172510188Y-103587245D02*
G75*
G03*
X172270188Y-103347212I-239988J45D01*
G01*
X170710188Y-103870000D02*
G75*
G02*
X170470188Y-104109988I-239988J0D01*
G01*
X171910188Y-103870000D02*
G75*
G02*
X171670188Y-104109988I-239988J0D01*
G01*
X172150188Y-103347245D02*
G75*
G03*
X171910245Y-103587245I12J-239955D01*
G01*
X170950188Y-103347252D02*
G75*
G03*
X170710152Y-103587252I12J-240048D01*
G01*
%TO.N,/USB_DN*%
X175188197Y-93274999D02*
X175862000Y-93948802D01*
X168772000Y-96500000D02*
X166916938Y-96500000D01*
X173300198Y-104560000D02*
X169804802Y-104560000D01*
X168772000Y-103527198D02*
X168772000Y-102500000D01*
X175862000Y-93948802D02*
X175862000Y-101998198D01*
X175862000Y-101998198D02*
X173300198Y-104560000D01*
X174096938Y-93000000D02*
X174371937Y-93274999D01*
X169804802Y-104560000D02*
X168772000Y-103527198D01*
X168772000Y-102500000D02*
X168772000Y-96500000D01*
X174371937Y-93274999D02*
X175188197Y-93274999D01*
X168300000Y-102500000D02*
X168772000Y-102500000D01*
D39*
%TO.N,/SD_CMD*%
X179696938Y-109391938D02*
X179696938Y-109310000D01*
X179696938Y-107658000D02*
X179696938Y-107540000D01*
X181318000Y-111694000D02*
X181318000Y-111013000D01*
X178696551Y-108248000D02*
X178696551Y-108130000D01*
X179932938Y-108484000D02*
X179460938Y-108484000D01*
X181318000Y-111013000D02*
X179696938Y-109391938D01*
X179932938Y-109074000D02*
X180461287Y-109074000D01*
X179696938Y-107540000D02*
X179696938Y-107514000D01*
X179460938Y-108484000D02*
X178932551Y-108484000D01*
X178932551Y-107894000D02*
X179460938Y-107894000D01*
X179696938Y-107514000D02*
X179696938Y-107200000D01*
X180461287Y-108484000D02*
X179932938Y-108484000D01*
X180697287Y-108838000D02*
X180697287Y-108720000D01*
X179696938Y-109310000D02*
G75*
G02*
X179932938Y-109074038I235962J0D01*
G01*
X180697287Y-108720000D02*
G75*
G03*
X180461287Y-108484013I-235987J0D01*
G01*
X179460938Y-107894000D02*
G75*
G03*
X179696900Y-107658000I-38J236000D01*
G01*
X180461287Y-109074000D02*
G75*
G03*
X180697300Y-108838000I13J236000D01*
G01*
X178932551Y-108484000D02*
G75*
G02*
X178696600Y-108248000I49J236000D01*
G01*
X178696551Y-108130000D02*
G75*
G02*
X178932551Y-107893951I236049J0D01*
G01*
%TO.N,/SD_DAT0*%
X184324000Y-109597000D02*
X183093938Y-109597000D01*
X182312058Y-109154532D02*
X182060244Y-109406343D01*
X181431028Y-107934090D02*
X180696938Y-107200000D01*
X181720834Y-109406344D02*
X181635981Y-109321491D01*
X183093938Y-109597000D02*
X182651470Y-109154532D01*
X185718000Y-110991000D02*
X184324000Y-109597000D01*
X181635981Y-108982079D02*
X181887792Y-108730265D01*
X185718000Y-111694000D02*
X185718000Y-110991000D01*
X181802941Y-108306003D02*
X181431028Y-107934090D01*
X181887793Y-108390855D02*
X181802941Y-108306003D01*
X182651470Y-109154532D02*
G75*
G03*
X182312058Y-109154532I-169706J-169701D01*
G01*
X181635981Y-109321491D02*
G75*
G02*
X181635996Y-108982094I169719J169691D01*
G01*
X182060244Y-109406343D02*
G75*
G02*
X181720796Y-109406383I-169744J169743D01*
G01*
X181887792Y-108730265D02*
G75*
G03*
X181887753Y-108390896I-169692J169665D01*
G01*
%TO.N,/SD_DAT1*%
X183081000Y-107200000D02*
X181696938Y-107200000D01*
X184615592Y-108734592D02*
X183081000Y-107200000D01*
X186818000Y-110937000D02*
X185467092Y-109586092D01*
X185670800Y-108714873D02*
X185587361Y-108631434D01*
X184632705Y-108751705D02*
X184615592Y-108734592D01*
X185467092Y-109252337D02*
X185670800Y-109048628D01*
X185253606Y-108631434D02*
X185049897Y-108835142D01*
X184716142Y-108835142D02*
X184632705Y-108751705D01*
D34*
X186818000Y-110941943D02*
X186818000Y-111694000D01*
D39*
X186818000Y-111694000D02*
X186818000Y-110937000D01*
X185587361Y-108631434D02*
G75*
G03*
X185253605Y-108631433I-166878J-166877D01*
G01*
X185467092Y-109586092D02*
G75*
G02*
X185467077Y-109252323I166908J166892D01*
G01*
X185670800Y-109048628D02*
G75*
G03*
X185670751Y-108714923I-166900J166828D01*
G01*
X185049897Y-108835142D02*
G75*
G02*
X184716141Y-108835143I-166878J166877D01*
G01*
D38*
%TO.N,/pwrkey_input*%
X184743500Y-89000000D02*
X171255000Y-75511500D01*
X207306938Y-92500000D02*
X207055938Y-92249000D01*
X207055938Y-92249000D02*
X203272000Y-92249000D01*
X189662000Y-89000000D02*
X184743500Y-89000000D01*
X203272000Y-92249000D02*
X200023000Y-89000000D01*
D36*
%TO.N,+2V8*%
X182418000Y-112532000D02*
X182418000Y-111694000D01*
X181030000Y-113920000D02*
X182418000Y-112532000D01*
X178050000Y-113920000D02*
X181030000Y-113920000D01*
D33*
%TO.N,VBUS*%
X197196938Y-79500000D02*
X197196938Y-82500000D01*
X197196938Y-94500000D02*
X197196938Y-100500000D01*
X197196938Y-88500000D02*
X197196938Y-94500000D01*
D36*
X174096938Y-92000000D02*
X174890000Y-92000000D01*
D33*
X197196938Y-82500000D02*
X197196938Y-88500000D01*
D36*
X174890000Y-92000000D02*
X174900000Y-92010000D01*
D33*
X197196938Y-100500000D02*
X197196938Y-103500000D01*
D36*
%TO.N,Net-(U3-BOOT_CFG0)*%
X204296938Y-81000000D02*
X204296938Y-78913062D01*
X204296938Y-78913062D02*
X204300000Y-78910000D01*
%TD*%
M02*
