%TF.GenerationSoftware,KiCad,Pcbnew,9.0.4*%
%TF.CreationDate,2025-09-18T11:58:12+02:00*%
%TF.ProjectId,gaia-lte,67616961-2d6c-4746-952e-6b696361645f,1.0*%
%TF.SameCoordinates,Original*%
%TF.FileFunction,Soldermask,Top*%
%TF.FilePolarity,Negative*%
%FSLAX46Y46*%
G04 Gerber Fmt 4.6, Leading zero omitted, Abs format (unit mm)*
G04 Created by KiCad (PCBNEW 9.0.4) date 2025-09-18 11:58:12*
%MOMM*%
%LPD*%
G01*
G04 APERTURE LIST*
G04 Aperture macros list*
%AMRoundRect*
0 Rectangle with rounded corners*
0 $1 Rounding radius*
0 $2 $3 $4 $5 $6 $7 $8 $9 X,Y pos of 4 corners*
0 Add a 4 corners polygon primitive as box body*
4,1,4,$2,$3,$4,$5,$6,$7,$8,$9,$2,$3,0*
0 Add four circle primitives for the rounded corners*
1,1,$1+$1,$2,$3*
1,1,$1+$1,$4,$5*
1,1,$1+$1,$6,$7*
1,1,$1+$1,$8,$9*
0 Add four rect primitives between the rounded corners*
20,1,$1+$1,$2,$3,$4,$5,0*
20,1,$1+$1,$4,$5,$6,$7,0*
20,1,$1+$1,$6,$7,$8,$9,0*
20,1,$1+$1,$8,$9,$2,$3,0*%
G04 Aperture macros list end*
%ADD10R,2.580000X1.000000*%
%ADD11RoundRect,0.135000X-0.135000X-0.185000X0.135000X-0.185000X0.135000X0.185000X-0.135000X0.185000X0*%
%ADD12RoundRect,0.225000X0.225000X0.250000X-0.225000X0.250000X-0.225000X-0.250000X0.225000X-0.250000X0*%
%ADD13RoundRect,0.062500X-0.062500X0.117500X-0.062500X-0.117500X0.062500X-0.117500X0.062500X0.117500X0*%
%ADD14RoundRect,0.147500X-0.172500X0.147500X-0.172500X-0.147500X0.172500X-0.147500X0.172500X0.147500X0*%
%ADD15RoundRect,0.140000X-0.170000X0.140000X-0.170000X-0.140000X0.170000X-0.140000X0.170000X0.140000X0*%
%ADD16O,2.004000X0.804000*%
%ADD17O,0.804000X2.004000*%
%ADD18RoundRect,0.250000X0.250000X-0.275000X0.250000X0.275000X-0.250000X0.275000X-0.250000X-0.275000X0*%
%ADD19RoundRect,0.250000X0.275000X-0.850000X0.275000X0.850000X-0.275000X0.850000X-0.275000X-0.850000X0*%
%ADD20RoundRect,0.250000X-0.250000X0.275000X-0.250000X-0.275000X0.250000X-0.275000X0.250000X0.275000X0*%
%ADD21RoundRect,0.250000X-0.275000X0.850000X-0.275000X-0.850000X0.275000X-0.850000X0.275000X0.850000X0*%
%ADD22RoundRect,0.140000X0.140000X0.170000X-0.140000X0.170000X-0.140000X-0.170000X0.140000X-0.170000X0*%
%ADD23RoundRect,0.135000X0.185000X-0.135000X0.185000X0.135000X-0.185000X0.135000X-0.185000X-0.135000X0*%
%ADD24RoundRect,0.225000X-0.250000X0.225000X-0.250000X-0.225000X0.250000X-0.225000X0.250000X0.225000X0*%
%ADD25RoundRect,0.135000X-0.185000X0.135000X-0.185000X-0.135000X0.185000X-0.135000X0.185000X0.135000X0*%
%ADD26RoundRect,0.069250X0.207750X-0.437750X0.207750X0.437750X-0.207750X0.437750X-0.207750X-0.437750X0*%
%ADD27RoundRect,0.140000X-0.140000X-0.170000X0.140000X-0.170000X0.140000X0.170000X-0.140000X0.170000X0*%
%ADD28RoundRect,0.150000X-0.150000X0.512500X-0.150000X-0.512500X0.150000X-0.512500X0.150000X0.512500X0*%
%ADD29RoundRect,0.249999X0.450001X1.450001X-0.450001X1.450001X-0.450001X-1.450001X0.450001X-1.450001X0*%
%ADD30RoundRect,0.062500X0.117500X0.062500X-0.117500X0.062500X-0.117500X-0.062500X0.117500X-0.062500X0*%
%ADD31RoundRect,0.069250X-0.437750X-0.207750X0.437750X-0.207750X0.437750X0.207750X-0.437750X0.207750X0*%
%ADD32RoundRect,0.249999X-0.450001X-1.450001X0.450001X-1.450001X0.450001X1.450001X-0.450001X1.450001X0*%
%ADD33RoundRect,0.225000X0.225000X0.375000X-0.225000X0.375000X-0.225000X-0.375000X0.225000X-0.375000X0*%
%ADD34RoundRect,0.150000X0.512500X0.150000X-0.512500X0.150000X-0.512500X-0.150000X0.512500X-0.150000X0*%
G04 APERTURE END LIST*
%TO.C,J2*%
G36*
X204210000Y-73115000D02*
G01*
X206090000Y-73115000D01*
X206090000Y-71025000D01*
X204210000Y-71025000D01*
X204210000Y-73115000D01*
G37*
%TO.C,J1*%
G36*
X207861000Y-107827000D02*
G01*
X205981000Y-107827000D01*
X205981000Y-109917000D01*
X207861000Y-109917000D01*
X207861000Y-107827000D01*
G37*
%TD*%
D10*
%TO.C,J6*%
X166916938Y-82500000D03*
X171086938Y-82500000D03*
X166916938Y-84500000D03*
X171086938Y-84500000D03*
X166916938Y-86500000D03*
X171086938Y-86500000D03*
X166916938Y-88500000D03*
X171086938Y-88500000D03*
X166916938Y-90500000D03*
X171086938Y-90500000D03*
X166916938Y-92500000D03*
X171086938Y-92500000D03*
X166916938Y-94500000D03*
X171086938Y-94500000D03*
X166916938Y-96500000D03*
X171086938Y-96500000D03*
X166916938Y-98500000D03*
X171086938Y-98500000D03*
X166916938Y-100500000D03*
X171086938Y-100500000D03*
%TD*%
%TO.C,J7*%
X207306938Y-82500000D03*
X211476938Y-82500000D03*
X207306938Y-84500000D03*
X211476938Y-84500000D03*
X207306938Y-86500000D03*
X211476938Y-86500000D03*
X207306938Y-88500000D03*
X211476938Y-88500000D03*
X207306938Y-90500000D03*
X211476938Y-90500000D03*
X207306938Y-92500000D03*
X211476938Y-92500000D03*
X207306938Y-94500000D03*
X211476938Y-94500000D03*
X207306938Y-96500000D03*
X211476938Y-96500000D03*
X207306938Y-98500000D03*
X211476938Y-98500000D03*
X207306938Y-100500000D03*
X211476938Y-100500000D03*
%TD*%
D11*
%TO.C,R2*%
X211141000Y-77366000D03*
X212161000Y-77366000D03*
%TD*%
D12*
%TO.C,C15*%
X172690000Y-78404500D03*
X171140000Y-78404500D03*
%TD*%
D13*
%TO.C,D14*%
X182450000Y-113840000D03*
X182450000Y-113000000D03*
%TD*%
%TO.C,D9*%
X185700000Y-113840000D03*
X185700000Y-113000000D03*
%TD*%
D14*
%TO.C,D1*%
X206988000Y-78958500D03*
X206988000Y-79928500D03*
%TD*%
D15*
%TO.C,C12*%
X178050000Y-113920000D03*
X178050000Y-114880000D03*
%TD*%
D13*
%TO.C,D12*%
X180200000Y-113840000D03*
X180200000Y-113000000D03*
%TD*%
D16*
%TO.C,U3*%
X174096938Y-82000000D03*
X174096938Y-83000000D03*
X174096938Y-84000000D03*
X174096938Y-85000000D03*
X174096938Y-86000000D03*
X174096938Y-87000000D03*
X174096938Y-88000000D03*
X174096938Y-89000000D03*
X174096938Y-90000000D03*
X174096938Y-91000000D03*
X174096938Y-92000000D03*
X174096938Y-93000000D03*
X174096938Y-94000000D03*
X174096938Y-95000000D03*
X174096938Y-96000000D03*
X174096938Y-97000000D03*
X174096938Y-98000000D03*
X174096938Y-99000000D03*
X174096938Y-100000000D03*
X174096938Y-101000000D03*
D17*
X179696938Y-106600000D03*
X180696938Y-106600000D03*
X181696938Y-106600000D03*
X182696938Y-106600000D03*
X183696938Y-106600000D03*
X184696938Y-106600000D03*
X185696938Y-106600000D03*
X186696938Y-106600000D03*
X187696938Y-106600000D03*
X188696938Y-106600000D03*
X189696938Y-106600000D03*
X190696938Y-106600000D03*
X191696938Y-106600000D03*
X192696938Y-106600000D03*
X193696938Y-106600000D03*
X194696938Y-106600000D03*
X195696938Y-106600000D03*
X196696938Y-106600000D03*
X197696938Y-106600000D03*
X198696938Y-106600000D03*
D16*
X204296938Y-101000000D03*
X204296938Y-100000000D03*
X204296938Y-99000000D03*
X204296938Y-98000000D03*
X204296938Y-97000000D03*
X204296938Y-96000000D03*
X204296938Y-95000000D03*
X204296938Y-94000000D03*
X204296938Y-93000000D03*
X204296938Y-92000000D03*
X204296938Y-91000000D03*
X204296938Y-90000000D03*
X204296938Y-89000000D03*
X204296938Y-88000000D03*
X204296938Y-87000000D03*
X204296938Y-86000000D03*
X204296938Y-85000000D03*
X204296938Y-84000000D03*
X204296938Y-83000000D03*
X204296938Y-82000000D03*
D17*
X198696938Y-76400000D03*
X197696938Y-76400000D03*
X196696938Y-76400000D03*
X195696938Y-76400000D03*
X194696938Y-76400000D03*
X193696938Y-76400000D03*
X192696938Y-76400000D03*
X191696938Y-76400000D03*
X190696938Y-76400000D03*
X189696938Y-76400000D03*
X188696938Y-76400000D03*
X187696938Y-76400000D03*
X186696938Y-76400000D03*
X185696938Y-76400000D03*
X184696938Y-76400000D03*
X183696938Y-76400000D03*
X182696938Y-76400000D03*
X181696938Y-76400000D03*
X180696938Y-76400000D03*
X179696938Y-76400000D03*
D16*
X174096938Y-102000000D03*
X204296938Y-102000000D03*
D17*
X199696938Y-106600000D03*
X178696938Y-106600000D03*
D16*
X204296938Y-81000000D03*
D17*
X178696938Y-76400000D03*
X199696938Y-76400000D03*
%TD*%
D11*
%TO.C,R1*%
X207668000Y-77366000D03*
X208688000Y-77366000D03*
%TD*%
D13*
%TO.C,D13*%
X179150000Y-113840000D03*
X179150000Y-113000000D03*
%TD*%
D18*
%TO.C,J2*%
X205150000Y-73650000D03*
D19*
X203675000Y-72125000D03*
X206625000Y-72125000D03*
%TD*%
D20*
%TO.C,J1*%
X206921000Y-107292000D03*
D21*
X208396000Y-108817000D03*
X205446000Y-108817000D03*
%TD*%
D22*
%TO.C,C8*%
X207881000Y-102822000D03*
X206921000Y-102822000D03*
%TD*%
D12*
%TO.C,C1*%
X168996000Y-78469000D03*
X167446000Y-78469000D03*
%TD*%
D22*
%TO.C,C16*%
X206180000Y-78000000D03*
X205220000Y-78000000D03*
%TD*%
D23*
%TO.C,R3*%
X205250000Y-77070000D03*
X205250000Y-76050000D03*
%TD*%
D13*
%TO.C,D11*%
X181350000Y-113840000D03*
X181350000Y-113000000D03*
%TD*%
D14*
%TO.C,D2*%
X210461000Y-78958500D03*
X210461000Y-79928500D03*
%TD*%
D24*
%TO.C,C2*%
X176810000Y-113535000D03*
X176810000Y-115085000D03*
%TD*%
D13*
%TO.C,D10*%
X183550000Y-113840000D03*
X183550000Y-113000000D03*
%TD*%
D22*
%TO.C,C3*%
X174630000Y-108200000D03*
X173670000Y-108200000D03*
%TD*%
D25*
%TO.C,R4*%
X206921000Y-103777000D03*
X206921000Y-104797000D03*
%TD*%
D26*
%TO.C,Q2*%
X211661000Y-79986000D03*
X212661000Y-79986000D03*
X212161000Y-78666000D03*
%TD*%
D27*
%TO.C,C9*%
X206921000Y-105752000D03*
X207881000Y-105752000D03*
%TD*%
D28*
%TO.C,U1*%
X174612500Y-109612500D03*
X173662500Y-109612500D03*
X172712500Y-109612500D03*
X172712500Y-111887500D03*
X174612500Y-111887500D03*
%TD*%
D27*
%TO.C,C17*%
X205220000Y-75150000D03*
X206180000Y-75150000D03*
%TD*%
D29*
%TO.C,C5*%
X197196938Y-110600000D03*
X193096938Y-110600000D03*
%TD*%
D15*
%TO.C,C10*%
X175550000Y-113920000D03*
X175550000Y-114880000D03*
%TD*%
D30*
%TO.C,D4*%
X195002500Y-73910000D03*
X195842500Y-73910000D03*
%TD*%
D13*
%TO.C,D5*%
X186800000Y-113840000D03*
X186800000Y-113000000D03*
%TD*%
D31*
%TO.C,Q4*%
X171255000Y-76011500D03*
X171255000Y-77011500D03*
X172575000Y-76511500D03*
%TD*%
D32*
%TO.C,C4*%
X197196938Y-72400000D03*
X201296938Y-72400000D03*
%TD*%
D33*
%TO.C,D3*%
X195410000Y-72230000D03*
X192110000Y-72230000D03*
%TD*%
D26*
%TO.C,Q1*%
X208188000Y-79986000D03*
X209188000Y-79986000D03*
X208688000Y-78666000D03*
%TD*%
D34*
%TO.C,D8*%
X175225000Y-72100000D03*
X175225000Y-71150000D03*
X175225000Y-70200000D03*
X172950000Y-70200000D03*
X172950000Y-72100000D03*
%TD*%
D31*
%TO.C,Q3*%
X167561000Y-76076000D03*
X167561000Y-77076000D03*
X168881000Y-76576000D03*
%TD*%
M02*
